<?xml version="1.0" encoding="UTF-8"?>
<svg id="Layer_1" xmlns="http://www.w3.org/2000/svg" version="1.1" xmlns:xlink="http://www.w3.org/1999/xlink" viewBox="0 0 950 450">
  <!-- Generator: Adobe Illustrator 29.7.1, SVG Export Plug-In . SVG Version: 2.1.1 Build 8)  -->
  <defs>
    <style>
      .st0 {
        fill: url(#linear-gradient2);
      }

      .st1 {
        fill: url(#linear-gradient10);
      }

      .st2 {
        fill: url(#linear-gradient1);
      }

      .st3 {
        fill: url(#linear-gradient9);
      }

      .st4 {
        fill: url(#linear-gradient18);
      }

      .st5 {
        fill: url(#linear-gradient8);
      }

      .st6 {
        fill: url(#linear-gradient11);
      }

      .st7 {
        fill: red;
      }

      .st8 {
        fill: url(#linear-gradient16);
      }

      .st9 {
        fill: url(#linear-gradient12);
      }

      .st10 {
        fill: url(#linear-gradient7);
      }

      .st11 {
        fill: url(#linear-gradient4);
      }

      .st12 {
        fill: url(#linear-gradient14);
      }

      .st13 {
        fill: url(#linear-gradient5);
      }

      .st14 {
        fill: url(#linear-gradient3);
      }

      .st15 {
        fill: url(#linear-gradient15);
      }

      .st16 {
        fill: url(#linear-gradient17);
      }

      .st17 {
        fill: url(#linear-gradient6);
      }

      .st18 {
        fill: url(#linear-gradient13);
      }

      .st19 {
        fill: lime;
      }

      .st20 {
        fill: url(#linear-gradient);
      }
    </style>
    <linearGradient id="linear-gradient" x1="871.4" y1="268.5" x2="797.96" y2="341.94" gradientTransform="translate(876.25 1052.4) rotate(-129.75)" gradientUnits="userSpaceOnUse">
      <stop offset="0" stop-color="#ff00ea"/>
      <stop offset="1" stop-color="#8000ff"/>
    </linearGradient>
    <linearGradient id="linear-gradient1" x1="871.44" y1="268.49" x2="797.9" y2="342.03" xlink:href="#linear-gradient"/>
    <linearGradient id="linear-gradient2" x1="871.45" y1="268.48" x2="797.89" y2="342.04" xlink:href="#linear-gradient"/>
    <linearGradient id="linear-gradient3" x1="871.39" y1="268.5" x2="797.97" y2="341.92" xlink:href="#linear-gradient"/>
    <linearGradient id="linear-gradient4" x1="875.85" y1="296.83" x2="856.55" y2="316.12" xlink:href="#linear-gradient"/>
    <linearGradient id="linear-gradient5" x1="878.89" y1="293.09" x2="852.59" y2="319.38" xlink:href="#linear-gradient"/>
    <linearGradient id="linear-gradient6" x1="794.78" y1="298.31" x2="786.49" y2="306.61" xlink:href="#linear-gradient"/>
    <linearGradient id="linear-gradient7" x1="880.78" y1="290.05" x2="849.63" y2="321.2" xlink:href="#linear-gradient"/>
    <linearGradient id="linear-gradient8" x1="799.92" y1="293.36" x2="781.74" y2="311.54" xlink:href="#linear-gradient"/>
    <linearGradient id="linear-gradient9" x1="881.59" y1="287.48" x2="847.01" y2="322.06" xlink:href="#linear-gradient"/>
    <linearGradient id="linear-gradient10" x1="802.73" y1="290.46" x2="779.29" y2="313.9" xlink:href="#linear-gradient"/>
    <linearGradient id="linear-gradient11" x1="872.59" y1="275.7" x2="835.31" y2="312.98" xlink:href="#linear-gradient"/>
    <linearGradient id="linear-gradient12" x1="805.32" y1="287.86" x2="777.57" y2="315.61" xlink:href="#linear-gradient"/>
    <linearGradient id="linear-gradient13" x1="872.83" y1="273.91" x2="833.48" y2="313.26" xlink:href="#linear-gradient"/>
    <linearGradient id="linear-gradient14" x1="807.94" y1="285.25" x2="776.47" y2="316.72" xlink:href="#linear-gradient"/>
    <linearGradient id="linear-gradient15" x1="873.17" y1="272.69" x2="832.25" y2="313.61" xlink:href="#linear-gradient"/>
    <linearGradient id="linear-gradient16" x1="870.93" y1="269.29" x2="799.1" y2="341.12" xlink:href="#linear-gradient"/>
    <linearGradient id="linear-gradient17" x1="871.22" y1="268.85" x2="798.48" y2="341.59" xlink:href="#linear-gradient"/>
    <linearGradient id="linear-gradient18" x1="871.39" y1="268.56" x2="798.04" y2="341.91" xlink:href="#linear-gradient"/>
  </defs>
  <g>
    <path class="st7" d="M387.77,206.73c-.68-2.84-.52-5.82.51-8.57,1.4-3.74,4.13-6.61,8.09-8.53,3.08-1.49,5.01-4.37,5.03-7.53.02-2.91-1.6-5.39-4.45-6.81-7.07-3.52-11.36-7.97-13.48-14-2.32-6.57-1.52-14.05,2.12-20.01,3.66-5.98,9.84-9.93,16.96-10.85,7.14-.92,14.14,1.34,19.22,6.21,4.98,4.78,7.65,11.77,7.13,18.7-.18,2.46-.36,4.77,1.33,7.03,1.49,1.98,4.5,3.68,6.7,4.33,2.35.7,4.92.23,6.86-1.25,1.88-1.43,2.42-3.32,3-5.32.26-.88.52-1.8.91-2.69,2.41-5.56,8.09-9.18,14.14-9.01,4.49.13,8.66,2.32,11.43,6,2.77,3.67,3.72,8.27,2.61,12.61-1.11,4.34-4.14,7.93-8.31,9.83-4.16,1.9-8.83,1.85-12.83-.15-.18-.09-.37-.18-.55-.28-1.97-1-3.67-1.86-6-1.48-2.69.44-4.97,2.29-5.95,4.84-.41,1.06-.71,2.1-1,3.1-.67,2.31-1.3,4.49-3.08,6.58-2.3,2.71-5.51,4.6-9.04,5.32-1.06.22-2.12.28-3.14.34-2.22.13-4.32.25-6.19,1.9-2.13,1.88-2.51,4.31-2.6,6.45-.3,7-4.9,12.78-11.45,14.38h0c-2.22.51-4.42.54-6.55.09-4.21-.89-7.85-3.61-9.97-7.47-.66-1.21-1.15-2.48-1.46-3.78ZM401.39,180.28c.14.58.21,1.19.21,1.81-.02,3.23-1.99,6.19-5.14,7.71-3.92,1.89-6.61,4.72-7.99,8.42-1.48,3.95-1.14,8.39.94,12.18,2.09,3.81,5.67,6.5,9.83,7.37,2.09.44,4.27.41,6.46-.09,6.46-1.59,11-7.29,11.29-14.2.09-2.18.48-4.66,2.67-6.59,1.93-1.7,4.06-1.82,6.32-1.95,1.02-.06,2.07-.12,3.11-.33,3.48-.71,6.65-2.58,8.92-5.26,1.75-2.06,2.38-4.22,3.04-6.51.29-1.01.6-2.05,1.01-3.12,1.01-2.61,3.35-4.52,6.11-4.97,2.4-.39,4.12.48,6.12,1.49.18.09.36.18.55.27,3.94,1.97,8.55,2.02,12.65.15,4.11-1.88,7.1-5.42,8.2-9.7,1.09-4.28.15-8.81-2.58-12.43-2.74-3.63-6.85-5.79-11.28-5.92-5.97-.17-11.57,3.4-13.95,8.89-.38.89-.65,1.79-.9,2.67-.59,2.03-1.14,3.96-3.07,5.42-2,1.52-4.63,2-7.04,1.29-2.24-.66-5.3-2.39-6.81-4.4-1.74-2.31-1.56-4.67-1.37-7.16.51-6.87-2.13-13.8-7.07-18.54-5.03-4.83-11.97-7.07-19.05-6.16-7.05.91-13.18,4.83-16.81,10.75-3.62,5.9-4.41,13.32-2.1,19.84,2.11,5.98,6.36,10.4,13.38,13.89,2.31,1.15,3.83,2.98,4.35,5.17Z"/>
    <path class="st7" d="M387.73,206.78c-.21-.86-.33-1.74-.38-2.63-.21-4.02,1.25-8.02,4.01-10.99,1.23-1.32,2.83-2.28,4.37-3.2,3.08-1.84,5.98-3.58,5.8-7.95-.18-4.39-3.85-6.45-7.39-8.45-1.83-1.03-3.72-2.1-5.11-3.47-4.94-4.91-7.47-12-6.76-18.98.71-6.98,4.59-13.23,10.65-17.15,6.06-3.91,13.35-4.88,20.01-2.65,6.57,2.2,11.96,7.34,14.44,13.75,1.23,3.19,1.77,6.66,1.54,10.02l-.02.31c-.17,2.53-.32,4.72,1.27,6.9,2.86,3.92,9.35,6.21,13.43,3.3,2-1.43,2.56-3.35,3.16-5.39.24-.82.49-1.67.84-2.51,1.25-3.02,3.48-5.59,6.3-7.23,4.11-2.4,9.03-2.64,13.5-.67,4.36,1.93,7.46,5.59,8.54,10.09.03.12.06.25.08.37.93,4.36-.19,8.9-3.06,12.45-2.88,3.56-7.09,5.6-11.55,5.6-2.26,0-4.53-.53-6.57-1.54-.25-.12-.49-.25-.74-.37-1.87-.95-3.48-1.76-5.7-1.46-4.66.64-5.88,4.32-7.18,8.21-.72,2.17-1.47,4.41-2.86,6.11-2.26,2.76-5.44,4.71-8.95,5.49-1.11.25-2.23.31-3.32.37-2.22.13-4.32.25-6.19,1.84-1.73,1.48-2.57,3.45-2.7,6.37-.16,3.67-1.21,6.69-3.21,9.23-2.01,2.56-4.83,4.42-7.92,5.22-4.28,1.14-8.85.26-12.54-2.43-2.95-2.15-4.98-5.19-5.8-8.58ZM401.53,180.53c.11.46.18.95.2,1.46.19,4.49-2.77,6.26-5.9,8.13-1.53.92-3.12,1.87-4.33,3.17-2.72,2.93-4.16,6.88-3.96,10.84.23,4.37,2.45,8.4,6.1,11.06,3.64,2.65,8.15,3.52,12.36,2.4h0c3.05-.79,5.83-2.62,7.81-5.15,1.97-2.51,3-5.49,3.17-9.12.13-2.99.99-5,2.77-6.52,1.92-1.64,4.05-1.76,6.31-1.89,1.08-.06,2.19-.13,3.29-.37,3.46-.77,6.6-2.69,8.83-5.42,1.37-1.67,2.11-3.9,2.82-6.05,1.26-3.78,2.56-7.69,7.34-8.35,2.28-.32,3.92.51,5.82,1.48.24.12.48.25.73.37,2.01.99,4.25,1.52,6.48,1.52,4.4,0,8.55-2.02,11.39-5.53,2.84-3.51,3.94-7.98,3.02-12.28-.97-4.61-4.08-8.36-8.5-10.32-4.41-1.95-9.26-1.71-13.31.66-2.77,1.62-4.98,4.15-6.21,7.14-.34.83-.59,1.68-.83,2.49-.61,2.07-1.18,4.03-3.24,5.5-4.25,3.03-10.74.73-13.71-3.34-1.64-2.25-1.48-4.47-1.31-7.04l.02-.31c.22-3.33-.31-6.77-1.53-9.93-2.45-6.35-7.8-11.45-14.31-13.63-6.59-2.21-13.82-1.25-19.83,2.63-6.01,3.88-9.86,10.08-10.56,17-.7,6.92,1.81,13.95,6.71,18.82,1.36,1.35,3.24,2.41,5.06,3.44,3.18,1.79,6.45,3.64,7.29,7.15Z"/>
    <path class="st7" d="M387.72,206.78c-.21-.86-.33-1.74-.38-2.63-.21-4.02,1.25-8.03,4.01-10.99,1.23-1.32,2.83-2.28,4.37-3.21,3.08-1.84,5.98-3.58,5.8-7.95-.18-4.39-3.85-6.45-7.39-8.45-1.83-1.03-3.72-2.1-5.11-3.47-4.94-4.91-7.47-12.01-6.77-18.99.71-6.98,4.59-13.23,10.66-17.15,6.06-3.92,13.36-4.88,20.01-2.66,6.57,2.2,11.97,7.34,14.44,13.75,1.23,3.19,1.77,6.66,1.54,10.02l-.02.31c-.17,2.53-.32,4.72,1.27,6.9,2.86,3.92,9.35,6.22,13.44,3.3,2-1.43,2.57-3.35,3.16-5.39.24-.82.49-1.67.84-2.51,1.25-3.03,3.49-5.59,6.3-7.24,4.11-2.4,9.03-2.64,13.5-.67,4.48,1.98,7.63,5.79,8.62,10.46.93,4.36-.19,8.9-3.06,12.45-2.88,3.56-7.09,5.6-11.55,5.6-2.26,0-4.53-.53-6.57-1.54-.25-.12-.49-.25-.74-.37-1.87-.95-3.48-1.76-5.7-1.45-4.66.64-5.88,4.32-7.18,8.22-.72,2.17-1.47,4.41-2.86,6.11-2.26,2.77-5.44,4.72-8.95,5.49-1.11.25-2.23.31-3.32.37-2.22.13-4.33.25-6.19,1.84-1.73,1.48-2.57,3.45-2.7,6.37-.16,3.67-1.21,6.69-3.21,9.24-2.01,2.56-4.83,4.42-7.92,5.23h0c-4.28,1.14-8.85.26-12.54-2.43-2.95-2.15-4.99-5.19-5.8-8.59ZM401.53,180.54c.11.46.18.95.2,1.46.19,4.49-2.77,6.26-5.9,8.13-1.53.92-3.12,1.87-4.33,3.17-2.72,2.93-4.16,6.88-3.96,10.84.23,4.37,2.45,8.41,6.1,11.06,3.64,2.65,8.15,3.52,12.37,2.4h0c3.05-.79,5.83-2.62,7.82-5.16,1.97-2.51,3.01-5.49,3.17-9.12.13-2.99.99-5,2.77-6.52,1.92-1.64,4.05-1.76,6.31-1.89,1.08-.06,2.19-.13,3.29-.37,3.46-.77,6.6-2.69,8.84-5.42,1.37-1.67,2.11-3.9,2.82-6.05,1.26-3.78,2.56-7.69,7.34-8.35,2.29-.32,3.92.51,5.82,1.48.24.12.48.25.73.37,2.01.99,4.25,1.52,6.48,1.52,4.4,0,8.56-2.02,11.4-5.53,2.84-3.51,3.94-7.98,3.02-12.28-.97-4.6-4.08-8.37-8.51-10.32-4.41-1.95-9.26-1.71-13.32.66-2.77,1.62-4.98,4.15-6.21,7.14-.34.83-.59,1.68-.83,2.49-.61,2.07-1.18,4.03-3.24,5.5-4.25,3.03-10.75.73-13.72-3.35-1.63-2.24-1.49-4.46-1.31-7.04l.02-.31c.22-3.33-.31-6.77-1.53-9.94-2.45-6.35-7.8-11.45-14.31-13.63-6.59-2.21-13.82-1.25-19.84,2.63-6.01,3.88-9.86,10.08-10.57,17-.7,6.92,1.81,13.96,6.71,18.82,1.36,1.35,3.24,2.41,5.06,3.44,3.18,1.79,6.45,3.64,7.3,7.15Z"/>
    <path class="st7" d="M387.78,206.72c-.68-2.84-.52-5.82.51-8.57,1.4-3.74,4.13-6.61,8.09-8.52,3.08-1.49,5.01-4.37,5.03-7.53.02-2.91-1.6-5.39-4.45-6.81-7.07-3.52-11.35-7.97-13.48-14-2.32-6.57-1.52-14.05,2.12-20,3.66-5.98,9.84-9.93,16.95-10.85,7.13-.92,14.14,1.34,19.21,6.21,4.98,4.78,7.64,11.77,7.13,18.69-.18,2.45-.36,4.77,1.33,7.03,1.49,1.98,4.5,3.68,6.7,4.33,2.35.7,4.92.23,6.86-1.25,1.88-1.43,2.42-3.32,3-5.32.26-.88.52-1.8.91-2.69,2.41-5.56,8.09-9.18,14.13-9.01,4.49.13,8.66,2.32,11.43,6,2.77,3.67,3.72,8.27,2.61,12.6-1.11,4.34-4.14,7.93-8.31,9.83-4.16,1.9-8.83,1.85-12.83-.15-.18-.09-.37-.18-.55-.27-1.97-1-3.67-1.86-6-1.48-2.69.44-4.97,2.29-5.95,4.84-.41,1.06-.71,2.1-1,3.1-.67,2.31-1.3,4.49-3.08,6.58-2.3,2.71-5.51,4.6-9.03,5.32-1.06.22-2.12.28-3.14.34-2.22.13-4.32.25-6.19,1.9-2.13,1.88-2.51,4.31-2.6,6.45-.3,6.99-4.9,12.77-11.45,14.38h0c-2.22.51-4.42.54-6.55.09-4.21-.89-7.84-3.61-9.96-7.47-.66-1.21-1.15-2.48-1.46-3.78ZM401.4,180.28c.14.58.21,1.19.21,1.81-.02,3.23-1.99,6.19-5.14,7.71-3.92,1.89-6.6,4.72-7.99,8.41-1.48,3.95-1.14,8.39.94,12.18,2.09,3.81,5.67,6.5,9.83,7.37,2.1.44,4.27.41,6.46-.09,6.46-1.59,11-7.29,11.29-14.19.09-2.18.48-4.66,2.67-6.59,1.93-1.7,4.06-1.82,6.31-1.95,1.01-.06,2.07-.12,3.11-.33,3.48-.71,6.65-2.58,8.92-5.26,1.75-2.06,2.38-4.22,3.04-6.5.29-1.01.6-2.05,1.01-3.12,1-2.61,3.35-4.52,6.11-4.97,2.4-.39,4.12.48,6.12,1.49.18.09.36.18.55.27,3.94,1.97,8.55,2.02,12.65.15,4.11-1.88,7.1-5.42,8.2-9.7,1.09-4.28.15-8.81-2.58-12.43-2.74-3.63-6.85-5.79-11.28-5.92-5.97-.17-11.57,3.4-13.94,8.89-.38.89-.65,1.79-.9,2.67-.59,2.03-1.14,3.95-3.07,5.42-2,1.52-4.63,2-7.04,1.28-2.24-.66-5.29-2.39-6.81-4.4-1.74-2.31-1.56-4.67-1.37-7.16.51-6.87-2.13-13.8-7.07-18.53-5.03-4.83-11.97-7.07-19.05-6.16-7.05.91-13.18,4.83-16.81,10.75-3.62,5.9-4.41,13.32-2.1,19.83,2.11,5.98,6.36,10.39,13.38,13.89,2.3,1.15,3.83,2.98,4.35,5.17Z"/>
    <path class="st7" d="M397.43,157.83c-.49-2.03-.44-4.17.46-6.45h0c1.34-2.97,3.76-4.88,6.83-5.37,3.35-.53,6.95.8,9.39,3.48,2.97,3.26,4.37,7.75,5.73,12.1.51,1.63.99,3.17,1.55,4.65.24.64.51,1.27.79,1.94.99,2.36,2.02,4.79,1.88,7.29-.18,3.2-2.54,5.83-5.74,6.41-3.59.65-5.69-1.98-7.53-4.73-1.81-2.7-3.64-5.13-5.6-7.43-.28-.33-.58-.67-.87-1.01-2.83-3.28-5.92-6.86-6.89-10.88ZM398.07,151.46c-2.63,6.68,2.16,12.22,6.39,17.12.3.34.59.68.87,1.01,1.97,2.3,3.81,4.74,5.62,7.45,1.8,2.69,3.85,5.27,7.33,4.65,3.11-.56,5.4-3.12,5.58-6.22.13-2.45-.88-4.86-1.87-7.2-.28-.67-.55-1.31-.8-1.95-.56-1.48-1.04-3.02-1.55-4.66-1.35-4.32-2.75-8.8-5.69-12.02-2.4-2.63-5.92-3.94-9.21-3.42-2.99.48-5.36,2.34-6.67,5.24Z"/>
    <path class="st7" d="M393.21,158.14c-.53-2.22-.54-4.59-.03-7.31v-.02c1.98-5.59,6.42-9.12,11.9-9.44,5.78-.34,11.29,3.06,14.04,8.67,1.18,2.41,1.91,5.02,2.62,7.54.72,2.58,1.47,5.25,2.7,7.7.52,1.03,1.14,2.06,1.81,3.14,2.28,3.74,4.64,7.61,2.63,11.92-2.36,5.06-11.25,9.33-16.39,7.89-.47-.25-.89-.55-1.27-.88l-.02-.03c-.22-.39-.48-.76-.77-1.09l-.02-.03c-.22-.58-.43-1.15-.65-1.73-1.44-3.89-2.93-7.9-5.56-11.26-1.17-1.49-2.51-2.88-3.8-4.22-2.43-2.52-4.95-5.13-6.41-8.51-.33-.77-.59-1.54-.78-2.34ZM393.38,150.88c-.68,3.65-.43,6.68.8,9.53,1.44,3.35,3.95,5.94,6.37,8.45,1.3,1.34,2.64,2.73,3.82,4.23,2.65,3.38,4.14,7.41,5.59,11.31.21.57.42,1.14.64,1.71.29.34.55.71.77,1.1.37.32.77.6,1.2.84,5.05,1.42,13.8-2.8,16.13-7.79,1.97-4.21-.36-8.03-2.62-11.73-.66-1.09-1.29-2.12-1.81-3.16-1.24-2.47-1.99-5.15-2.71-7.74-.7-2.51-1.43-5.11-2.6-7.5-2.71-5.53-8.15-8.89-13.85-8.56-5.39.31-9.76,3.79-11.71,9.3Z"/>
    <path class="st7" d="M390.27,158.11c-.82-3.43-.52-6.98.94-10.83h0c3.72-7.02,10.75-10.54,17.91-8.96,6.17,1.35,11.12,6.28,13.25,13.18.45,1.46.77,2.98,1.08,4.44.34,1.61.69,3.28,1.22,4.88.98,2.97,2.67,5.47,4.9,8.3.14.18.28.36.43.54,1.89,2.37,3.84,4.83,3.56,8.17-.27,3.33-2.29,6.58-5.38,8.71-1.96,1.35-4.22,2.23-6.39,3.07-1.09.43-2.22.86-3.3,1.36-2.99,1.37-6.04,3-9.06,4.86-.4.15-.79.3-1.16.46l-.16.05-1.66-.77-.08-1.26-.2-.48.16-.71c-.02-.36-.03-.73-.03-1.1l-.02-.08v-.03c.19-.58.25-1.19.18-1.77v-.04c.15-.58.2-1.16.14-1.66v-.03c.85-5.35-1.15-11.31-5.2-15.55-.96-1-1.96-1.96-2.93-2.89-3.48-3.33-6.77-6.48-8.1-11.49-.03-.12-.06-.24-.09-.37ZM391.39,147.36c-1.51,4-1.77,7.53-.84,11.07,1.31,4.95,4.58,8.08,8.04,11.39.97.93,1.98,1.89,2.94,2.9,4.1,4.29,6.11,10.31,5.26,15.71.06.52.01,1.11-.14,1.71.07.6.01,1.22-.17,1.81v.04c.01.39.02.77.04,1.13v.03s-.15.66-.15.66l.19.45v.02s.08,1.16.08,1.16l1.48.69.07-.02c.37-.15.75-.31,1.14-.45,3.02-1.85,6.07-3.49,9.07-4.86,1.08-.49,2.21-.94,3.31-1.36,2.17-.84,4.41-1.72,6.35-3.05,3.05-2.09,5.02-5.29,5.29-8.56.27-3.26-1.57-5.58-3.52-8.03-.14-.18-.29-.36-.43-.54-2.25-2.85-3.94-5.36-4.94-8.36-.53-1.6-.88-3.28-1.23-4.9-.31-1.46-.63-2.98-1.08-4.42-2.11-6.83-7-11.7-13.1-13.04-7.06-1.55-14.01,1.92-17.68,8.84Z"/>
    <path class="st7" d="M398.1,203.15c-.82-3.41,1.3-6.59,3.37-9.69l.08-.11c2.59-3.88,3.61-7.36,3.19-10.96-.61-5.32-4.11-8.35-7.82-11.57-2.27-1.97-4.62-4.01-6.26-6.62-2.91-4.64-3.8-10.18-2.44-15.19h0c2.64-9.49,12.48-15.22,21.93-12.77,10.72,2.78,13.84,12.99,14.74,18.83.58,3.76,1.31,7.38,3.85,10.52.77.95,1.76,1.86,2.81,2.82,2.35,2.16,4.79,4.39,5.02,7.39.3,3.82-1.68,8.3-4.92,11.15-2.2,1.94-4.91,2.89-7.52,3.81-1.13.4-2.29.81-3.41,1.3-3.96,1.73-7.05,4.57-9.72,8.94-2.15,3.52-4.4,5.55-6.7,6.04-1.61.34-3.26-.06-4.92-1.2l-.02-.02c-.65-.91-1.05-1.79-1.26-2.67ZM404.67,180.78c.12.51.22,1.04.28,1.59.42,3.65-.61,7.17-3.23,11.09l-.08.11c-2.56,3.83-5.2,7.78-2.13,12.11,1.6,1.1,3.2,1.49,4.74,1.16,2.24-.48,4.45-2.48,6.57-5.95,2.69-4.41,5.81-7.28,9.81-9.02,1.12-.49,2.29-.9,3.42-1.3,2.6-.92,5.28-1.86,7.45-3.78,3.15-2.77,5.14-7.29,4.85-10.98-.23-2.92-2.63-5.12-4.96-7.25-1.05-.97-2.05-1.88-2.83-2.84-2.57-3.17-3.3-6.83-3.89-10.61-.9-5.79-3.99-15.92-14.59-18.66-9.35-2.42-19.08,3.24-21.69,12.63-1.35,4.96-.47,10.43,2.42,15.02,1.63,2.59,3.96,4.62,6.23,6.58,3.35,2.91,6.54,5.67,7.61,10.1Z"/>
    <path class="st7" d="M452.93,166.04c-.02-.07-.03-.15-.05-.22-.03-3.49,1.76-6.72,4.67-8.44h0c2.82-1.49,6.28-1.04,8.61,1.13,2.19,2.03,2.77,4.93,1.54,7.75-1.02,2.34-3.04,3.86-5.67,4.27-3.15.49-6.5-.69-8.55-3.02v-.02c-.26-.49-.45-.98-.56-1.45ZM457.65,157.55c-2.85,1.69-4.61,4.84-4.57,8.24.1.51.29,1.05.57,1.59,2,2.27,5.28,3.42,8.35,2.94,2.56-.4,4.52-1.88,5.52-4.15,1.19-2.74.64-5.55-1.49-7.52-2.27-2.11-5.64-2.55-8.38-1.1Z"/>
    <path class="st7" d="M394.21,204.69c-.33-1.38-.33-2.88.05-4.39.75-2.99,2.73-5.25,4.66-7.45,2.43-2.77,4.72-5.38,4.81-9.35.13-5.63-3.51-8.47-7.37-11.48-1.09-.85-2.23-1.74-3.27-2.69-5.85-5.34-8.37-13.16-6.57-20.42.47-1.89,1.22-3.72,2.16-5.3h0c4.04-6.49,11-9.98,18.62-9.32,7.62.66,14.14,5.48,17.02,12.58,1.01,2.5,1.39,5.12,1.76,7.66.64,4.41,1.25,8.58,4.96,11.9.78.7,1.74,1.35,2.76,2.03,1.88,1.26,3.82,2.57,4.78,4.33,1.58,2.91-.5,7.97-1.87,10.73-1.67,3.35-4.42,5.88-7.95,7.32-1.24.5-2.54.86-3.79,1.21-1.88.52-3.82,1.06-5.55,2.08-3.18,1.88-4.66,4.98-6.09,7.98-1.28,2.69-2.61,5.48-5.17,7.39-3.13,2.35-7.07,2.48-10.27.36-1.92-1.27-3.18-3.11-3.68-5.19ZM403.63,180.62c.21.88.32,1.84.29,2.89-.09,4.04-2.51,6.8-4.86,9.47-1.91,2.18-3.88,4.43-4.61,7.36-.93,3.7.43,7.29,3.55,9.36,3.13,2.08,6.97,1.94,10.03-.35,2.52-1.89,3.83-4.65,5.11-7.32,1.44-3.02,2.93-6.15,6.17-8.06,1.76-1.04,3.71-1.58,5.6-2.1,1.25-.35,2.54-.71,3.77-1.21,3.53-1.44,6.17-3.87,7.84-7.22,1.36-2.72,3.41-7.72,1.88-10.55-.93-1.72-2.85-3.01-4.71-4.26-1.02-.69-1.99-1.34-2.78-2.05-3.77-3.37-4.38-7.57-5.03-12.03-.37-2.52-.75-5.14-1.75-7.61-2.85-7.03-9.31-11.81-16.85-12.46-7.54-.65-14.43,2.8-18.43,9.23-.93,1.56-1.67,3.37-2.14,5.24-1.78,7.18.71,14.93,6.51,20.22,1.04.95,2.17,1.83,3.26,2.68,3.18,2.48,6.22,4.85,7.16,8.75Z"/>
    <path class="st7" d="M448.82,168.51v-.02c-.14-5.28,3.38-12.41,8.82-14.61h0c2.74-1.08,5.84-.88,8.49.57,2.72,1.48,4.62,4.04,5.23,7,.61,3-.22,6.08-2.27,8.45-2.22,2.56-5.55,3.98-8.91,3.79-2.29-.13-4.34-1.03-6.32-1.91-.95-.42-1.94-.86-2.94-1.2l-.03-.02c-.35-.31-.74-.56-1.16-.74l-.04-.03c-.33-.39-.61-.81-.86-1.25v-.02ZM457.72,154.07c-5.36,2.16-8.82,9.18-8.7,14.39.23.42.5.81.81,1.18.43.19.83.44,1.18.75,1.01.35,1.99.78,2.94,1.2,1.96.87,3.99,1.77,6.25,1.89,3.3.18,6.57-1.21,8.75-3.72,2.04-2.35,2.83-5.29,2.22-8.27-.59-2.92-2.46-5.42-5.13-6.87-2.6-1.41-5.64-1.62-8.32-.56Z"/>
    <path class="st7" d="M391.85,205.71c-1.06-4.41.66-9.02,4.8-12.75l.09-.08c3.32-2.99,6.45-5.81,6.18-10.65-.27-4.82-3.63-7.13-7.19-9.57-.28-.2-.57-.39-.86-.59-8.93-6.2-12.48-17.06-8.65-26.4.46-1.13,1.01-2.2,1.64-3.19h0c5.78-9.16,17.77-12.45,27.29-7.49,4.6,2.4,8.17,6.31,10.05,11.02.94,2.35,1.52,4.92,1.74,7.67.04.55.07,1.1.1,1.63.11,2.12.22,4.13,1.08,6.07,1.99,4.48,6.76,6.77,10.97,8.79l.53.25c.38.22.74.45,1.1.67l.03.03c.28.38.57.77.86,1.15l.02.02.05.79c-.96,4.4-2.43,9.94-5.21,13.71-2.95,3.99-6.89,5.04-11.05,6.14-.8.21-1.63.43-2.46.68-4.15,1.21-6.92,4.22-8.47,9.21-1.23,3.95-3.54,9.37-9.42,10.84-5.48,1.38-11.31-1.84-13-7.17-.08-.26-.16-.52-.22-.79ZM402.86,180.45c.13.55.22,1.15.26,1.78.28,4.93-2.89,7.78-6.25,10.81l-.09.08c-4.32,3.9-5.96,8.76-4.52,13.32,1.66,5.23,7.38,8.38,12.76,7.03,5.78-1.45,8.06-6.81,9.28-10.71,1.57-5.06,4.39-8.11,8.61-9.34.84-.24,1.67-.46,2.47-.68,4.31-1.14,8.04-2.13,10.94-6.07,2.76-3.73,4.21-9.23,5.17-13.61l-.05-.69c-.28-.37-.56-.74-.83-1.11-.36-.22-.72-.44-1.08-.66l-.52-.25c-4.24-2.03-9.05-4.34-11.07-8.89-.88-1.98-.99-4.1-1.1-6.14-.03-.53-.06-1.08-.1-1.63-.21-2.72-.79-5.28-1.72-7.61-1.87-4.66-5.4-8.54-9.96-10.92-9.43-4.91-21.3-1.65-27.03,7.42-.62.98-1.16,2.05-1.62,3.16-3.8,9.26-.27,20.01,8.58,26.16.29.2.57.39.86.59,3.14,2.15,6.12,4.2,7.02,7.94Z"/>
    <path class="st7" d="M390.25,205.85c-.74-3.07-.29-6.34,1.4-9.21,1.19-2.01,3.05-3.46,4.85-4.85,2.15-1.67,4.19-3.25,5.2-5.74,1.74-4.25.02-8.91-4.27-11.58-4.37-2.72-8.2-5.35-10.82-9.9-2.63-4.58-3.54-10.18-2.48-15.35.3-1.45.75-2.91,1.36-4.35h0c4.74-10.64,16.9-15.83,27.7-11.81,4.88,1.81,8.99,5.35,11.57,9.95,1.36,2.42,2.3,5.25,2.71,8.18.17,1.21.17,2.46.18,3.66,0,1.37.01,2.8.27,4.16,1.13,6.16,7.96,8.9,11.94,9.98h.6s.36.12.36.12c.3-.05.6-.05.9,0l.18-.06.76.13.65-.27.15-.02.25-.16.59-.07.26-.25.48-.24c1.78-1.86,2.74-4.21,3.67-6.48.93-2.28,1.9-4.64,3.68-6.51,3.53-3.72,9.03-4.93,13.67-3.01,4.78,1.97,7.58,6.48,7.3,11.76-.27,5.3-3.65,9.67-8.6,11.13-3.89,1.15-7.44-.09-10.88-1.29-1.54-.54-3.12-1.09-4.74-1.44-.32.03-.63.02-.94-.04l-.19.03-.76-.13-.71.26h-.1s-.13.08-.13.08l-.72.07-.34.32-.41.15-.49.56-.2.12c-1.78,2.16-2.7,4.69-3.59,7.13-.77,2.11-1.56,4.29-2.91,6.24-3.22,4.67-8.12,6.05-12.95,6.85-4.92.81-7.99,3.81-9.14,8.91-.97,4.3-2.8,9.54-8.46,11.9-5.96,2.49-11.11-.11-13.94-3.36-1.45-1.67-2.43-3.58-2.91-5.57ZM402.33,180.63c.43,1.79.3,3.68-.44,5.5-1.03,2.54-3.19,4.2-5.27,5.82-1.78,1.38-3.63,2.82-4.8,4.8-2.74,4.65-2.16,10.36,1.48,14.54,2.79,3.2,7.85,5.75,13.71,3.31,5.58-2.33,7.39-7.5,8.34-11.76,1.17-5.19,4.29-8.24,9.3-9.07,4.78-.79,9.64-2.16,12.82-6.76,1.33-1.93,2.12-4.1,2.88-6.2.9-2.46,1.83-5.01,3.64-7.2l.02-.02.2-.12.52-.58.41-.15.34-.34.75-.07.14-.08h.12s.73-.27.73-.27l.79.14.19-.03c.3.06.61.07.91.04h.03c1.63.35,3.23.91,4.78,1.45,3.56,1.25,6.93,2.42,10.75,1.29,4.87-1.44,8.19-5.74,8.46-10.95.21-4.07-1.56-9.25-7.18-11.57-4.57-1.89-9.97-.7-13.45,2.96-1.76,1.85-2.72,4.19-3.64,6.45-.94,2.3-1.91,4.67-3.72,6.56l-.03.02-.49.24-.27.27-.61.07-.25.16-.17.02-.68.28-.77-.13-.18.06h-.02c-.29-.05-.59-.04-.89,0h-.05s-.36-.13-.36-.13h-.59c-4.02-1.08-10.94-3.84-12.1-10.13-.25-1.38-.26-2.81-.27-4.2,0-1.2-.01-2.43-.18-3.64-.4-2.9-1.33-5.7-2.68-8.1-2.56-4.56-6.63-8.06-11.47-9.86-10.69-3.98-22.75,1.16-27.44,11.7-.6,1.42-1.06,2.87-1.35,4.31-1.04,5.12-.14,10.67,2.46,15.21,2.59,4.51,6.4,7.12,10.75,9.83,2.54,1.58,4.2,3.85,4.8,6.33Z"/>
    <path class="st7" d="M389.05,206.39c-.2-.84-.32-1.71-.36-2.58-.16-4.1,1.64-8.25,4.83-11.1.97-.87,2-1.56,2.99-2.23,2.12-1.42,4.12-2.77,5.15-5.57.76-3.19-.01-6.25-2.14-8.39-1.27-1.28-2.91-2.18-4.49-3.06-1.36-.75-2.76-1.53-3.94-2.54-5.44-4.63-8.47-11.58-8.09-18.6.21-3.84,1.47-7.74,3.57-10.98h0c2.85-4.42,7.22-7.72,12.31-9.3,5.1-1.58,10.57-1.33,15.41.7,4.96,2.09,9.15,6.01,11.5,10.76,1.15,2.32,1.91,4.79,2.25,7.34.18,1.33.15,2.68.12,3.98-.03,1.17-.06,2.37.07,3.55.57,5.33,6.01,8.68,11.15,9.62.33-.04.66-.02.98.06l.88-.18.95-.06c.26-.15.54-.28.83-.37.25-.19.54-.33.85-.41,2.44-1.58,3.43-4.16,4.46-6.89.79-2.07,1.6-4.21,3.12-5.86,3.72-4.05,9.67-5.43,14.81-3.44,5.16,2,8.39,6.79,8.43,12.5.04,5.65-3.1,10.43-8.18,12.48-2.83,1.14-6,1.32-8.94.51-1.12-.31-2.18-.76-3.22-1.2-1.47-.62-2.99-1.27-4.63-1.48-.32.04-.64.04-.96,0-.31.04-.63.05-.94,0l-.68.24h-.17s-.21.12-.21.12l-.67.13-.33.24-.5.19c-2.62,2.01-3.4,4.43-4.3,7.22-.21.64-.42,1.3-.66,1.98-1.21,3.39-3.49,6.28-6.41,8.12-2.2,1.39-4.8,1.9-7.31,2.4-4.45.88-8.65,1.7-9.99,7.29-.2.82-.35,1.63-.51,2.41-.49,2.55-.96,4.95-2.67,7.25-2.26,3.04-5.64,5.07-9.27,5.55-3.76.5-7.6-.64-10.55-3.12-2.27-1.91-3.84-4.47-4.52-7.28ZM401.91,180.39c.34,1.43.34,2.99-.04,4.58-1.06,2.88-3.09,4.24-5.23,5.68-.99.66-2.01,1.35-2.97,2.21-3.15,2.81-4.93,6.9-4.77,10.94.15,3.73,1.9,7.27,4.8,9.72,2.9,2.44,6.69,3.56,10.39,3.07,3.58-.47,6.91-2.47,9.14-5.47,1.68-2.27,2.15-4.65,2.64-7.17.15-.79.31-1.6.51-2.42,1.37-5.71,5.64-6.55,10.15-7.44,2.49-.49,5.08-1,7.25-2.37,2.88-1.82,5.13-4.67,6.33-8.02.24-.68.45-1.34.66-1.98.91-2.83,1.7-5.28,4.38-7.33h.03s.5-.2.5-.2l.34-.24.68-.14.22-.11h.18s.71-.27.71-.27h.02c.31.05.63.04.93,0h.03c.31.05.62.05.93,0h.03c1.68.21,3.21.87,4.7,1.5,1.03.44,2.09.89,3.19,1.19,2.9.8,6.03.62,8.81-.51,5.01-2.02,8.09-6.73,8.05-12.29-.04-5.63-3.22-10.35-8.3-12.31-5.06-1.96-10.92-.6-14.59,3.39-1.49,1.62-2.3,3.74-3.08,5.8-1.01,2.65-2.05,5.38-4.56,7h-.03c-.29.09-.57.22-.81.4h-.03c-.28.11-.56.24-.83.39h-.02s-.98.08-.98.08l-.93.18c-.31-.08-.63-.1-.95-.06h-.03c-5.22-.96-10.75-4.36-11.33-9.81-.13-1.19-.1-2.4-.07-3.57.03-1.29.06-2.63-.12-3.94-.35-2.53-1.1-4.98-2.23-7.28-2.33-4.71-6.48-8.59-11.39-10.66-9.85-4.15-21.66-.49-27.47,8.52h0c-2.08,3.21-3.33,7.07-3.54,10.88-.37,6.96,2.62,13.85,8.02,18.44,1.17,1,2.57,1.77,3.91,2.51,1.6.89,3.25,1.8,4.54,3.1,1.12,1.13,1.87,2.5,2.24,4.01Z"/>
    <path class="st7" d="M388.42,206.53c-.94-3.89-.24-7.95,2.03-11.36,1.38-2.07,3.34-3.36,5.24-4.61,2.33-1.54,4.53-2.99,5.72-5.75.03-.3.11-.6.22-.88.24-3.42-.64-5.87-2.78-7.69-1.15-.98-2.53-1.69-3.88-2.39-1.26-.65-2.56-1.32-3.68-2.21-5.64-4.45-8.92-11.43-8.78-18.67.07-3.56,1-7.07,2.76-10.41h0c5.58-9.94,17.27-14.49,27.79-10.82,5.09,1.77,9.59,5.45,12.34,10.1,2.93,4.95,3.12,9.93,3.05,15.46-.05,4.95,5.18,9.97,10.58,10.14.53-.02,1.06-.04,1.59-.05h.4c.15-.06.29-.12.44-.18.45-.17.92-.35,1.4-.49,2.83-1.46,3.87-4.24,4.98-7.19.83-2.21,1.68-4.49,3.36-6.19,4.07-4.12,10.36-5.41,15.65-3.19,5.41,2.26,8.72,7.42,8.65,13.47-.07,5.93-3.46,10.93-8.84,13.03-2.71,1.06-5.71,1.29-8.45.67-1.27-.29-2.49-.86-3.66-1.41-1.72-.81-3.5-1.64-5.45-1.58-.68.06-1.35.16-1.92.25-.56.21-1.13.48-1.75.79-2.57,1.88-3.42,4.48-4.32,7.23-.64,1.95-1.3,3.96-2.62,5.74-3.72,5-8.82,6.07-13.78,6.48-2.57.21-4.77,1.41-6.36,3.46-1.27,1.9-1.61,4.03-1.97,6.29-.36,2.28-.73,4.64-2.16,6.71-2.9,4.21-7.59,6.61-12.55,6.41-5.15-.21-9.64-3.12-12.02-7.8-.55-1.09-.97-2.22-1.24-3.36ZM401.6,180.31c.26,1.08.34,2.29.24,3.65v.03c-.12.27-.19.56-.22.86v.03c-1.22,2.83-3.55,4.37-5.81,5.86-1.88,1.24-3.83,2.52-5.18,4.56-2.9,4.34-3.19,9.76-.78,14.51,2.35,4.61,6.78,7.48,11.85,7.69,4.89.2,9.51-2.17,12.37-6.32,1.4-2.04,1.77-4.37,2.13-6.63.34-2.18.7-4.44,2-6.38,1.63-2.1,3.88-3.33,6.51-3.54,4.92-.4,9.97-1.46,13.64-6.39,1.3-1.75,1.96-3.75,2.59-5.68.91-2.79,1.77-5.42,4.41-7.34.64-.32,1.21-.59,1.8-.81.59-.1,1.27-.2,1.96-.26,2.01-.07,3.81.78,5.55,1.59,1.17.55,2.37,1.11,3.62,1.4,2.71.62,5.67.39,8.34-.66,5.3-2.07,8.64-7,8.71-12.85.07-5.96-3.2-11.05-8.52-13.28-5.21-2.18-11.41-.92-15.43,3.15-1.65,1.67-2.5,3.93-3.32,6.12-1.07,2.85-2.18,5.8-5.09,7.31-.49.14-.93.31-1.4.49-.15.06-.3.12-.46.17h-.02s-.43.02-.43.02c-.53.01-1.06.02-1.6.05-2.57-.08-5.26-1.25-7.38-3.22-2.19-2.03-3.43-4.62-3.4-7.12.06-5.5-.12-10.45-3.03-15.35-2.73-4.6-7.19-8.25-12.24-10.01-10.43-3.63-22.02.88-27.55,10.73-1.74,3.32-2.66,6.79-2.74,10.32-.14,7.18,3.11,14.09,8.7,18.51,1.11.88,2.4,1.54,3.65,2.19,1.35.7,2.75,1.42,3.92,2.41,1.34,1.14,2.2,2.52,2.61,4.22Z"/>
    <path class="st7" d="M388.01,206.69c-1.07-4.47-.07-9.17,2.83-12.75,1.38-1.7,3.12-2.77,4.81-3.8,2.46-1.51,4.79-2.94,5.83-6.14.23-3.31-.43-5.48-2.23-7.23-1.24-1.21-2.87-2.03-4.45-2.82-1.35-.68-2.75-1.38-3.93-2.33-5.78-4.67-9-11.91-8.6-19.38.19-3.64,1.29-7.24,3.28-10.7h0c3.12-5.06,7.99-8.75,13.73-10.4,5.81-1.67,11.88-1.05,17.11,1.74,5.61,3,9.83,8.17,11.56,14.18.95,3.3.92,6.48.75,9.44-.15,2.65.35,4.54,1.62,6.13,2.91,3.62,8.93,5.9,12.91,3.4,2.43-1.53,3.08-3.74,3.83-6.3l.11-.37c.9-3.04,2.65-5.66,5.06-7.58,4.84-3.85,11.23-4.19,16.69-.9,5.48,3.31,8.17,9.14,7.01,15.23-1.12,5.9-5.84,10.62-11.75,11.76-2.87.55-5.81.25-8.5-.88-.62-.26-1.22-.56-1.79-.85-1.56-.79-3.04-1.54-4.89-1.47-1.17.04-2.36.48-3.38.91l-.27.28c-2.63,1.28-3.45,4.26-4.25,7.14-.49,1.77-1,3.6-1.93,4.99-2.98,4.46-7.4,6.63-14.33,7.06-2.55.16-4.53,1.2-6.42,3.38-1.06,1.88-1.34,3.98-1.62,6.01-.29,2.17-.59,4.42-1.84,6.49-2.87,4.77-8.29,7.6-13.81,7.19-5.48-.41-10.08-3.73-12.31-8.89-.36-.82-.63-1.66-.84-2.51ZM401.46,180.28c.31,1.31.3,2.61.22,3.75-1.07,3.3-3.43,4.74-5.93,6.27-1.67,1.03-3.4,2.09-4.76,3.76-3.41,4.2-4.17,9.97-1.97,15.06,2.2,5.09,6.73,8.37,12.14,8.77,5.44.4,10.79-2.38,13.62-7.09,1.22-2.04,1.52-4.26,1.81-6.41.28-2.05.56-4.17,1.65-6.1,1.94-2.24,3.96-3.31,6.57-3.46,6.86-.42,11.23-2.57,14.17-6.97.91-1.36,1.41-3.17,1.9-4.93.81-2.92,1.65-5.94,4.34-7.26l.28-.29c1.04-.44,2.27-.89,3.47-.94,1.9-.07,3.4.69,4.99,1.49.57.29,1.17.59,1.78.85,2.65,1.11,5.55,1.41,8.39.87,5.83-1.12,10.49-5.78,11.59-11.59,1.14-6-1.51-11.76-6.92-15.02-5.39-3.25-11.69-2.91-16.46.88-2.38,1.9-4.11,4.48-4.99,7.48l-.11.37c-.76,2.6-1.42,4.85-3.92,6.42-4.06,2.55-10.2.23-13.17-3.45-1.31-1.63-1.83-3.56-1.67-6.26.17-2.94.2-6.11-.74-9.37-1.72-5.96-5.9-11.09-11.46-14.06-10.67-5.69-24.1-1.92-30.58,8.58-1.97,3.43-3.06,6.99-3.25,10.61-.39,7.4,2.8,14.59,8.53,19.22,1.16.94,2.55,1.63,3.9,2.31,1.59.8,3.24,1.62,4.51,2.85,1.15,1.12,1.76,2.39,2.07,3.66Z"/>
  </g>
  <g>
    <path class="st20" d="M538.84,165.42c2.27-1.88,4.81-3.44,7.56-4.6,7.25-3.05,15.39-3.13,22.93-.21,7.53,2.91,13.51,8.44,16.82,15.57,3.31,7.13,3.7,15.26,1.09,22.9-2.62,7.65-7.91,13.83-14.91,17.41-.27.14-.54.28-.81.41-2.77,1.4-5.16,2.6-6.63,5.56-1.29,2.61-1.41,5.79-.32,8.52,1.21,3.01,3.93,6.58,4.73,7.6,2.5,3.18,6.83,4.63,10.76,3.63,2.94-.75,4.62-2.7,6.39-4.76.75-.87,1.52-1.77,2.41-2.6,2.66-2.47,5.91-4.27,9.41-5.19,6.23-1.65,13.12-.42,18.42,3.29,2.61,1.83,4.78,4.19,6.44,7.01h0c3.29,5.83,3.78,12.81,1.34,19.15-2.39,6.21-7.31,10.95-13.51,13.02-6.07,2.03-12.99,1.25-18.51-2.09-2.74-1.66-5.14-3.95-6.93-6.63-.72-1.08-1.28-2.26-1.82-3.4-.98-2.08-1.91-4.05-3.77-5.5-5.8-4.56-11.48-1.25-15.22,2.33-3.66,3.5-8.8,5.26-13.76,4.71-6.63-.73-12.08-5.2-14.23-11.67-2.18-6.56-.43-13.52,4.55-18.16,3.32-3.1,4.65-6.05,4.29-9.57-.38-3.72-2.55-6.04-5.7-8.39-4.68-3.5-8.26-8.26-10.35-13.79-2.78-7.36-2.55-15.5.66-22.93,1.99-4.59,4.95-8.55,8.65-11.62ZM577.69,212.72c10.4-8.65,14.17-23.76,8.27-36.45-6.83-14.7-24.55-21.55-39.49-15.26-14.96,6.3-22.48,23.74-16.76,38.88,2.07,5.49,5.63,10.22,10.28,13.7,3.19,2.38,5.4,4.75,5.78,8.54.36,3.59-.98,6.59-4.35,9.74-4.92,4.59-6.64,11.47-4.49,17.95,2.12,6.39,7.51,10.81,14.06,11.53,4.9.54,9.98-1.2,13.59-4.65,3.8-3.64,9.58-7,15.49-2.34,1.89,1.49,2.87,3.57,3.82,5.58.54,1.13,1.09,2.3,1.8,3.37,1.77,2.65,4.15,4.93,6.87,6.57,5.47,3.31,12.33,4.08,18.34,2.07,6.14-2.05,11.02-6.75,13.39-12.9,2.42-6.28,1.93-13.19-1.33-18.97-1.65-2.8-3.79-5.14-6.38-6.95-5.25-3.68-12.08-4.89-18.25-3.26-3.47.92-6.7,2.7-9.33,5.15-.88.82-1.65,1.71-2.4,2.58-1.79,2.09-3.49,4.06-6.49,4.83-4.01,1.02-8.42-.46-10.97-3.7-.81-1.03-3.55-4.61-4.76-7.65-1.11-2.78-.99-6.02.33-8.68,1.5-3.02,3.92-4.24,6.72-5.65.27-.14.54-.27.81-.41,1.98-1.01,3.8-2.23,5.46-3.6Z"/>
    <path class="st2" d="M538.85,165.51c5.3-4.41,11.81-6.89,18.63-7.06,7.75-.19,15.28,2.61,21.2,7.9,5.92,5.28,9.55,12.44,10.21,20.15.77,8.91-2.53,18.01-8.82,24.34-2.34,2.36-5.03,4.31-8.02,5.8l-.28.14c-2.97,1.49-5.54,2.77-7.01,5.95-1.23,2.67-1.27,5.75-.11,8.47,1.06,2.48,3.15,5.56,4.74,7.51,2.62,3.21,7.04,4.58,10.99,3.41,2.77-.82,4.38-2.7,6.09-4.7.77-.9,1.57-1.83,2.49-2.68,4.97-4.56,11.77-6.53,18.61-5.39,6.83,1.14,12.59,5.19,15.81,11.1h0c1.55,2.79,2.47,5.99,2.67,9.24.4,6.53-2.18,12.91-7.07,17.49-4.88,4.56-11.36,6.7-17.81,5.88-6.42-.82-12.33-4.52-15.83-9.9-.68-1.04-1.21-2.16-1.72-3.24-1.01-2.13-1.96-4.14-3.94-5.61-2.43-1.8-5.64-2.46-8.58-1.77-2.55.6-4.12,2.11-5.94,3.85-.2.19-.4.38-.61.58-1.79,1.69-3.99,3-6.35,3.79-4.72,1.57-10.08.97-14.34-1.62-5.61-3.41-8.81-9.83-8.15-16.37.43-4.25,2.44-8.16,5.84-11.31,3.09-2.87,4.43-6.1,3.97-9.6-.54-4.15-3.78-6.87-6.92-9.49-1.77-1.48-3.6-3.02-4.93-4.8-4.16-5.57-6.34-12.42-6.12-19.29.25-7.8,3.48-15.19,9.1-20.81.69-.7,1.42-1.35,2.16-1.97ZM577.8,212.64c.74-.62,1.45-1.27,2.13-1.95,6.25-6.29,9.52-15.33,8.76-24.18-1.36-15.75-15.35-28.25-31.21-27.86-15.87.39-29.19,13.7-29.7,29.65-.22,6.83,1.94,13.63,6.08,19.16,1.32,1.76,3.13,3.28,4.9,4.76,3.16,2.65,6.43,5.4,6.99,9.62.47,3.57-.89,6.86-4.03,9.78-3.35,3.11-5.35,6.98-5.77,11.18-.65,6.46,2.51,12.81,8.06,16.17,4.21,2.56,9.51,3.16,14.17,1.6,2.34-.78,4.51-2.08,6.28-3.75.2-.19.41-.39.6-.58,1.76-1.69,3.43-3.28,6.03-3.9,3-.71,6.27-.03,8.75,1.8,2.02,1.5,2.98,3.53,4,5.69.51,1.08,1.04,2.19,1.7,3.22,3.46,5.33,9.33,9,15.68,9.81,6.39.81,12.82-1.31,17.64-5.83,4.85-4.54,7.41-10.86,7.01-17.33-.2-3.22-1.11-6.38-2.65-9.15h0c-3.19-5.86-8.9-9.87-15.67-11-6.78-1.13-13.5.81-18.44,5.34-.91.84-1.71,1.76-2.47,2.66-1.73,2.02-3.36,3.92-6.19,4.76-4.03,1.19-8.53-.2-11.21-3.47-1.6-1.96-3.7-5.06-4.77-7.56-1.19-2.77-1.15-5.92.11-8.64,1.5-3.25,4.1-4.55,7.1-6.05l.28-.14c2.09-1.05,4.05-2.33,5.83-3.81Z"/>
    <path class="st0" d="M538.85,165.5c5.3-4.41,11.82-6.89,18.64-7.06,7.76-.19,15.29,2.61,21.21,7.9,5.92,5.29,9.55,12.44,10.21,20.15.77,8.91-2.53,18.01-8.82,24.34-2.34,2.36-5.04,4.31-8.02,5.8l-.28.14c-2.97,1.49-5.54,2.77-7.01,5.95-1.23,2.67-1.27,5.76-.11,8.48,1.06,2.48,3.15,5.56,4.74,7.51,2.62,3.21,7.04,4.58,11,3.41,2.77-.82,4.38-2.71,6.09-4.7.77-.9,1.57-1.83,2.49-2.68,4.99-4.57,11.77-6.53,18.61-5.39,6.83,1.14,12.6,5.19,15.82,11.11h0c1.55,2.79,2.47,5.99,2.67,9.24.4,6.53-2.18,12.91-7.07,17.5-4.87,4.56-11.36,6.71-17.81,5.88-6.42-.82-12.34-4.52-15.83-9.9-.68-1.04-1.21-2.16-1.72-3.24-1.01-2.13-1.96-4.14-3.94-5.61-2.43-1.8-5.64-2.47-8.58-1.77-2.55.6-4.12,2.11-5.94,3.85-.2.19-.4.38-.6.58-1.79,1.69-3.99,3.01-6.35,3.79-4.72,1.58-10.08.97-14.34-1.62-5.61-3.41-8.81-9.83-8.15-16.37.43-4.25,2.44-8.16,5.84-11.31,3.09-2.87,4.43-6.11,3.97-9.6-.54-4.15-3.78-6.87-6.92-9.49-1.77-1.48-3.6-3.02-4.93-4.8-4.16-5.57-6.34-12.42-6.12-19.29.25-7.8,3.48-15.19,9.11-20.82.7-.7,1.42-1.35,2.16-1.97ZM577.81,212.63c.74-.61,1.45-1.26,2.13-1.95,6.25-6.29,9.53-15.33,8.76-24.18-1.36-15.76-15.36-28.26-31.21-27.87-15.87.39-29.2,13.7-29.71,29.66-.22,6.83,1.94,13.63,6.08,19.16,1.32,1.76,3.14,3.29,4.9,4.76,3.16,2.65,6.43,5.4,6.99,9.62.47,3.57-.89,6.86-4.04,9.78-3.36,3.12-5.35,6.98-5.77,11.18-.65,6.46,2.51,12.81,8.06,16.18,4.21,2.56,9.51,3.16,14.17,1.6,2.34-.78,4.51-2.08,6.28-3.75.2-.19.41-.39.6-.58,1.76-1.69,3.43-3.28,6.03-3.9,3-.71,6.27-.03,8.75,1.8,2.02,1.5,2.98,3.53,4,5.69.51,1.08,1.04,2.19,1.7,3.22,3.46,5.33,9.33,9,15.69,9.81,6.39.81,12.82-1.31,17.65-5.83,4.85-4.55,7.41-10.86,7.01-17.34-.2-3.22-1.11-6.39-2.65-9.15h0c-3.19-5.87-8.91-9.88-15.68-11-6.78-1.13-13.51.82-18.44,5.34-.91.84-1.71,1.76-2.47,2.66-1.73,2.02-3.36,3.93-6.19,4.76-4.03,1.19-8.54-.2-11.21-3.47-1.6-1.96-3.7-5.06-4.77-7.56-1.19-2.77-1.15-5.92.11-8.64,1.5-3.25,4.1-4.54,7.1-6.05l.28-.14c2.1-1.05,4.05-2.33,5.84-3.81Z"/>
    <path class="st14" d="M538.84,165.43c2.27-1.88,4.81-3.44,7.56-4.59,7.25-3.05,15.39-3.13,22.92-.21,7.53,2.91,13.5,8.44,16.82,15.57,3.31,7.13,3.7,15.26,1.09,22.89-2.61,7.64-7.91,13.83-14.9,17.41-.27.14-.54.28-.81.41-2.77,1.4-5.16,2.6-6.62,5.56-1.29,2.61-1.41,5.79-.32,8.51,1.21,3.01,3.93,6.58,4.73,7.6,2.5,3.18,6.83,4.63,10.76,3.63,2.94-.75,4.62-2.7,6.39-4.76.75-.87,1.52-1.77,2.41-2.6,2.66-2.47,5.91-4.27,9.41-5.19,6.23-1.65,13.12-.42,18.42,3.29,2.61,1.83,4.78,4.19,6.44,7.01h0c3.29,5.83,3.78,12.81,1.34,19.14-2.39,6.2-7.31,10.95-13.51,13.01-6.07,2.03-12.99,1.24-18.51-2.09-2.74-1.66-5.14-3.95-6.93-6.63-.72-1.08-1.28-2.26-1.82-3.39-.98-2.08-1.91-4.04-3.77-5.5-5.8-4.56-11.48-1.25-15.22,2.33-3.65,3.49-8.8,5.25-13.75,4.71-6.63-.73-12.08-5.2-14.22-11.66-2.18-6.56-.43-13.52,4.54-18.16,3.32-3.1,4.65-6.05,4.29-9.57-.38-3.72-2.55-6.04-5.7-8.39-4.68-3.5-8.26-8.26-10.35-13.79-2.78-7.36-2.55-15.5.67-22.92,1.98-4.59,4.95-8.55,8.64-11.62ZM577.69,212.72c10.39-8.64,14.17-23.75,8.27-36.44-6.83-14.7-24.54-21.54-39.48-15.26-14.96,6.3-22.48,23.74-16.76,38.87,2.07,5.49,5.63,10.22,10.28,13.69,3.19,2.38,5.4,4.75,5.78,8.54.36,3.59-.98,6.59-4.35,9.74-4.92,4.59-6.64,11.46-4.49,17.95,2.12,6.39,7.5,10.8,14.05,11.53,4.9.54,9.98-1.21,13.59-4.65,3.8-3.64,9.57-7,15.48-2.34,1.89,1.49,2.87,3.57,3.82,5.58.54,1.13,1.09,2.3,1.8,3.37,1.77,2.65,4.15,4.92,6.86,6.57,5.47,3.31,12.33,4.08,18.34,2.07,6.14-2.05,11.02-6.75,13.38-12.9,2.42-6.28,1.93-13.19-1.33-18.97-1.65-2.8-3.79-5.14-6.38-6.95-5.25-3.68-12.07-4.89-18.25-3.26-3.47.92-6.69,2.7-9.33,5.15-.88.82-1.65,1.71-2.39,2.58-1.79,2.09-3.49,4.06-6.49,4.83-4.01,1.02-8.41-.46-10.97-3.7-.81-1.03-3.55-4.61-4.76-7.65-1.11-2.77-.99-6.02.33-8.68,1.5-3.02,3.91-4.24,6.71-5.65.27-.13.54-.27.81-.41,1.98-1.01,3.8-2.22,5.46-3.6Z"/>
    <path class="st11" d="M549.6,178.81c1.84-1.53,4.07-2.59,6.53-2.98,5.7-.9,10.79,1.52,13.6,6.47,3.13,5.52,2.53,12.46-1.49,17.26-3.67,4.39-9.84,7.49-15.34,4.51-4.82-2.61-8.06-7.96-8.45-13.96h0c-.08-4.51,1.93-8.63,5.15-11.31ZM565.81,201.71c.83-.69,1.6-1.46,2.28-2.27,3.96-4.74,4.55-11.58,1.47-17.03-2.77-4.88-7.77-7.26-13.39-6.37-6.68,1.06-11.63,7.11-11.51,14.07.38,5.93,3.58,11.22,8.34,13.79,4.39,2.37,9.22.8,12.82-2.19Z"/>
    <path class="st13" d="M546.49,174.74c1.99-1.66,4.35-2.87,6.99-3.57,7.65-2.04,16.04,1.2,20.41,7.87,4.22,6.45,3.97,15.23-.63,21.84-3.97,5.73-12.73,12.53-19.76,9.72-7.36-2.94-12.2-11.05-13.73-17.78h0c-.52-4.83.47-9.61,2.78-13.46,1.08-1.8,2.4-3.35,3.95-4.63ZM567.99,206.26c2.05-1.7,3.82-3.65,5.09-5.49,4.55-6.55,4.8-15.23.62-21.62-4.32-6.6-12.62-9.81-20.18-7.79-9.08,2.42-14.66,11.23-13.57,21.43,1.52,6.68,6.32,14.72,13.61,17.63,4.68,1.87,10.15-.61,14.42-4.16Z"/>
    <path class="st17" d="M599.47,247.07c1.16-.97,2.5-1.48,3.9-1.49,2,0,3.9,1.04,5.35,2.94l.02.03c.65,2.06.49,4.11-.44,5.64-.77,1.27-2.03,2.09-3.65,2.37-1.69.3-3.25-.04-4.5-.99-1.48-1.11-2.47-3.01-2.71-5.2v-.04c.15-.49.35-.97.54-1.44.06-.14.11-.28.17-.42v-.02c.41-.53.85-.99,1.32-1.38ZM608.55,248.63c-1.41-1.84-3.25-2.85-5.18-2.85-1.89,0-3.68.99-5.04,2.77-.05.14-.11.27-.16.41-.19.46-.38.93-.53,1.41.24,2.13,1.2,3.97,2.63,5.04,1.21.91,2.71,1.24,4.35.95,1.56-.27,2.77-1.06,3.51-2.27.89-1.47,1.05-3.46.43-5.46Z"/>
    <path class="st10" d="M544.22,172.21c.3-.25.61-.49.92-.73,5.78-4.3,13.39-5.4,20.36-2.94,7.02,2.48,12.29,8.16,14.1,15.19,3.78,14.7-8.57,27.59-22.11,32.27h-.03c-.52.03-1.07.07-1.78.14h-.03s-1.8-.46-1.8-.46c-7.18-4.27-15.52-12.5-17.4-22.77h0c-1.16-7.91,1.8-15.73,7.77-20.69ZM569.62,208.95c7.53-6.26,12.32-15.3,9.79-25.16-1.79-6.97-7.01-12.59-13.97-15.05-6.91-2.44-14.44-1.35-20.17,2.91-6.52,4.84-9.82,12.99-8.61,21.22,1.87,10.2,10.15,18.37,17.29,22.63l1.74.44c.7-.06,1.24-.1,1.75-.13,4.35-1.5,8.58-3.86,12.18-6.86Z"/>
    <path class="st5" d="M594.9,242.27c2.07-1.73,4.66-2.88,7.43-3.18,5.18-.55,10.04,2.22,12.37,7.06,2.24,4.64,1.43,9.76-2.11,13.36-3.59,3.65-8.99,4.56-14.07,2.38-5.13-2.2-8.34-6.96-8.18-12.13v-.02c.58-2.92,2.25-5.55,4.56-7.47ZM611.58,260.15c.3-.25.59-.51.87-.8,3.48-3.53,4.28-8.56,2.07-13.13-2.3-4.76-7.07-7.49-12.17-6.94-5.77.61-10.73,5.02-11.81,10.48-.16,5.08,3.01,9.77,8.06,11.93,4.61,1.98,9.48,1.37,12.98-1.54Z"/>
    <path class="st3" d="M542.63,170.28c.47-.39.95-.76,1.45-1.12,6.57-4.67,15.12-5.69,22.89-2.75,7.68,2.91,13.34,9.29,15.13,17.04,1.77,7.66-.18,15.87-5.23,21.97-2.78,3.36-6.41,5.78-9.93,8.12-2.64,1.76-5.36,3.57-7.71,5.77h0s-.01.02-.01.02c-.65.34-1.22.72-1.71,1.16l-.02.02h-.02c-.5.14-.99.32-1.46.5l-.35.13h-.03c-.63-.16-1.27-.3-1.8-.42h-.03s-.02-.02-.02-.02c-.6-.55-1.17-1.02-1.73-1.43h-.01s0-.02,0-.02c-1.95-2.69-4.34-5.08-6.65-7.39-1.46-1.46-2.97-2.97-4.36-4.54-3.86-4.38-6.17-9.17-7.07-14.65h0c-.88-8.87,2.35-17.09,8.7-22.37ZM573.09,208.89c1.3-1.08,2.53-2.26,3.63-3.59,5.01-6.05,6.95-14.2,5.19-21.79-1.78-7.69-7.39-14.01-15.01-16.9-7.7-2.92-16.19-1.91-22.7,2.72-7.25,5.14-11.01,13.86-10.06,23.29.89,5.44,3.19,10.2,7.02,14.55,1.38,1.57,2.89,3.07,4.35,4.53,2.32,2.31,4.71,4.7,6.67,7.4.56.4,1.12.87,1.72,1.42.52.12,1.14.26,1.75.4l.29-.11c.47-.17.96-.36,1.46-.49.5-.42,1.07-.82,1.72-1.16,2.35-2.21,5.08-4.02,7.72-5.78,2.11-1.41,4.27-2.84,6.25-4.49Z"/>
    <path class="st1" d="M592.56,239.96c3.6-3,7.7-4.54,11.89-4.39,6.71.25,12.29,4.71,14.22,11.36,1.9,6.55-.41,13.23-5.89,16.99-5.37,3.69-12.66,3.61-18.16-.2-5.25-3.64-9.75-11.17-7.86-16.98v-.02c1.71-2.73,3.66-5,5.79-6.77ZM613.8,262.91c4.59-3.82,6.43-9.92,4.69-15.92-1.91-6.56-7.42-10.97-14.04-11.22-6.59-.25-12.96,3.78-17.49,11.06-1.85,5.72,2.6,13.14,7.79,16.74,5.42,3.76,12.63,3.84,17.93.2.39-.27.76-.55,1.12-.85Z"/>
    <path class="st6" d="M541.54,168.78c3.54-2.94,7.84-4.95,12.6-5.72,5.04-.81,10.11-.15,14.65,1.92,4.24,1.94,7.96,5.04,10.74,8.99,5.99,8.49,6.69,19.27,1.82,28.13-2.17,3.95-5.4,7.4-9.6,10.26-.68.46-1.37.92-2.03,1.36-3.21,2.12-6.24,4.12-8.63,7.17-3.03,3.87-3.87,7.55-2.57,11.26.5,1.43,1.16,2.83,1.8,4.18,1.34,2.86,2.73,5.81,2.71,9.15v.03c-1.41,3.77-5.04,6.54-9.05,6.9-3.45.31-6.46-1.25-8.25-4.28-2.96-4.99-.25-9.63,2.37-14.11.65-1.11,1.27-2.17,1.79-3.22,2.73-5.47-.03-10.99-2.82-14.66-1.49-1.96-3.24-3.71-4.93-5.41-2.41-2.43-4.91-4.93-6.69-8.06-3.12-5.5-4.24-11.92-3.17-18.1h0c1.29-6.41,4.62-11.9,9.27-15.78ZM574.31,210.18c2.89-2.4,5.19-5.14,6.85-8.18,4.83-8.8,4.14-19.49-1.81-27.92-5.91-8.37-15.32-12.42-25.19-10.82-10.94,1.77-19.46,10.14-21.71,21.33-1.07,6.13.05,12.51,3.15,17.97,1.76,3.1,4.25,5.6,6.65,8.02,1.7,1.7,3.45,3.47,4.95,5.43,2.83,3.72,5.62,9.31,2.84,14.87-.53,1.06-1.15,2.12-1.8,3.23-2.59,4.43-5.27,9.01-2.37,13.9,1.75,2.96,4.69,4.49,8.06,4.18,3.93-.35,7.49-3.06,8.87-6.75.02-3.28-1.36-6.21-2.69-9.04-.64-1.36-1.3-2.77-1.81-4.2-1.33-3.78-.48-7.53,2.6-11.45,2.42-3.08,5.46-5.09,8.68-7.22.67-.44,1.35-.89,2.03-1.36.94-.64,1.84-1.32,2.68-2.02Z"/>
    <path class="st9" d="M590.78,238.48c3.29-2.74,7.19-4.81,11.61-5.19,7.66-.66,14.65,3.62,17.81,10.92,3.12,7.19,1.48,15.11-4.18,20.2-5.69,5.11-14.05,6.08-20.8,2.4-3.06-1.67-5.69-4.29-7.8-7.79-.29-.49-.61-.99-.93-1.5-1.57-2.52-3.35-5.37-3.82-8.16h0c-.03-.64.07-1.32.29-1.97v-.02c2.01-2.95,4.63-6.23,7.82-8.88ZM615.37,264.69c.17-.15.35-.29.52-.45,5.59-5.02,7.21-12.86,4.13-19.97-3.13-7.21-10.04-11.45-17.61-10.8-8.61.74-15.23,8.01-19.26,13.97-.21.62-.31,1.26-.28,1.86.47,2.75,2.24,5.58,3.8,8.08.32.52.64,1.02.93,1.5,2.09,3.47,4.69,6.07,7.72,7.72,6.48,3.52,14.45,2.73,20.05-1.93Z"/>
    <path class="st18" d="M540.49,167.74c3.05-2.54,6.66-4.45,10.61-5.52,4.95-1.33,10.23-1.23,15.27.31,5.03,1.53,9.48,4.38,12.86,8.24,6.83,7.8,8.75,19.11,4.88,28.81-1.86,4.67-5.02,8.85-9.14,12.1-1.39,1.1-2.93,2.03-4.43,2.94-2.59,1.57-5.27,3.2-7.18,5.69-2.98,3.86-3.49,8.59-1.45,13.31.53,1.22,1.28,2.5,2.08,3.84,1.73,2.93,3.53,5.96,3.33,9v.04c-.26.52-.48,1.07-.67,1.61v.02c-4.32,6.37-13.24,10.49-20.15,6.03-6.6-4.25-6.37-12.53-2.73-18.5.24-.39.48-.78.72-1.16,2.87-4.65,5.58-9.04,3.12-14.85-1.45-3.42-4.15-5.97-6.75-8.45-1.86-1.76-3.78-3.58-5.26-5.72-3.66-5.26-5.46-11.69-5.09-18.11h0c.1-1.32.26-2.51.48-3.65,1.22-6.32,4.67-11.95,9.53-15.98ZM575.47,211.01c3.78-3.14,6.69-7.1,8.44-11.5,3.84-9.63,1.94-20.86-4.84-28.6-6.89-7.87-17.85-11.2-27.92-8.48-10.17,2.75-18.02,11.12-19.99,21.35-.22,1.13-.37,2.32-.47,3.62-.37,6.38,1.43,12.77,5.06,17.99,1.47,2.11,3.38,3.93,5.23,5.68,2.62,2.49,5.34,5.06,6.8,8.52,2.5,5.91-.23,10.34-3.13,15.03-.24.39-.48.77-.71,1.16-3.59,5.89-3.82,14.04,2.66,18.23,6.8,4.39,15.6.32,19.86-5.96.19-.54.42-1.08.66-1.6.19-2.97-1.59-5.97-3.3-8.87-.8-1.35-1.56-2.63-2.09-3.86-2.07-4.79-1.54-9.59,1.48-13.51,1.94-2.51,4.63-4.15,7.24-5.73,1.49-.9,3.02-1.84,4.41-2.93.21-.17.42-.34.63-.51Z"/>
    <path class="st12" d="M591.09,236.22c.08-.07.16-.13.24-.19,3.66-2.94,8.2-4.53,12.79-4.48,10.08.11,15.97,6.97,18.12,13.36,2.73,8.11.23,16.67-6.39,21.79-6.11,4.74-14.8,5.3-21.64,1.41-3.33-1.9-6.02-4.7-8.22-8.57-1.82-3.2-3.82-6.05-5.94-9.06l-.54-.78c-.07-.5-.24-.97-.49-1.41l-.02-.03.07-.78.39-.32.56-.95h.02s.58-.37.58-.37l.54-.59h.02c2.43-1.26,4.37-3.36,6.26-5.4,1.16-1.25,2.35-2.54,3.64-3.61ZM616.25,266.12c6.15-5.11,8.42-13.34,5.8-21.15-2.13-6.32-7.95-13.12-17.93-13.22-4.54-.05-9.04,1.53-12.67,4.44-1.37,1.11-2.63,2.47-3.85,3.78-1.89,2.04-3.84,4.15-6.3,5.42l-.54.59h-.01s-.58.36-.58.36l-.56.95-.34.28-.06.63c.25.44.42.92.49,1.43l.51.72c2.13,3.02,4.13,5.87,5.95,9.08,2.18,3.84,4.84,6.62,8.14,8.5,6.77,3.86,15.37,3.3,21.42-1.39.18-.14.35-.28.52-.42Z"/>
    <path class="st15" d="M539.89,166.8c1.44-1.2,3.01-2.26,4.69-3.17,4.77-2.57,10.22-3.72,15.75-3.33,5.53.39,10.76,2.3,15.13,5.51,9.27,6.81,13.67,18.93,10.95,30.17-1.25,5.19-3.93,9.96-7.74,13.78-1.96,1.97-4.31,3.37-6.57,4.73-1.98,1.19-4.03,2.41-5.78,4-4.15,3.75-5.36,9.2-3.16,14.22,1.2,2.74,2.93,5.21,4.61,7.59,1.24,1.76,2.52,3.58,3.57,5.5v.02s.03.14.03.14l-.31,1.92-.03.02c-.32.29-.72.68-1.06,1.12h0s-.01.02-.01.02c-1.4.96-2.76,2.05-4.07,3.11-4.22,3.4-8.58,6.91-14.73,6.09-7.11-.95-12.39-7.06-12.28-14.22.05-3.27,1.24-6.49,3.52-9.58.31-.43.64-.85.96-1.27,1.56-2.03,3.17-4.13,3.7-6.73,1.36-6.76-2.89-10.7-7.38-14.88l-.24-.22c-5.14-4.77-8.38-10.52-9.64-17.1h0c-.26-1.49-.41-3.03-.44-4.59-.15-8.83,3.87-17.3,10.55-22.86ZM577.23,210.79c.44-.37.87-.76,1.29-1.17,3.78-3.79,6.44-8.53,7.69-13.69,2.7-11.16-1.67-23.2-10.87-29.96-8.91-6.55-20.94-7.4-30.66-2.17-9.37,5.04-15.31,15.19-15.13,25.84.03,1.55.17,3.08.44,4.55,1.26,6.53,4.48,12.25,9.58,16.99l.24.22c4.54,4.21,8.82,8.19,7.44,15.06-.53,2.65-2.16,4.77-3.74,6.82-.32.42-.65.84-.96,1.26-2.26,3.06-3.43,6.24-3.49,9.46-.11,7.05,5.09,13.08,12.1,14.02,6.06.81,10.2-2.52,14.58-6.05,1.31-1.06,2.67-2.15,4.07-3.11.33-.43.73-.82,1.05-1.11l.29-1.83-.02-.06c-1.05-1.91-2.32-3.72-3.55-5.47-1.68-2.39-3.42-4.86-4.63-7.63-2.23-5.11-1-10.65,3.21-14.45,1.77-1.6,3.83-2.83,5.81-4.02,1.78-1.06,3.61-2.16,5.25-3.53Z"/>
    <path class="st8" d="M539.35,166.2c1.27-1.05,2.63-2,4.07-2.84,9.73-5.62,22.07-5.2,31.44,1.07,4.65,3.11,8.32,7.52,10.61,12.74,2.3,5.22,3.06,10.9,2.21,16.43-.85,5.56-3.24,10.76-6.91,15.03-2.55,2.98-5.53,4.76-8.68,6.65-1.35.81-2.75,1.65-4.12,2.59-3.12,2.15-4.79,4.91-4.98,8.21-.37,6.39,4.83,13.34,9.41,17.35l.96.47.1.1c.38.1.73.26,1.05.49l.25.03.8.38,1.13-.18,1.05.08.77-.35.35-.02c.37-.18.74-.35,1.12-.49h.01s.03-.03.03-.03c3.05-.76,5.21-3.15,7.3-5.47.96-1.06,1.96-2.17,3.01-3.07.07-.06.15-.12.22-.19,3.47-2.88,7.86-4.59,12.41-4.81,8.46-.42,15.97,4.21,19.59,12.07,3.68,7.98,2.31,16.82-3.58,23.05-6.11,6.47-16.04,8.22-24.16,4.25-3.93-1.93-7.18-5.05-9.41-9.04-2.05-3.68-3.68-6.59-7.11-9.31-.38-.17-.73-.4-1.05-.68l-.6-.16-.45-.33-.99-.05-.09-.04h-.09s-.97-.27-.97-.27l-.99.32h-.12c-.35.1-.72.16-1.09.17l-.44.25-.68.15c-1.83,1.04-3.55,2.29-5.21,3.49-4.52,3.28-8.79,6.37-15.04,5.46-7.09-1.03-12.59-7.01-13.08-14.23-.25-3.65.81-7.39,2.97-10.51.65-.94,1.39-1.79,2.1-2.62,1.42-1.64,2.76-3.18,3.44-5.31.92-2.85.75-5.73-.49-8.34-1.12-2.35-2.97-3.89-4.94-5.51-.71-.58-1.44-1.19-2.12-1.83-4.94-4.61-8.19-10.54-9.41-17.16h0c-.24-1.49-.37-2.84-.42-4.11-.33-9.13,3.81-18.05,10.82-23.88ZM578.01,211.07c.91-.76,1.79-1.6,2.62-2.57,3.64-4.24,6.01-9.41,6.86-14.93,1.73-11.26-3.27-22.63-12.74-28.97-9.3-6.23-21.56-6.65-31.22-1.06-9.37,5.42-15.18,15.83-14.79,26.54.05,1.26.18,2.6.42,4.08,1.21,6.57,4.45,12.47,9.35,17.05.68.64,1.41,1.24,2.12,1.82,1.9,1.57,3.86,3.19,4.99,5.58,1.26,2.66,1.44,5.59.5,8.49-.7,2.17-2.05,3.73-3.48,5.38-.71.82-1.45,1.67-2.09,2.6-2.13,3.08-3.18,6.77-2.93,10.38.48,7.12,5.91,13.02,12.9,14.04,6.17.9,10.41-2.17,14.89-5.43,1.67-1.21,3.4-2.46,5.24-3.51h.03s.68-.16.68-.16l.44-.26h.03c.37,0,.73-.06,1.08-.17h.04s.12,0,.12,0l.99-.33,1.02.28h.1s.09.04.09.04l1,.04.49.36.6.15.02.02c.3.28.64.51,1.02.67h.02c3.47,2.76,5.18,5.84,7.17,9.4,2.2,3.95,5.43,7.04,9.32,8.95,8.03,3.93,17.87,2.21,23.92-4.2,5.83-6.17,7.18-14.92,3.54-22.83-3.59-7.78-11.02-12.36-19.39-11.95-4.51.22-8.86,1.91-12.29,4.77-.07.06-.15.12-.22.18-1.04.89-2.03,1.99-2.99,3.05-2.1,2.33-4.28,4.74-7.38,5.52h-.02c-.4.17-.78.34-1.14.52h-.04s-.35.03-.35.03l-.77.36-1.13-.08-1.12.18-.84-.4-.25-.02-.02-.02c-.31-.22-.66-.38-1.03-.48h-.03s-.13-.13-.13-.13l-.95-.47c-4.61-4.04-9.86-11.05-9.48-17.52.2-3.37,1.9-6.18,5.07-8.37,1.38-.95,2.78-1.79,4.13-2.6,2.11-1.26,4.14-2.48,6.01-4.04Z"/>
    <path class="st16" d="M539.05,165.75c1.1-.92,2.27-1.76,3.51-2.51,9.84-5.98,22.46-5.81,32.16.46,9.56,6.17,14.93,17.43,13.69,28.69-.59,5.38-2.59,10.49-5.78,14.78-3.36,4.52-7.5,7.29-13.09,10.28-5.1,2.74-7.36,8.26-5.47,13.44.59,1.64,1.61,3.16,2.59,4.63.4.6.81,1.21,1.18,1.82,1.44,2.36,3.15,3.99,5.53,5.3.81.2,1.58.46,2.16.67.43,0,.85.05,1.26.14.7-.08,1.41-.19,2.08-.31.46-.08.93-.16,1.41-.22,2.84-1.16,4.71-3.15,6.69-5.26,1.33-1.42,2.7-2.88,4.41-4.07,4.18-2.92,9.19-4.34,14.12-3.98,4.54.33,8.73,2.03,12.1,4.94,3.14,2.7,5.46,6.29,6.71,10.39,2.61,8.55.12,17.18-6.51,22.69-.16.13-.32.27-.49.4-7.27,5.7-17.68,6.11-25.34.98-3.39-2.27-6.02-5.46-8.04-9.75-1.84-3.91-4.24-5.75-7.76-7.62l-.99-.08-.16-.07-.27.02-.65-.16c-.46.06-.92.1-1.37.13l-.15.05-1.01.05c-2.55.96-4.37,2.44-6.29,4.01-.98.8-2,1.63-3.15,2.41-3.28,2.23-7.26,3.21-11.21,2.77-7.18-.8-13.2-6.56-14.33-13.69-.58-3.63.06-7.4,1.79-10.61.85-1.58,2.06-2.87,3.23-4.13,1.14-1.22,2.31-2.48,3.13-3.98,1.39-2.54,1.66-5.66.74-8.34-1.02-2.95-2.97-4.55-5.24-6.41-.43-.35-.88-.72-1.33-1.1-5.41-4.62-9.02-10.79-10.44-17.83h0c-.26-1.51-.41-2.76-.47-3.94-.49-9.55,3.75-18.96,11.03-25.01ZM577.95,211.82c1.67-1.39,3.16-2.93,4.52-4.76,3.17-4.26,5.15-9.34,5.74-14.68,1.24-11.18-4.1-22.37-13.6-28.5-9.64-6.22-22.18-6.4-31.95-.45-9.33,5.68-15,16.41-14.44,27.33.06,1.17.21,2.41.47,3.91,1.41,7,5,13.12,10.37,17.71.45.38.89.75,1.32,1.1,2.19,1.79,4.26,3.49,5.3,6.5.94,2.73.66,5.91-.75,8.5-.83,1.52-2.01,2.79-3.16,4.02-1.16,1.25-2.36,2.53-3.2,4.09-1.71,3.17-2.34,6.89-1.77,10.48,1.11,7.04,7.07,12.73,14.15,13.52,3.9.44,7.83-.54,11.07-2.74,1.14-.77,2.15-1.6,3.13-2.4,1.94-1.58,3.77-3.08,6.36-4.05h.03s1.01-.06,1.01-.06l.15-.05c.46-.03.93-.08,1.39-.14h.04s.65.16.65.16l.29-.02.17.07,1,.09c3.56,1.89,5.99,3.76,7.86,7.72,2.01,4.26,4.62,7.42,7.97,9.67,7.58,5.07,17.9,4.67,25.1-.98.16-.13.33-.26.49-.39,6.56-5.46,9.03-14.01,6.44-22.48-2.67-8.73-9.81-14.55-18.64-15.18-4.89-.35-9.86,1.05-13.99,3.94-1.69,1.18-3.06,2.64-4.38,4.05-2,2.12-3.88,4.13-6.78,5.31-.5.07-.97.15-1.43.23-.69.12-1.4.24-2.11.31h-.03c-.4-.1-.82-.15-1.24-.14h-.03c-.59-.22-1.36-.48-2.17-.68h-.02c-2.42-1.33-4.16-2.99-5.62-5.38-.37-.61-.78-1.22-1.18-1.82-.99-1.48-2.01-3.01-2.61-4.67-1.92-5.28.37-10.91,5.57-13.69,3.3-1.77,6.08-3.45,8.5-5.46Z"/>
    <path class="st4" d="M538.8,165.55c2.2-1.83,4.66-3.35,7.32-4.5,10.15-4.37,22.32-2.82,30.99,3.96,8.12,6.34,12.59,16.65,11.66,26.91-.94,10.45-7.39,19.9-16.83,24.65-3.82,1.92-7.6,4.23-8.22,9.29-.48,4,1.75,7.32,3.91,10.54.29.43.58.86.86,1.29,2.32,3.55,5.85,5.47,9.43,5.13,4.09-.39,6.16-2.65,8.56-5.28.7-.77,1.43-1.56,2.23-2.33,4-3.84,9.33-5.98,15.01-6.04,5.68-.05,11.06,1.98,15.15,5.73,3.85,3.53,6.29,8.41,6.89,13.74.59,5.32-.71,10.62-3.67,14.93-6.26,9.13-18.82,12.16-28.61,6.9-4.07-2.19-7.43-5.74-9.47-10-2.13-4.45-4.12-6.98-9.05-8.45l-.52.09c-4.02-.83-7.88,2.6-8.97,3.67-3.74,3.68-7.68,5.53-12.04,5.68-8.6.29-16.1-5.88-17.44-14.35-.57-3.61.11-7.56,1.89-10.83.87-1.61,2.16-2.89,3.41-4.14,1.27-1.27,2.58-2.57,3.42-4.2,1.3-2.52,1.38-5.85.23-8.68-1.01-2.49-2.92-3.97-4.94-5.53-.72-.56-1.47-1.14-2.17-1.77-5.23-4.67-8.66-11.12-9.92-18.66h0c-.34-3.14-.32-5.91.05-8.46,1.1-7.61,5.05-14.49,10.82-19.29ZM577.62,212.61c6.19-5.14,10.23-12.63,10.96-20.72.92-10.19-3.52-20.43-11.59-26.73-8.62-6.73-20.7-8.28-30.79-3.93-9.61,4.14-16.51,13.19-18.02,23.63-.37,2.53-.38,5.28-.05,8.4,1.25,7.49,4.66,13.9,9.85,18.54.7.62,1.44,1.2,2.16,1.76,2.04,1.58,3.97,3.08,5.01,5.62,1.17,2.88,1.08,6.27-.24,8.85-.85,1.65-2.17,2.97-3.46,4.25-1.24,1.23-2.52,2.51-3.38,4.09-1.75,3.23-2.43,7.13-1.86,10.7,1.33,8.38,8.74,14.47,17.24,14.18,4.31-.15,8.21-1.99,11.91-5.62,1.1-1.09,5.02-4.56,9.13-3.72l.53-.09c4.99,1.48,7.08,4.16,9.19,8.57,2.03,4.23,5.36,7.75,9.39,9.91,9.69,5.21,22.14,2.21,28.34-6.84,6.11-8.92,4.74-21.13-3.19-28.41-7.97-7.31-20.56-7.52-28.76-.7-.38.32-.75.65-1.12,1-.8.77-1.52,1.56-2.22,2.32-2.43,2.66-4.52,4.95-8.69,5.34-3.66.35-7.25-1.6-9.62-5.22-.28-.43-.57-.86-.86-1.29-2.18-3.24-4.44-6.6-3.95-10.67.62-5.16,4.46-7.49,8.33-9.44,2.07-1.04,4-2.31,5.76-3.77Z"/>
  </g>
  <g>
    <polygon class="st19" points="463.56 299.18 463.71 299.31 477.67 312.87 477.7 313.18 477.5 313 463.53 299.43 463.56 299.18"/>
    <path class="st19" d="M433.43,280.98l.24-.2h.05s11.63.3,11.63.3c1.06.03,2.16,0,3.32-.01,4.8-.09,10.24-.19,13.72,3.33.58.59,1.06,1.2,1.44,1.82.65,1.03,1.11,2.21,1.36,3.53.5,2.64-.25,5.3-.97,7.87-.17.59-.34,1.2-.49,1.8l-.2-.05h0c.08-.31.16-.62.24-.93,1.08-4.26,2.2-8.64-.31-12.41-2.56-3.69-7.37-4.45-10.43-4.53l-19.6-.52ZM453.69,281.32c-.87-.06-1.75-.08-2.62-.08l1.96.05c.22,0,.44.01.66.03Z"/>
    <polygon class="st19" points="419.88 255.65 420.1 255.62 420.14 255.68 433.84 280.9 433.68 281.04 433.61 280.93 419.88 255.65"/>
    <path class="st19" d="M419.86,255.85l.09-.17,15.01-24.48.18.09-.05.1-.35.57c-4.87,7.94-9.74,15.89-14.61,23.83l-.03.04-.25.03Z"/>
    <path class="st19" d="M434.56,231.22h.44s13.53.36,13.53.36c.3,0,.59.02.9.03,3.09.08,6.21.16,9.3.24,3.8.09,7.08-1.07,9.22-3.28,1.35-1.39,2.23-3.16,2.58-5.21.22-1.56.14-3.21.02-4.96l-.76-10.64c-.02-.22-.03-.44-.05-.65h0c-.02-.23-.03-.45-.05-.68h.2s.1,1.32.1,1.32c.09,1.25.19,2.5.29,3.75.23,2.91.46,5.93.62,8.89.06,1.04,0,2.03-.16,2.97-.23,1.71-.8,3.32-2,4.83-3.79,4.77-10.48,4.26-16.38,3.81-1.02-.08-1.99-.15-2.93-.2-2.13-.06-4.25-.11-6.34-.17-2.69-.07-5.39-.15-8.08-.22h-.02s-.43-.21-.43-.21ZM459.15,232.06c-.14,0-.29,0-.43,0-1.55-.04-3.11-.08-4.66-.12,1.69.12,3.42.2,5.09.12Z"/>
    <path class="st19" d="M469.7,206.39l.04-.04,17.02-11.52-.08.3-.03.03-.54.37c-5.42,3.67-10.83,7.33-16.25,11l-.15.11v-.24Z"/>
    <polygon class="st19" points="486.47 195.13 486.52 194.94 486.63 194.97 504.98 203.89 504.86 204.05 504.78 204.03 486.47 195.13"/>
    <path class="st19" d="M504.72,203.91l.18-.25.03.26c.38,5.23.75,10.47,1.12,15.7l.33,4.58-.19.14-.02-.18-1.45-20.26Z"/>
    <path class="st19" d="M489.42,235.44c4.3-2.92,8.61-5.83,12.91-8.74l3.89-2.63s0,0,0,0l.11.17c-3.55,2.41-7.1,4.81-10.65,7.21l-6.14,4.15s0,0,0,0l-.11-.17Z"/>
    <path class="st19" d="M471.12,239.91c.06-.21.13-.42.2-.63.6-1.67,1.61-3.12,2.89-4.24.7-.62,1.49-1.15,2.37-1.57.73-.35,1.44-.59,2.13-.74.94-.22,1.91-.31,2.9-.25,2.37.14,4.49,1.22,6.55,2.27.45.23.9.46,1.35.68l.15.07-.18.14-.06-.02-.5-.25c-3.43-1.67-6.7-3.27-10.31-2.41-1.57.39-3.03,1.15-4.24,2.21-1.89,1.67-3.08,3.99-3.37,6.47-.17,1.86.22,3.72.9,5.54.92,2.17,2.16,4.29,3.36,6.34.6,1.02,1.21,2.08,1.78,3.11l.28.52s.02.03.02.05h0s0,0,0,0l-.18.1h0s0,0,0,0l-.02-.05c-.53-.97-1.14-1.97-1.77-3.03-1.34-2.21-2.76-4.56-3.67-6.98-.09-.21-.17-.41-.25-.62-.64-1.62-.84-3.32-.65-4.95.05-.58.15-1.16.32-1.74Z"/>
    <path class="st19" d="M474.36,263.06c.57-2.03,1.67-3.99,2.83-5.88l.08-.13.13.18-.03.06c-1.27,2.07-2.46,4.22-2.96,6.45-.51,2.27-.3,4.64,1.27,7.11,2.36,3.71,7,5.49,11.29,4.32l.17-.05.11.18-.13.04c-4.46,1.23-9.11-.5-11.57-4.3-1.68-2.6-1.88-5.08-1.32-7.46.04-.17.09-.35.13-.52Z"/>
    <path class="st19" d="M487.01,275.31l.14-.14s0,0,0,0l13.45,13.07c.16.16.33.32.49.48l-.14.14c-1.49-1.45-2.98-2.89-4.47-4.34-3.11-3.01-6.32-6.13-9.47-9.2h0s0,0,0,0Z"/>
    <path class="st19" d="M477.47,312.86l.08-.04,3.58-1.01c5.04-1.43,10.08-2.86,15.11-4.29l.09-.02.09.2-18.92,5.37-.02-.2Z"/>
    <polygon class="st19" points="500.97 288.55 501.13 288.75 501.12 288.81 496.29 307.94 496.16 307.64 496.16 307.59 500.97 288.55"/>
    <path class="st19" d="M419.92,255.73l.03-.05,14.99-24.45h.06c2.73.07,5.45.15,8.18.22,5.2.14,10.58.29,15.88.41,3.66.08,6.69-1.02,8.78-3.2,2.06-2.15,3.04-5.17,2.82-8.76-.18-3.01-.41-6.06-.64-9.01-.11-1.48-.22-2.97-.33-4.45v-.06s.04-.03.04-.03l16.84-11.4,18.35,8.91v.06c.38,5.23.75,10.47,1.13,15.7l.33,4.58-.05.03c-3.73,2.53-7.46,5.05-11.2,7.58l-5.65,3.82-.5-.24c-4.12-2.01-8.02-3.91-12.49-1.67-4.83,2.42-6.86,8.28-4.62,13.33,1.04,2.34,2.36,4.64,3.64,6.87.61,1.07,1.25,2.17,1.84,3.26l.03.05-.03.05c-2.58,4.2-4.83,8.72-1.64,13.64,2.41,3.73,6.97,5.42,11.34,4.22l.06-.02,14.02,13.62-4.78,18.95-.06.02-18.75,5.32-.04-.04-13.98-13.58.2-.79c1.28-5.03,2.61-10.22-1.72-14.32-3.49-3.3-8.96-3.18-13.78-3.07-1.25.03-2.42.05-3.54.02l-11.04-.29-.03-.05-13.68-25.21ZM435.06,231.43l-14.9,24.31,13.6,25.05,10.92.29c1.11.03,2.29,0,3.53-.02,4.86-.11,10.38-.23,13.93,3.12,4.42,4.18,3.08,9.43,1.78,14.51l-.17.67,13.86,13.46,18.58-5.27,4.73-18.73-13.86-13.46c-4.44,1.2-9.06-.53-11.51-4.32-3.24-5-.99-9.56,1.61-13.81-.58-1.07-1.2-2.15-1.81-3.2-1.28-2.23-2.61-4.54-3.65-6.89-2.29-5.15-.21-11.13,4.72-13.59,4.56-2.29,8.5-.37,12.67,1.66l.39.19,5.55-3.76c3.72-2.52,7.43-5.03,11.15-7.54l-.32-4.47c-.37-5.21-.75-10.43-1.12-15.64l-18.14-8.81-16.7,11.3c.11,1.46.21,2.93.32,4.39.22,2.95.45,6.01.64,9.02.22,3.64-.77,6.72-2.87,8.91-2.13,2.22-5.22,3.34-8.93,3.26-5.29-.12-10.68-.27-15.88-.41-2.71-.07-5.41-.15-8.12-.22Z"/>
    <path class="st19" d="M419.94,255.72l.03-.05,6.82-11.12c2.71-4.43,5.43-8.85,8.14-13.28l.03-.05h.06s13.53.36,13.53.36c1.2.03,2.48.13,3.83.23,5.85.45,12.47.95,16.2-3.74,2.26-2.85,2.23-6.06,1.98-9.66l-.86-12.02.05-.03,16.84-11.4.05.03,18.29,8.88,1.46,20.34-.05.03c-5.6,3.79-11.19,7.58-16.79,11.36l-.05.03-.05-.03c-.45-.22-.9-.45-1.35-.68-2.04-1.04-4.15-2.12-6.47-2.25-4.44-.26-8.6,2.48-10.09,6.67-1.81,5.06,1.29,10.21,4.04,14.75.65,1.08,1.27,2.09,1.81,3.09l.03.05-.03.05c-2.58,4.2-4.83,8.72-1.64,13.64,2.41,3.73,6.97,5.42,11.34,4.22l.06-.02.04.04c3.1,2.98,6.23,6.03,9.26,8.98,1.56,1.52,3.12,3.04,4.68,4.55l.04.04v.06c-1.6,6.28-3.18,12.56-4.77,18.84v.06s-.07.02-.07.02c-5.04,1.43-10.08,2.86-15.11,4.29l-3.63,1.03-.04-.04-13.98-13.58v-.06c.16-.6.34-1.21.5-1.8.71-2.55,1.45-5.18.96-7.78-1.31-6.97-8.05-8.18-11.95-8.29l-19.39-.51-.03-.05c-3.91-7.21-7.82-14.41-11.73-21.62l-1.95-3.59ZM435.07,231.43c-2.7,4.41-5.41,8.82-8.11,13.23l-6.79,11.07,1.89,3.48c3.9,7.19,7.8,14.38,11.7,21.56l19.27.51c6.84.18,11.16,3.18,12.15,8.45.5,2.64-.25,5.3-.96,7.87-.16.57-.33,1.17-.47,1.74l13.85,13.45,3.52-1c5.02-1.42,10.04-2.85,15.06-4.27,1.58-6.24,3.15-12.48,4.73-18.72-1.55-1.5-3.09-3.01-4.64-4.51-3.02-2.94-6.13-5.97-9.22-8.94-4.44,1.2-9.06-.53-11.51-4.32-3.23-5-.99-9.56,1.61-13.81-.53-.97-1.13-1.97-1.77-3.03-2.77-4.57-5.91-9.76-4.06-14.92,1.53-4.27,5.76-7.07,10.3-6.8,2.37.14,4.5,1.22,6.55,2.28.43.22.86.44,1.3.65,5.56-3.77,11.13-7.53,16.69-11.3l-1.44-20.11-18.13-8.81-16.69,11.3.85,11.91c.26,3.65.29,6.9-2.02,9.8-3.79,4.77-10.48,4.26-16.37,3.81-1.35-.1-2.63-.2-3.83-.23l-13.47-.35Z"/>
    <path class="st19" d="M487.01,275.31l.14-.15.14.12c.12.12.23.23.35.35l-.14.14-.48-.47Z"/>
    <path class="st19" d="M438.07,253.82c.67-2.38,2.18-4.56,4.44-6.22,3.78-2.77,9.7-3.87,14.42-.08,3.59,2.88,5.59,8.53,4.87,13.73-.72,5.18-4.26,7.96-9.99,7.82-5.04-.12-11.2-2.4-13.38-8.46-.88-2.26-.98-4.61-.37-6.79ZM461.29,262.75c.14-.48.24-.99.32-1.53.71-5.13-1.26-10.7-4.8-13.54-4.64-3.73-10.46-2.64-14.18.08-4.25,3.12-5.82,8.13-4,12.77h0c2.15,5.97,8.22,8.22,13.2,8.33,5.01.12,8.32-2.04,9.47-6.12Z"/>
    <path class="st19" d="M433.98,252.72c.79-2.8,2.39-5.42,4.76-7.58,4.63-4.23,12.51-6.54,19.67-2.17,5.35,3.26,7.68,11.27,7.58,17.33-.06,3.55-.33,7.19-1.92,9.71-2.03,3.23-6.29,3.15-9.71,3.09-6.83-.12-15.19-1.33-19.35-9.6h0c-1.71-3.49-2.02-7.27-1.03-10.78ZM465.02,267.3c.59-2.11.73-4.57.77-7,.1-6-2.2-13.93-7.48-17.15-7.06-4.31-14.85-2.02-19.42,2.15-5.28,4.81-6.72,11.93-3.69,18.12,4.11,8.17,12.4,9.36,19.16,9.48,3.39.06,7.58.14,9.55-2.99.49-.77.85-1.65,1.12-2.61Z"/>
    <path class="st19" d="M477.25,288.58l.1-.15h.03c.52-.24,1.05-.49,1.55-.74l.03-.02h.04c.52.12,1.07.24,1.62.35h.02s.02.02.02.02c1.19.83,2.03,1.54,2.83,2.66v.03c.23.63.4,1.3.52,1.98v.02s0,.02,0,.02c-.16.54-.36,1.07-.58,1.58l-.02.03-.61.57c-.53.25-1.09.42-1.65.53h-.03s-.03,0-.03,0c-.57-.19-1.15-.4-1.71-.62l-.03-.02c-.75-.67-1.44-1.59-1.94-2.58v-.02c-.1-.41-.18-.83-.25-1.24-.04-.24-.09-.49-.14-.73v-.04c.09-.53.17-1.07.24-1.6v-.02ZM477.48,288.59l-.04.06c-.07.53-.15,1.05-.24,1.57.05.24.09.48.13.71.07.4.15.82.24,1.22.48.96,1.15,1.85,1.88,2.5.55.21,1.11.42,1.66.6.53-.1,1.06-.27,1.56-.5l.56-.52c.22-.49.4-1,.56-1.51-.12-.66-.28-1.3-.49-1.91-.78-1.09-1.6-1.77-2.75-2.59-.54-.11-1.06-.22-1.57-.33-.49.25-1,.49-1.5.71Z"/>
    <path class="st19" d="M430.97,251.83c.55-1.95,1.43-3.84,2.64-5.59,3.14-4.57,7.92-7.45,13.1-7.91,7.29-.65,12.49.45,15.44,3.25,3.81,3.63,5.62,11.37,6.09,13.66.91,4.48.44,9.44,0,14.25-.1,1.07-.2,2.08-.27,3.08h0s0,.03,0,.03c-.15.41-.24.84-.26,1.28v.03s-.02.02-.02.02c-.27.38-.48.8-.64,1.24v.03s-.46.38-.46.38c-.45.15-.9.34-1.31.56h-.03c-2.13.39-4.47.14-6.74-.11-.9-.1-1.75-.19-2.59-.25-.54-.03-1.09-.07-1.63-.1-2.93-.18-5.95-.36-8.88-.89-6.73-1.21-11.45-5.69-14.45-13.68h0c-.86-3.03-.83-6.23.03-9.29ZM467.76,272.54c.08-1,.17-2,.27-3.07.45-4.79.91-9.74.01-14.19-.46-2.27-2.26-9.96-6.03-13.55-2.91-2.76-8.05-3.84-15.28-3.2-5.13.45-9.85,3.31-12.96,7.82-3.07,4.46-4.03,9.82-2.64,14.71,2.97,7.92,7.64,12.35,14.29,13.55,2.91.52,5.93.71,8.85.88.55.03,1.09.07,1.63.1.84.05,1.69.15,2.6.25,2.25.24,4.57.5,6.66.12.42-.23.86-.42,1.31-.56l.36-.31c.16-.44.37-.86.64-1.24.02-.45.11-.88.27-1.3Z"/>
    <path class="st19" d="M479.05,213.62c.62-2.21,1.89-4.2,3.68-5.61,2.7-2.12,6.1-2.41,9.33-.79,3.47,1.74,5.28,5.03,4.86,8.8-.47,4.18-3.51,7.67-7.57,8.68-2.58.64-5.31.28-7.31-.97-1.64-1.02-2.73-2.58-3.14-4.51-.43-1.87-.36-3.81.15-5.61ZM496.41,217.58c.14-.51.25-1.04.31-1.58.41-3.68-1.37-6.89-4.75-8.6-3.15-1.59-6.48-1.31-9.12.76-3.19,2.5-4.69,6.93-3.75,11.02h0c.4,1.87,1.46,3.38,3.05,4.38,1.95,1.22,4.63,1.57,7.15.95,3.46-.86,6.17-3.55,7.12-6.93Z"/>
    <path class="st19" d="M428.41,252.54c.86-3.06,2.58-5.92,4.36-8.49,3.59-5.21,8.06-7.53,14.95-7.76h.05c4.65-.16,12.44-.42,16.08,3.15,1.64,1.61,2.4,3.94,3.12,6.19.23.72.45,1.4.7,2.05.22.59.46,1.18.69,1.77.87,2.18,1.76,4.44,2.1,6.78.29,1.99.1,4.02-.08,5.98-.11,1.15-.22,2.35-.23,3.51-.02,2.41.32,4.9,1.06,7.82l.39.77v.05c.11.27.21.56.3.86l.34.47.09.31c.2.22.36.47.47.75l.4.39.16.31c.25.19.45.42.62.68.57.35,1.1.76,1.58,1.23,1.18.7,2.53,1.37,3.96,2.08,5.71,2.83,12.18,6.03,11.03,13.48-.59,3.87-2.99,6.45-6.57,7.08-4.18.74-8.58-1.41-10.7-5.24-1.29-2.33-1.93-5.11-2.56-7.8-.37-1.59-.75-3.22-1.25-4.71l-.61-.81-.42-.8-.67-.57-.03-.05c-.19-.2-.39-.43-.56-.67l-.48-.26-.26-.27c-.28-.14-.56-.28-.84-.43-.27-.16-.53-.33-.78-.51-3.93-1.73-8.45-2.09-12.81-2.44-7.44-.6-14.46-1.17-19.01-7.88-2.3-3.39-3.88-6.65-4.71-9.69h0c-.7-2.54-.55-4.99.11-7.32ZM471.41,274.36l-.38-.75c-.76-2.96-1.1-5.47-1.08-7.89.01-1.18.12-2.37.23-3.53.18-1.95.37-3.96.08-5.93-.34-2.32-1.23-4.57-2.09-6.74-.23-.59-.47-1.18-.69-1.77-.25-.66-.47-1.34-.7-2.06-.72-2.23-1.46-4.53-3.07-6.11-3.57-3.51-11.31-3.25-15.93-3.09h-.05c-6.81.23-11.24,2.53-14.79,7.68-3.09,4.49-6.04,9.86-4.44,15.65h0c.82,3.02,2.39,6.26,4.68,9.63,4.5,6.63,11.47,7.19,18.86,7.79,4.38.35,8.92.72,12.9,2.47.27.19.52.35.78.51.28.15.56.3.84.43l.03.02.26.27.49.27c.17.23.37.47.57.68l.03.05.68.58.47.88.58.76c.51,1.5.89,3.15,1.26,4.75.62,2.68,1.26,5.44,2.54,7.75,2.07,3.76,6.38,5.87,10.48,5.14,3.49-.62,5.83-3.14,6.41-6.91,1.12-7.3-5.28-10.47-10.92-13.27-1.43-.71-2.79-1.38-3.99-2.1-.5-.47-1.02-.88-1.59-1.23l-.03-.03c-.16-.26-.36-.48-.6-.66l-.03-.04-.16-.32-.41-.4c-.11-.27-.26-.52-.46-.73l-.02-.04-.09-.31-.34-.47c-.08-.3-.18-.59-.29-.88v-.06Z"/>
    <path class="st19" d="M476.02,211.56h0c1.33-4.15,4.75-7.21,9.14-8.18,4.53-1.01,9.25.42,12.3,3.72,2.64,2.85,3.6,6.52,2.7,10.35-1.04,4.46-4.52,8.4-8.83,10.03-3.82,1.44-10.18,1.02-13.56-1.91-.32-.43-.63-.87-.91-1.31-1.45-3.77-1.75-8.39-.84-12.68h0ZM499.84,217.93c.05-.18.09-.35.14-.53.88-3.75-.06-7.36-2.65-10.16-3.01-3.25-7.65-4.65-12.11-3.66-4.32.96-7.68,3.96-8.99,8.04-.9,4.26-.6,8.83.82,12.55.27.42.57.85.88,1.27,3.31,2.87,9.57,3.28,13.34,1.86,4.08-1.54,7.4-5.18,8.57-9.36Z"/>
    <path class="st19" d="M426.38,253.01c.05-.19.11-.39.18-.59,1.25-3.69,3.51-7.18,5.55-10.12,2.42-3.47,4.79-5.97,8.53-6.87,3.63-.88,7.53-.72,11.31-.58l.53.02c4.01.16,8.56.33,12.3,2.07l.02.02c.4.35.79.72,1.17,1.1,1.06,1.72,1.54,3.74,2.01,5.7.28,1.16.56,2.35.96,3.45.33.93.73,1.87,1.12,2.78.88,2.07,1.79,4.21,2.06,6.46.21,1.77-.05,3.56-.3,5.29-.2,1.37-.4,2.78-.37,4.17.06,2.56.71,5,2.12,7.89.21.22.39.46.54.72.22.21.4.46.55.73,2.02,1.93,4.33,2.95,6.78,4.03,1.6.71,3.25,1.44,4.81,2.44,1.94,1.25,8.22,5.86,7.64,12.7-.46,5.39-3.66,9.34-8.57,10.58-5.23,1.32-10.82-.98-13.91-5.71-1.39-2.13-1.78-4.69-2.16-7.17-.42-2.79-.86-5.67-2.74-7.89-.19-.23-.38-.5-.53-.77-.23-.19-.46-.4-.68-.61-.22-.22-.43-.45-.63-.67-4.07-3.02-9.42-3.25-14.58-3.47-6.04-.26-12.28-.52-16.3-5.39-2.15-2.6-3.72-5.67-5.24-8.64l-.35-.68c-1.68-3.87-2.89-7.16-1.81-10.98ZM464.68,237.12c-3.7-1.71-8.22-1.89-12.21-2.04l-.53-.02c-3.76-.15-7.65-.3-11.25.57-3.67.89-6.02,3.36-8.41,6.79-2.04,2.92-4.29,6.41-5.53,10.07-1.36,4.02-.18,7.27,1.62,11.42l.35.68c1.52,2.96,3.08,6.02,5.22,8.61,3.96,4.8,9.89,5.05,16.16,5.32,5.2.22,10.57.45,14.71,3.53.21.24.41.46.63.68.22.21.45.42.68.61l.02.03c.15.27.32.53.51.75,1.91,2.26,2.36,5.17,2.79,7.99.37,2.46.76,5,2.12,7.09,3.04,4.66,8.54,6.92,13.69,5.62,4.82-1.22,7.97-5.1,8.42-10.4.57-6.72-5.63-11.28-7.55-12.51-1.54-1-3.19-1.72-4.78-2.42-2.36-1.04-4.81-2.12-6.85-4.08l-.02-.03c-.14-.27-.31-.5-.53-.71l-.02-.02c-.14-.25-.32-.49-.53-.7l-.02-.03c-1.43-2.92-2.09-5.39-2.14-7.98-.03-1.41.18-2.83.38-4.21.25-1.71.51-3.49.3-5.24-.27-2.23-1.17-4.35-2.04-6.41-.39-.91-.79-1.85-1.12-2.79-.4-1.11-.69-2.31-.96-3.47-.46-1.94-.94-3.96-1.97-5.63-.35-.36-.74-.72-1.13-1.07Z"/>
    <path class="st19" d="M474.21,210.87c.77-2.74,2.42-5.12,5.54-7.26,5.12-3.51,9.52-3.76,15.19-.84,4.96,2.56,7.17,6.27,7.39,12.41.2,5.55-1.88,9.19-7.15,12.56-4.66,2.98-8.65,2.42-13.28,1.78-1.21-.17-2.45-.34-3.77-.46h-.01s-.01,0-.01,0c-.6-.22-1.22-.41-1.84-.59l-.04-.02c-.4-.35-.81-.72-1.2-1.09l-.02-.02v-.03c-.15-.5-.34-.99-.57-1.46v-.03c-.06-.5-.11-1-.17-1.49-.21-2-.43-4.08-.54-6.14-.19-2.72-.13-5.14.48-7.32ZM501.66,219.71c.38-1.36.53-2.85.47-4.52-.21-6.06-2.39-9.72-7.28-12.24-5.59-2.88-9.93-2.64-14.98.83-5.52,3.79-6.37,8.32-5.94,14.39h0c.11,2.06.33,4.13.54,6.14.05.49.1.98.15,1.48.23.46.41.95.56,1.45.38.36.77.71,1.16,1.05.61.17,1.22.37,1.82.58,1.31.12,2.56.29,3.76.46,4.59.64,8.55,1.19,13.14-1.75,3.62-2.32,5.71-4.76,6.59-7.86Z"/>
    <path class="st19" d="M424.77,253.39c.06-.2.12-.39.19-.59,1.4-3.97,3.97-7.82,6.25-11.21,2.62-3.91,4.99-6.94,9.64-7.58,3.52-.48,7.18-.36,10.71-.23l.91.03c3.93.13,8.12.46,13.17,1.04h.02s.02,0,.02,0c.55.27,1.09.57,1.61.89l.03.02v.03c.23.46.48.91.77,1.33l.02.02v.03c.04.5.14,1,.31,1.47v.03c.09,3.56.92,7.17,2.48,10.72,1.81,4.13,2.93,7.22,1.97,12.23-1.54,8.06,1.94,13.94,9.8,16.55,3.94,1.31,7.59,3.78,10.03,6.76,2.82,3.46,3.87,7.36,3.04,11.27-.81,3.8-2.3,7.96-7.22,10.04-5.03,2.13-9.21,2.19-12.43.19-4.47-2.78-7.5-6.7-8.09-10.48-.15-.97-.25-1.98-.34-2.95-.32-3.35-.65-6.81-3.34-9.34-3.85-4.39-9.72-4.37-15.4-4.34-5.96.03-12.13.05-15.98-5.02-2-2.63-3.57-5.65-5.1-8.57l-.29-.55c-1.93-3.74-3.92-7.6-2.74-11.79ZM465.59,235.04c-5.03-.58-9.21-.91-13.13-1.04l-.91-.03c-3.53-.12-7.17-.25-10.68.23-4.56.62-6.9,3.62-9.48,7.47-2.28,3.4-4.85,7.24-6.24,11.18-.07.19-.13.38-.18.57-1.16,4.12.81,7.94,2.72,11.65l.29.55c1.52,2.91,3.09,5.92,5.08,8.54,3.79,4.99,9.9,4.96,15.82,4.94,5.72-.02,11.64-.05,15.55,4.4,2.74,2.57,3.07,6.07,3.4,9.46.09.97.19,1.97.34,2.94.59,3.73,3.58,7.6,8,10.34,3.16,1.97,7.28,1.9,12.25-.2,4.84-2.05,6.3-6.15,7.1-9.9,1.76-8.27-5.17-15.22-12.93-17.8-7.97-2.65-11.49-8.61-9.94-16.78.95-4.96-.16-8.01-1.96-12.11-1.57-3.57-2.4-7.2-2.49-10.78-.17-.48-.27-.97-.31-1.48-.28-.41-.53-.85-.74-1.31-.5-.31-1.03-.59-1.55-.85Z"/>
    <path class="st19" d="M472.54,209.46c.07-.24.14-.47.23-.71,1.07-3,4.35-5.08,6.98-6.75.22-.14.44-.28.65-.41,3.03-1.94,5.84-3.47,9.45-2.47,3.12.86,6.71,2.6,9.61,4.65,2.7,1.91,3.49,4.32,3.95,7.84l.05.37c.4,3.08.9,6.93-.19,9.86-1.11,2.99-4.33,5.07-6.92,6.74-.23.15-.45.29-.67.43-2.92,1.9-5.66,3.41-9.78,2.6-3.58-.7-7.09-1.28-10.6-.62h-.04c-.81-.15-1.64-.22-2.44-.29h-.07s-.25-1.11-.25-1.11l-.3-.55.19-.72-.06-1.19v-.02s.11.02.11.02l-.1-.03h0c.78-2.79.43-5.83.1-8.77-.34-2.97-.69-6.03.11-8.88ZM503.28,221.1c.79-2.79.33-6.26-.04-9.09l-.05-.37c-.45-3.46-1.23-5.83-3.86-7.7-2.88-2.04-6.45-3.77-9.54-4.62-3.53-.98-6.3.53-9.29,2.45-.21.14-.43.27-.65.41-2.61,1.65-5.85,3.71-6.9,6.65-1.07,3.01-.69,6.3-.32,9.5.34,2.96.69,6.02-.1,8.84h0s.05,1.2.05,1.2l-.18.66.28.52.22.98c.78.06,1.58.13,2.37.28,3.54-.66,7.06-.08,10.66.63,3.69.72,6.14-.3,9.63-2.58.22-.14.44-.29.67-.43,2.56-1.65,5.75-3.71,6.84-6.64.08-.22.15-.44.22-.67Z"/>
    <path class="st19" d="M423.65,253.45c.17-.6.41-1.23.72-1.89,1.86-3.92,4.33-7.72,6.5-11.07,2.8-4.32,5.03-7.18,10.26-7.53,4.08-.27,8.18-.1,12.16.07,1.04.04,2.09.13,3.2.21,3.16.25,6.42.51,9.35-.18h.03c1.01.07,2.03,0,3-.08h.05s.03.03.03.03c.37.41.76.82,1.14,1.21l.04.04-.19.63c.04.4.06.81.09,1.21v.04s-.23.97-.23.97l.03.82-.09.29v.2c-.12,2.58-.23,5.01.54,7.53.49,1.59,1.24,3.11,1.97,4.58.53,1.07,1.08,2.17,1.52,3.29,1.06,2.68.53,5.33.02,7.89-.51,2.57-1.04,5.23,0,7.98.91,2.4,2.41,4.29,4.48,5.61,1.44.92,3.07,1.33,4.65,1.71,1.17.29,2.39.59,3.53,1.1,4.39,1.97,11.06,8.49,11.28,13.44.28,6.18-2.37,13.58-7.97,15.78-6.42,2.52-11.4,3.21-16.38-1.14l-.36-.31c-2.02-1.76-4.52-3.94-5.71-6.38-.86-1.76-.8-3.73-.74-5.64.03-1.08.07-2.19-.07-3.24-.68-5.36-4.72-9.31-10.29-10.08-2.78-.38-5.66-.44-8.43-.5-2.75-.06-5.6-.12-8.37-.49-5.81-.78-8.39-5.79-10.89-10.63-.31-.6-.62-1.2-.93-1.78-.29-.54-.57-1.09-.85-1.64-.36-.7-.73-1.42-1.12-2.12h0s-.26-.58-.26-.58c-1.52-3.39-2.67-5.99-1.73-9.35ZM465.88,233.25c-2.96.69-6.23.43-9.4.18-1.11-.09-2.16-.17-3.2-.21-3.97-.17-8.07-.34-12.13-.07-5.13.34-7.33,3.17-10.1,7.44-2.17,3.35-4.63,7.14-6.49,11.05-2.03,4.26-.75,7.12,1.01,11.07l.25.57c.39.7.76,1.43,1.12,2.13.28.55.56,1.1.85,1.64.31.58.62,1.18.93,1.78,2.48,4.8,5.04,9.76,10.74,10.53,2.76.37,5.6.43,8.34.49,2.78.06,5.66.12,8.46.51,5.66.77,9.77,4.8,10.46,10.25.14,1.07.1,2.19.07,3.27-.06,1.88-.12,3.82.72,5.54,1.17,2.4,3.66,4.57,5.66,6.32l.35.31c4.9,4.28,9.83,3.6,16.18,1.11,5.51-2.16,8.12-9.48,7.84-15.58-.22-4.8-6.92-11.36-11.16-13.27-1.12-.51-2.33-.8-3.49-1.09-1.59-.39-3.24-.8-4.71-1.74-2.1-1.35-3.64-3.27-4.56-5.71-1.06-2.8-.52-5.49,0-8.09.53-2.65,1.02-5.15-.01-7.78-.44-1.12-.99-2.21-1.52-3.28-.73-1.47-1.49-3-1.98-4.61-.78-2.55-.67-5.01-.55-7.6v-.22s.1-.28.1-.28l-.03-.83.23-.95c-.03-.43-.06-.84-.09-1.24v-.02s.17-.56.17-.56c-.36-.37-.72-.75-1.07-1.13-.95.08-1.96.14-2.96.08Z"/>
    <path class="st19" d="M422.22,254.07c.65-2.3,2.26-4.71,3.64-6.75.49-.73.96-1.43,1.33-2.05.39-.65.79-1.31,1.18-1.98,1.66-2.79,3.37-5.68,5.39-8.21,2.5-3.14,6.37-3,10.12-2.87.59.02,1.21.04,1.8.05,3.42.04,6.89.15,10.25.27l1.89.06c3.83.13,8.6.28,11.6-2.67.17-.3.36-.59.58-.85l.2-.55.27-.36c.12-.31.27-.61.45-.9l.19-.96.05-.09c1.28-3.02.89-6.7.52-10.27-.27-2.57-.54-5.23-.18-7.58.17-.48.36-.94.57-1.39,1.61-2.04,3.85-3.53,6.02-4.97.28-.19.56-.37.83-.56.33-.22.66-.45,1-.69,1.97-1.36,4.2-2.89,6.56-3.42h.03c.49.02,1,.04,1.5.07,3.89,1.11,10.95,3.55,14.75,7.52,1.36,2.1,1.53,4.93,1.69,7.42.03.44.05.87.09,1.29l.04.51c.21,2.63.42,5.34.03,7.95-.17.48-.35.94-.54,1.4v.02c-3,3.9-9.51,8.37-14.24,9.75h-.03c-.48.01-.97.02-1.45.02-.6-.13-1.21-.28-1.86-.44-4.68-1.14-10.5-2.56-13.75,1.49l-.11.2-.56.59c-.16.29-.34.57-.55.84-.09.34-.2.67-.32,1v.11s-.41.81-.41.81c-.06.35-.12.71-.18,1.06-1.45,4.13.33,7.46,2.2,10.99,1.02,1.92,2.07,3.91,2.54,6.01.39,1.78-.24,3.6-.84,5.35-.5,1.43-1.01,2.91-.99,4.4.05,3,1.28,5.78,3.47,7.82,1.9,1.78,3.95,2.19,6.13,2.62,1.04.21,2.12.42,3.22.79,2.4.81,4.52,3.07,6.39,5.06.43.46.83.89,1.23,1.28.23.23.46.46.7.7,2.17,2.15,4.41,4.38,4.29,7.59-.12,2.99-1.09,6.23-1.95,9.08l-.09.31c-1.49,4.94-3.68,6.38-8.05,7.76-.46.15-.95.31-1.47.48-3.21,1.08-7.2,2.42-10.14,1.25-4.2-2.66-9.71-7.22-11.48-11.35-.46-1.59-.27-3.27-.09-4.89.15-1.32.3-2.69.11-4-.37-2.52-1.57-4.79-3.38-6.41-3.56-3.18-8.87-3.17-13.56-3.15-1.23,0-2.39,0-3.51-.04-.7-.03-1.43-.04-2.2-.04-2.87-.03-6.12-.06-8.56-1.31-2.16-1.67-3.63-4.54-4.94-7.07-.35-.68-.68-1.32-1.02-1.93-1.83-3.31-3.4-6.28-4.81-9.08h0c-.87-1.72-1.46-3.21-1.86-4.7-.07-.77.04-1.58.27-2.4ZM470.37,228.62l-.2.56c-.22.26-.41.54-.57.84l-.02.02c-3.06,3.02-7.88,2.86-11.76,2.74l-1.89-.06c-3.36-.11-6.83-.23-10.25-.27-.59,0-1.21-.03-1.8-.05-3.7-.13-7.52-.26-9.96,2.8-2.01,2.53-3.72,5.41-5.38,8.19-.39.66-.79,1.32-1.18,1.98-.38.63-.84,1.32-1.34,2.06-1.84,2.75-4.13,6.16-3.87,9,.4,1.46.98,2.94,1.84,4.65h0c1.4,2.8,2.98,5.77,4.8,9.07.34.61.67,1.25,1.02,1.94,1.29,2.51,2.76,5.36,4.87,7,2.39,1.21,5.61,1.25,8.46,1.27.77,0,1.5.02,2.2.04,1.12.05,2.27.04,3.5.04,4.72-.02,10.07-.03,13.7,3.2,1.84,1.65,3.07,3.96,3.45,6.53.2,1.33.04,2.71-.1,4.05-.18,1.6-.36,3.26.08,4.8,1.74,4.08,7.22,8.61,11.38,11.24,2.86,1.13,6.81-.2,9.99-1.27.52-.17,1.01-.34,1.47-.49,4.38-1.38,6.45-2.75,7.91-7.63l.09-.31c.86-2.84,1.83-6.07,1.94-9.03.12-3.12-2.09-5.32-4.23-7.44-.24-.23-.47-.47-.7-.7-.4-.4-.8-.83-1.23-1.29-1.85-1.97-3.96-4.21-6.31-5-1.09-.37-2.16-.58-3.2-.79-2.2-.44-4.28-.85-6.22-2.67-2.22-2.08-3.47-4.9-3.53-7.96-.03-1.52.49-3.02,1-4.47.63-1.81,1.22-3.51.84-5.24-.46-2.08-1.51-4.05-2.52-5.96-1.73-3.25-3.51-6.61-2.4-10.55.05-.19.12-.39.19-.59.06-.34.12-.7.18-1.05v-.02s.4-.8.4-.8v-.1c.14-.35.24-.68.34-1.02l.02-.03c.2-.27.39-.55.55-.84l.02-.02.56-.59.09-.18c3.34-4.16,9.48-2.66,13.97-1.57.65.16,1.26.31,1.83.43.46,0,.93-.01,1.41-.02,4.69-1.38,11.14-5.8,14.1-9.67.19-.45.37-.91.53-1.36.38-2.57.17-5.27-.04-7.88l-.04-.51c-.03-.42-.06-.85-.09-1.29-.15-2.47-.33-5.26-1.65-7.3-3.75-3.92-10.77-6.35-14.62-7.45-.47-.03-.97-.05-1.46-.07-2.31.52-4.52,2.04-6.47,3.38-.34.23-.68.47-1.01.69-.27.18-.55.37-.83.56-2.16,1.43-4.38,2.92-5.96,4.91-.19.42-.38.88-.55,1.33-.36,2.31-.08,4.95.18,7.51.37,3.59.76,7.3-.54,10.37l-.04.07-.19.97v.02c-.19.28-.34.58-.45.89v.03s-.29.36-.29.36Z"/>
    <path class="st19" d="M421.02,255.47v-.02c1.19-3.26,3.18-6.34,5.1-9.32.57-.89,1.17-1.81,1.72-2.7.54-.88,1.08-1.8,1.61-2.69,1.71-2.92,3.48-5.94,5.79-8.37l.04-.02c2.25-.89,5.07-.74,7.55-.61.72.04,1.4.07,2.06.08,2.98.06,5.97.13,8.87.23.58.02,1.17.05,1.75.07,4.91.22,9.99.46,13.64-3.54.16-.32.34-.64.54-.94l.16-.33c.25-.51.52-1.03.74-1.56.93-3.68.61-7.7.31-11.6-.16-2.02-.32-4.1-.31-6.09v-.02s0-.01,0-.01c.14-.46.29-.93.41-1.39l.02-.04c3.67-3.86,9.94-8.09,15.24-10.3h.04c.49.02.98.04,1.47.08h.01s.01,0,.01,0c4.51,1.68,11.33,4.22,15.76,7.84l.02.03c.24.43.47.87.69,1.31v.03c.98,5.1,1.39,10.92,1.22,16.83v.03c-.14.46-.27.93-.4,1.41v.02s-.02.02-.02.02c-3.3,3.56-8.96,7.43-15.15,10.35h-.04c-.48,0-.96,0-1.44,0h-.02s-.01,0-.01,0c-4.91-1.65-11.62-3.9-15.46,1.36-.17.25-.35.51-.53.76-.22.31-.46.64-.67.96l-.26.86c-.17.37-.34.74-.5,1.12-.58,3.66-.19,6.29,1.4,9.37.33.64.75,1.34,1.2,2.08,1.35,2.24,2.88,4.78,2.7,7.07h0s0,.03,0,.03c-.18.48-.37.96-.55,1.42-1.56,3.96-2.9,7.38-.41,11.57,2.11,3.55,6.39,5.57,10.9,5.16h.03c2.25.55,4.32,2.79,6.14,4.77.51.55.99,1.07,1.44,1.52.45.45.97.91,1.53,1.41,1.83,1.64,3.91,3.51,4.57,5.58v.03c.01,2.56-.66,5.1-1.32,7.57-.14.51-.27,1.03-.4,1.54-.14.56-.27,1.16-.41,1.79-.53,2.44-1.13,5.19-2.75,6.95l-.04.02c-3,1.25-6.1,2.17-8.74,2.91-.56.15-1.14.34-1.75.53-2.12.67-4.52,1.43-6.59,1.18h-.02s-.02,0-.02,0c-3.66-1.81-7.96-5.79-12.77-11.83l-.02-.03c-.16-.47-.33-.94-.5-1.41v-.05c.06-.59.13-1.17.19-1.74.62-5.17,1.15-9.63-3.54-13.41-3.16-2.13-6.91-2.17-10.53-2.2-.72,0-1.47-.01-2.2-.04-.93-.03-1.87-.05-2.8-.07-3.57-.08-7.27-.17-10.85-.68h-.02s-.02-.01-.02-.01c-.45-.27-.88-.55-1.3-.83l-.03-.03c-2.12-3.27-4-6.75-5.81-10.11-.85-1.58-1.74-3.22-2.63-4.81h0c-.32-.6-.65-1.2-1.01-1.83-1.3-2.31-2.65-4.69-3.04-7.22v-.03ZM435.37,232.52c-2.28,2.4-4.04,5.41-5.74,8.31-.52.89-1.07,1.82-1.61,2.7-.55.9-1.15,1.82-1.72,2.71-1.91,2.96-3.89,6.03-5.07,9.25.4,2.49,1.73,4.85,3.01,7.13.36.63.69,1.23,1.01,1.83.9,1.6,1.78,3.23,2.64,4.82,1.81,3.35,3.68,6.82,5.79,10.08.4.27.82.54,1.25.8,3.56.51,7.24.59,10.8.68.94.02,1.87.04,2.8.07.73.02,1.47.03,2.19.03,3.66.03,7.44.06,10.65,2.24,4.78,3.86,4.24,8.37,3.62,13.6-.07.56-.14,1.13-.2,1.71.17.46.33.92.49,1.38,4.78,6,9.04,9.95,12.67,11.76,2.02.23,4.39-.52,6.49-1.18.62-.19,1.2-.38,1.76-.53,2.63-.73,5.71-1.65,8.7-2.89,1.57-1.72,2.16-4.44,2.69-6.84.14-.63.27-1.23.41-1.79.13-.51.27-1.02.4-1.54.65-2.45,1.32-4.98,1.32-7.5-.65-2.01-2.7-3.85-4.51-5.47-.55-.5-1.08-.97-1.53-1.42-.45-.45-.94-.97-1.45-1.52-1.8-1.95-3.85-4.16-6.03-4.7-4.58.42-8.92-1.64-11.07-5.25-2.55-4.28-1.18-7.74.39-11.75.18-.46.37-.93.55-1.41.17-2.23-1.34-4.73-2.67-6.94-.45-.74-.87-1.45-1.21-2.1-1.61-3.12-2-5.79-1.41-9.52.17-.41.34-.78.51-1.14l.27-.89c.22-.33.45-.66.68-.98.18-.25.36-.5.53-.76,3.92-5.38,10.71-3.11,15.68-1.44.47,0,.93.01,1.4.02,6.14-2.9,11.76-6.74,15.05-10.28.12-.47.25-.93.38-1.38.18-5.89-.24-11.68-1.2-16.76-.22-.43-.44-.86-.67-1.27-4.4-3.58-11.18-6.11-15.67-7.79-.48-.03-.95-.06-1.43-.08-5.26,2.2-11.48,6.4-15.13,10.23-.12.46-.26.91-.4,1.36-.02,1.97.15,4.05.31,6.05.31,3.91.63,7.95-.32,11.68-.23.55-.5,1.07-.75,1.58l-.17.34c-.2.31-.38.62-.54.94l-.02.02c-3.72,4.08-8.85,3.84-13.81,3.62-.59-.03-1.17-.05-1.75-.07-2.9-.1-5.88-.18-8.87-.23-.66-.01-1.35-.05-2.07-.09-2.57-.13-5.24-.27-7.44.59Z"/>
    <path class="st19" d="M420.36,255.55l.02-.05c1.6-3.07,3.46-6.07,5.25-8.97.53-.86,1.06-1.71,1.59-2.57.63-1.04,1.27-2.14,1.88-3.21,1.86-3.23,3.78-6.57,6.24-9.2l.03-.03h.04c3.94.1,7.96.15,11.84.21,3.44.05,7,.1,10.49.17,3.44.08,6.69.15,9.53-2.21,2.51-2.08,3.71-5.07,3.56-8.87-.08-1.98-.24-3.99-.41-5.94-.2-2.42-.41-4.92-.45-7.39h0s0-.04,0-.04c.07-.33.14-.66.22-.98v-.03s.03-.02.03-.02c4.56-4.33,10.82-7.87,16.35-11l.04-.02h.04c2.25.62,4.42,1.74,6.53,2.83.71.37,1.45.75,2.17,1.1.71.34,1.42.68,2.14,1.01,2.22,1.04,4.52,2.12,6.62,3.42l.03.03c.2.28.38.57.54.87v.03c.35,2.39.52,4.83.69,7.19.05.71.1,1.42.15,2.13.06.8.17,1.67.29,2.59.32,2.48.68,5.29.08,7.44v.04s-.02.03-.02.03l-.02.02c-4.92,4.59-11.61,8.52-16.36,11.01l-.03.02h-.04c-1.15-.31-2.22-.76-3.26-1.2-1.8-.76-3.5-1.48-5.58-1.43-3.09.08-5.08,1.5-7.37,3.35-2.49,4.02-2.99,7.33-1.63,10.73.76,1.91,1.82,3.75,2.83,5.54.87,1.53,1.78,3.11,2.5,4.74l.02.05-.05.09-.11.79v.02c-3.95,7.36-3.2,12.61,2.35,16.54,1.71.83,4.35,1.71,7.11,1.13h.04c.27.05.54.09.8.1l.22.07c5.2,3.94,10.12,9.41,13.36,13.18l.02.03v.04c-.03,2.34-.76,4.83-1.47,7.25-.26.89-.51,1.73-.72,2.54-.19.73-.36,1.5-.53,2.24-.49,2.14-.99,4.35-1.9,6.29v.03s-.04.02-.04.02c-1.94,1.13-4.28,1.72-6.54,2.29-.74.19-1.44.36-2.13.56-.78.22-1.56.48-2.4.75-2,.65-4.07,1.32-6.05,1.48-.27.11-.56.2-.85.24h-.03s-.03,0-.03,0c-.39-.18-.78-.36-1.16-.54l-.02-.02c-1.84-1.65-3.64-3.4-5.38-5.1-.49-.48-.99-.96-1.48-1.44-.52-.5-1.09-1.01-1.69-1.54-1.64-1.45-3.34-2.95-4.29-4.71v-.03s-.01-.03-.01-.03c.08-1.2.37-2.39.64-3.55.4-1.68.81-3.41.59-5.18-.32-2.57-1.61-4.85-3.95-6.97-3.3-2.09-6.87-2.12-10.64-2.15-.68,0-1.38-.01-2.09-.03-1.35-.04-2.78-.03-4.16-.02-3.47.02-7.06.04-10.36-.61h-.03s-.02-.02-.02-.02c-1.56-1.36-2.68-3.72-3.67-5.8-.38-.79-.73-1.54-1.09-2.2-1.81-3.32-3.31-6.09-4.73-8.74h0c-.25-.46-.51-.92-.76-1.38-1.08-1.96-2.19-3.98-3.15-6.04v-.03s-.14-.8-.14-.8l-.06-.12ZM435.46,231.72c-2.43,2.61-4.34,5.92-6.18,9.13-.62,1.07-1.25,2.18-1.89,3.21-.52.86-1.05,1.72-1.59,2.57-1.78,2.88-3.63,5.86-5.22,8.91l.03.07.13.8c.96,2.04,2.07,4.06,3.14,6.01.25.46.51.92.76,1.38h0c1.42,2.64,2.92,5.42,4.73,8.74.36.67.72,1.42,1.1,2.21.98,2.06,2.08,4.39,3.6,5.72,3.27.64,6.84.62,10.29.6,1.38,0,2.8-.02,4.16.02.7.02,1.4.02,2.08.03,3.8.03,7.39.06,10.76,2.19,2.38,2.16,3.69,4.49,4.02,7.11.23,1.81-.19,3.56-.6,5.26-.27,1.13-.55,2.31-.63,3.48.93,1.72,2.61,3.2,4.23,4.63.6.53,1.17,1.04,1.7,1.54.49.48.99.96,1.48,1.44,1.73,1.69,3.52,3.45,5.36,5.09.37.18.75.35,1.12.52.27-.05.54-.12.79-.23h.03c1.96-.16,4.03-.83,6.02-1.48.83-.27,1.62-.53,2.4-.75.69-.2,1.4-.37,2.14-.56,2.24-.56,4.56-1.14,6.46-2.25.89-1.92,1.39-4.11,1.87-6.23.17-.74.34-1.51.53-2.25.21-.82.46-1.66.72-2.55.7-2.39,1.43-4.86,1.46-7.15-3.24-3.76-8.13-9.19-13.29-13.11l-.15-.05c-.25,0-.52-.04-.79-.1-2.8.58-5.48-.31-7.23-1.16-3.06-2.17-4.65-4.71-4.89-7.78-.2-2.61.6-5.56,2.45-9.01l.11-.8.02-.03c-.71-1.6-1.6-3.16-2.47-4.67-1.02-1.79-2.07-3.63-2.85-5.56-1.39-3.47-.88-6.84,1.66-10.93l.02-.03c2.32-1.88,4.35-3.32,7.5-3.41,2.12-.06,3.84.67,5.66,1.44,1.02.43,2.07.88,3.19,1.17,4.73-2.48,11.37-6.38,16.26-10.94v-.02c.6-2.12.24-4.9-.08-7.36-.12-.92-.23-1.8-.29-2.6-.05-.71-.1-1.42-.15-2.13-.17-2.35-.34-4.78-.67-7.15-.16-.28-.33-.56-.51-.82-2.09-1.28-4.37-2.36-6.58-3.4-.72-.34-1.43-.67-2.14-1.02-.72-.35-1.46-.73-2.18-1.1-2.08-1.07-4.23-2.18-6.45-2.79-5.5,3.11-11.72,6.63-16.25,10.93-.07.3-.14.62-.21.93.03,2.47.24,4.97.45,7.4.16,1.95.33,3.96.41,5.95.15,3.87-1.07,6.9-3.64,9.03-2.9,2.4-6.18,2.33-9.66,2.25-3.49-.08-7.05-.13-10.49-.17-3.87-.05-7.87-.11-11.8-.2Z"/>
  </g>
</svg>