<?xml version="1.0" encoding="UTF-8"?>
<svg id="_x2018_лой_x5F_1" xmlns="http://www.w3.org/2000/svg" version="1.1" viewBox="0 0 2800 2000">
  <!-- Generator: Adobe Illustrator 29.3.0, SVG Export Plug-In . SVG Version: 2.1.0 Build 146)  -->
  <defs>
    <style>
      .st0 {
        fill: #2e3552;
      }

      .st1 {
        fill: #234375;
      }

      .st2 {
        fill: #ed7d2b;
      }

      .st3 {
        fill: #2b478b;
      }

      .st4 {
        fill: #233862;
      }

      .st5 {
        fill: #ed975d;
      }

      .st6 {
        fill: #fff;
      }

      .st7, .st8 {
        fill: #ebf3fa;
      }

      .st7, .st9 {
        opacity: .5;
      }

      .st10 {
        fill: #ed985f;
      }

      .st11 {
        fill: #2f539b;
      }

      .st12 {
        fill: #2a4e96;
      }

      .st13 {
        fill: #f9ddbf;
      }

      .st14 {
        fill: #dfebfd;
      }

      .st15 {
        fill: #2a4a7c;
      }

      .st16 {
        fill: #163560;
      }

      .st17 {
        fill: #e58638;
      }

      .st18 {
        fill: #ffb27d;
      }

      .st19 {
        fill: #ef7e29;
      }

      .st20 {
        fill: #fca56b;
      }

      .st21 {
        fill: #2c3a64;
      }

      .st22 {
        fill: #f99746;
      }

      .st23 {
        fill: #d4e1ff;
      }

      .st24 {
        fill: #739af0;
      }

      .st9 {
        fill: #c5ddff;
      }

      .st25 {
        fill: #aec3ff;
      }
    </style>
  </defs>
  <path class="st8" d="M459.22,1770.17s-312.49-338.38-202.58-732.84c71.79-257.64,309.81-101.55,297.13-519.22-12.68-417.67,701.33-461.08,899.29-339.9,197.96,121.17,202.15,198.6,610.92,150.48,408.77-48.12,586.66,319.11,374.87,627.63-185.46,270.17,418.67,243.07,59.54,814.61l-2039.17-.75Z"/>
  <path class="st14" d="M1220.72,636.73l35.62-4.01c2.97-.31,5.86,1.08,7.48,3.58,2.06,3.2,4.27,6.34,6.63,9.41,4.38,5.71,9.07,10.99,14.11,15.75,2.36,2.24,3.14,5.63,1.93,8.62l-13.66,34.88c-1.49,3.71.15,7.97,3.79,9.76l30.69,15.2c3.48,1.71,7.66.53,9.76-2.7l18.56-29.08c1.74-2.87,5.21-4.2,8.55-3.31,14.1,3.73,28.77,5.18,43.45,4.33,3.54-.2,6.84,2.1,7.9,5.48l6.29,20.02c1.23,3.79,5.11,6.14,9.05,5.38l33.33-6.74c.69-.13,1.33-.33,1.92-.64,2.89-1.38,4.67-4.52,4.26-7.81l-2.97-26.61-.74-6.48c5.54-3.12,10.98-6.7,16.16-10.68,6.98-5.36,13.34-11.27,18.97-17.56,2.16-2.39,5.53-3.26,8.53-2.06l28.09,11.04c3.85,1.48,8.2-.18,9.99-3.87l11.63-23.46,3.31-6.73c1.82-3.67.6-8.15-2.85-10.33l-24.29-15.53c-2.84-1.77-4.23-5.13-3.42-8.32,2.26-9.58,3.53-19.37,3.7-29.16.08-.85.08-1.64.07-2.47-.02-.28.02-.56.05-.83.3-3.14,2.49-5.75,5.51-6.69l32.49-10.28c.37-.09.73-.27,1.06-.42,3.16-1.54,4.97-5.09,4.29-8.61l-6.67-33.24c-.81-4.01-4.53-6.73-8.63-6.3l-37.15,4.2c-3.15.39-6.17-1.23-7.67-4.02-3.35-6.1-7.23-12.05-11.63-17.79-2.33-3.04-4.77-5.96-7.3-8.74-2.04-2.28-2.65-5.51-1.52-8.35l13.12-33.53c1.46-3.68-.16-7.92-3.74-9.7l-30.38-14.99c-3.66-1.82-8.12-.62-10.37,2.88l-14.69,23c-1.97,3.09-5.74,4.4-9.19,3.25-13.5-4.68-27.65-7.18-41.91-7.53-3.37-.03-6.37-2.26-7.39-5.52l-9.25-29.28c-1.24-3.93-5.25-6.27-9.29-5.49l-33.12,6.63c-3.98.79-6.68,4.53-6.2,8.5l.16,1.56,3.46,30.92c.37,3.31-1.32,6.44-4.29,7.97l-.03.02c-7.09,3.67-13.97,8.01-20.55,13.05-3.51,2.69-6.81,5.52-10.01,8.47-2.2,2.08-5.38,2.69-8.19,1.6l-28.51-11.2c-3.9-1.55-8.34.19-10.17,3.91l-14.95,30.25c-.42.86-.65,1.78-.77,2.66-.3,2.89,1.04,5.86,3.59,7.5l19.43,12.35c2.36,1.54,3.74,4.23,3.63,6.98-.04.72-.16,1.46-.4,2.18-5.91,17.35-8.27,35.68-7,53.98.26,3.1-1.46,6-4.16,7.43-.39.2-.8.37-1.24.51l-26.31,8.31c-3.81,1.2-6.11,5.08-5.35,9.03l.15.77,6.47,32.4c.86,4.07,4.63,6.8,8.76,6.34ZM1448.61,535.58c2.04,5.09,3.68,10.58,4.83,16.45,2.18,11.19-.09,28.86-5.15,39.1-.54,1.1-1.09,2.17-1.65,3.24-34.85,64.7-126.22,51.83-141.26-21.17-1.95-9.55-.73-23.44,2.68-34.1.83-2.46,1.72-4.77,2.73-6.73,4.65-9.29,10.42-17.07,17-23.4,37.52-36.04,100.21-24.24,120.82,26.6Z"/>
  <path class="st14" d="M2351.75,511.96c-34.2-68.92-152.59-21.74-152.59-21.74,0,0-58.14,144.05-81.82,151.91-23.68,7.86,25.66-132.87,25.66-132.87-47.95,4.79-156.37,86.27-156.37,86.27,0,0,37.13,147.21,12.25,149-24.88,1.79-26.23-132.02-26.23-132.02-42.81,22.7-74.75,84.25-74.75,84.25-35.93,97.05,90.54,138.17,90.54,138.17,0,0,11.77,51.29-8.34,116.81h0s-5.02,12.36-8.64,32.38l12.41-2.47c.35-3.53.83-6.97,1.45-10.3,0-.02,0-.04.01-.06,0-.05.02-.1.03-.14.47-2.09,1.15-5.06,2.01-8.69,0,0,0,0,0-.01,0,0,0,0,0-.02,2.32-8.18,3.79-14.17,4.62-18.45,0-.01,0-.03,0-.04,6.73-25.56,17.07-59.17,26.72-67.71,0,0-1.76-1.66-3.79-5.17,1.21,1.65,2.47,3.36,3.79,5.17,30.29,41.3,138.02,27.79,194.79,3.89,56.77-23.9,27.66-35.46-9.59-56.23-37.25-20.76-102.6-.36-124.44-7.06-21.84-6.7,4.88-23.05,44.94-27.86,40.06-4.8,67.62,30.73,132.57,24.14,64.94-6.59,89.68-136.12,89.68-136.12-41.29,22.4-125.03,13.8-131.08-.78-6.05-14.57,111.1-36.27,128.41-44.44,17.31-8.17,41.94-50.92,7.74-119.84Z"/>
  <path class="st14" d="M398.26,1041.7c-13.92-75.67,109.14-108.84,109.14-108.84,0,0,132.86,80.49,156.53,72.59,23.66-7.9-100.16-91-100.16-91,41.26-24.89,176.89-24.63,176.89-24.63,0,0,58.48,140.1,79.47,126.62,20.99-13.48-58.11-121.41-58.11-121.41,47.88-7.48,110.33,22.66,110.33,22.66,86.92,56.17,10.3,164.88,10.3,164.88,0,0,21.31,48.12,76.67,88.51h0s11.42,6.88,26.32,20.75l-11.41,5.46c-2.4-2.61-4.84-5.08-7.34-7.38-.01-.02-.02-.03-.05-.04-.04-.03-.07-.07-.11-.1-1.63-1.39-3.95-3.36-6.81-5.75,0,0,0,0-.01,0,0,0-.01,0-.01-.01-6.75-5.16-11.52-9.07-14.76-12-.01,0-.02-.02-.03-.03-20.71-16.43-49.12-37.14-61.96-38.19,0,0,.41-2.38-.06-6.4.02,2.04.04,4.17.06,6.4.5,51.22-93.85,104.95-153.62,119.84-59.77,14.89-43.39-11.82-26.01-50.76,17.38-38.94,81.93-61.76,95.4-80.22,13.47-18.45-17.72-15.53-52.67,4.63-34.95,20.16-35.72,65.12-91.67,98.76-55.94,33.64-153.37-55.24-153.37-55.24,46.48-6.81,108.36-63.87,104.48-79.16-3.89-15.29-110.68,37.54-129.43,41.36-18.75,3.83-64.09-15.64-78.01-91.31Z"/>
  <path class="st14" d="M2424.75,1527.38c60.55-47.46-9.66-153.83-9.66-153.83,0,0-152.85-27.72-165.34-49.31-12.5-21.59,135.31-1.82,135.31-1.82-14.42-45.98-116.19-135.63-116.19-135.63,0,0-136.62,66.21-143.42,42.21-6.8-24,123.96-52.46,123.96-52.46-30.91-37.32-97.66-56.11-97.66-56.11-102.32-15.5-116.94,116.69-116.94,116.69,0,0-47.84,21.93-116.07,15.52h0s-13.12-2.41-33.46-1.9l4.93,11.65c3.53-.37,6.99-.6,10.38-.67.02,0,.04,0,.06,0,.05,0,.1,0,.15,0,2.14.04,5.19.1,8.91.21,0,0,0,0,.01,0,0,0,.01,0,.02,0,8.48.61,14.64.84,19,.79.01,0,.03,0,.04,0,26.39,1.41,61.4,4.72,71.72,12.44,0,0,1.27-2.06,4.29-4.76-1.37,1.52-2.79,3.1-4.29,4.76-34.3,38.04.78,140.79,35.69,191.53,34.91,50.75,40.34,19.89,53.11-20.8,12.78-40.69-20.46-100.54-18.32-123.28,2.14-22.74,23.57.11,36.39,38.36,12.83,38.25-16.38,72.45,3.25,134.71,19.62,62.25,151.48,60.22,151.48,60.22-30.31-35.89-38.87-119.63-25.82-128.51,13.04-8.88,58.04,101.44,69.56,116.73,11.51,15.29,58.37,30.74,118.92-16.73Z"/>
  <g>
    <path class="st9" d="M1875.01,636.59s7.1-141.77,73.37-230.65c8.81-11.81,27.62-5.97,28.33,8.74.01.25.02.49.03.75.8,25.15-72.59,136.51-101.73,221.16Z"/>
    <path class="st9" d="M1869.03,677.45s59.69-180.7,176.97-266.88c7.15-5.26,17.4-4.23,22.91,2.72,3.59,4.53,5.57,11.85,2.71,23.7-7.64,31.59-137.25,145.06-202.59,240.47Z"/>
  </g>
  <g>
    <path class="st9" d="M853.73,866.87s-59.49-103.76-143.21-145.2c-11.13-5.51-23.03,6.06-17.94,17.39.08.19.17.38.26.57,9.01,19.19,106.66,74.8,160.88,127.24Z"/>
    <path class="st9" d="M873.83,895.27s-113.86-112.91-234.86-132.83c-7.38-1.21-14.68,3.47-16.17,10.79-.97,4.77.34,11.03,7.02,18.83,17.81,20.8,158.49,56.52,244.01,103.21Z"/>
  </g>
  <path class="st25" d="M2167.31,642.57v900.1c0,15.75-11.37,28.52-25.38,28.52H843.28c-14.02,0-25.38-12.77-25.38-28.52v-900.1c0-15.76,11.37-28.52,25.38-28.52h1298.65c14.02,0,25.38,12.76,25.38,28.52Z"/>
  <g>
    <path class="st22" d="M2103.12,591.18v72.99H653.83v-72.99c0-15.06,12.21-27.26,27.26-27.26h1394.77c15.05,0,27.26,12.2,27.26,27.26Z"/>
    <g>
      <path class="st14" d="M698.16,614.05c0-7.01,5.68-12.69,12.69-12.69s12.69,5.68,12.69,12.69-5.68,12.69-12.69,12.69-12.69-5.68-12.69-12.69Z"/>
      <path class="st14" d="M748.17,614.05c0-7.01,5.68-12.69,12.69-12.69s12.69,5.68,12.69,12.69-5.68,12.69-12.69,12.69-12.69-5.68-12.69-12.69Z"/>
      <path class="st14" d="M799.45,614.05c0-7.01,5.68-12.69,12.69-12.69s12.69,5.68,12.69,12.69-5.68,12.69-12.69,12.69-12.69-5.68-12.69-12.69Z"/>
    </g>
  </g>
  <path class="st14" d="M1592.75,485.29l17.35-1.95c1.45-.15,2.85.52,3.64,1.74,1,1.56,2.08,3.09,3.23,4.58,2.13,2.78,4.42,5.35,6.87,7.67,1.15,1.09,1.53,2.74.94,4.2l-6.65,16.99c-.73,1.81.07,3.88,1.85,4.75l14.95,7.4c1.7.83,3.73.26,4.75-1.32l9.04-14.16c.85-1.4,2.54-2.04,4.17-1.61,6.87,1.81,14.01,2.52,21.16,2.11,1.72-.1,3.33,1.02,3.85,2.67l3.06,9.75c.6,1.84,2.49,2.99,4.41,2.62l16.23-3.28c.33-.06.65-.16.94-.31,1.41-.67,2.27-2.2,2.08-3.8l-1.45-12.96-.36-3.16c2.7-1.52,5.35-3.26,7.87-5.2,3.4-2.61,6.5-5.49,9.24-8.55,1.05-1.17,2.7-1.59,4.15-1l13.68,5.37c1.88.72,3.99-.09,4.87-1.89l5.66-11.43,1.61-3.28c.89-1.79.29-3.97-1.39-5.03l-11.83-7.56c-1.38-.86-2.06-2.5-1.67-4.05,1.1-4.66,1.72-9.43,1.8-14.2.04-.42.04-.8.04-1.2,0-.14,0-.27.03-.4.15-1.53,1.21-2.8,2.68-3.26l15.82-5.01c.18-.04.36-.13.52-.2,1.54-.75,2.42-2.48,2.09-4.19l-3.25-16.19c-.39-1.95-2.2-3.28-4.2-3.07l-18.09,2.05c-1.53.19-3-.6-3.74-1.96-1.63-2.97-3.52-5.87-5.67-8.67-1.14-1.48-2.32-2.9-3.56-4.26-1-1.11-1.29-2.68-.74-4.06l6.39-16.33c.71-1.79-.08-3.85-1.82-4.72l-14.8-7.3c-1.79-.89-3.95-.3-5.05,1.4l-7.15,11.2c-.96,1.5-2.8,2.14-4.47,1.58-6.57-2.28-13.46-3.5-20.41-3.67-1.64-.01-3.1-1.1-3.6-2.69l-4.51-14.26c-.6-1.91-2.56-3.05-4.52-2.67l-16.13,3.23c-1.94.38-3.25,2.21-3.02,4.14l.08.76,1.68,15.06c.18,1.61-.64,3.13-2.09,3.88h-.01c-3.45,1.8-6.8,3.91-10.01,6.37-1.71,1.31-3.32,2.69-4.88,4.13-1.07,1.01-2.62,1.31-3.99.78l-13.89-5.46c-1.9-.75-4.06.09-4.95,1.9l-7.28,14.73c-.2.42-.32.87-.38,1.3-.14,1.41.51,2.85,1.75,3.65l9.46,6.01c1.15.75,1.82,2.06,1.77,3.4-.02.35-.08.71-.19,1.06-2.88,8.45-4.03,17.37-3.41,26.29.13,1.51-.71,2.92-2.03,3.62-.19.1-.39.18-.6.25l-12.81,4.05c-1.86.58-2.98,2.47-2.6,4.4l.07.38,3.15,15.78c.42,1.98,2.25,3.31,4.27,3.09ZM1703.73,436.03c.99,2.48,1.79,5.15,2.35,8.01,1.06,5.45-.04,14.05-2.51,19.04-.26.54-.53,1.06-.81,1.58-16.97,31.51-61.47,25.24-68.79-10.31-.95-4.65-.36-11.42,1.3-16.61.4-1.2.83-2.32,1.33-3.28,2.27-4.52,5.07-8.31,8.28-11.39,18.27-17.55,48.8-11.8,58.84,12.95Z"/>
  <g>
    <path class="st21" d="M789.24,1299.68s1.93-21.06-21.6-21.06c0,0,7.13,1.93,10.82,5.8,0,0-15.01-8.81-31.35,4.73-16.34,13.54-6.19,47.5-11.15,53.95-4.97,6.45-24.31,7.74-21.95,28.59,2.36,20.85,61.4,46.96,57.6,64.21,0,0,23.13-34.01,6.59-49.53,0,0,8.06,7.59,8.88,16.62,0,0,2.19-17.62-9.03-23.26-9.93-4.99-18.06-23.23-17.2-26.5.86-3.26,28.37-53.56,28.37-53.56Z"/>
    <path class="st18" d="M766.07,1400.82s17.58,72.74,34.84,87.28c10.37,8.74,41.22,28.8,41.22,28.8l-12.83,4.66s-42.79-14.45-52.36-25.71c-9.58-11.26-35.8-67.7-35.8-67.7l24.94-27.33Z"/>
    <path class="st11" d="M600.82,1528.61c.15.28.32.57.48.85,3.85,6.69,12.67,23.07,22.4,41.01,4.6,8.51,9.41,17.37,13.98,25.7,7.87,14.38,15.03,27.19,19.21,33.96,4.25,6.88,7.38,11.72,8.64,13.65h.01c.38.61.46,1.31.41,2.01-.44,6.07-.32,12.1.28,18.03,5.86,58.34,45.2,89.6,45.2,89.6l11.7,1.73s-16.55-61.32-21.43-95.99c-.82-5.87-1.18-10.64-.9-13.74.86-9.03-.74-22.29-3.78-37.52-5.4-27.06-15.31-60.26-23.92-86.85-.54-1.7-17-61.2-17-61.2-13.81,12.07-64.16,17.05-64.16,17.05,0,0-8.54,20.76,8.87,51.71Z"/>
    <path class="st1" d="M747.68,1769.95h-48.82s-1.17-7.44,1.38-13.08c2.44-5.42,5.93-5.59.44-14.08,3.1,3.19,13.07,4.52,20.13,3.57.87,1.4,5.58,10.81,8.46,12.88,3.19,2.29,17.42,1.48,18.4,10.71Z"/>
    <path class="st4" d="M600.82,1528.61c.15.28.32.57.48.85,3.85,6.69,24.66,45.12,34.38,63.05-11.26-46.35-3.43-92.69-3.43-92.69l-31.43,28.79Z"/>
    <path class="st21" d="M782.59,1296.72c.32-1.28-27.88,12.75-29.31,14.33-13.23,14.67-9.46,33.82-1.89,34,4.85.12,3.91,8.19,3.91,8.19l54.07-22.87s-6.51-37.96-26.79-33.65Z"/>
    <path class="st22" d="M764.42,1389.9s8.23,16.44,7.2,29.78c0,0-9.92,15.66-35.65,19.63,0,0,22.12-49.42,28.45-49.41Z"/>
    <path class="st11" d="M638.88,1480.53l.17-9.13c-18.19,2.29-62.72-21.74-62.72-21.74,0,0-19.03,12.66-21.64,48.81-1.27,17.64-9.32,92.26-10.21,114.54-.32,8.08-.43,13.84-.47,16.14,0,.01,0,.02,0,.02-.01.7-.34,1.32-.77,1.88-3.76,4.78-7.03,9.85-9.86,15.11-27.76,51.65-13.24,121.82-13.24,121.82l6.45-1.64s23.47-72.75,38.81-104.22c2.6-5.34,4.97-9.49,6.95-11.89,5.77-7.01,11.85-18.9,17.84-33.22,11.33-27.07,48.69-136.49,48.69-136.49Z"/>
    <path class="st1" d="M558.96,1769.95h-48.82s-1.17-7.44,1.38-13.08c2.44-5.42,6.27-7.88,5.35-14.43,3.1,3.19,8.16,6.77,15.22,5.82.86,1.4,5.58,8.91,8.47,10.98,3.19,2.29,17.42,1.48,18.4,10.71Z"/>
    <path class="st22" d="M732.67,1449.78c-6.56,1.12,1.07,6.33-7.95,7.31-12.84,1.4-26.09,2.36-33.03,5.13-2.53,1.01-4.23,2.26-4.75,3.85-3.01,9.05-22.07,24.6-22.07,24.6-85.01-3.87-90.48-41.76-90.48-41.76,55.17-53.58,102.11-82.79,140.9-86.4,9.44-.88,22.17.3,28.14,2.96,13.57,6.04,21,24.42,21,24.42,0,0-6.83,55.64-31.75,59.89Z"/>
    <path class="st2" d="M724.72,1457.09c-12.84,1.4-26.09,2.36-33.03,5.13-2.84-42.4,17.17-74.29,17.17-74.29,0,0,13.05,53.11,15.86,69.16Z"/>
    <path class="st18" d="M742.69,1368.97c2.43,7.6,10.52,29.26,21.73,20.92-.38-1.62,1.98-6.32,4.75-11.09,3.55-6.1,7.78-12.34,7.78-12.34l-18.27-16.01-1.09-.96c-4.78,8.34-9.48,12.36-13.59,15.43-1.25.93-1.78,2.55-1.31,4.04Z"/>
    <path class="st10" d="M776.94,1366.48s-4.22,6.22-7.77,12.33c-11.36-7-11.37-21.06-10.49-28.34l18.27,16.01Z"/>
    <path class="st18" d="M777.45,1374.5s-27.57-15.34-17.75-32.37c9.82-17.02,12.87-30.47,30.89-21.39,18.02,9.08,17.66,17.53,15.77,24.01-1.89,6.48-21.48,33.31-28.91,29.75Z"/>
    <path class="st21" d="M811.02,1334.81c-1.26-7.56-5.1-8.28-7.78-7.78-10.18-16.84-26.82-10.27-26.82-10.27-8.89,11.15-21.73,13.05-21.73,13.05,0,0,3.2,5.95,16.38,9.64,4.03,1.12,8.6.44,13.01-1.04-9.15,5.1-18.71,7.05-18.71,7.05,17.37,1.59,33.9-14.29,35.62-15.99.8,2.46,2.21,7.62,1.37,11.38-1.14,5.12-5.69,14.39-2.91,15.59,0,0,13.48-10.31,11.59-21.64Z"/>
    <g>
      <rect class="st3" x="855.27" y="1600.52" width="228.89" height="60.03" transform="translate(812.59 -260.05) rotate(25.99)"/>
      <path class="st3" d="M789.34,1618.65c-18.89-9.21-32.31-26.27-36.82-46.81-1.83-8.34,3.44-16.58,11.78-18.42,8.34-1.83,16.58,3.44,18.42,11.78,2.47,11.26,9.83,20.61,20.17,25.65,18.56,9.05,41.01,1.31,50.06-17.25,9.05-18.56,1.31-41.01-17.25-50.06-8.43-4.11-18.02-4.91-27-2.26-8.19,2.42-16.79-2.26-19.2-10.45-2.42-8.19,2.26-16.79,10.45-19.21,16.41-4.85,33.92-3.38,49.3,4.12,33.88,16.52,48.01,57.52,31.49,91.4-16.52,33.88-57.52,48.01-91.4,31.49Z"/>
      <path class="st3" d="M1080.4,1760.54c-33.88-16.52-48.01-57.52-31.49-91.4,16.52-33.88,57.52-48.01,91.4-31.49,15.39,7.5,27.32,20.4,33.61,36.31,3.14,7.94-.76,16.92-8.7,20.06-7.94,3.14-16.92-.75-20.06-8.69-3.44-8.71-9.98-15.77-18.41-19.88-18.56-9.05-41.01-1.31-50.06,17.25-9.05,18.56-1.31,41.01,17.25,50.06,10.34,5.04,22.24,5.08,32.63.09,7.7-3.69,16.93-.45,20.62,7.25,3.69,7.7.45,16.93-7.25,20.62-18.96,9.09-40.67,9.03-59.55-.18Z"/>
      <path class="st4" d="M1011.69,1659.84l-108.39-52.84c-3.11-1.52-4.41-5.3-2.9-8.41l2.76-5.65c1.52-3.11,5.3-4.41,8.41-2.9l108.39,52.84c3.11,1.52,4.41,5.3,2.9,8.41l-2.75,5.65c-1.52,3.11-5.3,4.41-8.41,2.9Z"/>
    </g>
    <path class="st18" d="M761.66,1563.83s.6,5.14,2.77,7.79c2.17,2.65,8.49,9.07,8.6,12.83,0,0-.32,1.67-1.67,1.36-1.35-.3-6.06-4.96-8.47-4.63,0,0,1.29,7.53,2.57,9.65,1.28,2.12,3.63,10.11,2.86,11.94s-13.55-8.82-17.42-14.03c-3.87-5.21-.06-26.33-.06-26.33l10.84,1.41Z"/>
    <path class="st18" d="M735.79,1380.76s-32.28-1.76-38.02,18.5c-5.74,20.27,10.76,101.16,14.32,109.51,6.47,15.2,37.98,58.58,37.98,58.58l11.59-3.53s-21.01-66.28-25.7-72.84c-7.36-10.3,9.49-101.42-.17-110.24Z"/>
    <path class="st22" d="M691.41,1426.37c.08.47,30.55,5.6,49.6-4.07,0,0,15.92-49.87-6.83-47.48-22.75,2.39-36.22,9.55-36.79,20.44-.57,10.89-5.98,31.11-5.98,31.11Z"/>
    <path class="st18" d="M826.28,1484.47c-1.53.07-4.34.57-5.35,1.35-1.76,1.36-3.74,3.72.2,5.68,5.92,2.95,17.75,1.64,17.29-.14-1.46-5.59-3.59-7.29-12.14-6.9Z"/>
  </g>
  <g>
    <path class="st18" d="M996.37,690.63c-1.56,1.78-1.75,3.78-.98,5.91,0,0,0,.02.02.03,1.42,3.94,6.13,8.33,11.6,12.72.7.56,1.32,1.08,1.86,1.55.14.12.28.25.42.38.11.1.22.2.32.29,5.1,4.7,3.18,5.78,12.34,15.31,10.44,10.87,17.63,11.06,19.68,10.07,1.73-.84-1.79-6.61-5.68-13.08-.19-.31-.37-.63-.57-.94-.52-.86-1.03-1.74-1.55-2.6-4.57-7.8-3.39-11.45-2.31-23.06.88-9.43,14.67-52.67,14.67-52.67l-20.01-3.45s-6.03,34.43-12.67,39.74c-3.55,2.83-7.53,2.86-10.94,4.96-.24.15-.48.29-.71.45-1.94,1.29-3.92,2.61-5.48,4.4Z"/>
    <path class="st4" d="M996.37,690.63c-1.56,1.78-1.75,3.78-.98,5.91,0,0,0,.02.02.03,1.74,3.93,6.33,8.31,11.62,12.68.69.57,1.3,1.1,1.84,1.59.14.12.28.25.42.38.11.1.22.2.32.29,5.1,4.7,3.18,5.78,12.34,15.31,10.44,10.87,17.63,11.06,19.68,10.07,1.73-.84-1.79-6.61-5.68-13.08-2.03-.74-11.48-4.58-18.62-13.72-6.29-8.02-10.48-18.34-14.76-24.31-.24.15-.48.29-.71.45-1.94,1.29-3.92,2.61-5.48,4.4Z"/>
    <path class="st18" d="M1157.74,678.13c1.24,6.18,10.04,5.15,19.88,2.74,9.84-2.4,7.5.45,21.5-1.1,14-1.55,18.24-6.77,18.67-8.85.38-1.85-6.54-2.5-13.96-3.35-.93-.11-1.87-.22-2.81-.34-8.38-1.05-14.51-6.46-22.12-10.9-7.21-4.21-17.97-21.34-17.97-21.34l-19.2,1.52s10.08,15.3,13.97,21.96c2.29,3.91,2.17,9.09,1.88,13.09-.15,2.17-.29,4.39.15,6.57Z"/>
    <path class="st4" d="M1177.62,680.87c9.84-2.4,7.5.45,21.5-1.1,14-1.55,18.24-6.77,18.67-8.85.38-1.85-6.54-2.5-13.96-3.35l-.07.14s-8.4,5.95-20.05,6.23c-9.5.23-19.56-2.49-26.12-2.38-.15,2.17-.29,4.39.15,6.57,1.24,6.18,10.04,5.15,19.88,2.74Z"/>
    <path class="st21" d="M1084.15,555.35l-17.95,48.3-23.44,63.07s-6.36.61-12.45-1.14c-5.61-1.62-12.04-5.86-12.04-5.86,0,0,6.51-67.72,18.65-106.59,3.11-9.98,6.6-18.05,10.44-22.59,18.82-22.24,36.79,24.81,36.79,24.81Z"/>
    <path class="st11" d="M1065.9,478.64c-11.76-3.79-45.3,1.08-78.99,7.67l-7.05-11.64-72.78-5.68s-24.01,53.26-10.87,87.19c1.93,4.99,5.77,8.19,12.32,8.29,0,0,1.06,0,1.06,0,0,0,43.31-.03,57.38-.03,36.19,0,76.6-24.88,81.82-25.92,8.56-1.71,11.98,15.4,20.53,33.36,8.55,17.97,80.42,79.56,80.42,79.56,0,0,11.04.11,15.61-1.6,4.91-1.84,6.7-4.23,6.7-4.23,0,0-79.63-158.42-106.15-166.98Z"/>
    <path class="st3" d="M955.74,253.12c-10.2-2.62-24.16-.01-26.47.22-27.69,2.73-37,33.62-32.8,57.58,3.87,22.12-7.35,28.24-20.35,45.71-26.07,35.03-9.03,64.56,11.54,72.18,12.34,4.57,29.48-6.96,29.48-6.96.31.12,53.84-35.07,75.79-54.91,36.54-14.3-11.19-107.13-37.18-113.81Z"/>
    <path class="st18" d="M959.83,354.43c.73,2.56-11.38,7.27-20.63,5.54-8.7-1.62-18.45-11.81-16.44-12.76,3.33-1.58,5.57-5.52,3.75-26.78l1.66.19,27.83,3.18s.08,8.67.73,16.79c.54,6.82,1.92,9.67,3.1,13.85Z"/>
    <path class="st5" d="M956,323.79s.08,8.67.73,16.79c-15.36.82-24.61-12.49-28.56-19.97l27.83,3.18Z"/>
    <path class="st18" d="M961.74,331.06s-36.21,3.57-38.09-19.01c-1.88-22.58-7.81-37.33,15.23-40.57,23.04-3.23,28.25,5.01,30.71,12.39,2.46,7.39,1.52,45.67-7.85,47.19Z"/>
    <path class="st3" d="M957.87,267.92s-4.56,27.59-25.18,34.14c-15.04,4.78-21.86,1.63-21.86,1.63,0,0,7.24-9.61,9.82-22.95.76-3.93,3.56-7.17,7.36-8.42,10.69-3.52,23.64-13.13,29.86-4.38Z"/>
    <path class="st3" d="M951.04,273.8s6.82,1.52,12.87,10.33c3.3,4.81,7.13,16.94,6.48,22.31,0,0,6.34-25.53-2.9-35.03-9.8-10.07-16.45,2.4-16.45,2.4Z"/>
    <path class="st22" d="M894.63,428.62c.64,2.74,1.2,5.27,1.65,7.59.74,3.76,1.24,6.99,1.6,9.85,1.11,8.91.77,14.18,1.52,19.96.41,3.23,1.18,6.61,2.71,10.86,1.5,4.14,40.85,7.82,63.23,6.34,7.11-.46,12.52-1.46,14.45-3.12,7.99-6.94,7.19,8.32,8.28-64.67.53-35.6-30.21-67.31-30.21-67.31,0,0-2.45,15.21-32.94-2.89-1.08-.63-13.09,17.15-24.65,39.04-12.73,24.18-9.24,29.3-5.65,44.36Z"/>
    <path class="st3" d="M1066.2,603.65l-23.44,63.07s-6.36.61-12.45-1.14c-5.61-1.62-12.04-5.86-12.04-5.86,0,0,6.51-67.72,18.65-106.59l29.28,50.52Z"/>
    <path class="st22" d="M957.87,348.11s31.37,5.32,35.05,18.82c3.68,13.51,29.13,89.04,29.13,89.04,0,0-19.72,6.73-27.09-.64-7.37-7.37-25.63-68.35-25.63-68.35l-11.46-38.88Z"/>
    <path class="st6" d="M953.39,317.74s1.52,3.71,5.53,3.71,5.09-.6,5.85-1.45c.76-.85,1.51-2.48,1.51-2.48,0,0-6.64-1.31-12.89.22Z"/>
    <path class="st2" d="M897.88,446.07c1.11,8.91.77,14.18,1.52,19.96,28.48.09,66.56-22,66.56-22l-68.08,2.04Z"/>
    <path class="st2" d="M965.96,425.35s-44.37-1.32-51.85-26.54c-8.22-27.71-17.42,11.39-17.42,11.39l4.9,24.96h48.68l15.69-9.81Z"/>
    <g>
      <path class="st24" d="M1043.32,356.91l-2.4-5.94c-2.57-6.37-8.75-10.54-15.62-10.54h-44.23v147.89h182.98v-119.83h-103.54c-7.56,0-14.36-4.59-17.19-11.59Z"/>
      <g>
        <path class="st6" d="M1008.67,430.37v-10.66l37.39-16.38v10.89l-26.11,10.74,26.11,10.74v11.05l-37.39-16.38Z"/>
        <path class="st6" d="M1084.92,390.59h9.97l-34.22,71.54h-9.97l34.22-71.54Z"/>
        <path class="st6" d="M1136.45,419.71v10.66l-37.39,16.38v-10.89l26.11-10.74-26.11-10.74v-11.05l37.39,16.38Z"/>
      </g>
    </g>
    <path class="st18" d="M965.96,431.19l3.21-5.04s2.54-.83,6.11-3.33c4.24-2.98,3.68-7.43,5.8-6.96l.03,9.8-.23.03c9.09,2.43,19.73-.21,19.94,2.05.59,6.23-4.23,9.03-8.27,10.98-3.09,1.49-6.6,3.73-12.18,2-4.08-1.27-10.5-2.56-10.5-2.56l-3.9-6.97Z"/>
    <path class="st22" d="M924.92,345.23s-28.8,1.88-36,13.12c-7.2,11.23-16.13,68.27-12.39,87.86,3.74,19.59,95.98-3.74,95.98-3.74l-2.94-17s-53.23.31-56.27-6.62c-4.03-9.22,11.62-73.61,11.62-73.61Z"/>
    <path class="st18" d="M1063.96,368.44c-.25.75,4.33,8.29,10.87,6.98,4.08-.82,9.38-9.6,4.72-11.53-7.77-3.23-14.93,2.56-15.59,4.55Z"/>
  </g>
  <g>
    <rect class="st12" x="1284.97" y="663.58" width="227.16" height="1.1" transform="translate(154.09 1585.18) rotate(-61.91)"/>
    <rect class="st12" x="1783.03" y="540.34" width="1.1" height="176.89" transform="translate(48.04 1380.07) rotate(-42.83)"/>
    <g>
      <path class="st8" d="M1918.44,731.52c1.79,12.99-1.78,25.52-8.97,35.24-7.19,9.72-17.99,16.61-30.68,18.36l-537.63,73.87c-27.44,3.77-52.81-14.41-56.38-40.4-1.79-12.99,2.2-25.58,10.07-35.38,7.86-9.81,19.61-16.83,33.33-18.72l537.63-73.87c25.38-3.49,49.07,14.92,52.64,40.9Z"/>
      <path class="st22" d="M1918.44,731.52c1.79,12.99-1.78,25.52-8.97,35.24-7.19,9.72-17.99,16.61-30.68,18.36l-97.29,13.37-12.98-94.5,97.29-13.37c25.38-3.49,49.07,14.92,52.64,40.9Z"/>
      <g>
        <path class="st6" d="M1859.23,757.16c-1.2.16-2.41.24-3.64.23-6.49-.08-12.57-2.67-17.1-7.32-9.37-9.59-9.19-25.01.4-34.37h0c9.59-9.37,25.01-9.19,34.37.4,9.37,9.59,9.19,25.01-.4,34.37-3.76,3.68-8.51,5.99-13.63,6.69ZM1841.68,718.56c-8.01,7.82-8.16,20.7-.33,28.71,3.79,3.88,8.86,6.05,14.29,6.11,5.42.06,10.54-1.99,14.42-5.78,8.01-7.82,8.16-20.7.33-28.71-7.82-8.01-20.71-8.16-28.71-.33h0Z"/>
        <rect class="st6" x="1826.05" y="743.68" width="4" height="33.17" transform="translate(1094.2 -1078.55) rotate(45.66)"/>
        <path class="st6" d="M1807.94,779.91h0c-1.38-1.41-1.35-3.68.06-5.06l13.97-13.65c1.41-1.38,3.67-1.35,5.05.06h0c1.38,1.41,1.35,3.68-.06,5.05l-13.97,13.65c-1.41,1.38-3.68,1.35-5.05-.06Z"/>
      </g>
    </g>
  </g>
  <g>
    <rect class="st22" x="899.04" y="1234.74" width="120.79" height="10.25" rx="4.23" ry="4.23"/>
    <g>
      <path class="st24" d="M957.96,1280.22h-55.42c-1.93,0-3.5-1.57-3.5-3.5h0c0-1.93,1.57-3.5,3.5-3.5h55.42c1.93,0,3.5,1.57,3.5,3.5h0c0,1.93-1.57,3.5-3.5,3.5Z"/>
      <g>
        <path class="st24" d="M902.3,1258.56h98.1c1.8,0,3.25,1.46,3.25,3.25v.48c0,1.8-1.46,3.25-3.25,3.25h-98.1c-1.8,0-3.25-1.46-3.25-3.25v-.48c0-1.8,1.46-3.25,3.25-3.25Z"/>
        <path class="st24" d="M1016.33,1258.56h91.4c1.74,0,3.14,1.41,3.14,3.14v.7c0,1.74-1.41,3.14-3.14,3.14h-91.4c-1.74,0-3.15-1.41-3.15-3.15v-.7c0-1.74,1.41-3.14,3.14-3.14Z"/>
        <path class="st24" d="M1027.09,1280.22h-55.42c-1.93,0-3.5-1.57-3.5-3.5h0c0-1.93,1.57-3.5,3.5-3.5h55.42c1.93,0,3.5,1.57,3.5,3.5h0c0,1.93-1.57,3.5-3.5,3.5Z"/>
      </g>
    </g>
    <path class="st22" d="M1040.05,1234.74h112.33c2.34,0,4.23,1.9,4.23,4.23v1.78c0,2.34-1.9,4.23-4.23,4.23h-112.32c-2.34,0-4.23-1.9-4.23-4.23v-1.78c0-2.34,1.9-4.23,4.23-4.23Z"/>
  </g>
  <g>
    <path class="st22" d="M903.28,1311.9h112.33c2.34,0,4.23,1.9,4.23,4.23v1.78c0,2.34-1.9,4.23-4.23,4.23h-112.32c-2.34,0-4.23-1.9-4.23-4.23v-1.78c0-2.34,1.9-4.23,4.23-4.23Z"/>
    <g>
      <path class="st24" d="M957.96,1357.39h-55.42c-1.93,0-3.5-1.57-3.5-3.5h0c0-1.93,1.57-3.5,3.5-3.5h55.42c1.93,0,3.5,1.57,3.5,3.5h0c0,1.93-1.57,3.5-3.5,3.5Z"/>
      <g>
        <path class="st24" d="M902.3,1335.72h98.1c1.8,0,3.25,1.46,3.25,3.25v.48c0,1.8-1.46,3.25-3.25,3.25h-98.1c-1.8,0-3.25-1.46-3.25-3.25v-.48c0-1.8,1.46-3.25,3.25-3.25Z"/>
        <rect class="st24" x="1013.19" y="1335.72" width="97.68" height="6.99" rx="3.15" ry="3.15"/>
        <path class="st24" d="M1027.09,1357.39h-55.42c-1.93,0-3.5-1.57-3.5-3.5h0c0-1.93,1.57-3.5,3.5-3.5h55.42c1.93,0,3.5,1.57,3.5,3.5h0c0,1.93-1.57,3.5-3.5,3.5Z"/>
      </g>
    </g>
    <path class="st22" d="M1040.05,1311.9h112.33c2.34,0,4.23,1.9,4.23,4.23v1.78c0,2.34-1.9,4.23-4.23,4.23h-112.32c-2.34,0-4.23-1.9-4.23-4.23v-1.78c0-2.34,1.9-4.23,4.23-4.23Z"/>
  </g>
  <g>
    <polygon class="st4" points="1599.44 853.17 1535.29 868.1 1503.57 925.82 1479.35 794.27 1599.44 853.17"/>
    <rect class="st4" x="1541.74" y="852.08" width="11.73" height="67.85" transform="translate(-220.97 1114.53) rotate(-37.15)"/>
  </g>
  <g>
    <path class="st23" d="M1399.7,944.22h157.74c6.38,0,11.56,5.18,11.56,11.56v157.74c0,6.38-5.18,11.56-11.56,11.56h-157.74c-6.38,0-11.56-5.18-11.56-11.56v-157.74c0-6.38,5.18-11.56,11.56-11.56Z"/>
    <g>
      <path class="st24" d="M1411.25,1087.25l35.14-63.36c4.09-7.38,14.45-8.03,19.43-1.23l20.27,27.65c4.31,5.88,12.93,6.35,17.85.97h0c5.11-5.58,14.12-4.83,18.23,1.52l21.88,33.77c4.98,7.69-.54,17.84-9.7,17.84h-112.99c-8.81,0-14.38-9.46-10.11-17.17Z"/>
      <path class="st24" d="M1480.6,994.28c0-7.64,6.19-13.83,13.82-13.83s13.83,6.19,13.83,13.83-6.19,13.82-13.83,13.82-13.82-6.19-13.82-13.82Z"/>
    </g>
  </g>
  <g>
    <path class="st23" d="M1788.82,1129.96l-156.3,21.32c-6.33.86-12.15-3.57-13.02-9.89l-21.32-156.29c-.86-6.33,3.57-12.15,9.89-13.02l156.3-21.32c6.33-.86,12.15,3.57,13.02,9.89l21.32,156.3c.86,6.33-3.57,12.15-9.89,13.02Z"/>
    <g>
      <path class="st24" d="M1638.85,1112.23l26.26-67.53c3.06-7.86,13.23-9.91,19.09-3.84l23.82,24.66c5.07,5.25,13.67,4.54,17.82-1.45h0c4.31-6.22,13.33-6.7,18.27-.96l26.24,30.51c5.98,6.95,1.88,17.75-7.2,18.99l-111.96,15.27c-8.73,1.19-15.53-7.43-12.34-15.64Z"/>
      <path class="st24" d="M1695.01,1010.74c-1.03-7.57,4.26-14.54,11.83-15.57,7.57-1.03,14.54,4.26,15.57,11.83,1.03,7.57-4.26,14.53-11.83,15.57-7.57,1.03-14.53-4.26-15.57-11.83Z"/>
    </g>
  </g>
  <g>
    <rect class="st22" x="1238.11" y="1688.69" width="91.15" height="78.15"/>
    <rect class="st25" x="1234.43" y="1685.35" width="97.91" height="6.04"/>
    <rect class="st13" x="1238.11" y="1709.84" width="91.15" height="24.82"/>
  </g>
  <path class="st22" d="M1440.15,1766.9h-86.07c-3.15,0-5.71-2.55-5.71-5.7v-9.55c0-3.4,2.95-6.05,6.33-5.67l86.07,9.55c2.89.32,5.08,2.76,5.08,5.67h0c0,3.15-2.55,5.7-5.7,5.7Z"/>
  <path class="st0" d="M2643.95,1774.63l-2396.18-.83c-1.61,0-2.92-1.32-2.92-2.92v-1.5c0-1.61,1.32-2.92,2.92-2.92l2396.18.83c1.61,0,2.92,1.32,2.92,2.92v1.5c0,1.61-1.32,2.92-2.92,2.92Z"/>
  <path class="st24" d="M1289.81,1132.19h-9.92c-.9,0-1.63-.73-1.63-1.63s.73-1.63,1.63-1.63h9.85c.9,0,1.66.73,1.66,1.63s-.7,1.63-1.6,1.63ZM1270.04,1132.19h-9.85c-.9,0-1.63-.73-1.63-1.63s.73-1.63,1.63-1.63h9.85c.9,0,1.63.73,1.63,1.63s-.73,1.63-1.63,1.63ZM1250.34,1132.19h-9.85c-.9,0-1.63-.73-1.63-1.63s.73-1.63,1.63-1.63h9.85c.9,0,1.63.73,1.63,1.63s-.73,1.63-1.63,1.63ZM1230.64,1132.19h-9.85c-.9,0-1.63-.73-1.63-1.63s.73-1.63,1.63-1.63h9.85c.9,0,1.63.73,1.63,1.63s-.73,1.63-1.63,1.63ZM1210.93,1132.19h-9.85c-.9,0-1.63-.73-1.63-1.63s.73-1.63,1.63-1.63h9.85c.9,0,1.63.73,1.63,1.63s-.73,1.63-1.63,1.63ZM1191.23,1132.19h-9.85c-.9,0-1.63-.73-1.63-1.63s.73-1.63,1.63-1.63h9.85c.9,0,1.63.73,1.63,1.63s-.73,1.63-1.63,1.63ZM1171.53,1132.19h-9.85c-.9,0-1.63-.73-1.63-1.63s.73-1.63,1.63-1.63h9.85c.9,0,1.63.73,1.63,1.63s-.73,1.63-1.63,1.63ZM1151.83,1132.19h-9.85c-.9,0-1.63-.73-1.63-1.63s.73-1.63,1.63-1.63h9.85c.9,0,1.63.73,1.63,1.63s-.73,1.63-1.63,1.63ZM1132.12,1132.19h-9.85c-.9,0-1.63-.73-1.63-1.63s.73-1.63,1.63-1.63h9.85c.9,0,1.63.73,1.63,1.63s-.73,1.63-1.63,1.63ZM1112.42,1132.19h-9.85c-.9,0-1.63-.73-1.63-1.63s.73-1.63,1.63-1.63h9.85c.9,0,1.63.73,1.63,1.63s-.73,1.63-1.63,1.63ZM1092.72,1132.19h-9.85c-.9,0-1.63-.73-1.63-1.63s.73-1.63,1.63-1.63h9.85c.9,0,1.63.73,1.63,1.63s-.73,1.63-1.63,1.63ZM1073.02,1132.19h-9.85c-.9,0-1.63-.73-1.63-1.63s.73-1.63,1.63-1.63h9.85c.9,0,1.63.73,1.63,1.63s-.73,1.63-1.63,1.63ZM1053.32,1132.19h-9.85c-.9,0-1.63-.73-1.63-1.63s.73-1.63,1.63-1.63h9.85c.9,0,1.63.73,1.63,1.63s-.73,1.63-1.63,1.63ZM1033.61,1132.19h-9.85c-.9,0-1.63-.73-1.63-1.63s.73-1.63,1.63-1.63h9.85c.9,0,1.63.73,1.63,1.63s-.73,1.63-1.63,1.63ZM1013.91,1132.19h-9.85c-.9,0-1.63-.73-1.63-1.63s.73-1.63,1.63-1.63h9.85c.9,0,1.63.73,1.63,1.63s-.73,1.63-1.63,1.63ZM994.21,1132.19h-9.85c-.9,0-1.63-.73-1.63-1.63s.73-1.63,1.63-1.63h9.85c.9,0,1.63.73,1.63,1.63s-.73,1.63-1.63,1.63ZM974.51,1132.19h-9.85c-.9,0-1.63-.73-1.63-1.63s.73-1.63,1.63-1.63h9.85c.9,0,1.63.73,1.63,1.63s-.73,1.63-1.63,1.63ZM954.8,1132.19h-8.78c-.39,0-.78-.01-1.17-.04-.9-.06-1.58-.83-1.52-1.73.06-.9.83-1.6,1.73-1.52.32.02.64.03.97.03h8.78c.9,0,1.63.73,1.63,1.63s-.73,1.63-1.63,1.63ZM1299.08,1129.32c-.52,0-1.03-.25-1.35-.71-.51-.75-.31-1.76.43-2.27,2.48-1.69,4.38-4.04,5.5-6.81.34-.83,1.29-1.24,2.12-.9.84.34,1.24,1.29.9,2.12-1.36,3.37-3.67,6.24-6.69,8.29-.28.19-.6.28-.91.28ZM935.87,1128.74c-.35,0-.7-.11-.99-.34-2.89-2.23-5.03-5.23-6.18-8.68-.29-.85.18-1.78,1.03-2.06.85-.28,1.78.18,2.06,1.03.95,2.83,2.7,5.3,5.08,7.13.71.55.85,1.57.3,2.29-.32.42-.8.64-1.29.64ZM1306.38,1112.08c-.9,0-1.63-.73-1.63-1.63v-9.85c0-.9.73-1.63,1.63-1.63s1.63.73,1.63,1.63v9.85c0,.9-.73,1.63-1.63,1.63ZM929.39,1111.07c-.9,0-1.63-.73-1.63-1.63v-9.85c0-.9.73-1.63,1.63-1.63s1.63.73,1.63,1.63v9.85c0,.9-.73,1.63-1.63,1.63ZM1306.38,1092.37c-.9,0-1.63-.73-1.63-1.63v-9.85c0-.9.73-1.63,1.63-1.63s1.63.73,1.63,1.63v9.85c0,.9-.73,1.63-1.63,1.63ZM929.39,1091.37c-.9,0-1.63-.73-1.63-1.63v-9.85c0-.9.73-1.63,1.63-1.63s1.63.73,1.63,1.63v9.85c0,.9-.73,1.63-1.63,1.63ZM1306.38,1072.67c-.9,0-1.63-.73-1.63-1.63v-9.85c0-.9.73-1.63,1.63-1.63s1.63.73,1.63,1.63v9.85c0,.9-.73,1.63-1.63,1.63ZM929.39,1071.67c-.9,0-1.63-.73-1.63-1.63v-9.85c0-.9.73-1.63,1.63-1.63s1.63.73,1.63,1.63v9.85c0,.9-.73,1.63-1.63,1.63ZM1306.38,1052.97c-.9,0-1.63-.73-1.63-1.63v-9.85c0-.9.73-1.63,1.63-1.63s1.63.73,1.63,1.63v9.85c0,.9-.73,1.63-1.63,1.63ZM929.39,1051.97c-.9,0-1.63-.73-1.63-1.63v-9.85c0-.9.73-1.63,1.63-1.63s1.63.73,1.63,1.63v9.85c0,.9-.73,1.63-1.63,1.63ZM1306.38,1033.27c-.9,0-1.63-.73-1.63-1.63v-9.85c0-.9.73-1.63,1.63-1.63s1.63.73,1.63,1.63v9.85c0,.9-.73,1.63-1.63,1.63ZM929.39,1032.26c-.9,0-1.63-.73-1.63-1.63v-9.85c0-.9.73-1.63,1.63-1.63s1.63.73,1.63,1.63v9.85c0,.9-.73,1.63-1.63,1.63ZM1306.38,1013.56c-.9,0-1.63-.73-1.63-1.63v-9.85c0-.9.73-1.63,1.63-1.63s1.63.73,1.63,1.63v9.85c0,.9-.73,1.63-1.63,1.63ZM929.39,1012.56c-.9,0-1.63-.73-1.63-1.63v-9.85c0-.9.73-1.63,1.63-1.63s1.63.73,1.63,1.63v9.85c0,.9-.73,1.63-1.63,1.63ZM1306.38,993.86c-.9,0-1.63-.73-1.63-1.63v-9.85c0-.9.73-1.63,1.63-1.63s1.63.73,1.63,1.63v9.85c0,.9-.73,1.63-1.63,1.63ZM929.39,992.86c-.9,0-1.63-.73-1.63-1.63v-9.85c0-.9.73-1.63,1.63-1.63s1.63.73,1.63,1.63v9.85c0,.9-.73,1.63-1.63,1.63ZM1306.38,974.16c-.9,0-1.63-.73-1.63-1.63v-9.85c0-.9.73-1.63,1.63-1.63s1.63.73,1.63,1.63v9.85c0,.9-.73,1.63-1.63,1.63ZM929.39,973.16c-.9,0-1.63-.73-1.63-1.63v-9.85c0-.9.73-1.63,1.63-1.63s1.63.73,1.63,1.63v9.85c0,.9-.73,1.63-1.63,1.63ZM1306.38,954.46c-.9,0-1.63-.73-1.63-1.63v-9.85c0-.9.73-1.63,1.63-1.63s1.63.73,1.63,1.63v9.85c0,.9-.73,1.63-1.63,1.63ZM929.39,953.46c-.9,0-1.63-.73-1.63-1.63v-9.85c0-.9.73-1.63,1.63-1.63s1.63.73,1.63,1.63v9.85c0,.9-.73,1.63-1.63,1.63ZM1306.38,934.75c-.9,0-1.63-.73-1.63-1.63v-4.45c0-1.64-.26-3.25-.78-4.79-.29-.85.17-1.78,1.03-2.07.85-.29,1.78.17,2.07,1.03.63,1.87.95,3.84.95,5.83v4.45c0,.9-.73,1.63-1.63,1.63ZM929.39,933.75c-.9,0-1.63-.73-1.63-1.63v-3.44c0-2.37.45-4.68,1.33-6.86.34-.83,1.29-1.24,2.12-.9.83.34,1.24,1.29.9,2.12-.73,1.79-1.09,3.69-1.09,5.64v3.44c0,.9-.73,1.63-1.63,1.63ZM1299.86,917.1c-.35,0-.7-.11-.99-.34-2.37-1.82-5.21-2.88-8.19-3.07-.9-.06-1.58-.83-1.53-1.73.05-.9.84-1.59,1.73-1.53,3.64.22,7.09,1.51,9.98,3.74.71.55.85,1.57.3,2.29-.32.42-.81.64-1.29.64ZM936.71,916.52c-.52,0-1.04-.25-1.35-.72-.5-.75-.31-1.76.44-2.26,3.01-2.04,6.54-3.12,10.19-3.13h0c.9,0,1.63.73,1.63,1.63,0,.9-.73,1.63-1.63,1.63-3,0-5.89.89-8.37,2.57-.28.19-.6.28-.91.28ZM1280.93,913.67h-9.85c-.9,0-1.63-.73-1.63-1.63s.73-1.63,1.63-1.63h9.85c.9,0,1.63.73,1.63,1.63s-.73,1.63-1.63,1.63ZM1261.23,913.67h-9.85c-.9,0-1.63-.73-1.63-1.63s.73-1.63,1.63-1.63h9.85c.9,0,1.63.73,1.63,1.63s-.73,1.63-1.63,1.63ZM1241.52,913.67h-9.85c-.9,0-1.63-.73-1.63-1.63s.73-1.63,1.63-1.63h9.85c.9,0,1.63.73,1.63,1.63s-.73,1.63-1.63,1.63ZM1221.82,913.67h-9.85c-.9,0-1.63-.73-1.63-1.63s.73-1.63,1.63-1.63h9.85c.9,0,1.63.73,1.63,1.63s-.73,1.63-1.63,1.63ZM1202.12,913.67h-9.85c-.9,0-1.63-.73-1.63-1.63s.73-1.63,1.63-1.63h9.85c.9,0,1.63.73,1.63,1.63s-.73,1.63-1.63,1.63ZM1182.42,913.67h-9.85c-.9,0-1.63-.73-1.63-1.63s.73-1.63,1.63-1.63h9.85c.9,0,1.63.73,1.63,1.63s-.73,1.63-1.63,1.63ZM1162.71,913.67h-9.85c-.9,0-1.63-.73-1.63-1.63s.73-1.63,1.63-1.63h9.85c.9,0,1.63.73,1.63,1.63s-.73,1.63-1.63,1.63ZM1143.01,913.67h-9.85c-.9,0-1.63-.73-1.63-1.63s.73-1.63,1.63-1.63h9.85c.9,0,1.63.73,1.63,1.63s-.73,1.63-1.63,1.63ZM1123.31,913.67h-9.85c-.9,0-1.63-.73-1.63-1.63s.73-1.63,1.63-1.63h9.85c.9,0,1.63.73,1.63,1.63s-.73,1.63-1.63,1.63ZM1103.61,913.67h-9.85c-.9,0-1.63-.73-1.63-1.63s.73-1.63,1.63-1.63h9.85c.9,0,1.63.73,1.63,1.63s-.73,1.63-1.63,1.63ZM1083.91,913.67h-9.85c-.9,0-1.63-.73-1.63-1.63s.73-1.63,1.63-1.63h9.85c.9,0,1.63.73,1.63,1.63s-.73,1.63-1.63,1.63ZM1064.2,913.67h-9.85c-.9,0-1.63-.73-1.63-1.63s.73-1.63,1.63-1.63h9.85c.9,0,1.63.73,1.63,1.63s-.73,1.63-1.63,1.63ZM1044.5,913.67h-9.85c-.9,0-1.63-.73-1.63-1.63s.73-1.63,1.63-1.63h9.85c.9,0,1.63.73,1.63,1.63s-.73,1.63-1.63,1.63ZM1024.8,913.67h-9.85c-.9,0-1.63-.73-1.63-1.63s.73-1.63,1.63-1.63h9.85c.9,0,1.63.73,1.63,1.63s-.73,1.63-1.63,1.63ZM1005.1,913.67h-9.85c-.9,0-1.63-.73-1.63-1.63s.73-1.63,1.63-1.63h9.85c.9,0,1.63.73,1.63,1.63s-.73,1.63-1.63,1.63ZM985.39,913.67h-9.85c-.9,0-1.63-.73-1.63-1.63s.73-1.63,1.63-1.63h9.85c.9,0,1.63.73,1.63,1.63s-.73,1.63-1.63,1.63ZM965.69,913.67h-9.85c-.9,0-1.63-.73-1.63-1.63s.73-1.63,1.63-1.63h9.85c.9,0,1.63.73,1.63,1.63s-.73,1.63-1.63,1.63Z"/>
  <path class="st24" d="M1849.8,1405.59h-8.79c-.8,0-1.44-.65-1.44-1.44s.65-1.44,1.44-1.44h8.73c.8,0,1.48.65,1.48,1.44s-.61,1.44-1.41,1.44ZM1832.28,1405.59h-8.73c-.8,0-1.44-.65-1.44-1.44s.65-1.44,1.44-1.44h8.73c.8,0,1.44.65,1.44,1.44s-.65,1.44-1.44,1.44ZM1814.83,1405.59h-8.73c-.8,0-1.44-.65-1.44-1.44s.65-1.44,1.44-1.44h8.73c.8,0,1.44.65,1.44,1.44s-.65,1.44-1.44,1.44ZM1797.38,1405.59h-8.73c-.8,0-1.44-.65-1.44-1.44s.65-1.44,1.44-1.44h8.73c.8,0,1.44.65,1.44,1.44s-.65,1.44-1.44,1.44ZM1779.92,1405.59h-8.73c-.8,0-1.44-.65-1.44-1.44s.65-1.44,1.44-1.44h8.73c.8,0,1.44.65,1.44,1.44s-.65,1.44-1.44,1.44ZM1762.47,1405.59h-8.73c-.8,0-1.44-.65-1.44-1.44s.65-1.44,1.44-1.44h8.73c.8,0,1.44.65,1.44,1.44s-.65,1.44-1.44,1.44ZM1745.02,1405.59h-8.73c-.8,0-1.44-.65-1.44-1.44s.65-1.44,1.44-1.44h8.73c.8,0,1.44.65,1.44,1.44s-.65,1.44-1.44,1.44ZM1727.56,1405.59h-8.73c-.8,0-1.44-.65-1.44-1.44s.65-1.44,1.44-1.44h8.73c.8,0,1.44.65,1.44,1.44s-.65,1.44-1.44,1.44ZM1710.11,1405.59h-8.73c-.8,0-1.44-.65-1.44-1.44s.65-1.44,1.44-1.44h8.73c.8,0,1.44.65,1.44,1.44s-.65,1.44-1.44,1.44ZM1692.66,1405.59h-8.43c-.12,0-.25,0-.37,0-.8-.04-1.41-.72-1.37-1.51.04-.8.69-1.4,1.51-1.37.08,0,.15,0,.23,0h8.43c.8,0,1.44.65,1.44,1.44s-.65,1.44-1.44,1.44ZM1855.45,1400.06h-.05c-.8-.03-1.42-.69-1.4-1.49v-.14s0-8.54,0-8.54c0-.8.65-1.44,1.44-1.44s1.44.65,1.44,1.44v8.77c-.03.78-.67,1.4-1.45,1.4ZM1678.52,1399.82c-.8,0-1.44-.65-1.44-1.44v-8.73c0-.8.65-1.44,1.44-1.44s1.44.65,1.44,1.44v8.73c0,.8-.65,1.44-1.44,1.44ZM1855.45,1382.61c-.8,0-1.44-.65-1.44-1.44v-8.73c0-.8.65-1.44,1.44-1.44s1.44.65,1.44,1.44v8.73c0,.8-.65,1.44-1.44,1.44ZM1678.52,1382.37c-.8,0-1.44-.65-1.44-1.44v-8.73c0-.8.65-1.44,1.44-1.44s1.44.65,1.44,1.44v8.73c0,.8-.65,1.44-1.44,1.44ZM1855.45,1365.15c-.8,0-1.44-.65-1.44-1.44v-8.73c0-.8.65-1.44,1.44-1.44s1.44.65,1.44,1.44v8.73c0,.8-.65,1.44-1.44,1.44ZM1678.52,1364.92c-.8,0-1.44-.65-1.44-1.44v-8.51c0-.09,0-.18,0-.28.03-.8.67-1.43,1.5-1.38.8.03,1.42.71,1.38,1.5v.16s0,8.51,0,8.51c0,.8-.65,1.44-1.44,1.44ZM1850,1350.7s-.04,0-.06,0h-.2s-8.46,0-8.46,0c-.8,0-1.44-.65-1.44-1.44s.65-1.44,1.44-1.44h8.46c.11,0,.22,0,.33,0,.8.04,1.42.71,1.38,1.51-.03.78-.67,1.38-1.44,1.38ZM1832.55,1350.69h-8.73c-.8,0-1.44-.65-1.44-1.44s.65-1.44,1.44-1.44h8.73c.8,0,1.44.65,1.44,1.44s-.65,1.44-1.44,1.44ZM1815.1,1350.69h-8.73c-.8,0-1.44-.65-1.44-1.44s.65-1.44,1.44-1.44h8.73c.8,0,1.44.65,1.44,1.44s-.65,1.44-1.44,1.44ZM1797.64,1350.69h-8.73c-.8,0-1.44-.65-1.44-1.44s.65-1.44,1.44-1.44h8.73c.8,0,1.44.65,1.44,1.44s-.65,1.44-1.44,1.44ZM1780.19,1350.69h-8.73c-.8,0-1.44-.65-1.44-1.44s.65-1.44,1.44-1.44h8.73c.8,0,1.44.65,1.44,1.44s-.65,1.44-1.44,1.44ZM1762.74,1350.69h-8.73c-.8,0-1.44-.65-1.44-1.44s.65-1.44,1.44-1.44h8.73c.8,0,1.44.65,1.44,1.44s-.65,1.44-1.44,1.44ZM1745.28,1350.69h-8.73c-.8,0-1.44-.65-1.44-1.44s.65-1.44,1.44-1.44h8.73c.8,0,1.44.65,1.44,1.44s-.65,1.44-1.44,1.44ZM1727.83,1350.69h-8.73c-.8,0-1.44-.65-1.44-1.44s.65-1.44,1.44-1.44h8.73c.8,0,1.44.65,1.44,1.44s-.65,1.44-1.44,1.44ZM1710.38,1350.69h-8.73c-.8,0-1.44-.65-1.44-1.44s.65-1.44,1.44-1.44h8.73c.8,0,1.44.65,1.44,1.44s-.65,1.44-1.44,1.44ZM1692.92,1350.69h-8.69c-.8,0-1.46-.65-1.46-1.44s.63-1.44,1.43-1.44h8.73c.8,0,1.44.65,1.44,1.44s-.65,1.44-1.44,1.44Z"/>
  <path class="st24" d="M1226.47,884.79h-9.72c-.9,0-1.63-.73-1.63-1.63s.73-1.63,1.63-1.63h9.66c.9,0,1.66.73,1.66,1.63s-.7,1.63-1.6,1.63ZM1207.1,884.79h-9.66c-.9,0-1.63-.73-1.63-1.63s.73-1.63,1.63-1.63h9.66c.9,0,1.63.73,1.63,1.63s-.73,1.63-1.63,1.63ZM1187.78,884.79h-9.66c-.9,0-1.63-.73-1.63-1.63s.73-1.63,1.63-1.63h9.66c.9,0,1.63.73,1.63,1.63s-.73,1.63-1.63,1.63ZM1168.47,884.79h-9.66c-.9,0-1.63-.73-1.63-1.63s.73-1.63,1.63-1.63h9.66c.9,0,1.63.73,1.63,1.63s-.73,1.63-1.63,1.63ZM1149.15,884.79h-9.66c-.9,0-1.63-.73-1.63-1.63s.73-1.63,1.63-1.63h9.66c.9,0,1.63.73,1.63,1.63s-.73,1.63-1.63,1.63ZM1129.84,884.79h-9.66c-.9,0-1.63-.73-1.63-1.63s.73-1.63,1.63-1.63h9.66c.9,0,1.63.73,1.63,1.63s-.73,1.63-1.63,1.63ZM1110.53,884.79h-9.66c-.9,0-1.63-.73-1.63-1.63s.73-1.63,1.63-1.63h9.66c.9,0,1.63.73,1.63,1.63s-.73,1.63-1.63,1.63ZM1091.39,883.75c-.27,0-.55-.07-.8-.21-3.02-1.71-4.9-4.93-4.9-8.4v-1.18c0-.9.73-1.63,1.63-1.63s1.63.73,1.63,1.63v1.18c0,2.3,1.24,4.43,3.24,5.56.78.44,1.06,1.44.61,2.22-.3.53-.85.83-1.42.83ZM1233.92,879.6c-.19,0-.38-.03-.57-.1-.84-.32-1.27-1.26-.95-2.1.27-.72.41-1.48.41-2.25v-6.77c0-.9.73-1.63,1.63-1.63s1.63.73,1.63,1.63v6.77c0,1.17-.21,2.31-.62,3.4-.25.65-.87,1.06-1.53,1.06ZM1087.32,865.93c-.9,0-1.63-.73-1.63-1.63v-9.66c0-.9.73-1.63,1.63-1.63s1.63.73,1.63,1.63v9.66c0,.9-.73,1.63-1.63,1.63ZM1234.43,860.35c-.9,0-1.63-.73-1.63-1.63v-9.66c0-.9.73-1.63,1.63-1.63s1.63.73,1.63,1.63v9.66c0,.9-.73,1.63-1.63,1.63ZM1087.32,846.62c-.9,0-1.63-.73-1.63-1.63v-9.66c0-.9.73-1.63,1.63-1.63s1.63.73,1.63,1.63v9.66c0,.9-.73,1.63-1.63,1.63ZM1234.43,841.03c-.9,0-1.63-.73-1.63-1.63v-9.66c0-.9.73-1.63,1.63-1.63s1.63.73,1.63,1.63v9.66c0,.9-.73,1.63-1.63,1.63ZM1087.32,827.3c-.9,0-1.63-.73-1.63-1.63v-9.66c0-.9.73-1.63,1.63-1.63s1.63.73,1.63,1.63v9.66c0,.9-.73,1.63-1.63,1.63ZM1234.43,821.72c-.9,0-1.63-.73-1.63-1.63v-9.66c0-.9.73-1.63,1.63-1.63s1.63.73,1.63,1.63v9.66c0,.9-.73,1.63-1.63,1.63ZM1087.32,807.99c-.9,0-1.63-.73-1.63-1.63v-9.66c0-.9.73-1.63,1.63-1.63s1.63.73,1.63,1.63v9.66c0,.9-.73,1.63-1.63,1.63ZM1234.43,802.4c-.9,0-1.63-.73-1.63-1.63v-9.66c0-.9.73-1.63,1.63-1.63s1.63.73,1.63,1.63v9.66c0,.9-.73,1.63-1.63,1.63ZM1087.32,788.68c-.9,0-1.63-.73-1.63-1.63v-9.66c0-.9.73-1.63,1.63-1.63s1.63.73,1.63,1.63v9.66c0,.9-.73,1.63-1.63,1.63ZM1234.43,783.09c-.9,0-1.63-.73-1.63-1.63v-9.66c0-.9.73-1.63,1.63-1.63s1.63.73,1.63,1.63v9.66c0,.9-.73,1.63-1.63,1.63ZM1087.32,769.36c-.9,0-1.63-.73-1.63-1.63v-6.74c0-1.18.21-2.34.63-3.43.32-.84,1.26-1.26,2.1-.94.84.32,1.26,1.26.94,2.1-.28.73-.42,1.49-.42,2.27v6.74c0,.9-.73,1.63-1.63,1.63ZM1234.43,763.78c-.9,0-1.63-.73-1.63-1.63v-1.15c0-2.31-1.25-4.44-3.27-5.58-.78-.44-1.06-1.44-.62-2.22.44-.78,1.43-1.06,2.22-.62,3.04,1.71,4.93,4.94,4.93,8.42v1.15c0,.9-.73,1.63-1.63,1.63ZM1220.85,754.6h-9.66c-.9,0-1.63-.73-1.63-1.63s.73-1.63,1.63-1.63h9.66c.9,0,1.63.73,1.63,1.63s-.73,1.63-1.63,1.63ZM1201.54,754.6h-9.66c-.9,0-1.63-.73-1.63-1.63s.73-1.63,1.63-1.63h9.66c.9,0,1.63.73,1.63,1.63s-.73,1.63-1.63,1.63ZM1182.23,754.6h-9.66c-.9,0-1.63-.73-1.63-1.63s.73-1.63,1.63-1.63h9.66c.9,0,1.63.73,1.63,1.63s-.73,1.63-1.63,1.63ZM1162.91,754.6h-9.66c-.9,0-1.63-.73-1.63-1.63s.73-1.63,1.63-1.63h9.66c.9,0,1.63.73,1.63,1.63s-.73,1.63-1.63,1.63ZM1143.6,754.6h-9.66c-.9,0-1.63-.73-1.63-1.63s.73-1.63,1.63-1.63h9.66c.9,0,1.63.73,1.63,1.63s-.73,1.63-1.63,1.63ZM1124.29,754.6h-9.66c-.9,0-1.63-.73-1.63-1.63s.73-1.63,1.63-1.63h9.66c.9,0,1.63.73,1.63,1.63s-.73,1.63-1.63,1.63ZM1104.97,754.6h-9.63c-.9,0-1.65-.73-1.65-1.63s.72-1.63,1.62-1.63h9.66c.9,0,1.63.73,1.63,1.63s-.73,1.63-1.63,1.63Z"/>
  <path class="st24" d="M1849.8,1486.13h-8.79c-.8,0-1.44-.65-1.44-1.44s.65-1.44,1.44-1.44h8.73c.8,0,1.48.65,1.48,1.44s-.61,1.44-1.41,1.44ZM1832.28,1486.13h-8.73c-.8,0-1.44-.65-1.44-1.44s.65-1.44,1.44-1.44h8.73c.8,0,1.44.65,1.44,1.44s-.65,1.44-1.44,1.44ZM1814.83,1486.13h-8.73c-.8,0-1.44-.65-1.44-1.44s.65-1.44,1.44-1.44h8.73c.8,0,1.44.65,1.44,1.44s-.65,1.44-1.44,1.44ZM1797.38,1486.13h-8.73c-.8,0-1.44-.65-1.44-1.44s.65-1.44,1.44-1.44h8.73c.8,0,1.44.65,1.44,1.44s-.65,1.44-1.44,1.44ZM1779.92,1486.13h-8.73c-.8,0-1.44-.65-1.44-1.44s.65-1.44,1.44-1.44h8.73c.8,0,1.44.65,1.44,1.44s-.65,1.44-1.44,1.44ZM1762.47,1486.13h-8.73c-.8,0-1.44-.65-1.44-1.44s.65-1.44,1.44-1.44h8.73c.8,0,1.44.65,1.44,1.44s-.65,1.44-1.44,1.44ZM1745.02,1486.13h-8.73c-.8,0-1.44-.65-1.44-1.44s.65-1.44,1.44-1.44h8.73c.8,0,1.44.65,1.44,1.44s-.65,1.44-1.44,1.44ZM1727.56,1486.13h-8.73c-.8,0-1.44-.65-1.44-1.44s.65-1.44,1.44-1.44h8.73c.8,0,1.44.65,1.44,1.44s-.65,1.44-1.44,1.44ZM1710.11,1486.13h-8.73c-.8,0-1.44-.65-1.44-1.44s.65-1.44,1.44-1.44h8.73c.8,0,1.44.65,1.44,1.44s-.65,1.44-1.44,1.44ZM1692.66,1486.13h-8.43c-.12,0-.25,0-.37,0-.8-.04-1.41-.72-1.37-1.51.04-.8.69-1.42,1.51-1.37.08,0,.15,0,.23,0h8.43c.8,0,1.44.65,1.44,1.44s-.65,1.44-1.44,1.44ZM1855.45,1480.6h-.05c-.8-.03-1.42-.69-1.4-1.49v-.14s0-8.54,0-8.54c0-.8.65-1.44,1.44-1.44s1.44.65,1.44,1.44v8.77c-.03.78-.67,1.4-1.45,1.4ZM1678.52,1480.37c-.8,0-1.44-.65-1.44-1.44v-8.73c0-.8.65-1.44,1.44-1.44s1.44.65,1.44,1.44v8.73c0,.8-.65,1.44-1.44,1.44ZM1855.45,1463.15c-.8,0-1.44-.65-1.44-1.44v-8.73c0-.8.65-1.44,1.44-1.44s1.44.65,1.44,1.44v8.73c0,.8-.65,1.44-1.44,1.44ZM1678.52,1462.91c-.8,0-1.44-.65-1.44-1.44v-8.73c0-.8.65-1.44,1.44-1.44s1.44.65,1.44,1.44v8.73c0,.8-.65,1.44-1.44,1.44ZM1855.45,1445.69c-.8,0-1.44-.65-1.44-1.44v-8.73c0-.8.65-1.44,1.44-1.44s1.44.65,1.44,1.44v8.73c0,.8-.65,1.44-1.44,1.44ZM1678.52,1445.46c-.8,0-1.44-.65-1.44-1.44v-8.51c0-.09,0-.18,0-.28.03-.8.67-1.42,1.5-1.38.8.03,1.42.71,1.38,1.5v.16s0,8.51,0,8.51c0,.8-.65,1.44-1.44,1.44ZM1850,1431.24s-.04,0-.06,0h-.2s-8.46,0-8.46,0c-.8,0-1.44-.65-1.44-1.44s.65-1.44,1.44-1.44h8.46c.11,0,.22,0,.33,0,.8.04,1.42.71,1.38,1.51-.03.78-.67,1.38-1.44,1.38ZM1832.55,1431.24h-8.73c-.8,0-1.44-.65-1.44-1.44s.65-1.44,1.44-1.44h8.73c.8,0,1.44.65,1.44,1.44s-.65,1.44-1.44,1.44ZM1815.1,1431.24h-8.73c-.8,0-1.44-.65-1.44-1.44s.65-1.44,1.44-1.44h8.73c.8,0,1.44.65,1.44,1.44s-.65,1.44-1.44,1.44ZM1797.64,1431.24h-8.73c-.8,0-1.44-.65-1.44-1.44s.65-1.44,1.44-1.44h8.73c.8,0,1.44.65,1.44,1.44s-.65,1.44-1.44,1.44ZM1780.19,1431.24h-8.73c-.8,0-1.44-.65-1.44-1.44s.65-1.44,1.44-1.44h8.73c.8,0,1.44.65,1.44,1.44s-.65,1.44-1.44,1.44ZM1762.74,1431.24h-8.73c-.8,0-1.44-.65-1.44-1.44s.65-1.44,1.44-1.44h8.73c.8,0,1.44.65,1.44,1.44s-.65,1.44-1.44,1.44ZM1745.28,1431.24h-8.73c-.8,0-1.44-.65-1.44-1.44s.65-1.44,1.44-1.44h8.73c.8,0,1.44.65,1.44,1.44s-.65,1.44-1.44,1.44ZM1727.83,1431.24h-8.73c-.8,0-1.44-.65-1.44-1.44s.65-1.44,1.44-1.44h8.73c.8,0,1.44.65,1.44,1.44s-.65,1.44-1.44,1.44ZM1710.38,1431.24h-8.73c-.8,0-1.44-.65-1.44-1.44s.65-1.44,1.44-1.44h8.73c.8,0,1.44.65,1.44,1.44s-.65,1.44-1.44,1.44ZM1692.92,1431.24h-8.69c-.8,0-1.46-.65-1.46-1.44s.63-1.44,1.43-1.44h8.73c.8,0,1.44.65,1.44,1.44s-.65,1.44-1.44,1.44Z"/>
  <path class="st24" d="M1161.11,1425.45h-8.71c-.8,0-1.44-.65-1.44-1.44s.65-1.44,1.44-1.44h8.65c.8,0,1.47.65,1.47,1.44s-.62,1.44-1.41,1.44ZM1143.75,1425.45h-8.65c-.8,0-1.44-.65-1.44-1.44s.65-1.44,1.44-1.44h8.65c.8,0,1.44.65,1.44,1.44s-.65,1.44-1.44,1.44ZM1126.45,1425.45h-8.65c-.8,0-1.44-.65-1.44-1.44s.65-1.44,1.44-1.44h8.65c.8,0,1.44.65,1.44,1.44s-.65,1.44-1.44,1.44ZM1109.14,1425.45h-8.65c-.8,0-1.44-.65-1.44-1.44s.65-1.44,1.44-1.44h8.65c.8,0,1.44.65,1.44,1.44s-.65,1.44-1.44,1.44ZM1091.84,1425.45h-8.65c-.8,0-1.44-.65-1.44-1.44s.65-1.44,1.44-1.44h8.65c.8,0,1.44.65,1.44,1.44s-.65,1.44-1.44,1.44ZM1074.54,1425.45h-8.65c-.8,0-1.44-.65-1.44-1.44s.65-1.44,1.44-1.44h8.65c.8,0,1.44.65,1.44,1.44s-.65,1.44-1.44,1.44ZM1057.23,1425.45h-8.65c-.8,0-1.44-.65-1.44-1.44s.65-1.44,1.44-1.44h8.65c.8,0,1.44.65,1.44,1.44s-.65,1.44-1.44,1.44ZM1039.93,1425.45h-8.65c-.8,0-1.44-.65-1.44-1.44s.65-1.44,1.44-1.44h8.65c.8,0,1.44.65,1.44,1.44s-.65,1.44-1.44,1.44ZM1022.63,1425.45h-8.65c-.8,0-1.44-.65-1.44-1.44s.65-1.44,1.44-1.44h8.65c.8,0,1.44.65,1.44,1.44s-.65,1.44-1.44,1.44ZM1005.33,1425.45h-8.65c-.8,0-1.44-.65-1.44-1.44s.65-1.44,1.44-1.44h8.65c.8,0,1.44.65,1.44,1.44s-.65,1.44-1.44,1.44ZM988.02,1425.45h-8.65c-.8,0-1.44-.65-1.44-1.44s.65-1.44,1.44-1.44h8.65c.8,0,1.44.65,1.44,1.44s-.65,1.44-1.44,1.44ZM970.72,1425.45h-8.65c-.8,0-1.44-.65-1.44-1.44s.65-1.44,1.44-1.44h8.65c.8,0,1.44.65,1.44,1.44s-.65,1.44-1.44,1.44ZM953.42,1425.45h-8.65c-.8,0-1.44-.65-1.44-1.44s.65-1.44,1.44-1.44h8.65c.8,0,1.44.65,1.44,1.44s-.65,1.44-1.44,1.44ZM936.11,1425.45h-8.65c-.8,0-1.44-.65-1.44-1.44s.65-1.44,1.44-1.44h8.65c.8,0,1.44.65,1.44,1.44s-.65,1.44-1.44,1.44ZM918.81,1425.45h-8.65c-.8,0-1.44-.65-1.44-1.44s.65-1.44,1.44-1.44h8.65c.8,0,1.44.65,1.44,1.44s-.65,1.44-1.44,1.44ZM901.51,1425.45h-6.91c-.64,0-1.28-.04-1.91-.11-.79-.09-1.36-.81-1.27-1.6.09-.79.81-1.36,1.6-1.27.51.06,1.04.09,1.57.09h6.91c.8,0,1.44.65,1.44,1.44s-.65,1.44-1.44,1.44ZM1169.26,1422.96c-.47,0-.92-.22-1.2-.64-.44-.66-.27-1.56.39-2,2.19-1.47,3.87-3.52,4.88-5.95.31-.74,1.15-1.08,1.89-.78.74.31,1.09,1.15.78,1.89-1.23,2.95-3.28,5.45-5.94,7.24-.25.17-.53.25-.8.25ZM885.05,1421.94c-.33,0-.66-.11-.94-.34-2.44-2.08-4.2-4.8-5.07-7.87-.22-.77.22-1.57.99-1.79.77-.22,1.57.22,1.79.99.72,2.52,2.16,4.75,4.17,6.46.61.52.68,1.43.16,2.04-.29.34-.69.51-1.1.51ZM1175.79,1407.86c-.8,0-1.44-.65-1.44-1.44v-8.65c0-.8.65-1.44,1.44-1.44s1.44.65,1.44,1.44v8.65c0,.8-.65,1.44-1.44,1.44ZM879.86,1406.17c-.8,0-1.44-.65-1.44-1.44v-8.65c0-.8.65-1.44,1.44-1.44s1.44.65,1.44,1.44v8.65c0,.8-.65,1.44-1.44,1.44ZM1175.79,1390.56c-.8,0-1.44-.65-1.44-1.44v-8.65c0-.8.65-1.44,1.44-1.44s1.44.65,1.44,1.44v8.65c0,.8-.65,1.44-1.44,1.44ZM879.86,1388.87c-.8,0-1.44-.65-1.44-1.44v-8.65c0-.8.65-1.44,1.44-1.44s1.44.65,1.44,1.44v8.65c0,.8-.65,1.44-1.44,1.44ZM1175.79,1373.25c-.8,0-1.44-.65-1.44-1.44v-8.65c0-.8.65-1.44,1.44-1.44s1.44.65,1.44,1.44v8.65c0,.8-.65,1.44-1.44,1.44ZM879.86,1371.57c-.8,0-1.44-.65-1.44-1.44v-8.65c0-.8.65-1.44,1.44-1.44s1.44.65,1.44,1.44v8.65c0,.8-.65,1.44-1.44,1.44ZM1175.79,1355.95c-.8,0-1.44-.65-1.44-1.44v-8.65c0-.8.65-1.44,1.44-1.44s1.44.65,1.44,1.44v8.65c0,.8-.65,1.44-1.44,1.44ZM879.86,1354.27c-.8,0-1.44-.65-1.44-1.44v-8.65c0-.8.65-1.44,1.44-1.44s1.44.65,1.44,1.44v8.65c0,.8-.65,1.44-1.44,1.44ZM1175.79,1338.65c-.8,0-1.44-.65-1.44-1.44v-8.65c0-.8.65-1.44,1.44-1.44s1.44.65,1.44,1.44v8.65c0,.8-.65,1.44-1.44,1.44ZM879.86,1336.96c-.8,0-1.44-.65-1.44-1.44v-8.65c0-.8.65-1.44,1.44-1.44s1.44.65,1.44,1.44v8.65c0,.8-.65,1.44-1.44,1.44ZM1175.79,1321.35c-.8,0-1.44-.65-1.44-1.44v-8.65c0-.8.65-1.44,1.44-1.44s1.44.65,1.44,1.44v8.65c0,.8-.65,1.44-1.44,1.44ZM879.86,1319.66c-.8,0-1.44-.65-1.44-1.44v-8.65c0-.8.65-1.44,1.44-1.44s1.44.65,1.44,1.44v8.65c0,.8-.65,1.44-1.44,1.44ZM1175.79,1304.04c-.8,0-1.44-.65-1.44-1.44v-8.65c0-.8.65-1.44,1.44-1.44s1.44.65,1.44,1.44v8.65c0,.8-.65,1.44-1.44,1.44ZM879.86,1302.36c-.8,0-1.44-.65-1.44-1.44v-8.65c0-.8.65-1.44,1.44-1.44s1.44.65,1.44,1.44v8.65c0,.8-.65,1.44-1.44,1.44ZM1175.79,1286.74c-.8,0-1.44-.65-1.44-1.44v-8.65c0-.8.65-1.44,1.44-1.44s1.44.65,1.44,1.44v8.65c0,.8-.65,1.44-1.44,1.44ZM879.86,1285.05c-.8,0-1.44-.65-1.44-1.44v-8.65c0-.8.65-1.44,1.44-1.44s1.44.65,1.44,1.44v8.65c0,.8-.65,1.44-1.44,1.44ZM1175.79,1269.44c-.8,0-1.44-.65-1.44-1.44v-8.65c0-.8.65-1.44,1.44-1.44s1.44.65,1.44,1.44v8.65c0,.8-.65,1.44-1.44,1.44ZM879.86,1267.75c-.8,0-1.44-.65-1.44-1.44v-8.65c0-.8.65-1.44,1.44-1.44s1.44.65,1.44,1.44v8.65c0,.8-.65,1.44-1.44,1.44ZM1175.79,1252.13c-.8,0-1.44-.65-1.44-1.44v-8.65c0-.8.65-1.44,1.44-1.44s1.44.65,1.44,1.44v8.65c0,.8-.65,1.44-1.44,1.44ZM879.86,1250.45c-.8,0-1.44-.65-1.44-1.44v-8.65c0-.8.65-1.44,1.44-1.44s1.44.65,1.44,1.44v8.65c0,.8-.65,1.44-1.44,1.44ZM1175.79,1234.83c-.8,0-1.44-.65-1.44-1.44v-8.65c0-.8.65-1.44,1.44-1.44s1.44.65,1.44,1.44v8.65c0,.8-.65,1.44-1.44,1.44ZM879.86,1233.15c-.8,0-1.44-.65-1.44-1.44v-8.65c0-.8.65-1.44,1.44-1.44s1.44.65,1.44,1.44v8.65c0,.8-.65,1.44-1.44,1.44ZM1175.22,1217.58c-.63,0-1.2-.41-1.39-1.04-.73-2.52-2.17-4.75-4.18-6.45-.61-.52-.68-1.43-.17-2.04.52-.61,1.43-.68,2.04-.17,2.45,2.07,4.21,4.79,5.09,7.86.22.77-.22,1.57-.99,1.79-.13.04-.27.06-.4.06ZM881,1215.99c-.19,0-.37-.04-.56-.11-.74-.31-1.08-1.15-.78-1.89,1.23-2.95,3.29-5.45,5.95-7.23.66-.44,1.56-.27,2,.4.44.66.27,1.56-.4,2-2.19,1.46-3.88,3.52-4.89,5.94-.23.55-.77.89-1.33.89ZM1162.76,1207.03c-.06,0-.11,0-.17,0-.51-.06-1.03-.09-1.55-.09h-6.94c-.8,0-1.44-.65-1.44-1.44s.65-1.44,1.44-1.44h6.94c.63,0,1.26.04,1.88.11.79.09,1.36.81,1.27,1.6-.08.74-.71,1.28-1.43,1.28ZM1145.46,1206.93h-8.65c-.8,0-1.44-.65-1.44-1.44s.65-1.44,1.44-1.44h8.65c.8,0,1.44.65,1.44,1.44s-.65,1.44-1.44,1.44ZM1128.16,1206.93h-8.65c-.8,0-1.44-.65-1.44-1.44s.65-1.44,1.44-1.44h8.65c.8,0,1.44.65,1.44,1.44s-.65,1.44-1.44,1.44ZM1110.86,1206.93h-8.65c-.8,0-1.44-.65-1.44-1.44s.65-1.44,1.44-1.44h8.65c.8,0,1.44.65,1.44,1.44s-.65,1.44-1.44,1.44ZM1093.56,1206.93h-8.65c-.8,0-1.44-.65-1.44-1.44s.65-1.44,1.44-1.44h8.65c.8,0,1.44.65,1.44,1.44s-.65,1.44-1.44,1.44ZM1076.25,1206.93h-8.65c-.8,0-1.44-.65-1.44-1.44s.65-1.44,1.44-1.44h8.65c.8,0,1.44.65,1.44,1.44s-.65,1.44-1.44,1.44ZM1058.95,1206.93h-8.65c-.8,0-1.44-.65-1.44-1.44s.65-1.44,1.44-1.44h8.65c.8,0,1.44.65,1.44,1.44s-.65,1.44-1.44,1.44ZM1041.65,1206.93h-8.65c-.8,0-1.44-.65-1.44-1.44s.65-1.44,1.44-1.44h8.65c.8,0,1.44.65,1.44,1.44s-.65,1.44-1.44,1.44ZM1024.34,1206.93h-8.65c-.8,0-1.44-.65-1.44-1.44s.65-1.44,1.44-1.44h8.65c.8,0,1.44.65,1.44,1.44s-.65,1.44-1.44,1.44ZM1007.04,1206.93h-8.65c-.8,0-1.44-.65-1.44-1.44s.65-1.44,1.44-1.44h8.65c.8,0,1.44.65,1.44,1.44s-.65,1.44-1.44,1.44ZM989.74,1206.93h-8.65c-.8,0-1.44-.65-1.44-1.44s.65-1.44,1.44-1.44h8.65c.8,0,1.44.65,1.44,1.44s-.65,1.44-1.44,1.44ZM972.44,1206.93h-8.65c-.8,0-1.44-.65-1.44-1.44s.65-1.44,1.44-1.44h8.65c.8,0,1.44.65,1.44,1.44s-.65,1.44-1.44,1.44ZM955.13,1206.93h-8.65c-.8,0-1.44-.65-1.44-1.44s.65-1.44,1.44-1.44h8.65c.8,0,1.44.65,1.44,1.44s-.65,1.44-1.44,1.44ZM937.83,1206.93h-8.65c-.8,0-1.44-.65-1.44-1.44s.65-1.44,1.44-1.44h8.65c.8,0,1.44.65,1.44,1.44s-.65,1.44-1.44,1.44ZM920.53,1206.93h-8.65c-.8,0-1.44-.65-1.44-1.44s.65-1.44,1.44-1.44h8.65c.8,0,1.44.65,1.44,1.44s-.65,1.44-1.44,1.44ZM903.22,1206.93h-8.62c-.8,0-1.46-.65-1.46-1.44s.63-1.44,1.43-1.44h8.65c.8,0,1.44.65,1.44,1.44s-.65,1.44-1.44,1.44Z"/>
  <g>
    <path class="st23" d="M895.54,941.75h349.67c7.54,0,13.66,6.12,13.66,13.66v191.19c0,7.54-6.12,13.66-13.66,13.66h-349.67c-7.54,0-13.66-6.12-13.66-13.66v-191.19c0-7.54,6.12-13.66,13.66-13.66Z"/>
    <path class="st22" d="M1027.83,1007.67v86.69c0,5.42,6.03,8.67,10.55,5.69l65.88-43.34c4.09-2.69,4.09-8.69,0-11.38l-65.88-43.34c-4.53-2.98-10.55.27-10.55,5.69Z"/>
    <g>
      <path class="st25" d="M901.47,1140.56c0-3.74,3.03-6.77,6.77-6.77s6.77,3.03,6.77,6.77-3.03,6.77-6.77,6.77-6.77-3.03-6.77-6.77Z"/>
      <path class="st25" d="M1216.08,1142.38h-306.02c-1.01,0-1.82-.82-1.82-1.82h0c0-1.01.82-1.82,1.82-1.82h306.02c1.01,0,1.82.82,1.82,1.82h0c0,1.01-.82,1.82-1.82,1.82Z"/>
    </g>
  </g>
  <rect class="st7" x="1234.43" y="1205.49" width="195.04" height="291.15"/>
  <g>
    <g>
      <path class="st3" d="M1350.67,1299.03h-2.67v-12c0-4.3,3.5-7.8,7.8-7.8h33c2.33,0,4.37-1.58,4.97-3.83l5.22-19.84c.41-1.55.08-3.17-.9-4.44-.98-1.27-2.46-2-4.07-2h-43.06v-2.67h43.06c2.44,0,4.69,1.11,6.18,3.04,1.49,1.93,1.99,4.39,1.37,6.75l-5.22,19.84c-.9,3.42-4,5.82-7.55,5.82h-33c-2.83,0-5.13,2.3-5.13,5.13v12Z"/>
      <path class="st22" d="M1324.99,1236.53h56.71c4.78,0,8.66,3.88,8.66,8.66v5.18c0,4.78-3.88,8.67-8.67,8.67h-56.71c-4.78,0-8.66-3.88-8.66-8.66v-5.18c0-4.78,3.88-8.66,8.66-8.66Z"/>
      <path class="st3" d="M1349.34,1348.83h0c-4.05,0-7.34-3.28-7.34-7.34v-44.47c0-4.05,3.29-7.34,7.34-7.34h0c4.05,0,7.34,3.29,7.34,7.34v44.47c0,4.05-3.29,7.34-7.34,7.34Z"/>
    </g>
    <g>
      <path class="st18" d="M1630.11,1445.25s5.05,15.55,4.61,19.1c-.43,3.56-3.6,15.7-5.87,18.81-2.26,3.11-3.38-12.66-5.17-15.04-1.79-2.37-.37,5.94-1.63,6.71-1.26.77-3.9-6.12-5.03-8.54-1.13-2.43,2.77-11.38,2.78-17.63.01-6.24,10.3-3.42,10.3-3.42Z"/>
      <path class="st4" d="M1511.4,1321.76c-1.4-17.83,17.96-30.05,33.25-20.78.31.19.62.38.93.58,22.89,14.73,72.28,83.49,75.68,90.37,3.4,6.89,13.43,61.68,13.43,61.68,0,0-12.4,4.54-18.2-.17,0,0-20.11-51.96-23.08-54.56-2.97-2.6-80.43-46.06-81.09-62.35-.17-4.31-.52-9.49-.94-14.78Z"/>
    </g>
    <g>
      <path class="st15" d="M1649.62,1724.18s9.23,8.42,7.43,14.41c-1.8,5.98-10.13,9.97-11.25,17.29-1.13,7.31-5.63,11.3-9.68,11.3h-19.32s-2.98-5.15,4.22-6.7c7.2-1.55,9.92-10.15,9.47-18.13-.45-7.98.68-18.62.68-18.62l15.31-3.55,3.15,3.99Z"/>
      <path class="st15" d="M1536.39,1745.96s1.66,19.17-2.4,21.16l-51.86-.11s0-5.99,8.33-7.31c8.33-1.33,22.96-6.21,25.44-17.07,2.48-10.86,20.48,3.32,20.48,3.32Z"/>
      <path class="st22" d="M1492.61,1475.19s2.74,33.6,5.95,73.99c4.37,54.87,9.62,122.26,10.14,135.03.9,22.17,4.5,57.63,4.5,57.63,0,0,8.55,8.42,25.66,4.87,0,0,15.25-50.62,19.6-104.19.07-.88.14-1.76.2-2.65,4.05-54.53,10.35-169.34,10.35-169.34l-76.42,4.65Z"/>
      <path class="st19" d="M1492.61,1475.19s2.74,33.6,5.95,73.99l59.91,93.35c.07-.88.14-1.76.2-2.65,4.05-54.53,10.35-169.34,10.35-169.34l-76.42,4.65Z"/>
      <path class="st22" d="M1505.1,1479.18s49.3,121.69,81.71,178.87c32.42,57.19,42.55,73.14,42.55,73.14,0,0,18.57-7.31,20.26-12.3,0,0-12.4-110.4-34.1-137.31-12.27-15.21-26.67-60.84-27.35-76.8-.67-15.96-4.39-47.54-4.39-47.54l-78.67,21.94Z"/>
    </g>
    <path class="st18" d="M1547.6,1296.64s-33.03,16.75-52.38,11.16c0,0,4.61-6.06,12.81-10.67-.74-3.85-1.33-7.18-1.68-10.02-.94-6.54-1.02-10.25-1.02-10.25l12.67-10.38,12.01-9.93c-.42,27.25,17.59,40.08,17.59,40.08Z"/>
    <path class="st3" d="M1580.41,1466.87c-13.33,8.07-25.96,14.14-40.74,17.55-17.43,4.13-38.85,2.91-46.01,4-.74.1-1.43-.09-2.09-.53-.56-.29-3.72-21.55-6.89-48.38-.14-1.08-.29-2.17-.35-3.26l-.05-.36c-1.23-10.49-2.31-21.51-3.25-32.55-.76-8.59-1.39-17.09-1.83-25.08-.55-9.99-.78-19.16-.55-26.71.1-3.45.3-6.55.61-9.24,1.89-15.67,9.36-26.87,16.4-35.21l5.84-6.64c6.77.43,13.68-.85,20.21-5.16,7.13-4.7,14.83-9.75,16.28-8.9,10.93,5.98,19.83,21.48,26.19,41.95,3.64,11.78,6.44,25.15,8.23,39.31.58,4.39,1.06,8.9,1.44,13.39.07.83.13,1.66.2,2.48.86,12.27,2.26,23.77,3.81,34.04,2.09,13.85,4.47,25.45,6.15,33.62.84,4.16,1.49,7.37,1.87,9.68.34,2.01-3.68,4.89-5.48,6.01Z"/>
    <path class="st10" d="M1530.45,1266.97s-8.12,15.53-24.09,20.14c-.94-6.54-1.02-10.25-1.02-10.25l12.67-10.38,12.44.48Z"/>
    <path class="st18" d="M1499.47,1276.54s31.92,4.57,34.52-15.04c2.6-19.62,8.47-32.24-11.8-35.99-20.27-3.75-25.23,3.23-27.71,9.57-2.48,6.34-3.24,39.77,5,41.46Z"/>
    <path class="st21" d="M1544.78,1222.72c.28-.34.94-.62,2.42-.73,0,0-1.2-.72-2.78-.72-.35-2.06-1.52-5.68-5.09-6.5,0,0,1.93.98,2.22,3.17-4.19-4.14-13.06-7.04-37.4-4.63-32.08,3.17-21.08,23.54-16.88,25.91,4.21,2.37,14.55-4.56,22.31-4.1,7.76.46,9.46,11.63,12.12,13.12,2.66,1.49,1.57-1.21,5.1-2.89,3.53-1.68,3.98,4.21,3.03,8.06-.95,3.85,4.04,8.81,4.04,8.81l4.83-5.42c4.83-5.42,9.04-28.04,6.7-32.8-.21-.42-.41-.85-.62-1.27Z"/>
    <path class="st4" d="M1534.65,1353.3s-26.91,20.48-55.44,24.96c-.55-9.99-.78-19.16-.55-26.71l55.99,1.75Z"/>
    <g>
      <path class="st18" d="M1369.38,1326.88c-.42-.46-5.91-18.8-15.4-17.46-6.19.87-16.31,4.46-13.62,12.61,1.06,3.21,19.92,14.25,19.92,14.25l9.1-9.41Z"/>
      <path class="st3" d="M1537.97,1313.73c15.34,9.18,14.1,32.04-2.31,39.14-.34.15-.67.29-1.01.42-25.27,10.14-109.92,10.61-117.5,9.39-7.58-1.22-58.07-24.75-58.07-24.75,0,0,3.48-12.74,10.67-14.74,0,0,54.01,13.69,57.85,12.77,3.84-.92,84.12-38.92,97.78-30.02,3.61,2.35,8.04,5.07,12.59,7.79Z"/>
    </g>
  </g>
  <g>
    <path class="st8" d="M2107.45,711.47h-67.39c-2.83,0-5.15-2.32-5.15-5.15h0c0-2.83,2.32-5.15,5.15-5.15h67.39c2.83,0,5.15,2.32,5.15,5.15h0c0,2.83-2.32,5.15-5.15,5.15Z"/>
    <path class="st8" d="M2107.45,731.6h-67.39c-2.83,0-5.15-2.32-5.15-5.15h0c0-2.83,2.32-5.15,5.15-5.15h67.39c2.83,0,5.15,2.32,5.15,5.15h0c0,2.83-2.32,5.15-5.15,5.15Z"/>
    <path class="st8" d="M2107.45,752.23h-67.39c-2.83,0-5.15-2.32-5.15-5.15h0c0-2.83,2.32-5.15,5.15-5.15h67.39c2.83,0,5.15,2.32,5.15,5.15h0c0,2.83-2.32,5.15-5.15,5.15Z"/>
  </g>
  <path class="st8" d="M1843.57,1238.11h-160.42c-3.76,0-6.83-3.07-6.83-6.83h0c0-3.76,3.07-6.83,6.83-6.83h160.42c3.76,0,6.83,3.07,6.83,6.83h0c0,3.75-3.07,6.83-6.83,6.83Z"/>
  <path class="st8" d="M1059.38,769.4h-160.42c-3.76,0-6.83-3.07-6.83-6.83h0c0-3.76,3.07-6.83,6.83-6.83h160.42c3.76,0,6.83,3.07,6.83,6.83h0c0,3.76-3.07,6.83-6.83,6.83Z"/>
  <path class="st8" d="M1843.57,1305.86h-160.42c-3.76,0-6.83-3.07-6.83-6.83h0c0-3.76,3.07-6.83,6.83-6.83h160.42c3.76,0,6.83,3.07,6.83,6.83h0c0,3.76-3.07,6.83-6.83,6.83Z"/>
  <path class="st8" d="M1843.57,1271.98h-191.87c-3.76,0-6.83-3.07-6.83-6.83h0c0-3.76,3.07-6.83,6.83-6.83h191.87c3.76,0,6.83,3.07,6.83,6.83h0c0,3.76-3.07,6.83-6.83,6.83Z"/>
  <g>
    <rect class="st8" x="916.04" y="798.69" width="100.92" height="13.66" rx="5.2" ry="5.2"/>
    <path class="st8" d="M886.07,805.51c0-3.77,3.06-6.83,6.83-6.83s6.83,3.06,6.83,6.83-3.06,6.83-6.83,6.83-6.83-3.06-6.83-6.83Z"/>
  </g>
  <g>
    <rect class="st8" x="916.04" y="825.86" width="118.54" height="13.66" rx="5.63" ry="5.63"/>
    <path class="st8" d="M886.07,832.69c0-3.77,3.06-6.83,6.83-6.83s6.83,3.06,6.83,6.83-3.06,6.83-6.83,6.83-6.83-3.06-6.83-6.83Z"/>
  </g>
  <g>
    <path class="st8" d="M921.24,855.36h90.52c2.87,0,5.2,2.33,5.2,5.2v3.26c0,2.87-2.33,5.2-5.2,5.2h-90.52c-2.87,0-5.2-2.33-5.2-5.2v-3.26c0-2.87,2.33-5.2,5.2-5.2Z"/>
    <path class="st8" d="M886.07,862.19c0-3.77,3.06-6.83,6.83-6.83s6.83,3.06,6.83,6.83-3.06,6.83-6.83,6.83-6.83-3.06-6.83-6.83Z"/>
  </g>
  <g>
    <path class="st24" d="M1176.42,827.64c-1.19.16-2.39.24-3.61.22-6.43-.07-12.46-2.65-16.95-7.25-9.28-9.5-9.11-24.79.39-34.07h0c9.5-9.28,24.78-9.11,34.07.39,9.28,9.5,9.11,24.79-.4,34.07-3.73,3.65-8.43,5.94-13.51,6.63ZM1159.03,789.38c-7.94,7.75-8.08,20.52-.33,28.46,3.76,3.85,8.79,6,14.16,6.06,5.37.06,10.45-1.97,14.3-5.73,7.94-7.75,8.09-20.52.33-28.46-7.76-7.94-20.52-8.08-28.46-.33h0Z"/>
    <rect class="st24" x="1143.54" y="814.27" width="3.97" height="32.88" transform="translate(939.12 -569.18) rotate(45.66)"/>
    <path class="st24" d="M1125.59,850.19h0c-1.37-1.4-1.34-3.64.06-5.01l13.85-13.53c1.4-1.37,3.64-1.34,5.01.06h0c1.37,1.4,1.34,3.64-.06,5.01l-13.85,13.53c-1.4,1.37-3.64,1.34-5.01-.06Z"/>
  </g>
  <g>
    <path class="st12" d="M2053.39,1767.63h0c-3.07.02-6.3-2.2-7.2-4.96l-185.11-563.61c-.91-2.76.85-5.01,3.92-5.03h0c3.07-.02,6.3,2.2,7.2,4.96l185.11,563.61c.91,2.76-.85,5.01-3.92,5.03Z"/>
    <path class="st12" d="M2202.57,1766.77h0c-3.07.02-6.3-2.2-7.2-4.96l-185.11-563.61c-.91-2.76.85-5.01,3.92-5.03h0c3.07-.02,6.3,2.2,7.2,4.96l185.11,563.61c.91,2.76-.85,5.01-3.92,5.03Z"/>
    <path class="st12" d="M2041.94,1276.73l-149.81.87c-2.89.02-5.95-2.09-6.8-4.68h0c-.85-2.59.82-4.73,3.7-4.74l149.81-.87c2.89-.02,5.95,2.09,6.8,4.68h0c.85,2.59-.81,4.73-3.7,4.74Z"/>
    <path class="st12" d="M2074.26,1375.14l-149.81.87c-2.89.02-5.95-2.09-6.8-4.68h0c-.85-2.59.81-4.73,3.7-4.75l149.81-.87c2.89-.02,5.95,2.09,6.8,4.68h0c.85,2.59-.82,4.73-3.7,4.75Z"/>
    <path class="st12" d="M2105.39,1469.91l-149.81.87c-2.89.02-5.95-2.09-6.8-4.68h0c-.85-2.59.82-4.73,3.7-4.74l149.81-.87c2.89-.02,5.95,2.09,6.8,4.68h0c.85,2.59-.82,4.73-3.7,4.74Z"/>
    <path class="st12" d="M2140.43,1576.61l-149.81.87c-2.89.02-5.95-2.09-6.8-4.68h0c-.85-2.59.81-4.73,3.7-4.75l149.81-.87c2.89-.02,5.95,2.09,6.8,4.68h0c.85,2.59-.81,4.73-3.7,4.74Z"/>
    <path class="st12" d="M2177.11,1688.28l-149.81.87c-2.89.02-5.95-2.09-6.8-4.68h0c-.85-2.59.82-4.73,3.7-4.74l149.81-.87c2.89-.02,5.95,2.09,6.8,4.68h0c.85,2.59-.81,4.73-3.7,4.74Z"/>
  </g>
  <g>
    <path class="st12" d="M1854.62,940.92h0c-1.17.23-2.32-.55-2.55-1.72l-2.4-12.38c-.23-1.17.55-2.32,1.72-2.55h0c1.17-.23,2.32.55,2.55,1.72l2.4,12.38c.23,1.17-.55,2.32-1.72,2.55Z"/>
    <rect class="st12" x="1848.33" y="903.22" width="1.5" height="18.23" transform="translate(-139.68 368) rotate(-10.95)"/>
    <path class="st18" d="M1848.09,802.5s-1.42-12.33-4.4-17.04c-2.99-4.71-14.28-7.74-15-7.05-2.21,2.14,6.53,9.71,6.87,12.5.34,2.79-4.44.86-2.14,6.3,1.94,4.59,8.33,10.55,8.33,10.55l6.34-5.27Z"/>
    <path class="st17" d="M1842.64,801.12c4.12-3.23,4.99-3.17,4.99-3.17,0,0,38.09,33,41.8,35.94,3.71,2.94,60.92,19.53,60.92,19.53l9.09,46.51s-77.42-37.39-86.67-45.02c-15.29-12.61-34.57-47.9-34.57-47.9,0,0,1.2-3.35,4.43-5.89Z"/>
    <path class="st16" d="M1951.59,1248.11s-.66,15.9-3.71,19.76l-42.46.25c.3-1.64.47-5.43,6.35-6.46,7.42-1.29,16.13-6.47,20.62-16.27,4.73-10.32,19.2,2.72,19.2,2.72Z"/>
    <path class="st16" d="M2034.92,1245.82s2.96,21.12-1.06,21.49c-.53.05-17.11.32-24.29.44-8.44.14-22.31-.16-22.31-.16-1.74.07-2.89-1.82-2-3.32.97-1.65,2.83-3.41,6.38-4.09,7.39-1.42,19.72-6.86,24.04-16.74,4.55-10.4,19.24,2.38,19.24,2.38Z"/>
    <path class="st4" d="M1929.51,1029.41s11.81,41.31,45.65,113.06c33.84,71.74,35.3,106.32,35.3,106.32,0,0,5.12,1.81,11.92,1.09,7.35-.78,12.54-4.06,12.54-4.06,0,0-2.19-85.4-18.18-121.6-15.98-36.21-19.24-135.28-19.24-135.28l-67.99,40.48Z"/>
    <path class="st12" d="M1910.55,993.87s-.94,63.97,10.13,142.52c11.07,78.55,5.89,115.08,5.89,115.08,0,0,2.93,2.14,11.96,2.1,10.56-.04,15.98-4.41,15.98-4.41,0,0,15.84-78.58,11.3-117.89s21.69-134.91,21.69-134.91l-76.95-2.49Z"/>
    <path class="st18" d="M1962.86,844.16l-12.5,9.26-18.07-3.8c.25-1.65,1.44-8.48,2.53-14.66.07-.36.13-.73.19-1.09.93-5.26,1.73-9.79,1.73-9.79l16.88-8.41,6.29-3.14c-.02.11-.49,5.84-.55,6.68-1.18,14.86,3.5,24.95,3.5,24.95Z"/>
    <path class="st22" d="M1998.68,1001.77c-4.09,18.7-91.59,10.49-90.45-.92.04-.38.27-5.66.59-12.78.66-15.4,1.67-39.47,1.8-41.35,0-.03.01-.07.01-.1,1.58-15.89,3.09-31.44,3.19-41.59.09-8.81,1.3-17.81,2.91-25.98,1.49-7.54,3.32-14.39,4.9-19.73,1.12-3.76,3.21-7.07,5.97-9.66,1.97-1.85,4.27-3.34,6.82-4.35.7-.29,1.4-.53,2.12-.74,10.29-2.99,24.55-6.69,28.41-5.55,10.46,3.08,18.23,21.49,23.73,44.96,10.3,43.93,12.68,105.62,10,117.81Z"/>
    <path class="st20" d="M1958.1,819.47c-3.71,7.09-17.52,13.23-23.28,15.48.07-.36.13-.73.19-1.09.93-5.26,1.73-9.79,1.73-9.79l16.88-8.41c3.73-.06,6,.89,4.47,3.8Z"/>
    <path class="st18" d="M1928.54,823.09s30.45,9.5,36.07-9.55c5.62-19.05,13.34-30.66-5.86-37.53-19.2-6.87-25.14-.72-28.57,5.18-3.42,5.9-9.42,38.94-1.64,41.9Z"/>
    <path class="st16" d="M1931.38,779.36s1.94,22.17,6.53,21.21c4.59-.96,8.74-1.68,8.07,5.01-.67,6.68-7.03,14.4,7.1,15.58,14.13,1.18,34.45-35.26,30.56-42.16-11.2-19.91-68.45-23.93-52.26.36Z"/>
    <path class="st17" d="M1908.82,988.06c.66-15.4,1.67-39.47,1.8-41.35,0-.03.01-.07.01-.1l51.69-30.91s2,72.15-53.51,72.36Z"/>
    <path class="st18" d="M1867.73,923.39s-10.5-7.11-12.5-7.73c-1.99-.62-8.52-1.29-8.83-.78-.3.51-1.2,2.09-.06,2.62s2.56.35,2.14.72c-.43.37-4.72-1.67-5.71.52-.99,2.19-1.86,9.69,3.18,11.97,5.04,2.27,17.48.22,18.37.48,7.61,2.21,3.41-7.81,3.41-7.81Z"/>
    <path class="st22" d="M1867.63,921.46s51.27,8.72,55.82,6.5c7.25-3.53-2.81-55.55-2.81-55.55,0,0-.43-11.79,13.34-14.57,11.97-2.42,23.51,6.55,23.51,6.55,0,0,10.5,9.4,9.16,19.82-2.97,23.1-7.6,70.09-23.05,77.29-19.93,9.29-77.6-25.76-77.6-25.76,0,0-1.92-2.35-1.65-6.72.24-3.85,3.28-7.56,3.28-7.56Z"/>
    <path class="st18" d="M1833.18,796.59s-3.28-6.52-3.81-7.75c-.53-1.22.75-.96,2.02-.28,1.26.68,2.99,4.47,4.93,4.01,1.55-.36-3.14,4.01-3.14,4.01Z"/>
  </g>
</svg>