<?xml version="1.0" encoding="UTF-8"?>
<svg id="Layer_1" xmlns="http://www.w3.org/2000/svg" version="1.1" viewBox="0 0 450 450">
  <!-- Generator: Adobe Illustrator 29.6.1, SVG Export Plug-In . SVG Version: 2.1.1 Build 9)  -->
  <defs>
    <style>
      .st0 {
        fill: aqua;
      }

      .st1 {
        fill: #2a80b9;
      }

      .st2 {
        fill: #ff1a7c;
      }

      .st3 {
        fill: #070f4f;
      }
    </style>
  </defs>
  <path class="st2" d="M251.9,334.72l27.75-82.45-30.27,78.91c.26.79.5,1.6.78,2.34l1.75,1.2h0Z"/>
  <path class="st2" d="M196.66,334.72l-27.75-82.45,30.27,78.91c-.25.79-.5,1.6-.78,2.34l-1.75,1.2h0Z"/>
  <polygon class="st2" points="263.58 336.54 308.3 260.38 259.98 335.88 263.58 336.54"/>
  <polygon class="st2" points="184.98 336.54 140.25 260.38 188.58 335.88 184.98 336.54"/>
  <polygon class="st2" points="275.17 339.15 312.11 299.02 271.94 338.28 275.17 339.15"/>
  <polygon class="st2" points="173.38 339.15 136.44 299.02 176.61 338.28 173.38 339.15"/>
  <path class="st1" d="M224.28,387.73c44.93,0,81.34-12.26,81.34-27.33,0-16.64-38.6-24.08-55.47-26.87.49,1.27,1.03,2.55,1.61,3.79,0,0,1.37,3,1.91,4.25.27.62.49,1.2.71,1.79.23.04.48.07.71.11,1.37.25,2.69.5,3.98.79,1.95.37,3.77.83,5.47,1.33,1.33.37,2.53.75,3.69,1.12,7.16,2.49,11.43,5.59,11.43,8.95,0,8.12-24.76,14.66-55.37,14.66s-55.37-6.54-55.37-14.66c0-3.36,4.27-6.46,11.43-8.95,1.16-.37,2.36-.75,3.69-1.12,1.7-.5,3.52-.95,5.47-1.33,1.28-.29,2.61-.54,3.98-.79.23-.04.48-.07.71-.11.22-.59.44-1.17.71-1.79.54-1.24,1.91-4.25,1.91-4.25.58-1.24,1.12-2.51,1.61-3.79-16.87,2.79-55.47,10.23-55.47,26.87,0,15.07,36.4,27.33,81.33,27.33h-.01Z"/>
  <path class="st3" d="M224.28,383.58c-65.59,0-104.3-25.23-54.31-39.44.62-.17,1.27.13,1.53.71s.06,1.27-.48,1.62c-3.6,2.31-6.26,5.31-6.26,9.16,0,14.84,37.41,18.8,59.51,18.8s59.51-3.96,59.51-18.8c0-3.37-1.96-6.09-4.91-8.27-.51-.37-.67-1.07-.38-1.63s.95-.83,1.55-.64c17.56,5.66,21.43,11.82,21.43,15.3,0,9.68-29.36,23.19-77.19,23.19h0Z"/>
  <path class="st0" d="M215.34,57.01c0-1.02.82-1.84,1.84-1.84h14.22c1.02,0,1.84.82,1.84,1.84s-.82,1.84-1.84,1.84h-14.22c-1.02,0-1.84-.82-1.84-1.84ZM209.64,66.44h29.32c1.02,0,1.84-.82,1.84-1.84s-.82-1.84-1.84-1.84h-29.32c-1.02,0-1.84.82-1.84,1.84s.82,1.84,1.84,1.84h0ZM208.01,74.03h32.56c1.02,0,1.84-.82,1.84-1.84s-.82-1.84-1.84-1.84h-32.56c-1.02,0-1.84.82-1.84,1.84s.83,1.84,1.84,1.84ZM241.83,79.74c0-1.02-.82-1.84-1.84-1.84h-31.38c-1.02,0-1.84.82-1.84,1.84s.82,1.84,1.84,1.84h31.38c1.02,0,1.84-.82,1.84-1.84ZM240.28,87.33c0-1.02-.82-1.84-1.84-1.84h-28.29c-1.02,0-1.84.82-1.84,1.84s.82,1.84,1.84,1.84h28.29c1.02,0,1.84-.82,1.84-1.84ZM213.17,96.76h22.21c1.02,0,1.84-.82,1.84-1.84s-.82-1.84-1.84-1.84h-22.21c-1.02,0-1.84.82-1.84,1.84s.82,1.84,1.84,1.84h0ZM212.99,104.35h22.62c1.02,0,1.84-.82,1.84-1.84s-.82-1.84-1.84-1.84h-22.62c-1.02,0-1.84.82-1.84,1.84s.82,1.84,1.84,1.84ZM206.1,111.94h36.4c1.02,0,1.84-.82,1.84-1.84s-.82-1.84-1.84-1.84h-36.4c-1.02,0-1.84.82-1.84,1.84s.82,1.84,1.84,1.84ZM184.99,119.53h78.61c1.02,0,1.84-.82,1.84-1.84s-.82-1.84-1.84-1.84h-78.61c-1.02,0-1.84.82-1.84,1.84s.82,1.84,1.84,1.84ZM180.57,127.08h87.46c1.02,0,1.84-.82,1.84-1.84s-.82-1.84-1.84-1.84h-87.46c-1.02,0-1.84.82-1.84,1.84s.82,1.84,1.84,1.84ZM178.43,134.67h91.73c1.02,0,1.84-.82,1.84-1.84s-.82-1.84-1.84-1.84h-91.73c-1.02,0-1.84.82-1.84,1.84s.82,1.84,1.84,1.84ZM177.18,142.26h94.23c1.02,0,1.84-.82,1.84-1.84s-.82-1.84-1.84-1.84h-94.23c-1.02,0-1.84.82-1.84,1.84s.82,1.84,1.84,1.84ZM176.44,149.85h95.71c1.02,0,1.84-.82,1.84-1.84s-.82-1.84-1.84-1.84h-95.71c-1.02,0-1.84.82-1.84,1.84s.83,1.84,1.84,1.84ZM174.53,157.43h20.41c.23,0,.44-.05.64-.13.2.07.42.13.64.13h77.84c1.02,0,1.84-.82,1.84-1.84s-.82-1.84-1.84-1.84h-77.84c-.23,0-.44.05-.64.13-.2-.08-.42-.13-.64-.13h-20.41c-1.02,0-1.84.82-1.84,1.84s.82,1.84,1.84,1.84ZM250.74,161.34h-52.93c-1.02,0-1.84.82-1.84,1.84s.82,1.84,1.84,1.84h52.93c1.02,0,1.84-.82,1.84-1.84s-.82-1.84-1.84-1.84h0ZM254.17,163.18c0,1.02.82,1.84,1.84,1.84h20.52c1.02,0,1.84-.82,1.84-1.84s-.82-1.84-1.84-1.84h-20.52c-1.02,0-1.84.82-1.84,1.84h0ZM172.06,165.02h20.52c1.02,0,1.84-.82,1.84-1.84s-.82-1.84-1.84-1.84h-20.52c-1.02,0-1.84.82-1.84,1.84s.82,1.84,1.84,1.84ZM200.09,172.58h48.37c1.02,0,1.84-.82,1.84-1.84s-.82-1.84-1.84-1.84h-48.37c-1.02,0-1.84.82-1.84,1.84s.82,1.84,1.84,1.84ZM259.11,172.58h20.89c1.02,0,1.84-.82,1.84-1.84s-.82-1.84-1.84-1.84h-20.89c-1.02,0-1.84.82-1.84,1.84s.82,1.84,1.84,1.84ZM189.48,168.89h-20.92c-1.02,0-1.84.82-1.84,1.84s.82,1.84,1.84,1.84h20.92c1.02,0,1.84-.82,1.84-1.84s-.82-1.84-1.84-1.84ZM189.11,176.48h-22.99c-1.02,0-1.84.82-1.84,1.84s.82,1.84,1.84,1.84h22.99c1.02,0,1.84-.82,1.84-1.84s-.82-1.84-1.84-1.84ZM284.3,178.32c0-1.02-.82-1.84-1.84-1.84h-22.99c-1.02,0-1.84.82-1.84,1.84s.82,1.84,1.84,1.84h22.99c1.02,0,1.84-.82,1.84-1.84ZM199.84,180.16h48.96c1.02,0,1.84-.82,1.84-1.84s-.82-1.84-1.84-1.84h-48.96c-1.02,0-1.84.82-1.84,1.84s.82,1.84,1.84,1.84ZM196.15,185.91c0,1.02.82,1.84,1.84,1.84h52.6c1.02,0,1.84-.82,1.84-1.84s-.82-1.84-1.84-1.84h-52.6c-1.02,0-1.84.82-1.84,1.84ZM285.78,185.91c0-1.02-.82-1.84-1.84-1.84h-21.74c-1.02,0-1.84.82-1.84,1.84s.82,1.84,1.84,1.84h21.74c1.02,0,1.84-.82,1.84-1.84ZM186.39,184.07h-21.73c-1.02,0-1.84.82-1.84,1.84s.82,1.84,1.84,1.84h21.73c1.02,0,1.84-.82,1.84-1.84s-.82-1.84-1.84-1.84ZM195.01,193.5c0,1.02.82,1.84,1.84,1.84h54.89c1.02,0,1.84-.82,1.84-1.84s-.82-1.84-1.84-1.84h-54.89c-1.02,0-1.84.82-1.84,1.84ZM286.7,193.5c0-1.02-.82-1.84-1.84-1.84h-18.35c-1.02,0-1.84.82-1.84,1.84s.82,1.84,1.84,1.84h18.35c1.02,0,1.84-.82,1.84-1.84ZM182.08,191.66h-18.34c-1.02,0-1.84.82-1.84,1.84s.82,1.84,1.84,1.84h18.34c1.02,0,1.84-.82,1.84-1.84s-.82-1.84-1.84-1.84ZM194.23,201.09c0,1.02.82,1.84,1.84,1.84h56.44c1.02,0,1.84-.82,1.84-1.84s-.82-1.84-1.84-1.84h-56.44c-1.02,0-1.84.82-1.84,1.84ZM291.16,201.09c0-1.02-.82-1.84-1.84-1.84h-17.2c-1.02,0-1.84.82-1.84,1.84s.82,1.84,1.84,1.84h17.2c1.02,0,1.84-.82,1.84-1.84ZM176.48,199.25h-17.21c-1.02,0-1.84.82-1.84,1.84s.82,1.84,1.84,1.84h17.21c1.02,0,1.84-.82,1.84-1.84s-.82-1.84-1.84-1.84h0ZM195.6,210.52h57.36c1.02,0,1.84-.82,1.84-1.84s-.82-1.84-1.84-1.84h-57.36c-1.02,0-1.84.82-1.84,1.84s.82,1.84,1.84,1.84ZM274.73,210.52h19.15c1.02,0,1.84-.82,1.84-1.84s-.82-1.84-1.84-1.84h-19.15c-1.02,0-1.84.82-1.84,1.84s.82,1.84,1.84,1.84ZM173.83,206.83h-19.12c-1.02,0-1.84.82-1.84,1.84s.82,1.84,1.84,1.84h19.12c1.02,0,1.84-.82,1.84-1.84s-.82-1.84-1.84-1.84ZM195.34,218.07h57.87c1.02,0,1.84-.82,1.84-1.84s-.82-1.84-1.84-1.84h-57.87c-1.02,0-1.84.82-1.84,1.84s.82,1.84,1.84,1.84ZM298.05,216.23c0-1.02-.82-1.84-1.84-1.84h-21c-1.02,0-1.84.82-1.84,1.84s.82,1.84,1.84,1.84h21c1.02,0,1.84-.82,1.84-1.84ZM173.35,214.39h-21c-1.02,0-1.84.82-1.84,1.84s.82,1.84,1.84,1.84h21c1.02,0,1.84-.82,1.84-1.84s-.82-1.84-1.84-1.84ZM192.32,223.82c0,1.02.82,1.84,1.84,1.84h60.27c1.02,0,1.84-.82,1.84-1.84s-.82-1.84-1.84-1.84h-60.27c-1.02,0-1.84.82-1.84,1.84h0ZM296.46,221.97h-13.59c-1.02,0-1.84.82-1.84,1.84s.82,1.84,1.84,1.84h13.59c1.02,0,1.84-.82,1.84-1.84s-.82-1.84-1.84-1.84ZM165.72,221.97h-13.63c-1.02,0-1.84.82-1.84,1.84s.82,1.84,1.84,1.84h13.63c1.02,0,1.84-.82,1.84-1.84s-.82-1.84-1.84-1.84ZM191.4,231.41c0,1.02.82,1.84,1.84,1.84h62.11c1.02,0,1.84-.82,1.84-1.84s-.82-1.84-1.84-1.84h-62.11c-1.02,0-1.84.82-1.84,1.84h0ZM294.62,229.56h-10.24c-1.02,0-1.84.82-1.84,1.84s.82,1.84,1.84,1.84h10.24c1.02,0,1.84-.82,1.84-1.84s-.82-1.84-1.84-1.84ZM164.21,229.56h-10.28c-1.02,0-1.84.82-1.84,1.84s.82,1.84,1.84,1.84h10.28c1.02,0,1.84-.82,1.84-1.84s-.82-1.84-1.84-1.84ZM255.39,237.15h-62.18c-1.02,0-1.84.82-1.84,1.84s.82,1.84,1.84,1.84h62.18c1.02,0,1.84-.82,1.84-1.84s-.82-1.84-1.84-1.84h0ZM254.8,244.74h-61.01c-1.02,0-1.84.82-1.84,1.84s.82,1.84,1.84,1.84h61.01c1.02,0,1.84-.82,1.84-1.84s-.82-1.84-1.84-1.84h0ZM253.69,252.29h-26.97c-1.02,0-1.84.82-1.84,1.84s.82,1.84,1.84,1.84h26.97c1.02,0,1.84-.82,1.84-1.84s-.82-1.84-1.84-1.84ZM222.02,252.29h-27.13c-1.02,0-1.84.82-1.84,1.84s.82,1.84,1.84,1.84h27.13c1.02,0,1.84-.82,1.84-1.84s-.82-1.84-1.84-1.84ZM252.03,259.88h-24.8c-1.02,0-1.84.82-1.84,1.84s.82,1.84,1.84,1.84h24.8c1.02,0,1.84-.82,1.84-1.84s-.82-1.84-1.84-1.84ZM223.19,261.72c0-1.02-.82-1.84-1.84-1.84h-24.8c-1.02,0-1.84.82-1.84,1.84s.82,1.84,1.84,1.84h24.8c1.02,0,1.84-.82,1.84-1.84ZM220.02,271.16c1.02,0,1.84-.82,1.84-1.84s-.82-1.84-1.84-1.84h-21.03c-1.02,0-1.84.82-1.84,1.84s.82,1.84,1.84,1.84h21.03ZM249.6,267.47h-21.03c-1.02,0-1.84.82-1.84,1.84s.82,1.84,1.84,1.84h21.03c1.02,0,1.84-.82,1.84-1.84s-.82-1.84-1.84-1.84ZM247.83,278.74c1.02,0,1.84-.82,1.84-1.84s-.82-1.84-1.84-1.84h-18.57c-1.02,0-1.84.82-1.84,1.84s.82,1.84,1.84,1.84h18.57,0ZM200.76,278.74h18.57c1.02,0,1.84-.82,1.84-1.84s-.82-1.84-1.84-1.84h-18.57c-1.02,0-1.84.82-1.84,1.84s.82,1.84,1.84,1.84h0ZM225.58,284.49c0,1.02.82,1.84,1.84,1.84h20.81c1.02,0,1.84-.82,1.84-1.84s-.82-1.84-1.84-1.84h-20.81c-1.02,0-1.84.82-1.84,1.84ZM200.35,286.33h20.82c1.02,0,1.84-.82,1.84-1.84s-.82-1.84-1.84-1.84h-20.82c-1.02,0-1.84.82-1.84,1.84s.82,1.84,1.84,1.84ZM224.59,292.08c0,1.02.82,1.84,1.84,1.84h22.03c1.02,0,1.84-.82,1.84-1.84s-.82-1.84-1.84-1.84h-22.03c-1.02,0-1.84.82-1.84,1.84ZM200.13,293.92h22.03c1.02,0,1.84-.82,1.84-1.84s-.82-1.84-1.84-1.84h-22.03c-1.02,0-1.84.82-1.84,1.84s.82,1.84,1.84,1.84ZM248.2,301.47c1.02,0,1.84-.82,1.84-1.84s-.82-1.84-1.84-1.84h-21.95c-1.02,0-1.84.82-1.84,1.84s.82,1.84,1.84,1.84h21.95ZM222.34,297.79h-21.95c-1.02,0-1.84.82-1.84,1.84s.82,1.84,1.84,1.84h21.95c1.02,0,1.84-.82,1.84-1.84s-.82-1.84-1.84-1.84ZM226.91,309.06h20.41c1.02,0,1.84-.82,1.84-1.84s-.82-1.84-1.84-1.84h-20.41c-1.02,0-1.84.82-1.84,1.84s.82,1.84,1.84,1.84ZM221.68,305.38h-20.41c-1.02,0-1.84.82-1.84,1.84s.82,1.84,1.84,1.84h20.41c1.02,0,1.84-.82,1.84-1.84s-.82-1.84-1.84-1.84ZM247.5,314.81c0-1.02-.82-1.84-1.84-1.84h-17.79c-1.02,0-1.84.82-1.84,1.84s.82,1.84,1.84,1.84h17.79c1.02,0,1.84-.82,1.84-1.84ZM220.72,312.97h-17.79c-1.02,0-1.84.82-1.84,1.84s.82,1.84,1.84,1.84h17.79c1.02,0,1.84-.82,1.84-1.84s-.82-1.84-1.84-1.84ZM219.91,320.55h-14.55c-1.02,0-1.84.82-1.84,1.84s.82,1.84,1.84,1.84h14.55c1.02,0,1.84-.82,1.84-1.84s-.83-1.84-1.84-1.84ZM245.07,322.4c0-1.02-.82-1.84-1.84-1.84h-14.55c-1.02,0-1.84.82-1.84,1.84s.82,1.84,1.84,1.84h14.55c1.02,0,1.84-.82,1.84-1.84ZM241.83,328.15h-13.11c-1.02,0-1.84.82-1.84,1.84s.82,1.84,1.84,1.84h13.11c1.02,0,1.84-.82,1.84-1.84s-.82-1.84-1.84-1.84ZM219.87,328.15h-13.15c-1.02,0-1.84.82-1.84,1.84s.82,1.84,1.84,1.84h13.15c1.02,0,1.84-.82,1.84-1.84s-.82-1.84-1.84-1.84ZM225.84,337.58c0,1.02.82,1.84,1.84,1.84h15.62c1.02,0,1.84-.82,1.84-1.84s-.82-1.84-1.84-1.84h-15.62c-1.02,0-1.84.82-1.84,1.84ZM205.25,339.42h15.66c1.02,0,1.84-.82,1.84-1.84s-.82-1.84-1.84-1.84h-15.66c-1.02,0-1.84.82-1.84,1.84s.82,1.84,1.84,1.84ZM246.51,346.97c1.02,0,1.84-.82,1.84-1.84s-.82-1.84-1.84-1.84h-19.08c-1.02,0-1.84.82-1.84,1.84s.82,1.84,1.84,1.84h19.08ZM221.17,343.29h-19.12c-1.02,0-1.84.82-1.84,1.84s.82,1.84,1.84,1.84h19.12c1.02,0,1.84-.82,1.84-1.84s-.82-1.84-1.84-1.84ZM248.68,350.88h-20.44c-1.02,0-1.84.82-1.84,1.84s.82,1.84,1.84,1.84h20.44c1.02,0,1.84-.82,1.84-1.84s-.82-1.84-1.84-1.84ZM220.35,350.88h-20.48c-1.02,0-1.84.82-1.84,1.84s.82,1.84,1.84,1.84h20.48c1.02,0,1.84-.82,1.84-1.84s-.82-1.84-1.84-1.84Z"/>
</svg>