<?xml version="1.0" encoding="UTF-8"?>
<svg id="Layer_1" xmlns="http://www.w3.org/2000/svg" version="1.1" viewBox="0 0 3750 3750">
  <!-- Generator: Adobe Illustrator 29.3.1, SVG Export Plug-In . SVG Version: 2.1.0 Build 151)  -->
  <defs>
    <style>
      .st0 {
        fill: #ff3f43;
      }

      .st1 {
        fill: #f2bc6e;
      }

      .st2 {
        fill: #feb823;
      }

      .st3 {
        fill: #fed423;
      }

      .st4 {
        fill: #dfad1f;
      }

      .st5 {
        fill: #ececec;
      }

      .st6 {
        fill: #cf3336;
      }
    </style>
  </defs>
  <rect class="st2" x="648.61" y="1017.02" width="2452.78" height="1776.61" rx="290.71" ry="290.71" transform="translate(-500.96 3130.35) rotate(-72.73)"/>
  <path class="st3" d="M2697.8,2250.94c-458.95-43.69-1078.96-106.97-1801.04-191.11l-56.35,181.3c337.44-70.9,796.18,64.17,1748.58,359.88l108.8-350.08Z"/>
  <path class="st3" d="M2935.29,990.1c-568.41,24.05-1266.54,81.4-1647.59,146.06-40.21,6.82-76.97,15.13-111.44,24.41l-51.48,165.64c452.46-44.26,1045.01,65.69,1557.71,155.09,88.02,15.35,170.15,22.52,247.17,23.66l71.33-229.51c32.3-103.93,3.65-211.61-65.69-285.35Z"/>
  <rect class="st4" x="859.23" y="1238.91" width="2040.44" height="1477.94" rx="241.84" ry="241.84" transform="translate(-567.12 3185.62) rotate(-72.73)"/>
  <rect class="st5" x="852.45" y="1163.19" width="2047.07" height="1477.94" rx="242.63" ry="242.63" transform="translate(-497.25 3129.06) rotate(-72.73)"/>
  <rect class="st1" x="1995.12" y="906.91" width="125.95" height="729.2" rx="25.55" ry="25.55" transform="translate(233.05 2859.5) rotate(-72.73)"/>
  <rect class="st1" x="1829.86" y="1239.8" width="125.95" height="1126.95" rx="25.55" ry="25.55" transform="translate(-390.97 3075.62) rotate(-72.73)"/>
  <rect class="st1" x="1743.61" y="1517.28" width="125.95" height="1126.95" rx="25.55" ry="25.55" transform="translate(-716.6 3188.39) rotate(-72.73)"/>
  <rect class="st1" x="1666.55" y="1765.22" width="125.95" height="1126.95" rx="25.55" ry="25.55" transform="translate(-1007.55 3289.15) rotate(-72.73)"/>
  <path class="st6" d="M2219.71,516.68c-39.91-12.4-82.02,9.74-94.42,49.64l-25.91,83.35-134.33-41.75c-13.52-4.2-27.78,3.3-31.98,16.81l-54.84,176.44-23.85-7.41c-35.44-11.01-72.84,8.65-83.85,44.09-11.01,35.44,8.65,72.83,44.09,83.85l667.67,207.51c35.44,11.01,72.83-8.65,83.85-44.09,11.01-35.44-8.65-72.83-44.09-83.85l-23.85-7.41,54.84-176.44c4.2-13.52-3.3-27.78-16.82-31.98l-134.33-41.75,25.91-83.35c12.4-39.91-9.74-82.02-49.64-94.42l-158.45-49.24ZM2282.99,592.62c23.79,7.4,37.09,32.68,29.69,56.47-7.4,23.79-32.68,37.09-56.47,29.69-11.43-3.55-20.98-11.5-26.54-22.09-5.57-10.59-6.7-22.96-3.15-34.39,3.55-11.43,11.5-20.97,22.09-26.54,10.59-5.57,22.96-6.7,34.39-3.15Z"/>
  <rect class="st0" x="2142.71" y="692.82" width="51.38" height="536.96" rx="25.55" ry="25.55" transform="translate(606.84 2746.68) rotate(-72.73)"/>
</svg>