<?xml version="1.0" encoding="UTF-8"?>
<svg xmlns="http://www.w3.org/2000/svg" version="1.1" viewBox="0 0 500 500">
  <defs>
    <style>
      .cls-1 {
        isolation: isolate;
      }

      .cls-2, .cls-3 {
        fill: #b37ed6;
      }

      .cls-3 {
        opacity: .4;
      }

      .cls-3, .cls-4 {
        mix-blend-mode: multiply;
      }

      .cls-4 {
        opacity: .5;
      }
    </style>
  </defs>
  <!-- Generator: Adobe Illustrator 28.7.4, SVG Export Plug-In . SVG Version: 1.2.0 Build 166)  -->
  <g class="cls-1">
    <g id="OBJECTS">
      <g>
        <g class="cls-4">
          <path class="cls-2" d="M212.9,163.38c2.35-.61,4.06-2.25,5.13-4.49.66-1.39-.8-3.01-2.16-2.54-2.59.89-4.62,3.13-5.46,5.82-.54,1.72,1.11,3.49,2.79,2.48,2.5-1.51,4.33-3.71,5.44-6.45.27-.65.14-1.6-.32-2.06-3.2-3.19-7.24,3.11-8.57,5.92-.67,1.43.8,2.92,2.14,2.52,1.84-.55,4.34-2.35,3.82-4.59-.2-.87-1.06-1.38-1.93-.91-.97.52-1.4,1.39-2.51,1.56l1.9,3.02c.46-.85.95-1.68,1.56-2.43.23-.28,1.47-1.67,1.54-1.67l-1.42-.67.21.22-.32-2.06c-.67,1.59-1.8,2.9-3.23,3.82l2.79,2.48c.45-1.56,1.3-2.42,2.67-3.19l-2.64-2.35c-.36,1.29-1.08,2.13-2.28,2.68-1.65.76-.83,3.35.85,2.92Z"/>
        </g>
        <g class="cls-4">
          <path class="cls-2" d="M208.57,170.22c-1.06,1.39-2.02,3.13-2.01,4.88,0,1.31.75,2.46,2.12,2.48,1.25.02,2.48-1.09,2.58-2.41.1-1.34-.14-2.68-.02-4.14.13-1.59-1.75-2.02-2.67-.81Z"/>
        </g>
        <g class="cls-4">
          <path class="cls-2" d="M216.08,167.89c-.45,1.29-1.13,2.65-.83,3.98.29,1.29,1.97,2.17,3.09.96.37-.41.72-.77.93-1.29.16-.4.23-.83.32-1.25l.39-1.81c.22-1.03-.68-1.95-1.55-2.08-.97-.15-1.99.47-2.34,1.49Z"/>
        </g>
        <g class="cls-4">
          <path class="cls-2" d="M231.33,72.19c2.42-2.26,4.17-5.68,4.27-8.98.06-1.94-2.95-2.64-3.43-.53-.67,2.93-1.32,5.65-2.44,8.48-.39.98.87,1.71,1.6,1.03Z"/>
        </g>
        <g class="cls-4">
          <path class="cls-2" d="M219.19,96.43c2.48-.58,3.85-3.65,4.61-5.88.57-1.65-1.15-3.17-2.67-2.31-2.31,1.3-4.05,3.46-4.66,6.09-.48,2.08,1.61,3.7,3.37,2.18,2.41-2.09,4.16-4.86,4.95-7.95.46-1.79-1.22-3.76-3.04-2.63-3.14,1.94-5.27,5.33-4.83,9.04.12,1.03,1.15,1.68,2.11,1.56,1.1-.13,1.73-.99,1.95-2.05.36-1.74,1.11-3.52,2.65-4.52l-3.04-2.63c-.54,2.38-1.64,4.35-3.46,6.01l3.49,1.61c.25-1.31,1.06-2.45,2.17-3.16l-2.67-2.31c-.56,1.98-2.03,3.79-2.27,5.8-.09.78.65,1.33,1.35,1.17Z"/>
        </g>
        <g class="cls-4">
          <path class="cls-2" d="M278.29,97.06c3.28-1.56,5.46-4.77,5.69-8.39.1-1.7-1.7-2.54-3.02-1.42-2.5,2.11-4.33,4.87-5.21,8.02-.35,1.25.3,2.62,1.64,2.59,1.76-.04,3.3-1.11,3.16-3.08-.05-.75-.76-1.22-1.42-1.26-.48-.03-.89.25-1.34.25l1.64,2.59c.72-2.45,1.96-4.57,3.85-6.3l-3.02-1.42c-.05,2.51-1.2,4.81-3.27,6.32-1.29.94.02,2.72,1.3,2.11Z"/>
        </g>
        <g class="cls-4">
          <path class="cls-2" d="M244.96,138.25c2.18,1.18,4.97.4,6.39-1.98.88-1.46.08-2.93-1.41-3.11-1.82-.22-4.04.54-5.38,2.01-.84.92-1.2,2.36-.35,3.28.73.8,2.25,1.07,3.15.08l.64-.66c.21-.17.24-.19.06-.08.13-.09.26-.16.39-.24.4-.22.72-.29,1.1-.29l-1.66-2.61c.09-.21,0-.02-.05.08-.28.48.09-.05-.13.17-.22.22-.47.46-.72.64-.24.18-.75.31-1.17.29-1.19-.07-1.93,1.84-.86,2.41Z"/>
        </g>
        <g class="cls-4">
          <path class="cls-2" d="M252.32,143.09c.32.52.52.99,1.24,1.28.5.2,1.07.28,1.62.24.83-.06,1.56-.46,1.97-1.28.41-.83.25-1.58-.19-2.28-.95-1.53-3.42-1.24-4.73-.07-.9.81-1.11,2.36-.34,3.2.86.94,2.02.82,3.06.07-.26.18-.28.2-.06.07-.14.09-.29.14-.45.14-.27-.06-.3-.06-.08,0,.1.02.2.04.3.07l-.56-3.55c-.14.13-.39.22-.12.11-.03.01-.4.2-.25.13-.33.15-.67.32-.95.59l.55-.3c-.09.04-.19.07-.28.09-.56.16-1.09.92-.75,1.48Z"/>
        </g>
        <g class="cls-4">
          <path class="cls-2" d="M192.17,217.58c-.14,2.19.08,6.53,2.9,6.59,1.44.03,2.65-1.5,3.11-2.8.46-1.32.43-2.77.02-4.03-.41-1.29-1.27-2.43-2.55-2.88-1.39-.49-3.08.11-3.96,1.44-.74,1.11-.88,2.57-.59,3.78.37,1.57,1.34,2.62,2.67,3.38,1.39.8,3.63-.82,2.7-2.48-.38-.68-.74-1.44-1.01-2.18.03.08-.17-.41-.08-.39.01,0-.12.22-.13.23l-.71.48-.42.02s-.11,0-.09-.04c0,0,.14.27.17.33.07.17.13.41.13.62.01.46-.13,1.14-.4,1.47l.76-.7-.2.12.93-.23c.46.23.54.19.25-.12l-.16-.25c-.17-.26-.32-.54-.47-.82-.31-.57-.58-1.18-.76-1.81-.32-1.07-2.01-1.12-2.1.24Z"/>
        </g>
        <g class="cls-4">
          <path class="cls-2" d="M199.92,229.67c.26.66.73,1.16,1.35,1.46.77.38,1.53.27,2.33-.1,1.61-.74,1.03-3.17-.55-3.23-.12,0-.22-.02-.04,0-.24-.03-.46-.08-.7-.08-.27,0,.2.06-.06,0-.07-.02-.31-.15-.15-.04-1.23-.75-2.7.64-2.17,1.98Z"/>
        </g>
        <g class="cls-4">
          <path class="cls-2" d="M204.31,212.16c.09-.75.1-1.57-.21-2.24-.4-.86-1.64-.93-2.2-.06-.43.67-.57,1.47-.6,2.24-.09,2,2.76,2.07,3.01.05Z"/>
        </g>
        <g class="cls-4">
          <path class="cls-2" d="M241.27,68.22c.93-.45,1.87-1.41,2.09-2.47.26-1.29-.03-2.49-1.24-3.06-1.14-.53-2.44-.07-3.21,1-.41.57-.62,1.27-.67,1.96-.05.61.13,1.15.31,1.71.34,1.1,1.8,1.3,2.72.86Z"/>
        </g>
        <g class="cls-4">
          <path class="cls-2" d="M240.7,55.26c.15-1.08.36-2.09.1-3.14-.4-1.6-2.63-1.76-3.22-.07-.19.56-.31,1.08-.29,1.67l.06,1.48c.04.92.58,1.73,1.55,1.75.96.02,1.66-.75,1.79-1.68Z"/>
        </g>
        <g class="cls-4">
          <path class="cls-2" d="M175.68,156.34c1.67.39,3.49.13,5.17-.53,1.73-.67,3.43-2.43,2.8-4.43-.64-2.03-2.94-2.05-4.74-1.7-1.62.32-3.12,1.16-4.42,2.28-1.25,1.09-1.01,3.58.61,3.84,2.09.33,4.53-.15,6.01-2.12.57-.76.47-1.93-.06-2.56-.61-.73-1.54-.73-2.42-.36-.84.36-1.34.75-2.01.62l.61,3.84c.45-.37,1.04-.67,1.62-.83.34-.1.47-.12.73-.15.22-.02.44-.02.66-.02.09,0,.17,0,.26,0,.31.02.18,0-.39-.09l-.74-.87.43-1.86-.16.15s.18-.11.21-.13c-.42.2-.89.32-1.32.46-.83.27-1.67.43-2.5.69-1.74.54-2.18,3.33-.35,3.76Z"/>
        </g>
        <g class="cls-4">
          <path class="cls-2" d="M166.4,159.74c.11.91.9,1.46,1.77,1.36.76-.09,1.46-.57,1.9-1.27.71-1.11.13-2.93-1.26-2.76-.7.08-1.37.27-2.05.45-.94.25-1.61,1.32-1.46,2.27.16,1,1.07,1.53,2.02,1.31.53-.12,1.09-.21,1.6-.41l-1.93-2.24c.05-.18.93-1.02.09-.27-.17.15-.71.65-.21.21-.39.34-.53.88-.48,1.35Z"/>
        </g>
        <g class="cls-4">
          <path class="cls-2" d="M188.56,146.71c1.09.39,2.27-.63,2.89-1.54.8-1.19.84-3.21-.63-3.63-2.3-.66-4.58,4.34-2.26,5.18Z"/>
        </g>
        <g class="cls-4">
          <path class="cls-2" d="M134.82,134.23c2.17-.1,4.05-1,5.8-2.57,1.21-1.08.88-2.91-.18-3.63-2.61-1.8-6.3-.58-8.21,2.31-.91,1.37-.21,3.26,1.16,3.56,1.88.42,5.01.39,6.24-1.83.64-1.16.49-2.73-.6-3.31-1.03-.55-2.52-.22-3.21,1.02,1-.63,1.26-.87.79-.72-.12.04-.23.07-.35.09.35-.07-.34.03-.35.03-.23.01-.47.02-.7,0,.37.04-.29-.08-.32-.09l1.16,3.56c.35-.51-.31.22.16-.17.17-.14.21-.15.01-.03.03-.02.65-.39.21-.17.16-.08.34-.15.51-.2.09-.03.54-.12.15-.06.17-.02.35-.03.52-.03.21,0-.2-.09.14.04.44.17-.24-.16.22.09l-.18-3.64c-.58.61-.78.77-1.48,1.21-.57.37-1.1.7-1.7.92-1.88.69-1.82,3.71.2,3.62Z"/>
        </g>
        <g class="cls-4">
          <path class="cls-2" d="M123.73,129.71c-.06,1.56,1.38,2.44,2.75,1.94,2.26-.83,2.07-4.32-.26-4.25-.57.02-1.08.05-1.65.18-1.03.24-1.71,1.53-1.65,2.52.07,1.13.88,1.79,1.92,1.81.37,0,.75-.09,1.12-.16l-.75-4.01c-.71.48-1.44.98-1.48,1.97Z"/>
        </g>
        <g class="cls-4">
          <path class="cls-2" d="M60.11,66.55c1.04,1.92,3.11,2.15,5.07,1.8.8-.13,1.52-1.04,1.7-1.9.2-.95-.08-1.81-.74-2.38-1.39-1.14-3.24-1.45-5-.96-1.36.37-1.96,2.08-1.49,3.38.34.95,1.13,1.52,2.05,1.53,1.39,0,2.48-1.8,1.91-3.18-.08-.22-.19-.42-.32-.6.13.2.16.19.06-.03l-1.54,3.36c.34-.09.05-.07.37-.07.15,0,.3,0,.45.01-.13-.02-.12-.02.02.01.11.03.53.19.48.16-.11-.05-.06-.02.14.1.12.09.24.18.35.28l.93-4.26c-.45.08-.94.13-1.55.18-.65.06-1.28.08-1.91.32-.76.28-1.46,1.38-.99,2.24Z"/>
        </g>
      </g>
      <g>
        <g>
          <path class="cls-2" d="M132.83,201.17s-.55.38-1.51.91c-.99.6-2.34,1.26-4.01,2-.84.36-1.72.73-2.72,1.04-.52.17-1.02.27-1.56.41-.54.13-1.11.27-1.67.36-.57.1-1.16.2-1.77.3-.6.07-1.22.16-1.85.2-1.24.11-2.47.13-3.76.1-1.29-.03-2.6-.13-3.93-.32-1.3-.23-2.65-.49-3.97-.88-.67-.17-1.33-.4-2-.62-.64-.26-1.31-.51-1.96-.8-1.31-.57-2.64-1.17-3.95-1.85-2.59-1.41-5.2-2.99-7.61-4.94-2.45-1.88-4.7-4.13-6.83-6.47-2.07-2.42-4.04-4.9-5.83-7.47-1.85-2.5-3.51-5.08-5.17-7.49-1.59-2.48-3.22-4.73-4.61-7-1.39-2.27-2.64-4.44-3.55-6.63-.95-2.15-1.62-4.26-2.08-6.21-.51-1.9-.82-3.64-1.05-5.07-.16-1.49.41-3.15,1.05-4.45.18-.34.34-.64.48-.9.17-.28.32-.52.43-.71.29-.42.43-.63.43-.63,0,0,.25-.08.74-.22.22-.05.49-.12.81-.2.29-.06.62-.12,1-.2,1.43-.24,3.16-.35,4.48.13.62.27,1.3.57,2.05.9.77.3,1.55.66,2.38,1.04.84.37,1.71.78,2.58,1.23.9.44,1.81.91,2.72,1.42.92.51,1.81,1.1,2.74,1.68.96.56,1.87,1.21,2.84,1.84.93.66,1.91,1.31,2.94,1.95,1.01.65,2.04,1.31,3.12,1.93,2.2,1.21,4.45,2.44,6.81,3.55,2.32,1.16,4.76,2.18,7.04,3.37,2.36,1.08,4.52,2.35,6.63,3.63,2.06,1.35,4.04,2.72,5.84,4.25,1.84,1.47,3.56,3,5.1,4.66,1.54,1.67,2.86,3.52,4.04,5.41.58.95,1.13,1.94,1.61,2.92.24.46.46.96.68,1.43.21.5.42.99.62,1.46.21.46.39.96.57,1.44.18.49.37.92.52,1.42.15.48.37.94.53,1.38.17.47.33.91.48,1.33.58,1.73,1,3.18,1.22,4.31.25,1.06.35,1.72.35,1.72l-1.47,3.33Z"/>
          <g>
            <path class="cls-2" d="M155.91,207.66c-22.33-4.41-43.47-15.29-60.79-29.96-5.76-4.94-11.19-10.25-16.05-16.03,0,0,.32-.31.32-.31,9.67,8.73,20.4,16.5,31.56,23.17,4.28,2.51,10.23,5.76,14.7,7.91,9.94,4.9,20.42,9.11,30.98,12.5,0,0-.71,2.73-.71,2.73h0Z"/>
            <path class="cls-3" d="M155.91,207.66c-22.33-4.41-43.47-15.29-60.79-29.96-5.76-4.94-11.19-10.25-16.05-16.03,0,0,.32-.31.32-.31,9.67,8.73,20.4,16.5,31.56,23.17,4.28,2.51,10.23,5.76,14.7,7.91,9.94,4.9,20.42,9.11,30.98,12.5,0,0-.71,2.73-.71,2.73h0Z"/>
          </g>
        </g>
        <g>
          <path class="cls-2" d="M299.77,376.91s.16.34.36.92c.12.3.24.66.34,1.05.11.4.28.88.38,1.37.12.5.24,1.02.32,1.61.06.58.11,1.22.12,1.87.05,1.34-.11,2.74-.36,4.16-.26,1.43-.74,2.87-1.41,4.27-.64,1.43-1.6,2.72-2.57,4.08-1.03,1.3-2.15,2.61-3.47,3.75-1.27,1.19-2.73,2.22-4.23,3.18-1.54.92-3.1,1.78-4.7,2.53-1.56.79-3.15,1.47-4.64,2.16-1.53.65-2.93,1.34-4.32,1.9-1.39.56-2.72,1.04-4.02,1.34-1.29.32-2.52.5-3.64.57-1.11.1-2.09.12-2.92.1-.84-.05-1.71-.52-2.37-1-.35-.29-.62-.51-.8-.66-.21-.2-.31-.3-.31-.3,0,0-.02-.15-.05-.43-.01-.24-.03-.59-.05-1.04,0-.82.1-1.79.5-2.47.42-.63.91-1.43,1.49-2.28.57-.86,1.24-1.75,1.98-2.69.76-.9,1.59-1.82,2.48-2.77.91-.91,1.82-1.93,2.73-2.99.88-1.1,1.78-2.24,2.62-3.45.87-1.18,1.66-2.44,2.53-3.59.82-1.21,1.74-2.29,2.65-3.33.93-1.03,1.89-1.99,2.91-2.85,1-.87,2-1.7,3.07-2.39,1.07-.7,2.23-1.26,3.39-1.73.6-.22,1.18-.45,1.78-.61.29-.09.58-.17.85-.25.3-.07.59-.14.87-.21.57-.14,1.15-.24,1.69-.34.56-.1,1.09-.23,1.6-.31.49-.09,1-.13,1.41-.18.4-.06.78-.08,1.1-.09.61-.04.99-.03.99-.03l1.71,1.13Z"/>
          <g>
            <path class="cls-2" d="M305.56,364.71c-6.13,15.96-18.16,29.59-32.8,38.31,0,0-.14-.21-.14-.21,3.31-2.65,6.49-5.42,9.45-8.4,3.57-3.56,7.26-7.81,10.33-11.81,1.66-2.24,3.89-5.34,5.4-7.69,2.3-3.49,4.36-7.14,6.32-10.85,0,0,1.45.65,1.45.65h0Z"/>
            <path class="cls-3" d="M305.56,364.71c-6.13,15.96-18.16,29.59-32.8,38.31,0,0-.14-.21-.14-.21,3.31-2.65,6.49-5.42,9.45-8.4,3.57-3.56,7.26-7.81,10.33-11.81,1.66-2.24,3.89-5.34,5.4-7.69,2.3-3.49,4.36-7.14,6.32-10.85,0,0,1.45.65,1.45.65h0Z"/>
          </g>
        </g>
        <g>
          <path class="cls-2" d="M339.61,115.11s.31-.21.85-.5c.28-.17.61-.34.98-.51.37-.17.82-.41,1.29-.6.48-.2.97-.4,1.53-.57.57-.15,1.18-.31,1.82-.42,1.32-.26,2.72-.33,4.16-.31,1.46.03,2.95.27,4.45.71,1.52.4,2.94,1.14,4.44,1.87,1.45.81,2.92,1.7,4.26,2.82,1.38,1.07,2.63,2.34,3.82,3.66,1.15,1.37,2.26,2.77,3.26,4.23,1.03,1.41,1.96,2.88,2.89,4.23.88,1.4,1.8,2.68,2.57,3.96.78,1.28,1.47,2.51,1.97,3.75.52,1.22.9,2.4,1.15,3.5.28,1.08.45,2.05.57,2.86.09.83-.24,1.77-.61,2.5-.23.39-.4.7-.52.9-.16.23-.25.36-.25.36,0,0-.14.04-.42.12-.23.05-.57.12-1.02.22-.81.13-1.79.19-2.52-.09-.69-.32-1.56-.67-2.49-1.1-.94-.43-1.93-.95-2.98-1.52-1.01-.6-2.06-1.28-3.13-2-1.05-.75-2.2-1.48-3.39-2.21-1.23-.69-2.5-1.39-3.82-2.03-1.3-.66-2.67-1.25-3.95-1.92-1.32-.62-2.54-1.34-3.72-2.08-1.16-.76-2.27-1.54-3.28-2.41-1.02-.85-2-1.7-2.86-2.64-.86-.94-1.6-2-2.26-3.06-.31-.56-.63-1.09-.89-1.66-.13-.27-.26-.54-.38-.8-.12-.28-.23-.56-.34-.82-.23-.54-.42-1.09-.61-1.61-.19-.53-.4-1.04-.56-1.53-.17-.47-.29-.97-.4-1.36-.12-.39-.21-.75-.27-1.07-.14-.6-.19-.97-.19-.97l.84-1.87Z"/>
          <g>
            <path class="cls-2" d="M326.64,111.37c16.74,3.47,32.14,13.14,43.1,26.19,0,0-.18.17-.18.17-3.15-2.84-6.4-5.53-9.82-7.97-4.09-2.94-8.88-5.91-13.32-8.28-2.48-1.28-5.9-2.98-8.46-4.09-3.81-1.71-7.75-3.15-11.73-4.49l.41-1.53h0Z"/>
            <path class="cls-3" d="M326.64,111.37c16.74,3.47,32.14,13.14,43.1,26.19,0,0-.18.17-.18.17-3.15-2.84-6.4-5.53-9.82-7.97-4.09-2.94-8.88-5.91-13.32-8.28-2.48-1.28-5.9-2.98-8.46-4.09-3.81-1.71-7.75-3.15-11.73-4.49l.41-1.53h0Z"/>
          </g>
        </g>
      </g>
    </g>
  </g>
</svg>