<?xml version="1.0" encoding="UTF-8"?>
<svg xmlns="http://www.w3.org/2000/svg" version="1.1" viewBox="0 0 500 500">
  <defs>
    <style>
      .cls-1 {
        opacity: .2;
      }

      .cls-1, .cls-2, .cls-3 {
        fill: #b37ed6;
      }

      .cls-1, .cls-3, .cls-4 {
        mix-blend-mode: multiply;
      }

      .cls-5 {
        fill: #fff;
      }

      .cls-6 {
        isolation: isolate;
      }

      .cls-3 {
        opacity: .4;
      }

      .cls-7, .cls-4 {
        opacity: .5;
      }
    </style>
  </defs>
  <!-- Generator: Adobe Illustrator 28.7.4, SVG Export Plug-In . SVG Version: 1.2.0 Build 166)  -->
  <g class="cls-6">
    <g id="OBJECTS">
      <g>
        <path class="cls-2" d="M304.94,174.01c-1.37-.29-2.87-.34-4.22.19-2.23.87-3.63,3.11-4.73,5.27-6.92,13.71-9.25,31.07-21.66,39.86-2.82-6.65-.99-14.58-.52-22.05.49-8.49-.81-17.06-4.05-24.87-2.14-5.32-7.94-11.05-12.83-7.84-1.46.96-2.39,2.54-3.27,4.06l-9.33,16.13c-.65,1.13-1.34,2.3-2.42,2.99-2.87,1.86-6.64-.82-7.69-4.05-1.05-3.24-.49-6.85-1.11-10.23-.85-4.5-3.75-8.13-7.6-10.6-3.93-2.45-8.7-3.78-13.36-3.65-4.67.13-9.1,1.3-13.41,3.01-4.34,1.73-8.49,3.98-12.52,6.2-4,2.21-8.19,4.54-12.39,6.33-2.11.9-4.23,1.68-6.39,2.26-2.18.62-4.39,1.04-6.64,1.21-1.56.12-3.1.11-4.63.01-1.54-.09-3.1-.22-4.64-.41-3.1-.36-6.12-.95-9.25-1.18-3.8-.33-7.58-.41-11.4,0-1.9.18-3.77.44-5.61.76-1.87.38-3.72.86-5.52,1.4-4.55,1.28-9.09,3.57-11.97,7.39-2.92,3.85-3.87,9.76-1.97,13.89.6,1.29,1.38,2.27,2.3,3.01.46.37.95.68,1.47.94.53.29,1.1.55,1.68.76,1.17.42,2.42.69,3.7.87.64.1,1.28.14,1.93.23.65.09,1.3.17,1.94.25,11.13,1.22,22.44,5.35,32.65,11.43,2.03,1.23,4.06,2.57,5.97,4.05,1.91,1.53,3.7,3.22,5.27,5.05,1.57,1.82,2.9,3.84,3.89,6.07.99,2.22,1.63,4.61,1.83,7.19.4,5.4-1.18,11.51-2.11,17.16-.93,5.69-1.25,10.89,1.68,14.88,1.37,1.86,3.28,3.05,5.44,3.74,2.16.7,4.59.94,6.98.81,4.76-.27,9.6-1.62,14.45-2,4.02-.35,8.83.69,9.74,4.73,1.11,4.92-4.39,9.39-9.09,11.46-4.71,2.05-10.38,4.48-11.74,9.63-1.09,4.14,1.49,8.03,4.91,9.46,3.42,1.44,7.5,1.11,11.43.72,9.14-.85,18.38-1.57,27.69-2.21-3.08,5.18-7.93,9.01-11.58,13.8-3.65,4.8-6.05,11.67-3.12,16.21,2.76,4.28,9.01,4.41,14.11,2.46,5.09-1.96,9.58-5.57,14.62-7.77,1.06-.46,2.25-.87,3.25-.45,1.98.82,1.61,3.83,1.17,6.12-1.82,9.57.97,19.64,7.74,25.85,6.78,6.22,17.46,8.21,26.54,4.46,9.12-3.79,15.32-12.53,20.1-21.29,5.96-10.93,10.52-22.78,12.01-34.92.86-6.88.66-13.87-.74-20.43,6.57-.54,13.13-1.59,19.59-3.19,8.83-2.15,18.83-7.02,21.06-16.14.27-1.07.39-2.26-.16-3.1-.69-1.06-2.19-1.17-3.51-1.16-7.01.03-14.11-.05-21.23-.17,7.18-6.01,14.39-12.16,20.06-19.72,5.65-7.58,9.76-16.77,9.45-25.84-.16-4.69-1.87-9.64-6.04-11.23-5.25-1.98-11.26,2.36-15.62,6.73-11.66,11.68-22.53,26.57-38.02,29.91.37-5.26,3.98-9.83,7-14.3,6.6-9.77,11.02-21,12.71-32.51.84-5.63.99-11.48-.86-16.73-1.81-5.24-6-9.81-11.42-10.94Z"/>
        <g>
          <path class="cls-2" d="M244.32,240.19c-10.83-8.64-26.22-17.87-42.41-25.57-8.07-3.88-16.39-7.29-24.33-10.18-4.01-1.37-7.88-2.71-11.63-3.79-3.77-1.05-7.32-2.08-10.72-2.76l-6.4-1.34c-2.13-.44-4.28-.76-6.41-1.14-4.25-.79-8.55-1.24-12.76-1.76-8.48-.8-16.87-1.06-24.73-.35-.31,2.4-.07,4.81.85,6.81.6,1.29,1.38,2.27,2.3,3.01.46.37.95.68,1.47.94.53.29,1.1.55,1.68.76,1.17.42,2.42.69,3.7.87.64.1,1.28.14,1.93.23.65.09,1.3.17,1.94.25,11.13,1.22,22.44,5.35,32.65,11.43,2.03,1.23,4.06,2.57,5.97,4.05,1.91,1.53,3.7,3.22,5.27,5.05,1.57,1.82,2.9,3.84,3.89,6.07.99,2.22,1.63,4.61,1.83,7.19.4,5.4-1.18,11.51-2.11,17.16-.93,5.69-1.25,10.89,1.68,14.88,1.37,1.86,3.28,3.05,5.44,3.74,2.16.69,4.59.94,6.98.81,4.76-.27,9.6-1.62,14.45-2,4.02-.35,8.83.69,9.74,4.73,1.11,4.92-4.39,9.39-9.09,11.46-4.71,2.05-10.38,4.48-11.74,9.63-1.09,4.14,1.49,8.03,4.91,9.46,3.42,1.44,7.5,1.11,11.43.72,9.14-.85,18.38-1.57,27.69-2.21-3.08,5.18-7.93,9.01-11.58,13.8-3.65,4.8-6.05,11.67-3.12,16.21,2.76,4.28,9.01,4.41,14.11,2.46,5.09-1.96,9.58-5.57,14.62-7.77,1.06-.46,2.25-.87,3.25-.45,1.98.82,1.61,3.83,1.17,6.12-1.82,9.57.97,19.64,7.74,25.85,6.78,6.22,17.46,8.21,26.54,4.46,9.12-3.79,15.32-12.53,20.1-21.29,5.96-10.93,10.52-22.78,12.01-34.92.86-6.88.66-13.87-.74-20.43l.32-.03c-24.79-14.3-47.35-32.07-67.91-52.17Z"/>
          <g>
            <path class="cls-2" d="M304.94,174.01c-1.37-.29-2.87-.34-4.22.19-2.23.87-3.63,3.11-4.73,5.27-6.92,13.71-9.25,31.07-21.66,39.86-2.82-6.65-.99-14.58-.52-22.05.49-8.49-.81-17.06-4.05-24.87-2.14-5.32-7.94-11.05-12.83-7.84-1.46.96-2.39,2.54-3.27,4.06l-9.33,16.13c-.65,1.13-1.34,2.3-2.42,2.99-2.87,1.86-6.64-.82-7.69-4.05-1.05-3.24-.49-6.85-1.11-10.23-.85-4.5-3.75-8.13-7.6-10.6-3.93-2.45-8.7-3.78-13.36-3.65-4.67.13-9.1,1.3-13.41,3.01-4.34,1.73-8.49,3.98-12.52,6.2-4,2.21-8.19,4.54-12.39,6.33-2.11.9-4.23,1.68-6.39,2.26-2.18.62-4.39,1.04-6.64,1.21-1.56.12-3.1.11-4.63.01-1.54-.09-3.1-.22-4.64-.41-3.1-.36-6.12-.95-9.25-1.18-3.8-.33-7.58-.41-11.4,0-1.9.18-3.77.44-5.61.76-1.87.38-3.72.86-5.52,1.4-4.55,1.27-9.09,3.57-11.97,7.39-1.5,1.99-2.48,4.52-2.82,7.08,7.86-.71,16.25-.45,24.73.35,4.22.52,8.52.98,12.76,1.76,2.13.37,4.29.7,6.41,1.14l6.4,1.34c3.4.69,6.95,1.72,10.72,2.76,3.76,1.08,7.62,2.41,11.63,3.79,7.94,2.89,16.25,6.31,24.33,10.18,16.19,7.7,31.57,16.93,42.41,25.57,20.56,20.1,43.11,37.87,67.91,52.17,6.46-.55,12.91-1.58,19.27-3.16,8.83-2.15,18.83-7.02,21.06-16.14.27-1.07.39-2.26-.16-3.1-.69-1.06-2.19-1.17-3.51-1.16-7.01.03-14.11-.05-21.23-.17,7.18-6.01,14.39-12.16,20.06-19.72,5.65-7.58,9.76-16.77,9.45-25.84-.16-4.69-1.87-9.64-6.04-11.23-5.25-1.98-11.26,2.36-15.62,6.73-11.66,11.68-22.53,26.57-38.02,29.91.37-5.26,3.98-9.83,7-14.3,6.6-9.77,11.02-21,12.71-32.51.84-5.63.99-11.48-.86-16.73-1.81-5.24-6-9.81-11.41-10.94Z"/>
            <path class="cls-3" d="M304.94,174.01c-1.37-.29-2.87-.34-4.22.19-2.23.87-3.63,3.11-4.73,5.27-6.92,13.71-9.25,31.07-21.66,39.86-2.82-6.65-.99-14.58-.52-22.05.49-8.49-.81-17.06-4.05-24.87-2.14-5.32-7.94-11.05-12.83-7.84-1.46.96-2.39,2.54-3.27,4.06l-9.33,16.13c-.65,1.13-1.34,2.3-2.42,2.99-2.87,1.86-6.64-.82-7.69-4.05-1.05-3.24-.49-6.85-1.11-10.23-.85-4.5-3.75-8.13-7.6-10.6-3.93-2.45-8.7-3.78-13.36-3.65-4.67.13-9.1,1.3-13.41,3.01-4.34,1.73-8.49,3.98-12.52,6.2-4,2.21-8.19,4.54-12.39,6.33-2.11.9-4.23,1.68-6.39,2.26-2.18.62-4.39,1.04-6.64,1.21-1.56.12-3.1.11-4.63.01-1.54-.09-3.1-.22-4.64-.41-3.1-.36-6.12-.95-9.25-1.18-3.8-.33-7.58-.41-11.4,0-1.9.18-3.77.44-5.61.76-1.87.38-3.72.86-5.52,1.4-4.55,1.27-9.09,3.57-11.97,7.39-1.5,1.99-2.48,4.52-2.82,7.08,7.86-.71,16.25-.45,24.73.35,4.22.52,8.52.98,12.76,1.76,2.13.37,4.29.7,6.41,1.14l6.4,1.34c3.4.69,6.95,1.72,10.72,2.76,3.76,1.08,7.62,2.41,11.63,3.79,7.94,2.89,16.25,6.31,24.33,10.18,16.19,7.7,31.57,16.93,42.41,25.57,20.56,20.1,43.11,37.87,67.91,52.17,6.46-.55,12.91-1.58,19.27-3.16,8.83-2.15,18.83-7.02,21.06-16.14.27-1.07.39-2.26-.16-3.1-.69-1.06-2.19-1.17-3.51-1.16-7.01.03-14.11-.05-21.23-.17,7.18-6.01,14.39-12.16,20.06-19.72,5.65-7.58,9.76-16.77,9.45-25.84-.16-4.69-1.87-9.64-6.04-11.23-5.25-1.98-11.26,2.36-15.62,6.73-11.66,11.68-22.53,26.57-38.02,29.91.37-5.26,3.98-9.83,7-14.3,6.6-9.77,11.02-21,12.71-32.51.84-5.63.99-11.48-.86-16.73-1.81-5.24-6-9.81-11.41-10.94Z"/>
          </g>
        </g>
        <path class="cls-1" d="M177.37,197.07c-3.94,1.32-5.02,7.17-3.13,10.71,1.89,3.55,5.59,5.47,9.09,7.21,5.53,2.86,11.44,6.49,13,12.85,1.07,4.34-.1,9.06-.27,13.65-.17,4.59,1.2,9.72,5.2,10.98,2.25.73,4.79.03,7.22-.06,3.85-.16,7.46,1.47,10.11,4.13,2.66,2.65,4.34,6.36,4.37,10.4.04,5.44-2.5,10.81-3.06,16.25-.55,5.47,2.22,11.82,7.41,11.33,3.55-.33,6.61-3.77,10.18-4.11,4.67-.46,7.57,4.42,9.48,8.65l6.84,15.22c2.78,6.2,5.76,12.66,11.15,16.63,5.4,3.97,13.99,4.52,19.02-.78,9.5-10.11-1.98-28.29,6.72-39.16,5.97-7.49,17.61-6.33,24.49-12.94.83-.8,1.6-1.74,1.94-2.84.72-2.33-.73-4.69-2.68-5.79-1.95-1.1-4.3-1.27-6.54-1.63-6.35-1.02-12.33-3.67-17.29-7.66-2.81-2.27-5.47-5.38-5.33-9.24.25-7.18,9.07-10.73,13.44-16.65-1.91-4.53-8.54-3.29-13.15-1.13-4.6,2.16-10.75,4.3-13.67.43-.97-1.29-1.29-3-1.63-4.63-1.69-8.03-4.57-15.75-8.63-22.8-1.09-1.9-2.57-3.96-4.78-4.01-2.37-.05-4.18,2.17-6.09,3.71-3.34,2.69-7.36,3.37-11.41,2.87-4.08-.48-8.15-2.18-11.62-4.26-3.49-2.06-6.86-4.55-10.44-6.51-3.6-1.95-7.31-3.46-11.45-3.55-7.62-.22-20.13-2.86-26.53,1.75l-1.97.97Z"/>
        <g class="cls-7">
          <path class="cls-5" d="M298.75,283.24c-10.49,4.31-12.16,17.42-13.33,27.15-2,16.35-6.66,29.98-17.3,43.06-.33.41.25.84.62.55,9.13-7.34,13.69-19.71,16.14-30.71,3.06-13.7,1.05-30.19,14.21-39.26.49-.33.19-1.01-.35-.79Z"/>
          <path class="cls-5" d="M281.75,325.82c9.1,1.93,9.78,12.16,10.57,20.22.03.28.48.23.49-.05.18-8.72-1.15-19.48-10.6-21.49-.81-.17-1.28,1.14-.46,1.32Z"/>
          <path class="cls-5" d="M284.9,273.72c-9.46-1.15-16,8.66-21.1,15.88-9.67,13.71-18.77,26.43-34.5,32.15-.57.21-.45,1.04.14.92,10.43-2.04,19.13-10.48,25.86-19.04,4.35-5.53,8.16-11.46,12.3-17.15,4.29-5.89,9.7-12.69,17.26-12.32.27.01.3-.4.04-.44Z"/>
          <path class="cls-5" d="M256.79,298.89c8.34,9.94,3.8,26.34-1.19,38.07-.15.36.4.64.59.27,5.98-11.76,9.77-28.87,1.19-38.89-.31-.36-.89.18-.59.54Z"/>
          <path class="cls-5" d="M246.92,310.63c-4.2-13.44-23.75-10.9-34.67-9.9-.48.04-.54.75-.07.78,11.56.7,27.61-2.66,33.88,9.6.28.55,1.04.1.87-.48Z"/>
          <path class="cls-5" d="M263.86,258.83c-10.45,6.35-18.7,17.75-31.36,16.75-.48-.04-.65.78-.19.88,12.15,2.8,22.31-10.34,31.89-16.87.46-.31.15-1.06-.34-.76Z"/>
          <path class="cls-5" d="M236.82,233.91c-8.7-1.71-14.98,7.59-22.03,11.89-10.03,6.11-21,8.39-31.67,8.1-.4-.01-.53.72-.13.77,8.21,1.1,16.68-.25,24.94-3.76,3.95-1.68,7.75-3.84,11.29-6.46,5.27-3.91,10.51-11.37,17.56-10.43.07,0,.11-.1.04-.11Z"/>
          <path class="cls-5" d="M213.55,248.23c8.51,5.76-.95,24.72-3.03,32.75-.11.43.41.55.59.16,2.9-6.19,13.34-30.67,2.79-33.69-.44-.12-.71.54-.35.78Z"/>
          <path class="cls-5" d="M251.55,268.24c-2.99-6.62-8.26-11.52-15.25-13.2-.52-.12-.77.66-.28.84,6.4,2.4,11.51,6.54,14.59,12.88.29.59,1.21.08.94-.53Z"/>
          <path class="cls-5" d="M197.86,254.01c.1-11.62-9.49-22.06-20.09-23.21-.6-.07-.84.83-.26,1,2.76.82,5.19,1.89,7.34,3.21,2.14,1.34,3.99,2.96,5.58,4.82,3.18,3.69,5.3,8.52,6.65,14.33.1.43.78.34.78-.15Z"/>
          <path class="cls-5" d="M211.21,217.84c.94-5.97.2-10.93-3.56-15.38-5.12-6.03-13.06-9.46-13.09-18.92,0-.55-.9-.65-.97-.07-.63,5.1,1.93,8.99,5.16,12.41,2.34,2.46,5.17,4.36,7.43,6.88,4.18,4.61,4.43,9.02,4.3,15.11,0,.5.65.45.73-.03Z"/>
          <path class="cls-5" d="M202.41,199.93c5.44-1.72,9.18-5.55,11.48-10.35,2.29-4.79,3.11-10.51,2.54-15.83-.07-.69-1.05-.68-1.08.04-.23,4.85-.7,9.57-2.53,14.15-2.24,5.63-5.82,8.26-10.73,11.18-.45.27-.16.97.32.82Z"/>
          <path class="cls-5" d="M247.21,240.86c4.28-6.69,4.13-14.2,3.63-21.65-.33-5.15-.86-10.35-1.63-15.51-.76-5.17-1.8-10.29-3.23-15.26-.11-.38-.66-.23-.59.16,1.36,8.03,2.85,15.96,3.67,24.03.93,9.34,2.04,18.91-2.56,27.78-.27.52.39.96.72.45Z"/>
          <path class="cls-5" d="M274.22,265.57c-.06-11.17,5.06-20.04,10.83-28.7,5.77-8.66,12.2-17.09,14.57-27.47.09-.4-.44-.58-.59-.18-4.3,12.01-12.51,21.24-18.9,32.08-4.4,7.45-7.8,15.9-6.41,24.32.05.28.5.24.5-.06Z"/>
          <path class="cls-5" d="M279.87,244.16c-5.73-5.12-8.22-12.23-8.25-20.27,0-.54-.75-.55-.82,0-1.16,8.3,2.64,16.06,8.78,20.62.18.14.46-.18.29-.34Z"/>
          <path class="cls-5" d="M292.7,276.99c3.72-16.03,23.41-16.61,34.87-24.17,9.28-6.1,17.26-15.22,21.58-25.65.21-.52-.54-.88-.82-.38-7.9,14.72-18.83,25.5-34.17,31.06-9.09,3.28-21.09,7.36-22.38,18.99-.06.54.79.71.92.14Z"/>
          <path class="cls-5" d="M324.16,254.78c-1.48-3.07,1.71-10.32,2.86-13.54,1.6-4.47,3.77-8.5,6.62-12.33.31-.41-.27-.94-.62-.56-4.09,4.37-6.4,9.62-8.15,15.26-1.05,3.38-3.44,8.58-1.33,11.62.23.33.79-.08.62-.44Z"/>
          <path class="cls-5" d="M183.09,207.96c-6.78,1.9-14.05,1.01-20.68.56-3.08-.18-6.12-.44-9.13-.76-3.03-.25-6.03-.56-8.99-.92-.24-.03-.3.36-.07.41,7.16,1.35,14.49,2.22,22.06,2.6,2.8.15,5.64.3,8.47.14,2.82-.13,5.63-.58,8.43-1.69.21-.08.12-.39-.09-.33Z"/>
          <path class="cls-5" d="M159.68,198.94c-1.32-2.01-3-3.45-4.84-4.65-1.85-1.18-3.84-2.13-5.93-2.91-4.19-1.54-8.5-2.83-12.29-5.23-.3-.2-.73.22-.46.53,1.13,1.31,2.65,2.17,4.27,2.85,1.6.73,3.31,1.26,4.84,1.84,1.29.49,2.56.98,3.8,1.5,1.23.55,2.43,1.14,3.61,1.78,2.34,1.3,4.59,2.72,6.58,4.7.22.22.6-.14.42-.4Z"/>
        </g>
        <g>
          <path class="cls-2" d="M136.09,193.14s.92.1,2.29.25c1.37.17,3.19.45,5.02.7,1.84.27,3.68.53,5.05.73,1.37.24,2.28.4,2.28.4,2.42.43,4.93.84,7.37,1.35,2.43.5,4.86,1.12,7.31,1.72,2.45.59,4.86,1.28,7.26,2.01,2.4.73,4.81,1.45,7.19,2.25,4.74,1.64,9.5,3.29,14.14,5.21,4.69,1.83,9.27,3.87,13.84,5.96,2.31,1.01,4.53,2.17,6.79,3.26l6.71,3.43c2.2,1.21,4.41,2.4,6.6,3.64,2.18,1.26,4.35,2.5,6.48,3.85l3.2,1.99,3.15,2.09c2.11,1.37,4.12,2.91,6.18,4.37l.04.03.12.11c2.4,2.13,4.72,4.35,7.16,6.44,2.4,2.13,4.84,4.19,7.28,6.26,2.47,2.03,4.93,4.07,7.44,6.04l3.76,2.96,3.82,2.88c2.54,1.93,5.14,3.77,7.73,5.63,2.61,1.82,5.22,3.65,7.88,5.39,2.63,1.79,5.34,3.45,8.02,5.17,2.73,1.64,5.42,3.33,8.19,4.89,2.74,1.61,5.53,3.12,8.32,4.64,2.81,1.48,5.62,2.95,8.47,4.34l4.28,2.06,4.32,1.96c1.43.67,2.87,1.26,4.35,1.89,1.45.59,2.89,1.19,4.35,1.75,5.83,2.22,11.76,4.11,17.68,5.1,5.89,1.08,11.89,1.13,16.89-.31,0,0-.1,1.75-.13,3.53-.04,1.78,0,3.6,0,3.6-1.39.38-2.83.69-4.31.94-1.52.18-3.1.22-4.67.24-1.57.05-3.19-.15-4.79-.29-1.6-.16-3.2-.39-4.8-.73-6.4-1.18-12.61-3.33-18.63-5.74-1.51-.6-3-1.26-4.49-1.91-1.45-.65-2.94-1.31-4.4-2.01l-4.38-2.09-4.33-2.19c-2.88-1.47-5.72-3.02-8.55-4.58-2.81-1.6-5.63-3.19-8.38-4.88-2.79-1.64-5.49-3.41-8.23-5.12-2.69-1.79-5.41-3.53-8.05-5.4-2.67-1.81-5.28-3.72-7.9-5.61-2.59-1.93-5.19-3.84-7.73-5.85l-3.81-2.99-3.76-3.07c-2.5-2.05-4.96-4.15-7.41-6.25-2.43-2.14-4.87-4.27-7.25-6.46-2.42-2.15-4.73-4.44-7.12-6.64l.16.13c-1.97-1.45-3.89-2.98-5.93-4.36l-3.04-2.09-3.1-2.01c-2.06-1.36-4.18-2.62-6.29-3.9-2.13-1.26-4.29-2.47-6.43-3.7l-6.55-3.5c-2.22-1.11-4.38-2.3-6.64-3.34-4.48-2.14-8.97-4.24-13.56-6.13-4.55-1.97-9.21-3.7-13.86-5.39-2.32-.85-4.7-1.59-7.05-2.35-2.36-.75-4.71-1.49-7.1-2.11-2.38-.63-4.75-1.26-7.16-1.82-2.42-.55-4.81-.97-7.24-1.45,0,0-.9-.17-2.26-.44-1.36-.25-3.18-.52-4.99-.82-1.8-.29-3.61-.58-4.96-.79-1.36-.17-2.26-.28-2.26-.28l.44-2.57Z"/>
          <path class="cls-2" d="M135.91,193.31s.91.12,2.28.29c1.37.19,3.17.51,5,.8,1.83.3,3.66.61,5.03.83,1.36.27,2.27.44,2.27.44,2.41.48,4.89.94,7.32,1.49,2.42.55,4.83,1.21,7.25,1.86,2.43.64,4.82,1.37,7.19,2.15,2.38.77,4.77,1.54,7.12,2.39,4.69,1.73,9.4,3.47,13.99,5.48,4.63,1.92,9.17,4.04,13.68,6.22,2.28,1.05,4.47,2.26,6.7,3.39l6.62,3.55c2.17,1.25,4.35,2.48,6.5,3.76,2.15,1.3,4.29,2.59,6.38,3.97l3.15,2.05,3.09,2.14c2.07,1.41,4.04,2.98,6.06,4.48l.03.03.09.09c2.36,2.18,4.63,4.45,7.02,6.58,2.35,2.18,4.76,4.29,7.15,6.41,2.42,2.09,4.84,4.17,7.31,6.2l3.7,3.04,3.76,2.96c2.5,1.98,5.06,3.88,7.61,5.79,2.58,1.88,5.15,3.76,7.78,5.55,2.6,1.85,5.28,3.57,7.92,5.34,2.7,1.69,5.36,3.44,8.1,5.06,2.71,1.67,5.48,3.24,8.24,4.82,2.78,1.55,5.57,3.07,8.4,4.52l4.25,2.16,4.3,2.06c1.42.7,2.86,1.33,4.33,1.99,1.44.63,2.88,1.26,4.34,1.86,5.83,2.37,11.78,4.41,17.8,5.58,5.96,1.24,12.15,1.53,17.41.25,0,0-.05,1.49-.05,3,0,1.51.04,3.04.04,3.04-1.46.31-2.97.56-4.52.74-1.57.1-3.17.11-4.78.07-1.61-.02-3.23-.24-4.85-.44-1.62-.2-3.23-.48-4.83-.85-6.43-1.34-12.61-3.61-18.6-6.14-1.5-.63-2.98-1.32-4.46-1.99-1.44-.68-2.93-1.36-4.38-2.09l-4.35-2.17-4.29-2.26c-2.85-1.52-5.67-3.12-8.47-4.73-2.78-1.65-5.57-3.29-8.29-5.02-2.75-1.69-5.43-3.5-8.13-5.26-2.65-1.84-5.34-3.62-7.94-5.53-2.64-1.86-5.21-3.8-7.78-5.74-2.55-1.97-5.11-3.93-7.61-5.97l-3.75-3.05-3.69-3.13c-2.46-2.09-4.88-4.23-7.29-6.37-2.39-2.18-4.78-4.35-7.12-6.58-2.38-2.19-4.64-4.51-6.99-6.75l.13.11c-1.95-1.49-3.84-3.05-5.86-4.46l-3-2.15-3.07-2.06c-2.03-1.39-4.13-2.7-6.22-4.01-2.1-1.3-4.24-2.54-6.36-3.81l-6.49-3.61c-2.2-1.15-4.34-2.38-6.58-3.45-4.43-2.22-8.88-4.39-13.44-6.36-4.51-2.05-9.14-3.85-13.75-5.62-2.31-.88-4.66-1.67-7-2.47-2.34-.79-4.68-1.56-7.06-2.23-2.37-.68-4.73-1.35-7.13-1.95-2.41-.58-4.79-1.05-7.21-1.57,0,0-.9-.19-2.25-.47-1.36-.25-3.16-.58-4.97-.9-1.8-.32-3.6-.64-4.94-.88-1.35-.19-2.25-.32-2.25-.32l.4-2.14Z"/>
          <path class="cls-3" d="M135.91,193.31s.91.12,2.28.29c1.37.19,3.17.51,5,.8,1.83.3,3.66.61,5.03.83,1.36.27,2.27.44,2.27.44,2.41.48,4.89.94,7.32,1.49,2.42.55,4.83,1.21,7.25,1.86,2.43.64,4.82,1.37,7.19,2.15,2.38.77,4.77,1.54,7.12,2.39,4.69,1.73,9.4,3.47,13.99,5.48,4.63,1.92,9.17,4.04,13.68,6.22,2.28,1.05,4.47,2.26,6.7,3.39l6.62,3.55c2.17,1.25,4.35,2.48,6.5,3.76,2.15,1.3,4.29,2.59,6.38,3.97l3.15,2.05,3.09,2.14c2.07,1.41,4.04,2.98,6.06,4.48l.03.03.09.09c2.36,2.18,4.63,4.45,7.02,6.58,2.35,2.18,4.76,4.29,7.15,6.41,2.42,2.09,4.84,4.17,7.31,6.2l3.7,3.04,3.76,2.96c2.5,1.98,5.06,3.88,7.61,5.79,2.58,1.88,5.15,3.76,7.78,5.55,2.6,1.85,5.28,3.57,7.92,5.34,2.7,1.69,5.36,3.44,8.1,5.06,2.71,1.67,5.48,3.24,8.24,4.82,2.78,1.55,5.57,3.07,8.4,4.52l4.25,2.16,4.3,2.06c1.42.7,2.86,1.33,4.33,1.99,1.44.63,2.88,1.26,4.34,1.86,5.83,2.37,11.78,4.41,17.8,5.58,5.96,1.24,12.15,1.53,17.41.25,0,0-.05,1.49-.05,3,0,1.51.04,3.04.04,3.04-1.46.31-2.97.56-4.52.74-1.57.1-3.17.11-4.78.07-1.61-.02-3.23-.24-4.85-.44-1.62-.2-3.23-.48-4.83-.85-6.43-1.34-12.61-3.61-18.6-6.14-1.5-.63-2.98-1.32-4.46-1.99-1.44-.68-2.93-1.36-4.38-2.09l-4.35-2.17-4.29-2.26c-2.85-1.52-5.67-3.12-8.47-4.73-2.78-1.65-5.57-3.29-8.29-5.02-2.75-1.69-5.43-3.5-8.13-5.26-2.65-1.84-5.34-3.62-7.94-5.53-2.64-1.86-5.21-3.8-7.78-5.74-2.55-1.97-5.11-3.93-7.61-5.97l-3.75-3.05-3.69-3.13c-2.46-2.09-4.88-4.23-7.29-6.37-2.39-2.18-4.78-4.35-7.12-6.58-2.38-2.19-4.64-4.51-6.99-6.75l.13.11c-1.95-1.49-3.84-3.05-5.86-4.46l-3-2.15-3.07-2.06c-2.03-1.39-4.13-2.7-6.22-4.01-2.1-1.3-4.24-2.54-6.36-3.81l-6.49-3.61c-2.2-1.15-4.34-2.38-6.58-3.45-4.43-2.22-8.88-4.39-13.44-6.36-4.51-2.05-9.14-3.85-13.75-5.62-2.31-.88-4.66-1.67-7-2.47-2.34-.79-4.68-1.56-7.06-2.23-2.37-.68-4.73-1.35-7.13-1.95-2.41-.58-4.79-1.05-7.21-1.57,0,0-.9-.19-2.25-.47-1.36-.25-3.16-.58-4.97-.9-1.8-.32-3.6-.64-4.94-.88-1.35-.19-2.25-.32-2.25-.32l.4-2.14Z"/>
        </g>
        <g class="cls-4">
          <path class="cls-2" d="M274.75,296.53c2.35-.61,4.06-2.25,5.13-4.49.66-1.39-.8-3.01-2.16-2.54-2.59.89-4.62,3.13-5.46,5.82-.54,1.72,1.11,3.49,2.79,2.48,2.5-1.51,4.33-3.71,5.44-6.45.27-.65.14-1.6-.32-2.06-3.2-3.19-7.24,3.11-8.57,5.92-.67,1.43.8,2.92,2.14,2.52,1.84-.55,4.34-2.35,3.82-4.59-.2-.87-1.06-1.38-1.93-.91-.97.52-1.4,1.39-2.51,1.56l1.9,3.02c.46-.85.95-1.68,1.56-2.43.23-.28,1.47-1.67,1.54-1.67l-1.42-.67.21.22-.32-2.06c-.67,1.59-1.8,2.9-3.23,3.82l2.79,2.48c.45-1.56,1.3-2.42,2.67-3.19l-2.64-2.35c-.36,1.29-1.08,2.13-2.28,2.68-1.65.76-.83,3.35.85,2.92Z"/>
        </g>
        <g class="cls-4">
          <path class="cls-2" d="M270.43,303.37c-1.06,1.39-2.02,3.13-2.01,4.88,0,1.31.75,2.46,2.12,2.48,1.25.02,2.48-1.09,2.58-2.41.1-1.34-.14-2.68-.02-4.14.13-1.59-1.75-2.02-2.67-.81Z"/>
        </g>
        <g class="cls-4">
          <path class="cls-2" d="M277.93,301.04c-.45,1.29-1.13,2.65-.83,3.98.29,1.29,1.97,2.17,3.09.96.37-.41.72-.77.93-1.29.16-.4.23-.83.32-1.25l.39-1.81c.22-1.03-.68-1.95-1.55-2.08-.97-.15-1.99.47-2.34,1.49Z"/>
        </g>
        <g class="cls-4">
          <path class="cls-2" d="M293.19,205.34c2.42-2.26,4.17-5.68,4.27-8.98.06-1.94-2.95-2.64-3.43-.53-.67,2.93-1.32,5.65-2.44,8.48-.39.98.87,1.71,1.6,1.03Z"/>
        </g>
        <g class="cls-4">
          <path class="cls-2" d="M281.04,229.58c2.48-.58,3.85-3.65,4.61-5.88.57-1.65-1.15-3.17-2.67-2.31-2.31,1.3-4.05,3.46-4.66,6.09-.48,2.08,1.61,3.7,3.37,2.18,2.41-2.09,4.16-4.86,4.95-7.95.46-1.79-1.22-3.76-3.04-2.63-3.14,1.94-5.27,5.33-4.83,9.04.12,1.03,1.15,1.68,2.11,1.56,1.1-.13,1.73-.99,1.95-2.05.36-1.74,1.11-3.52,2.65-4.52l-3.04-2.63c-.54,2.38-1.64,4.35-3.46,6.01l3.49,1.61c.25-1.31,1.06-2.45,2.17-3.16l-2.67-2.31c-.56,1.98-2.03,3.79-2.27,5.8-.09.78.65,1.33,1.35,1.17Z"/>
        </g>
        <g class="cls-4">
          <path class="cls-2" d="M340.15,230.2c3.28-1.56,5.46-4.77,5.69-8.39.1-1.7-1.7-2.54-3.02-1.42-2.5,2.11-4.33,4.87-5.21,8.02-.35,1.25.3,2.62,1.64,2.59,1.76-.04,3.3-1.11,3.16-3.08-.05-.75-.76-1.22-1.42-1.26-.48-.03-.89.25-1.34.25l1.64,2.59c.72-2.45,1.96-4.57,3.85-6.3l-3.02-1.42c-.05,2.51-1.2,4.81-3.27,6.32-1.29.94.02,2.72,1.3,2.11Z"/>
        </g>
        <g class="cls-4">
          <path class="cls-2" d="M306.81,271.4c2.18,1.18,4.97.4,6.39-1.98.88-1.46.08-2.93-1.41-3.11-1.82-.22-4.04.54-5.38,2.01-.84.92-1.2,2.36-.35,3.28.73.8,2.25,1.07,3.15.08l.64-.66c.21-.17.24-.19.06-.08.13-.09.26-.16.39-.24.4-.22.72-.29,1.1-.29l-1.66-2.61c.09-.21,0-.02-.05.08-.28.48.09-.05-.13.17-.22.22-.47.46-.72.64-.24.18-.75.31-1.17.29-1.19-.07-1.93,1.84-.86,2.41Z"/>
        </g>
        <g class="cls-4">
          <path class="cls-2" d="M314.17,276.24c.32.52.52.99,1.24,1.28.5.2,1.07.28,1.62.24.83-.06,1.56-.46,1.97-1.28.41-.83.25-1.58-.19-2.28-.95-1.53-3.42-1.24-4.73-.07-.9.81-1.11,2.36-.34,3.2.86.94,2.02.82,3.06.07-.26.18-.28.2-.06.07-.14.09-.29.14-.45.14-.27-.06-.3-.06-.08,0,.1.02.2.04.3.07l-.56-3.55c-.14.13-.39.22-.12.11-.03.01-.4.2-.25.13-.33.15-.67.32-.95.59l.55-.3c-.09.04-.19.07-.28.09-.56.16-1.09.92-.75,1.48Z"/>
        </g>
        <g class="cls-4">
          <path class="cls-2" d="M254.03,350.73c-.14,2.19.08,6.53,2.9,6.59,1.44.03,2.65-1.5,3.11-2.8.46-1.32.43-2.77.02-4.03-.41-1.29-1.27-2.43-2.55-2.88-1.39-.49-3.08.11-3.96,1.44-.74,1.11-.88,2.57-.59,3.78.37,1.57,1.34,2.62,2.67,3.38,1.39.8,3.63-.82,2.7-2.48-.38-.68-.74-1.44-1.01-2.18.03.08-.17-.41-.08-.39.01,0-.12.22-.13.23l-.71.48-.42.02s-.11,0-.09-.04c0,0,.14.27.17.33.07.17.13.41.13.62.01.46-.13,1.14-.4,1.47l.76-.7-.2.12.93-.23c.46.23.54.19.25-.12l-.16-.25c-.17-.26-.32-.54-.47-.82-.31-.57-.58-1.18-.76-1.81-.32-1.07-2.01-1.12-2.1.24Z"/>
        </g>
        <g class="cls-4">
          <path class="cls-2" d="M261.77,362.82c.26.66.73,1.16,1.35,1.46.77.38,1.53.27,2.33-.1,1.61-.74,1.03-3.17-.55-3.23-.12,0-.22-.02-.04,0-.24-.03-.46-.08-.7-.08-.27,0,.2.06-.06,0-.07-.02-.31-.15-.15-.04-1.23-.75-2.7.64-2.17,1.98Z"/>
        </g>
        <g class="cls-4">
          <path class="cls-2" d="M266.16,345.31c.09-.75.1-1.57-.21-2.24-.4-.86-1.64-.93-2.2-.06-.43.67-.57,1.47-.6,2.24-.09,2,2.76,2.07,3.01.05Z"/>
        </g>
        <g class="cls-4">
          <path class="cls-2" d="M303.12,201.36c.93-.45,1.87-1.41,2.09-2.47.26-1.29-.03-2.49-1.24-3.06-1.14-.53-2.44-.07-3.21,1-.41.57-.62,1.27-.67,1.96-.05.61.13,1.15.31,1.71.34,1.1,1.8,1.3,2.72.86Z"/>
        </g>
        <g class="cls-4">
          <path class="cls-2" d="M302.55,188.41c.15-1.08.36-2.09.1-3.14-.4-1.6-2.63-1.76-3.22-.07-.19.56-.31,1.08-.29,1.67l.06,1.48c.04.92.58,1.73,1.55,1.75.96.02,1.66-.75,1.79-1.68Z"/>
        </g>
        <g class="cls-4">
          <path class="cls-2" d="M237.53,289.49c1.67.39,3.49.13,5.17-.53,1.73-.67,3.43-2.43,2.8-4.43-.64-2.03-2.94-2.05-4.74-1.7-1.62.32-3.12,1.16-4.42,2.28-1.25,1.09-1.01,3.58.61,3.84,2.09.33,4.53-.15,6.01-2.12.57-.76.47-1.93-.06-2.56-.61-.73-1.54-.73-2.42-.36-.84.36-1.34.75-2.01.62l.61,3.84c.45-.37,1.04-.67,1.62-.83.34-.1.47-.12.73-.15.22-.02.44-.02.66-.02.09,0,.17,0,.26,0,.31.02.18,0-.39-.09l-.74-.87.43-1.86-.16.15s.18-.11.21-.13c-.42.2-.89.32-1.32.46-.83.27-1.67.43-2.5.69-1.74.54-2.18,3.33-.35,3.76Z"/>
        </g>
        <g class="cls-4">
          <path class="cls-2" d="M228.25,292.89c.11.91.9,1.46,1.77,1.36.76-.09,1.46-.57,1.9-1.27.71-1.11.13-2.93-1.26-2.76-.7.08-1.37.27-2.05.45-.94.25-1.61,1.32-1.46,2.27.16,1,1.07,1.53,2.02,1.31.53-.12,1.09-.21,1.6-.41l-1.93-2.24c.05-.18.93-1.02.09-.27-.17.15-.71.65-.21.21-.39.34-.53.88-.48,1.35Z"/>
        </g>
        <g class="cls-4">
          <path class="cls-2" d="M250.41,279.86c1.09.39,2.27-.63,2.89-1.54.8-1.19.84-3.21-.63-3.63-2.3-.66-4.58,4.34-2.26,5.18Z"/>
        </g>
        <g class="cls-4">
          <path class="cls-2" d="M196.67,267.38c2.17-.1,4.05-1,5.8-2.57,1.21-1.08.88-2.91-.18-3.63-2.61-1.8-6.3-.58-8.21,2.31-.91,1.37-.21,3.26,1.16,3.56,1.88.42,5.01.39,6.24-1.83.64-1.16.49-2.73-.6-3.31-1.03-.55-2.52-.22-3.21,1.02,1-.63,1.26-.87.79-.72-.12.04-.23.07-.35.09.35-.07-.34.03-.35.03-.23.01-.47.02-.7,0,.37.04-.29-.08-.32-.09l1.16,3.56c.35-.51-.31.22.16-.17.17-.14.21-.15.01-.03.03-.02.65-.39.21-.17.16-.08.34-.15.51-.2.09-.03.54-.12.15-.06.17-.02.35-.03.52-.03.21,0-.2-.09.14.04.44.17-.24-.16.22.09l-.18-3.64c-.58.61-.78.77-1.48,1.21-.57.37-1.1.7-1.7.92-1.88.69-1.82,3.71.2,3.62Z"/>
        </g>
        <g class="cls-4">
          <path class="cls-2" d="M185.58,262.85c-.06,1.56,1.38,2.44,2.75,1.94,2.26-.83,2.07-4.32-.26-4.25-.57.02-1.08.05-1.65.18-1.03.24-1.71,1.53-1.65,2.52.07,1.13.88,1.79,1.92,1.81.37,0,.75-.09,1.12-.16l-.75-4.01c-.71.48-1.44.98-1.48,1.97Z"/>
        </g>
        <g class="cls-4">
          <path class="cls-2" d="M206.66,244.26c-.22.17-.23.19-.03.06-.23.1-.23.1,0,.02.3-.07.62-.19.88-.34.54-.32.99-.76,1.35-1.3.86-1.32.91-3.28-.51-4-1.54-.76-3.13.35-3.4,2.13.16-1.06-.02.06-.04.24,0,.18.02.07.05-.33l.15-.36c.1-.16.39-.4.09-.14-.1.08-.19.17-.28.26-.69.69-1.26,1.54-1.28,2.53-.04,1.68,1.79,2.38,3.02,1.24Z"/>
        </g>
        <g class="cls-4">
          <path class="cls-2" d="M219.25,202.92c-.57.63-.86,1.26-.86,2.12-.01,1.33,1.39,2.26,2.57,1.51,3.76-2.39,3.81-7.57,1.1-10.52-1.17-1.29-3.2-.5-3.73,1.11-.8,2.43-.81,5.2-.45,7.67.19,1.22.62,2.28,1.7,2.85,1.2.63,2.81.27,3.83-.75,2.79-2.76,1.29-13.58-3.72-10.66-2.09,1.23-2.53,4.74-2.38,6.84.18,2.28,1.51,4.38,3.9,4.4,6.07.08,3.46-9.3,1.94-12.19-.46-.88-1.68-1.5-2.69-1.11-2.5.98-3.22,3.25-3.21,5.76.03,2.35-.36,5.79,1.82,7.1.62.38,1.67.45,2.32-.05,1.62-1.25,1.09-2.5,1.03-4.2-.03-.91-.06-1.82-.12-2.72-.03-.43,0-.94-.06-1.36-.05-.38.15-.13-.11-.01l-3.25-.85c.98,1.69,1.09,3.31,1.45,5.2v.49c.54-.84,1.07-1.03,1.58-.58.03-.08-.12-.87-.12-.87,0-.55.11-1.73.53-2.13l-1.04.62.31-.07-1.74-.2.29.16-.82-.87c.76,1.08,1.39,3.22.48,4.44l.9-.92.18-.05,1.18.3-.29-.17.84.89c-.44-.73-.36-2.15-.34-3.02.02-1.17.21-2.32.35-3.49l-3.35,2.05c1.19.87.47,3.17-.34,4.09l2.48-.04.1.18c.03-1.16-1.44-1.88-2.29-.94Z"/>
        </g>
        <g class="cls-4">
          <path class="cls-2" d="M223.52,186.56c1.03,1.61,3.16,1.09,4.07-.47.68-1.18.56-2.73-.05-3.85-.56-1.04-2.1-1.53-3.14-.81-1.24.86-2.05,2.19-2,3.73.04,1.25,1.03,2.43,2.34,2.34,1.17-.09,2.51-1.12,2.39-2.46-.02-.11-.02-.23-.01-.34-.06.33-.05.37.02.11-.04.2-.13.37-.28.51.08-.09.16-.16.26-.23l-3.61-.43c.12.22.13.2.01-.07.06.25.06.23,0-.06l.04-.24c-.04.11-.06.23-.07.35-.17.64-.33,1.34.05,1.93Z"/>
        </g>
        <g class="cls-4">
          <path class="cls-2" d="M229.52,195.27c-.68.85-1.04,1.9-.57,2.92.37.82,1.14,1.5,2.03,1.68.71.14,1.43-.02,1.98-.56.59-.59.69-1.29.62-2.06-.12-1.26-.89-2.24-1.85-2.94-1.08-.78-2.49.14-2.89,1.26-.33.91,0,1.97.67,2.57.78.71,2.35.53,2.62-.75.06-.28-.13.06,0-.04.09-.06.17-.26.22-.35l-3.07.45c.09.08.18.17.26.26-.12-.16-.12-.14,0,.06-.07-.19-.07-.18,0,.05-.01-.22-.02-.2-.02.04l2.12-2.15c.1,0,.57.18.4.09-.23-.13.36.31.03,0l-.4-.32.18.15c-.24-.32.12.29-.02-.06-.32-.83-1.72-1.01-2.3-.29Z"/>
        </g>
        <g class="cls-4">
          <path class="cls-2" d="M257.24,234.71c1.21-.07,2-.95,2.22-2.16.24-1.29-.28-2.34-1.25-3.05-.8-.58-2.12-.2-2.65.7-.58.97-.74,2.15-.3,3.15.44.99,1.53,1.68,2.63,1.3.77-.26,1.37-1.03,1.2-1.88l-.05-.34c.05.24-.27-1.01-.15-.39-.02-.09-.02-.41-.08-.45.13.09-.06.53-.11.61l-2.65.7c-.09-.06-.3-.46-.14-.13.04.09.14.47.08.16-.07-.38,0,.32.02.46l.13.4c-.05-.2-.07-.22-.04-.06.07.54.61,1.01,1.15.98Z"/>
        </g>
        <g class="cls-4">
          <path class="cls-2" d="M258.55,185.03c.65-.65,1.13-1.4,1.45-2.25.34-.9.28-1.95.12-2.86-.35-2.08-3.27-1.9-3.89-.02-.06.19-.1.38-.15.58-.17.72,0,1.44.58,1.9.51.41,1.36.58,1.96.17.3-.2.6-.41.88-.65l-3.13-.47c.22.47.4,1.56.18,2.38-.31,1.16,1.08,2.13,1.99,1.22Z"/>
        </g>
        <g class="cls-4">
          <path class="cls-2" d="M121.97,199.7c1.04,1.92,3.11,2.15,5.07,1.8.8-.13,1.52-1.04,1.7-1.9.2-.95-.08-1.81-.74-2.38-1.39-1.14-3.24-1.45-5-.96-1.36.37-1.96,2.08-1.49,3.38.34.95,1.13,1.52,2.05,1.53,1.39,0,2.48-1.8,1.91-3.18-.08-.22-.19-.42-.32-.6.13.2.16.19.06-.03l-1.54,3.36c.34-.09.05-.07.37-.07.15,0,.3,0,.45.01-.13-.02-.12-.02.02.01.11.03.53.19.48.16-.11-.05-.06-.02.14.1.12.09.24.18.35.28l.93-4.26c-.45.08-.94.13-1.55.18-.65.06-1.28.08-1.91.32-.76.28-1.46,1.38-.99,2.24Z"/>
        </g>
        <g class="cls-4">
          <path class="cls-2" d="M162.43,189.38c.27-1.49-.49-2.91-1.84-3.41-.98-.36-2.25.01-2.69,1.13-.4,1.02-.09,2.36.95,2.74.11.04.22.1.33.14.34.1-.06-.1.11.02.2.14.41.27.59.45.86.83,2.35.11,2.56-1.06Z"/>
        </g>
        <g class="cls-4">
          <path class="cls-2" d="M170.7,220.64l.87.06-.66-.35c.23.24.46.45.76.57.88.37,2.07.09,2.57-.96.52-1.1.18-2.08-.67-2.68-1.14-.8-3.1-.03-3.73,1.34-.38.82-.34,1.88.29,2.46.67.6,1.52.61,2.34.13.02-.01.4-.26.39-.28,0,0-.95.24-.24.17l-.92-3.66c-.3.2-.54.43-.77.73l.64-.45-.87.25c-1.23.38-1.25,2.56,0,2.66Z"/>
        </g>
      </g>
    </g>
  </g>
</svg>