<?xml version="1.0" encoding="UTF-8"?>
<svg id="Layer_1" xmlns="http://www.w3.org/2000/svg" version="1.1" viewBox="0 0 960 540">
  <!-- Generator: Adobe Illustrator 29.7.1, SVG Export Plug-In . SVG Version: 2.1.1 Build 8)  -->
  <defs>
    <style>
      .st0 {
        fill: #fff;
      }
    </style>
  </defs>
  <path class="st0" d="M960,0v540H0V0h960ZM399.36,59.04v136.56c0,.36-2.31,5.99-2.39,6.33-.19.81.14,1.82-.11,2.69-.35,1.21-4.38,6.55-5.31,6.92-.71.28-1.46-.02-2.16.26-.15.06-1.34,1.87-2.38,2.16-1.16.33-11.55.32-12.74,0-21.1-5.75-28.73-35.47-35.15-53.17-.74-2.03-2.1-3.96-2.62-6.5-.22-1.06.39-4.75-1.32-5.02s-1.85.97-2.89,1.33c-9.94,3.47-19.11,8.19-28.62,12.41-7.9,3.5-16.55,6.69-24.73,10.56-10.18,4.82-19.63,9.65-22.17,21.51l.12,51.76,13.07,14.06c66.74,72.07,135.85,143.98,202.37,216.89,1.26,1.39,4.53,5.41,6.46,5.37.54-.01,1.21-.72,1.96-.79.92-.08,1.69.44,2.39.42,1.28-.03,3.85-2.45,4.84-3.46,3.89-3.96,6.88-8.22,10.59-12.28,3.78-4.13,8.05-7.95,11.89-12.07,44.12-47.28,88.27-95.11,131.91-141.92,5.14-5.51,10.77-11.03,16-16.67,12-12.95,24.53-25.94,36.22-39.25l9.59-9.36.24-54.41c-1.48-3.14-1.56-5.19-3.71-8.29-4.32-6.24-18.27-12.15-25.01-14.25-4.5-1.4-12.87-6.2-17.67-8.35-10.31-4.6-19.97-9.1-29.61-13.11-.42-.18-2.42-.71-2.5-.61.05,3.1-1.28,6.11-2.27,9.02-.56,1.65-1.54,3.12-1.59,3.32-.48,2.04-.51,2.41-1.2,4.46-5.18,15.38-13.63,40.74-29.88,47.01-8.69,3.35-20.37,2.37-24.98-6.53-.79-1.53-2.43-5.31-2.87-6.73-.74-2.4.74-5.94-1.08-8.52l.03-131.79c-2.32-.58-2.64,1.07-4.39,2.09-3.13,1.81-5.91,3.86-8.59,5.33-1.59.87-2.37,1.46-3.89,2.35l-19.46,11.48-.16,136.44c2.35,13.95,3.55,27.28,11.52,38.78,13.89,20.04,41.58,21.73,60.23,7.53s27.03-34.7,36.95-54.75c.28-.57.04-1.59.58-1.9,2.56-1.49,8.55,1.91,11.24,3.11,8.91,3.98,18.15,8.66,27.36,12.94,1.76.82,3.83,1.87,5.73,1.73-.03.69.13,1.49-.01,2.14-.4,1.81-6.81,8.82-8.37,10.83-55.22,71.44-109.82,142.94-165.67,213.76-6.6,8.37-13.52,16.51-21.1,23.8-.79.76-1.93,1.47-2.02,1.57-.36.4.46,2.09-2.16,1.33-.21-.06-2.6-2.62-3.05-3.08-1.14-1.18-2.13-2.97-2.85-4.1-.78-1.23-4.26-3.68-5.51-5.06-11.51-12.59-21.2-26.37-31.68-39.83-49.22-63.28-98.95-126.68-147.34-190.1-2.43-3.19-5.73-5.76-7.22-9.63.44-1.74,2.24-1.49,3.28-1.97.71-.33,2.83-1.86,3.58-2.21,11.2-5.23,22.35-9.75,33.1-14.38,1.3-.56,2.19-1.81,3.92-1.27l4.51,8.47c8.76,21.39,25.62,49.85,49.04,56.56.9.26,3.4,1.18,3.6,1.2,2.07.27,15.1.35,16.74-.05.36-.09.29-.85.66-.94,30.61-7.07,35.05-38.23,35.69-65.03.99-41.4-.79-82.93-.02-124.35l-.25-.71c-3.81-2.97-7.94-5.56-12.09-8.08-5.85-3.57-12.44-7.52-18.38-10.42-.3-.15-1.35-1.89-1.58-1.98-.74-.29-1.56-.1-2.29-.37-.92-.35-1.34-1.33-2.38-1.23ZM265.31,80.79c-1.1-.48-3.3.07-4.67-.63l-.43,5.25c2.23,1.14,5,1.15,7.51,2.29,2.35,1.07,5.26,4.13,7.44,5.59,6.48,4.34,13.09,8.52,19.31,12.81,24.05,16.58,48.55,33.83,72.38,50.53,6.01,4.21,12.04,7.43,17.14,12.49.36.36.88.24,1.28.5.24.15.16.71.21.75,1.03.69.84-.83,1.25-.94.59-.15,1.7.22,2.04-.04,1.8-1.39-.29-40.27.53-45.55-1.86.57-2.4-.72-3.41-1.17-2.51-1.12-3.23-.68-5.38-1.22-.5-.12-.46-1.17-1.1-1.38-1.58-.52-4.54-.67-6.33-1.35-4.85-1.86-10.38-3.89-15.56-5.48-5.98-1.83-12.86-5.19-18.95-7.06-13.14-4.04-26.32-8.64-39.61-13.1-10.5-3.52-23.71-7.93-33.62-12.29ZM572.64,124.56v44.88h5.76c-.67-3.32,1.74-2.77,3.66-4.02,4.49-2.92,8.77-6.55,13.18-9.61,30.05-20.86,59.99-41.47,89.85-61.73,1.78-1.21,4.07-4.18,4.77-4.69.49-.36,7.33-2.64,8.63-3.13,1.47-.54,2.32-1.85,4.71-1.54-2.21-.65-.82-2.73-2.4-3.84-1.7-.84-6.28.32-8.06,1.05-3.52,1.45-7.17,2.73-11.24,4.14-19.61,6.79-38.63,13.41-58.47,20.25-6.35,2.19-12.21,3.98-18.34,6.14-8.74,3.08-19.48,7.95-27.59,9.93-1.24.3-3.89.15-4.46,2.17Z"/>
  <path d="M399.36,59.04c1.04-.1,1.46.88,2.38,1.23.73.27,1.55.08,2.29.37.24.09,1.28,1.83,1.58,1.98,5.94,2.9,12.53,6.85,18.38,10.42,4.14,2.53,8.28,5.11,12.09,8.08l.25.71c-.78,41.41,1.01,82.95.02,124.35-.64,26.8-5.09,57.95-35.69,65.03-.37.08-.3.85-.66.94-1.64.39-14.67.32-16.74.05-.2-.03-2.7-.94-3.6-1.2-23.42-6.71-40.28-35.17-49.04-56.56l-4.51-8.47c-1.73-.54-2.62.71-3.92,1.27-10.75,4.63-21.91,9.16-33.1,14.38-.75.35-2.88,1.88-3.58,2.21-1.04.48-2.84.24-3.28,1.97,1.5,3.88,4.79,6.45,7.22,9.63,48.39,63.42,98.12,126.82,147.34,190.1,10.47,13.46,20.16,27.24,31.68,39.83,1.26,1.37,4.73,3.82,5.51,5.06.71,1.12,1.71,2.92,2.85,4.1.45.46,2.84,3.02,3.05,3.08,2.62.77,1.8-.92,2.16-1.33.09-.1,1.23-.81,2.02-1.57,7.58-7.29,14.5-15.43,21.1-23.8,55.86-70.82,110.45-142.32,165.67-213.76,1.56-2.01,7.97-9.02,8.37-10.83.14-.66-.01-1.45.01-2.14-1.89.14-3.97-.92-5.73-1.73-9.21-4.28-18.45-8.96-27.36-12.94-2.69-1.2-8.68-4.61-11.24-3.11-.54.31-.29,1.33-.58,1.9-9.92,20.05-18.05,40.37-36.95,54.75s-46.34,12.51-60.23-7.53c-7.97-11.5-9.17-24.82-11.52-38.78l.16-136.44,19.46-11.48c1.52-.9,2.3-1.48,3.89-2.35,2.68-1.47,5.46-3.52,8.59-5.33,1.75-1.01,2.07-2.67,4.39-2.09l-.03,131.79c1.82,2.58.34,6.12,1.08,8.52.44,1.42,2.08,5.19,2.87,6.73,4.61,8.9,16.3,9.88,24.98,6.53,16.26-6.27,24.71-31.63,29.88-47.01.69-2.05.72-2.42,1.2-4.46.05-.19,1.03-1.66,1.59-3.32.98-2.91,2.32-5.91,2.27-9.02.08-.1,2.08.43,2.5.61,9.64,4.01,19.3,8.51,29.61,13.11,4.81,2.15,13.18,6.94,17.67,8.35,6.74,2.1,20.69,8.02,25.01,14.25,2.15,3.1,2.22,5.15,3.71,8.29l-.24,54.41-9.59,9.36c-11.69,13.31-24.22,26.29-36.22,39.25-5.23,5.64-10.86,11.15-16,16.67-43.64,46.8-87.79,94.64-131.91,141.92-3.84,4.12-8.11,7.94-11.89,12.07-3.72,4.06-6.71,8.31-10.59,12.28-.99,1.01-3.56,3.43-4.84,3.46-.7.02-1.46-.5-2.39-.42-.75.07-1.41.77-1.96.79-1.93.04-5.2-3.98-6.46-5.37-66.52-72.91-135.63-144.82-202.37-216.89l-13.07-14.06-.12-51.76c2.54-11.86,11.99-16.69,22.17-21.51,8.18-3.88,16.83-7.06,24.73-10.56,9.51-4.22,18.68-8.94,28.62-12.41,1.04-.36,1.15-1.6,2.89-1.33s1.11,3.96,1.32,5.02c.52,2.54,1.89,4.47,2.62,6.5,6.41,17.71,14.04,47.43,35.15,53.17,1.19.32,11.58.34,12.74,0,1.04-.29,2.24-2.1,2.38-2.16.7-.28,1.45.02,2.16-.26.92-.37,4.96-5.72,5.31-6.92.25-.87-.08-1.88.11-2.69.08-.35,2.39-5.98,2.39-6.33V59.04Z"/>
  <path d="M265.31,80.79c9.9,4.35,23.12,8.77,33.62,12.29,13.3,4.46,26.47,9.06,39.61,13.1,6.09,1.87,12.96,5.23,18.95,7.06,5.19,1.59,10.72,3.62,15.56,5.48,1.79.69,4.75.83,6.33,1.35.64.21.61,1.26,1.1,1.38,2.15.54,2.87.1,5.38,1.22,1.01.45,1.56,1.74,3.41,1.17-.82,5.28,1.28,44.16-.53,45.55-.34.26-1.45-.11-2.04.04-.41.1-.22,1.63-1.25.94-.05-.04.02-.6-.21-.75-.4-.25-.92-.14-1.28-.5-5.1-5.06-11.13-8.28-17.14-12.49-23.83-16.7-48.33-33.96-72.38-50.53-6.22-4.28-12.83-8.47-19.31-12.81-2.17-1.45-5.09-4.51-7.44-5.59-2.51-1.15-5.29-1.16-7.51-2.29l.43-5.25c1.37.71,3.57.15,4.67.63Z"/>
  <path d="M572.64,124.56c.57-2.02,3.23-1.87,4.46-2.17,8.11-1.99,18.85-6.85,27.59-9.93,6.13-2.16,11.99-3.95,18.34-6.14,19.84-6.84,38.86-13.46,58.47-20.25,4.06-1.41,7.71-2.68,11.24-4.14,1.78-.74,6.37-1.9,8.06-1.05,1.58,1.11.19,3.2,2.4,3.84-2.39-.32-3.24.99-4.71,1.54-1.3.48-8.14,2.77-8.63,3.13-.7.52-2.99,3.48-4.77,4.69-29.86,20.26-59.8,40.87-89.85,61.73-4.41,3.06-8.68,6.69-13.18,9.61-1.93,1.25-4.34.7-3.66,4.02h-5.76v-44.88Z"/>
</svg>