<?xml version="1.0" encoding="UTF-8"?>
<svg id="Layer_1" xmlns="http://www.w3.org/2000/svg" version="1.1" viewBox="0 0 1024 1536">
  <!-- Generator: Adobe Illustrator 29.7.1, SVG Export Plug-In . SVG Version: 2.1.1 Build 8)  -->
  <defs>
    <style>
      .st0 {
        fill: #fff;
      }
    </style>
  </defs>
  <path class="st0" d="M0,1069V0h1024v1077c-15.23-36.01-40.43-60.53-75.64-76.86-44.78-20.76-94.94-35.85-140.87-55.13-36.92-15.49-79.84-34.34-113.79-55.21-14.18-8.71-23.53-23.24-41.57-25.93-1.44-15.04-1.39-30.27-1.16-45.42.28-19.28.99-41.81,3.15-60.85,1.77-15.61,8.22-29.57,12.61-44.39,2.1-7.09,3.42-14.46,5.17-21.63,9.88-.44,17.74-.85,25.59-7.6s24.84-40.55,29.69-51.31c11.8-26.14,17.03-54.62,12.73-83.06-1.12-7.4-6.61-19.63-14.62-21.38-2.38-.52-7.59.97-7.3-1.73,2.5-9.68,4.87-19.46,6.73-29.29,6.14-32.33,16.57-71.4,15.33-103.75-.1-2.54-1.21-4.89-1.03-7.45l4.21,10.28,2.78,1.72v-27.5c0-5.41-8.47-22.1-11.58-27.42-5.57-9.5-12.26-18.31-21.42-24.58,5.34-.2,10.1,4.14,15.49,3.53,1.07-.12,2.16.2,1.5-1.51-.83-2.14-7.38-8.73-9.46-10.54-9.55-8.34-21.59-12.78-33.29-17.22-2.06-4.16-.65-8.95-1.34-13.15-4.46-27.18-25.34-47.06-46.39-62.62-1.54-.2-1.75-.03-1.53,1.52.85,5.96,12.63,18.14,9.52,26.49-4.22-5.09-10.58-7.43-15.52-11.48-15.71-12.91-19.5-22.53-40.63-31.37-20.89-8.74-43.07-11.74-64.56-17.44-18.77-4.98-38-3.19-56.6,1.99-15.05,4.2-34.33,15.09-48.95,17.05-22.65,3.04-36.32-.05-57.54,12.46-8.69,5.12-19.77,13.03-24.71,21.79l-1.42-9.49,1.43-12.5c-14.44,4.36-23.08,20.08-23.13,34.86-14.11,2.88-32.41,17-34.6,31.9-.47,3.2.31,7.05-.27,9.58-.19.84-2.99.03-1,4.65-1.82.41-1.96-.55-2.82-1.67-4.93-6.38-8.52-15.24-9.18-23.33-6.04-.63-11.17,9.26-11.9,14.59-1.62,11.76-.58,26.78,7.85,35.78-4.2,6-11.75,11.71-14.77,18.29-.85,1.84-5.16,15.55-5.16,16.84v20.5c3.25.45,12.07-12.74,14-10.99-7.41,16.75-9.93,40.94.51,56.99l3.48-14.99c.51,4.87-1.67,9.82-1.97,14.51-1.53,23.77,6.83,62.22,11.26,86.71.94,5.22,3.37,10.63,3.73,16.29.13,2.09,0,1.28-1.48,1.5-8.47,1.23-13.27-2.6-18.26,7.77-8.34,17.34-5.61,59.66-1.02,78.48,3.71,15.18,23.96,56.05,35.1,66.4,2.15,2,7.21,5.78,9.93,6.57,5.32,1.55,10.45-.58,14.8,2.45,6.51,20.3,9.61,44.19,19.75,63,3.67,6.8,9.33,11.54,10.16,19.84.36,3.6-.3,7.36.03,10.97,2.55,28.79,3.69,57.47,2.94,86.47-12.86,1.67-22.45,10.51-31.49,18.98-2.97,2.78-2.99,4.67-7.58,7.45-20.98,12.73-52.57,25.94-75.53,36.47-25.46,11.68-51.39,23.17-77.38,33.62-31.44,12.65-69.14,23.09-98.49,39.51-23.99,13.41-45.99,37.55-56.49,63.01Z"/>
  <path d="M0,1069c10.5-25.46,32.5-49.6,56.49-63.01,29.36-16.41,67.06-26.86,98.49-39.51,25.99-10.46,51.91-21.95,77.38-33.62,22.96-10.53,54.55-23.74,75.53-36.47,4.59-2.78,4.6-4.67,7.58-7.45,9.04-8.47,18.63-17.31,31.49-18.98.75-29-.39-57.68-2.94-86.47-.32-3.61.33-7.37-.03-10.97-.83-8.3-6.49-13.04-10.16-19.84-10.14-18.81-13.25-42.7-19.75-63-4.35-3.02-9.48-.9-14.8-2.45-2.71-.79-7.78-4.57-9.93-6.57-11.14-10.35-31.39-51.22-35.1-66.4-4.59-18.82-7.32-61.14,1.02-78.48,4.99-10.37,9.79-6.53,18.26-7.77,1.47-.21,1.61.59,1.48-1.5-.37-5.66-2.79-11.07-3.73-16.29-4.43-24.49-12.79-62.93-11.26-86.71.3-4.69,2.48-9.64,1.97-14.51l-3.48,14.99c-10.43-16.05-7.92-40.23-.51-56.99-1.92-1.75-10.75,11.44-14,10.99v-20.5c0-1.28,4.32-15,5.16-16.84,3.02-6.58,10.57-12.29,14.77-18.29-8.43-9-9.47-24.02-7.85-35.78.74-5.34,5.86-15.23,11.9-14.59.66,8.09,4.25,16.96,9.18,23.33.86,1.11,1,2.07,2.82,1.67-1.99-4.63.81-3.82,1-4.65.58-2.53-.2-6.38.27-9.58,2.19-14.89,20.49-29.02,34.6-31.9.04-14.78,8.69-30.5,23.13-34.86l-1.43,12.5,1.42,9.49c4.94-8.76,16.02-16.67,24.71-21.79,21.22-12.5,34.89-9.42,57.54-12.46,14.62-1.96,33.9-12.85,48.95-17.05,18.6-5.19,37.83-6.97,56.6-1.99,21.49,5.7,43.67,8.7,64.56,17.44,21.13,8.84,24.92,18.46,40.63,31.37,4.94,4.06,11.3,6.4,15.52,11.48,3.11-8.35-8.68-20.52-9.52-26.49-.22-1.56-.01-1.72,1.53-1.52,21.05,15.56,41.92,35.44,46.39,62.62.69,4.2-.72,8.99,1.34,13.15,11.7,4.44,23.73,8.88,33.29,17.22,2.08,1.82,8.63,8.4,9.46,10.54.66,1.71-.43,1.39-1.5,1.51-5.39.61-10.15-3.74-15.49-3.53,9.15,6.27,15.85,15.08,21.42,24.58,3.11,5.32,11.58,22.01,11.58,27.42v27.5l-2.78-1.72-4.21-10.28c-.18,2.56.94,4.92,1.03,7.45,1.23,32.35-9.2,71.42-15.33,103.75-1.87,9.82-4.23,19.61-6.73,29.29-.3,2.7,4.91,1.21,7.3,1.73,8.01,1.75,13.5,13.98,14.62,21.38,4.31,28.44-.92,56.92-12.73,83.06-4.85,10.75-21.97,44.67-29.69,51.31s-15.72,7.16-25.59,7.6c-1.75,7.18-3.08,14.55-5.17,21.63-4.39,14.83-10.84,28.78-12.61,44.39-2.16,19.04-2.87,41.57-3.15,60.85-.22,15.15-.27,30.37,1.16,45.42,18.04,2.69,27.4,17.22,41.57,25.93,33.95,20.87,76.87,39.72,113.79,55.21,45.93,19.27,96.1,34.37,140.87,55.13,35.21,16.32,60.41,40.85,75.64,76.86v356c-7.2,5.67-17.9,9.68-26.74,12.76-34.42,12.01-66.72,15.49-102.73,18.27-5.33.41-11.16-.38-16.54-.04l-4,72h-105c3.93-41.2,9.65-82.21,12.99-123.51,2.42-29.95,5.04-62.03,6.05-91.95.31-9.15-.3-18.39-.05-27.54-19.39,2.85-38.97,6.13-58.5,7.99-21.02,2.01-42.94,3.44-63.95,4.05-27.15.78-60.96-2.97-86.93.07-18.27,2.13-40.72,25.5-58.61,18.39-14.87-5.91-14.94-16.83-34.63-19.37-51.82-6.68-110.65-1.51-163.86-5.14-34.29-2.34-68.32-8.69-102-15-1.18,8.09-.2,16.4-.47,24.56-.08,2.37-1.02,4.55-1.08,6.92-1.81,73.67,1.97,147.28,8.04,220.54h-92c2.57-18.18-.47-36.41-1.99-54.51-.36-4.27.36-8.71-.03-12.97-.55-6.15-2.77-12.2-2.45-18.55-3.87-2.98-8.77-1.44-13.03-1.97-39.41-4.89-82.29-13.49-116.51-33.99v-345ZM515.76,195.31c-1.89-.97-5.87.24-8.21-1.36l-.98,1.96-12.57-.9,1.99,1.98-2.99,1,8-.98-1.01,1.98c3.69-.63,7.55,2.73,10.71,2.74,2.18.01,3.87-2.33,6.24-1.69l1.07,2.48-2,1.47,3.41,1.08,1.11-2.14c3.91,1.41,4.16,4.42,9.47,3.08l-3,.99c-.91,3.55,2.98,1.32,4.02,2l-1.02,1.97c4.35.19,6.47,4.95,11,2.02l-2.99,3.99c2.75.77,4.03,3,6.99,1,.66,6.52,6.75,13.09,11.8,17.18l-.8,3.84c-2.74.39-2.36-2.37-4.48-4.02-4.12-3.21-11.26-5.39-15.05-9.96l-1.96,1.97-1.03-2,1.53-1.99-10.51-6.02-2.49,2,.99-2.98-3.99.99.99-2.99-2.98,2,.99-2.99c-1.6-.85-3.32,2.4-3.98,1.98-.25-.16-1.52-3.97-4.01-3.99l.5,3.99c-2.62-1.03-1.37-4.76-1.61-4.9-.42-.26-1.76.13-2.53-.41-2.12-1.51-1.5-2.09-5.36-3.18-3.03-.86-8.57-.06-8.03-2.49-2.13,1.05-1.87,4.67-4.99,2.48l2-2.48h-2.48s-1.53,3.99-1.53,3.99l-2.49-4.99-1,3-2.24-.5c2.29-3.22-5.32-.51-4.28,1.46l-1.97.02,1-2.98-7.51,3c-.96-2.04-.8-2.37-3.49-1.99l-.5,5-2.5-5-.5,2.99c-1.39-5.48-4.19,1.17-3.5,2,1.06,1.27,3.9.14,4.98-.98l.62,2.08,4.41-1.09-1.02,1.98c3.61-.92,8.6,4.07,11.45,4.06.29,0,2.05-4.11,4.55-3.05,1.65,3-5.29,1.28-2.99,3.98,1.41,1.65,5.43,2.38,6.98.02l-.99,2.99,2.53-.85,3.48,1.87-1.01,1.98,4.01-.98-.98,1.93c.35.51,9.54,4.56,10.99,5.58,1.25.87,1.58,2.58,2.77,3.49,3.49,2.68,7.2,2.96,8.4,7.8l1.81-.82.18,2.85,2.84.17c-1.89,2.89,1,5.13,4,5l-1.03,2.47c3.59-.87,5.03.57,1.02,2.01,4.3,1.65,2.15,3.67,2,7.5,3.46-2.03,4.91.25.93,1.55l1.06,3.44c-1.98,2.36-3.49-6.48-4.01-6.99-2.72-2.67-.09,4-2.98,1.99l.5-4.05-4.48-1.99.99-1.94c-3.68.5-5.33-5.72-8.83-7.95-2.77-1.77-4.22-.97-4.87-1.34-3.68-2.12-7.1-7.33-10.83-9.72s-10.65-3.46-12.96-7l-4.52,2,1-2.98-4,1.98,1-2.98c-2.66.07-6.93-2.01-7.02,1.97l-1.92-.06c-.31-2.33-2.79-1.51-1.06-3.92-1.66.34-4.96.08-6.5-.26-.74-.16-.28-1.43-.97-1.57-.75-.15-11.26-1.32-11.88-1.21-1.02.18-.01,3-2.66,2.03l.51-2.98-6.01,4.99-1.01-3.01-15.56,3.53-.93,4.48-5.98-2.99.48,3.01-3.55-1.58-3.93,3.57-.03-1.96c-3.52-.68-.29,1.31-2.49,2.95l-.47-1.98c-5.79,1.57-11.11,1.63-17.01.99.16,2.54.63,3.71-2,4.5l8.5,6.5.51-3c2.45-.23.05,4.07,2.48,3.01,1.22-.54.75-3.71,3.51-3-3.38,3.05-1.44,6.7.5,1.99,1.11.65,1.46,2.83,2.47,3.43.51.3,6.69,1.44,7.37,1.66.83.27.55,1.59,1.32,1.81,1.35.39,4.92.14,4.85-1.93l2.5.03-.99,2.99c3.68-2.15,7.97-1.81,11.99-1-1.58-3.81,2.63-3.7,1,0h4s-2.51-4.98-2.51-4.98c2.42,1.08,3.35,2.26,3.52,4.99,6.21-3.23,2.62-.74,5.18.33,3.33,1.39,11.03.68,11.63.91.12.04.26,1.55.91,1.7,4.43,1.04,9.41,1.17,12.77,4.06l2.49-2.99-.99,3.99c5.22-2.19,3.32.26,5,1.39.47.32,1.41-.21,1.74.01,3.04,2.05,5.42,6.72,9.25,2.6l-.98,4c3.23-3.41,3.76,1.41,6.98-2l-1.98,5,2.98-1.01v3.02s3-1,3-1l.5,2.98,3.49-1.98-.99,3.51,2.98-1.5c1.53,1.64,1.88,5.09,2.47,6.02.92,1.47,3.66.53,4.39,1.13.49.41.33,3.11,1.46,4.56.49.63,11.07,10.31,11.74,10.74,1.84,1.18,4.8,1.36,4.98,1.55.35.37-2.39,8.77,3.98,6.99-2.1,4.37,1.41,3.28,2.01,4.02.21.26-4.32,4.46-.49,5.97,3.49,1.37,3.68-5.74,3.53-7.53-.16-1.96-1.76-1.27-1.97-2.1-.52-2.02,1.84-5.48-4.07-5.37l.52-2.01,3.48,1.01c-2.77-3.9.04-6.5-1-9.98,2.77-.99,1.72,1.71,2.03,1.95,2.4,1.79,1.21-3.12,3.97-1.94-2.17,3.91-2.72,7.7-.06,11.56l3.06-.57-2,3.98,3.99-1c.05,1.97-.8,3.57,2,3,1-5.22-2.46-10.25,0-14.99-2.97.31-4.01.41-4.98-2.53l1.97-.47c1.24-3.85.83-6.73-2.99-8.51l1.99-.95c-1.63-3.1-.95-5.25-4.99-3.56,4.9-5.75-1.55-5.58-1-10.99l7.71,5.27c3.74,7.15,7.81,11.95,15.28,15.23l-1.99,2.49,2.98-1c-1.64,5.62,1,11.55,5.01,15.5-4.43.73,2.14,6.94.13,10.4l2.86,1.1,1-23c-3.5,1.99-4.8-.1-.98-1.65.95-5.17-3.58-6.53-2.02-12.36l-4.98-1.02.5-1.99,3.48,2.01c.46-2.16-1.17-2.49-2.94-3.12l.95-2.87-3.97,1-1.03-2.99,3.99-.49-2-4.53-2.98,1.01,1-4.99h-4c-.59-1.29,4.24-1.14,1.99-3-2.11-1.75-2.83,1.79-3.98,1.99-.77-3.15,1.33-3.37,3.49-4.66,3.69,1.38,6.66,6.31,10.5,4.68l-.79,1.79,2.97,3.04,3.8-.84c-2,4.08,1.33,5.79,3.52,9,3.41-.26,2.44-5.21,6.49-3.99l-5,6.48c3.1,1.32,2.05,2.15,3.48,4.38l2.52-.86-1.84,3.33c1.65,1.1,2.61,5.42,2.85,5.65,3.38,3.16,5.43-5.94,3.49-10.01-.98-2.06-4.25-1-3.5-3.98,11.17,1.87,4.98,18.42,14.99,19.99l-1.97-2.53c-.77-1.82,2-1.34,2.03-2.01.09-2.01-2.68-5.57-1.07-8.44l-2.99.99c-.82-2.54,1.26-1.7,1.68-2.33.65-.96-.28-3.56,1.79-2.66,1.25.54.39,6.07,4.49,6.01l-.06,1.93-1.92.54c1.98,1.31,1.58,2.5,1.01,4.51,3.42-2.04,4.94.26.96,1.51,1.56,3.37,3.01,8.04,2.04,11.49l2.98-2-2.98,3.02v1.98s3.99-.99,3.99-.99l-4,2c-.45,3.56,3.22-.21,4.03,4.47.33,1.93-.5,1.65-2.02,1.52l-2-2.99c-.34,2.33,2.94,4.26,3.01,4.53.66,2.68-3.05,2-2.07,6.93l3.06.53-2.99.99,1.99,4.98c-6.04.39-4.82,4.47-1,7.52l-2.99-.5v3.01s1.98-1.02,1.98-1.02l.15,2.86,2.86.17-1.51,3.99c1.54-2.5,5.12-5.04,3.74-7.83l1.77-.76c-.19-.6.26-6.12.46-6.45.45-.77,2.52-.88,3.29-2.57.4-.89-.23-5.76.31-7.64.11-.39,2.39-1.96,3.32-3.82,2.93-5.92.56-11.04,4.61-16.44l-2.97-.48,2.99-2c.52-2.62-.58-1.51-2.03-2.49l2.02-3.49c-3.45.32-1-1.81-1.4-4.1-.26-1.53-6.41-4.76-.59-7.41l-6-8.51c5.67-2.2,8.73,3.61,12.01,7.53,1.95,2.32,2.76,3.51,4.63,5.88,1.23,1.56.44,2.83,4.34,4.08-1.2,1.44-2.13,2.58-3.97,1.5v7s3.99-1.99,3.99-1.99c-.15,3.59-3.79,2.8-4,3-.8.75,1.59,3.41,1.73,4.61.31,2.61-2.16,8.64-.25,11.41l3.52.97-.99-3.99,2.99.99c1.02-4.22-2.36-7.95,2-10.5-1.36-.97-2.54.09-1.99-2.48l2.99-1.52-2.01-1,2-.48-.04-8.36-4.88-4.29-.07-5.36,3.99,1.99c-3.41-2.9.78-5.48-3.09-6.58l1.08-3.4-2.99.99,1.98-5.99-2.98,1.99v-4s-4,.99-4,.99l2.99-6.99-2.99.99,1.01-2.99c-4.25.83-3.31-2.94-4.67-4.08-2.49-2.08-3.95.92-5.34.58-4.23-1.03,4.68-2.01,2.99-4.52-3.25,2.31-1.45-1.4-3.29-3.71-1.01-1.28-10.05-8.66-11.99-9.93-.28-.19-1.84,1.16-3.29-2.22l-2.42.87,1.01-2.99c-5.21-.04-7.51-6.6-13.01-4.02l.99-2.99-2.41,1.02-5.58-4.03c.06,4.5,6.6,4.67,6.08,8.86l3.91.15-1.87,2.49c3.47,3.98,9.07,8.92,7.87,14.49l5-.98-2.99,2,2.05,1.53-1.07,3.45h3.01s-2,2.5-2,2.5c3.86,2.05,2.63,1.49,2.01,5.51l2-.51c-.14,2.53-.76,4.37,2.02,4.99l-.03,2.5c-2.88.93-1.44-1.79-2.5-2-2.67-.54-.48,2.27-2.48,2l-.02-3.99-2.98,1-1.51-9-4.5,1c4.99-5.08-4.67-5.94-4.01-11l-2.99,1,2-2.98-4,.98,2-2.98-4,.98,1-2.98-2.99,1.99.82-4.79-14.89-13.15-3.93,1.94c2.03-4.35-4.37-7.82-8.01-6.01l.99-2.99-2.98,2c2.16-4.88-4.33-5.97-7.54-7.99l-1.46,1.99-.02-3.01-5.99,2.01,1-2.99c-4.35-1.79-4.43,1.21-8,1.98l2.99-3.5c-1.91-1.77-5.72,4.86-8,3.5,1.15-5.16-5.59-6.83-10.01-5.98l1.01,1.98-2.5.03c-.36-.1-.4-1.53-.74-1.71ZM434.81,253.21c-.91-.53-17.44-2.28-17.31,1.8.68-2.28-6.65-2.31-7.8-2.05s-1,2.6-2.3,2.97-7.17-1.46-10.46-.45c-2,.61-2.29,2.84-4.45,3.49l-1.49-1.96,2.49-1.02c-2.79.5-9.35.82-9.52,4-2.85-2.22-9.41-2.68-9.99,2.01l-1.89-.12-.58-1.9-3.49,2.03-.02-1.99-1.49-.03-1.11,2.08-4.32-.97-1.07,1.89-2.01-1.99.99,4.99-2.96-4.58c-.97-.7-5.29.61-6.54.37-.58-.11-8.45-3.73-9.11-4.85-4.64,2.11-3.67.08-4.75-.5-1.59-.86-5.48-2.91-4.63.57l3.02.52-1.02,2.48,3.99-.99-3.99,4.99,6.99-1.98-4.01,3.51,2.02,3.47c-6.05-.77-1.49,3.82.39,5.64,1.05,1.02,2.57-.94,2.56,2.85,2.11-1.03,2.02,1.38,2.48,1.38,1.78-.02,3.91-1.57,6.55.15l-1.99,1.48c.61,1.7,2.74.43,2.88.67.33.55-.18,2.09.28,2.61s10.06,3.84,11.84,2.24l-1.01,1.98,4.41,1.03c2.52-6.01,6.24-3.27,8.92-4.12,1.46-.46,1.6-2.58,2.73-3.35,2.35-1.6,6.29-.08,7.55-3.57l2.39,1.01.51-3.99,1.98,1.99,3.53-4.98.99,1.98h1.98c.22-7.06,12.45-7.63,18.06-7.4l.96-3.59.97,2.3,2.01.69c-.39-5.8,2.83-2.52,5.08-2.46,1.91.06,3.32-2.37,6.41.5,1.27-3.88,4.54-.65,7.05-.09,1.88.42,4.04-.33,5.79.06.51.11,1.66,3.79,6.67,1l-1.01,1.98,11.52,4,1.48-1.98.17,1.77c2.19-1.18,1.57.5,2.66,1.1,6.55,3.6,13.94,4.72,18.69,11.12l2.49-2.99-.99,3.99,2.98-.99-.87,5.85c4.17,1.26,5.47,3.56,7.39,7.15,2.66-5.7,1.78.87,3.03.98l2.46-.99v5.01s4,0,4,0c.88-.84-2.91-7.83-5.01-6,2.51-3.6-1.73-2.4-1-6l-3.98,1c1.11-5.15-4.02-5.52-3.02-10l-2.49,1.98-3.51-7-2.98,1.02v-3.02c-2.83,2.12-5.8-1.15-4.01-3.98l-7,.98c1.01-2.12,2.92-2.16,1.06-4.53-4.18-5.33-5.87-1.21-8.45-1.41-.5-.04-6.26-6.07-7.54-6.65l-7.06,3.6.47-2.85c2.04,1.32,3.67-.07,4.52-2.14l-3.89.89-1.1-1.9c.18,2.08.11,2.29-2.01,1.99l.07-2.51-2.62-.56-4.43,3.08,1.99-3.99c-2.55-1.42-4,3.16-5.51,2.97-.82-.1-1.14-2.45-1.68-2.77ZM396.98,279.01l-3.97,2.99v-1.99s-1.5,0-1.5,0l-1.53,2.99h-1.47s.5-1.98.5-1.98l-1.98.03c.27,3.33-2,.97-3.82,1.62-3.69,1.32-8.61,2.82-6.2,7.33h-3.02s1.01,3,1.01,3l-2.98-1.98-.17,1.75c-2.23-1.37-1.67,1.01-2.3,1.06-1.71.13-5.33-2.1-5.56,2.16l-1.94-.05-.52-1.95-2.51,1.03.49,2.97-1.56-3.96c-3.2.81-5.18-.67-6.44,2.99-1.42-4.48-5.18-1.77-8.99-3.02v3.01c-1.46-1.69-5.88-5.08-7.95-5.07-.87,0-.8,2.63-2.11,2.96-1.16.29-5.4-1.76-7.45-.89-.09,1.06.25,2.27.01,3.28-.16.67-3.96,1.18-2.01,2.71,2.41,1.89,3.36-3.61,4.99-1.99,1.79,1.78-3.31,2.58-2.99,3.99l5.99-.98-2,2.98,2.91-.92,2.08,2.92c-.75-3.45,2.19-3.33,4.01-5.5l-2.99-2.49,5.5,2.98,1.99-2.98c2.46,1.97-.73,3.18-.6,6.48.19,4.93,2.33,2.21,3.81,2.77.32.12,4.58,3.51,5.02,3.73,1.06.53,5.54,2.74,6.05,2.84,2.31.45,3.52-1.5,4.72-1.46,1.28.05,5.7,3.84,8.51,2.65l-4.49,7.97c-3.33-2.17,1.57-2.31,1.5-4.97-2.96,1-10.03,1.44-11.51,4.03-.62,1.1.84,2.99-1,3.96l-.99-3.99c-1.4,2.11-4.15,1.95-5.84,2.97-.93.56-.59,1.96-.68,2.01-.64.36-1.5-1.59-2.47-1.67-1.7-.13-5.72,2.2-4.53,4.67l-1.48-2.99c-2.27,1.28-3.78,2.03-3.52,4.99l-2.99-2.99.99,3.99c-3.21.74-2-2.8-2.92-3.48-.82-.61-5.13-.99-4.09,1.47l-1.98.02-.14-2.81-4.45-1.12.58,2.92-5.5-3.97-1.51,3.98-1-4c-1.81,1.5-5.76-.27-4.99,2.99l3.59.96-.58,3.04,3.96-1.95c.17,2.36,2.83,1.56,1.03,3.95,5.53-2.14,3.43,1.04,5.65,1.87,3.5,1.31,9-3.83,13.35-.87l.99-2.99c-.87,3.27,2.09,5.01,2.02,1h.98c.49,5.65,2.32-1.45,4,.01l.49,1.99,3.04-2.02,1.07,2.03c3.25-2.3,1.56,1.88,5.41.97l-.52-3.9c3.52,1.7,9.09-1.34,11.12-4.1l2.39,1,.02-4,3.49,2.99.51-2.99,1,2.99,2.01-2.99,2.97,1.98c1.18-5.09,5.17-3.03,9.01-5l-2.99-1c1.36-3.48,5.95-1.56,5.01,2.02l14.47-4.01.69,2.85c4.72,2.06,3.51-.37,5.15-1.52,1.41-.99,5.47-.68,2.18-3.31l-3.49,1.98c-.48-4.33-6.62-9.15-10-5l1.98-5-2.55.91-.99-1.98-3.45,1.06,1-2.99c-3.19-.57-4.41-1.41-7,.99l-.5-3-3.03,3.02-1.06-2.04-2.41,1.04c1.37-2.04-4.58-5.51-3-7.01,1.94-1.83,2.89,1.8,3.99,1.99l.52-3.01c3.8,1.95,7.55-.91,11.48-1l-1.99-1.98c4.24.45,9.78,2.52,11.56-2l5.85,2.07,2.6-5.07,4.49,4.99.99-2c.88,2.55,3.79,4.38,6.36,2.85,1.07-.64-.04-4.8,3.14-3.85l-1,3.98c3.35-.29,6.3,3.41,8.51.01l.51,2.99,3.99-1.99-1.01,2.98,9.42.9.6,4.1,2.99-2.99-1,3.99h7s-.97,2.47-.97,2.47c.56,1.72,2.72.49,2.86.72.32.54-.2,1.98.34,2.6.32.37,3.78.4,4.3,3.23l3.48-2.01,1,4c.16-2.41,1.47-3.97-.99-5.54l-3.99,1.53,2.99-3.02c-2.78-2.22-4.66-5.68-7.53-7.95-2.31-1.83-5.25-2.61-7-4.04-2.97-2.44-5.53-7.39-9.98-8.98-1.87,1.62,2.44,3.79,3.48,4.01l-1.46,1.97c-3.37-1.36-3.64-7.04-5.18-8.07-2.4-1.61-12.21-5.54-15.33-6.42-2.26-.64-4.71-1.03-7.01-1.49l-.99,1.99v-3.01s-5,0-5,0l-.55,3.08-4.4-.18-.57-2.89-2.49.5,1.99,2.5c-2.08.43-2.69-1.1-3.02-2.98ZM321.99,289.01h-1.99v1.99h1.99v-1.99ZM634,311.01l-3.88.11-4.1,12.88c3.89-1.09,3.31-7.85,4.05-8.95.19-.28,4.19,1.31,3.94-4.04ZM286,318.99c1.74-2.49-2.79-4.68-5-4.98l3.99,3-1.99,1.98,6.51,4,1.49-3.98h-5.01ZM294.01,319.01l-2,3.99,2.98-1,.03,2.51-2.02,1.48c4.32-.19,7.15,2.97,10.85-.12l-.84-3.43c-4.17,1.69-3.92-1.07-4.51-1.22-1.02-.27-7.22,1.5-4.5-2.21ZM717,344c.55-1.08.48-2.66,1.98-3.5-1.52-2.45-2.79-.66-4.98-.51l2.01-3.47-3.59-3.55-3.42,1.02c2.32-3.32-2.28-5.4-5-5.98l1.99,2.97c-2.71-.37-2.11,1.77-2,4.01l-2.98-2.02,1.98-5.97-2.94.92-1.05-1.92-1,1.99c-.18-4.19-4.7-1.81-7.57-4.04l-2.44,2.04-.56-3.06c-4.89-.9-6.61,1.03-10.45,2.08l10.99,6.99c1.01-4.09-2.3-3.1-4.99-4.01-.87-.89,2.05-3.65,2.99-3.98l.02,4h3.52s-.07,5-.07,5l1.06.66c3.75-1.71,1.81.46,3.02,2.3.74,1.13,2.33.88,2.47,1.03.68.8,2.54,3.8,3.02,4.98l3.98-1.98.08,7.94,2.92.06-1.99,1.98,3.01.51-1.52,1.51c5.19-.24-1.01,3.27,4.5,4.01l-1.99,1.48,3.51.53.49,1.97-2.89.09c.73,1.93.22,3.19-2.11,2.91l-2-2,.99-4.99c-1.45-.49-.76,3.92-3,1.98-.4-.34,1.6-1.32.3-1.94-1.52-.73-3.05-1.1-4.33-2.57l2.04-3.47c-5.15-1.34-1,3.45-5,2.99l-.49-2.98c-2.85,2.16-2.12.13-3.65-1.38-.65-.64-1.77-.58-1.86-.66-1.09-.93,4.08-1.1,1.99-2.98-1.02-.92-3.3,1.72-3.98,2.5,3.38,1.53,10.64,11.1,12.94,11.96,1.11.42,2.7-.77,3.03-.46,2.16,1.98-2.55,1.66-1.99,2.99h4c-1.87,5.22,5.76,8.65,7.14,13.92l4.85-.91c-.32-3.49-3.65-5.28-2.01-8.99l-2.99.99c3.11-3.07,2.4-9.13-1.99-10.01v-1.99s1.98,1.02,1.98,1.02c-.39-2.8-.45-5.87-4-5.02,3.78-6.04,3.53-1.7-.02-5.46-2.72-2.88-5.54-9.04-9.97-6.54l2-2.98-5,.99c3.89-5.75,5.55-1.56,8.5-.39,1.06.42,4.13-.94,4.49-.6,2.16,1.98-2.55,1.65-1.99,2.99l6,2.02c-2.01,3.78.54,4.34,3.99,2.99-.34.67.7,2.39-1.99,2.02l5.01,5.98,2.97-1.99c-1.71,4.92-.52,2.94.97,4.76,2.73,3.37,5.2,6.97,8.03,10.24l-2.07-7.93-2.93-.08,1-3.99-1.98,1.99,1-3.99h-3.02s1.02-3,1.02-3h-3.02c2.62-1.12-2.11-5.97-2.48-5.99-.16,0-1.59,1.63-2.5,1.99ZM345,340.01c-4.1,1.56-16.5,6.2-15.03,11.38.49,1.73,3.74-1.3.01,3.59h-1.98s-1-2.98-1-2.98c.49,8.54-5.71,20.03-3.97,28.38.2.98,2.91-.03,1.95,2.62l-2.98-1c-.91,2.63,3.79,4.06,4,2.49l-1.01-6.49h3.01c-2.18-2.48,1.1-5.67.96-5.97-.09-.19-3.09.35-1.96-3.04,3.29,1.89,4.93-.19.98-1.5l2.8-1.93-.79-3.56h4.01s-4-1.5-4-1.5c1.87-2,7.02-4.07,4.99-6.99l3.01.47c.69-.6-4.99-2.66-2.99-4.99,1.83-2.14,2.06,3.07,2.98,1.99-.61-1.96,6.94-5.28,6.95-6.48l-1.65-2.01,1.71-2.49ZM641,367h17c.79-3.58-5.93-1.67-8.48-2.02-9.02-1.24-17.15-3.45-26.52-1.99l16.99-11.49c.16-.75-.96-.64-1.48-.48-5.72,1.79-11.56,7.16-18.47,8.53-4.15.82-8.46.11-12.56,1.44l-8.48-.98c5.04-.33,9.5-3.05,12.99-6.52l-1.48-.48c-12.46,7.18-26.58,10.35-40.04,14.97-3.05.15-.7-1.08.19-1.82,4.58-3.84,10.64-5.68,14.33-10.16-7.02,2.99-13.89,6.01-21.24,8.25-4.59,1.4-14.95,4.45-19.27,4.75-1.12.08-1.74.32-1.48-1,3.74-1.58,6.71-4.98,9.71-7.73.68-.62,2.94-.64.79-2.28-4.49,2.85-8.68,6.16-13.48,8.52-3.41,1.68-13.2,5.9-16.52,6.48-.72.13-1.72.19-1.5-.5l2.99-5.5-8.99,4.99c-1.23-1.35,7.03-10.23,5.5-12.99l-19.02,16.79-8-6.79-1.43,1.42,1.94,4.56-14.5-8.99,1.5,5.99-2.29-.19-49.43-18.6-1.77.79c3.54,1.81,8.31,4.24,11.42,6.57,1.46,1.09,4.39,3.53,4.56,5.44-11.55-5.72-23.83-9.6-36.49-12l6.99,4.98c-15.73-2.48-28.68-.43-39,12.51-14.68,18.41-18.91,47.04,2,62.49-27.37-10.11-34.62-40.13-25.01-65.99-3.58,2.27-6.26,6.83-7.72,10.77-7.28,19.73-6.28,49.26,8.73,65.22-20.75-2.65-38.19-23.05-39.01-43.99-2.34-.64-1.69.62-2.28,1.28-4.39,4.91-8.41,10.23-12.71,15.22l11.99-6.5c.83.73-10.95,10.52-8.5,12.99l5.01-3.99c.74-.16.67,1.02.48,1.48-.8,1.92-3.95,7.65-5.17,9.84-1.42,2.58-5.18,5.52-4.33,7.67l9.5-6.98c.59.57-9.11,11.93-7.5,13.99.53-1.12,7.78-7.8,6.49-3.51-.58,1.93-2.85,7.22-3.81,9.2-1.17,2.42-4.73,5.24-3.68,7.32l6.51-5.49-2.06,4.99,2.06.98-2.07,4.5-1.93-.98,1.02,3.99,1.96-1c-8.18,22.08-7.9,46.1-7.03,69.55,2.19,59.45,14.48,133.66,32.78,190.22,13.12,40.57,49.04,78.11,79.74,107.26,19.88,18.88,35.1,32.17,63.98,34.02,54.03,3.45,74.26-15.73,111.07-50.02,23.73-22.1,54.49-51.9,65.49-82.51,18.3-50.93,33.08-131.03,35.03-184.97.9-24.88.88-50.29-7.06-74.03,1.17-2.02,3.25,7.74,4,3.01-2.09-4.1-5.89-9.16-5.49-13.51l2.49,1.99-4.97-13.52c.15-4.01,3.8,4,4.49,3.52.74.16.67-1.02.48-1.48-2.23-5.36-6.71-12.61-7.97-18.04-.48-2.06.36-1.73,1.5-.49,2.81,3.06,4.46,7.27,7.48,10.02-1.65-7.87-7.66-18.72-8.03-26.47-.05-1.09-.54-2.79,1.03-2.52,1,3.11,3.14,5.87,5.18,8.32.74.89,1.97,3.23,1.82.19-8.44-14.48-12.4-31.42-23.98-44.03l2.99-.98c-5.81-5.88-14.42-8.19-20-13.5ZM292.99,580c-1.22-10.87-9.17-53.58-26.98-45.48-4.99,2.27-7.22,15.14-7.89,20.1-5.27,39.19,6.53,78.8,29.07,110.69,5.92,8.37,13.33,17.62,24.81,15.68l-8.13-39.86c-22.11-.85-29.23-29.39-24.62-47.38.97-3.76,2.8-6.63,6.67-7.86l-9.42-14.87c-4.73,7.77-8.3,16.72-7.51,25.97-1.46.18-1.79-2.61-1.9-3.58-.57-4.99-1.58-13.19-1.09-17.93.61-5.94,6.39-13.8,1.5-18.48l-.5,3-3.01-.52,4.03-12.49,24.97,33ZM674,682.99c6.5.04,10.99,1.03,16.49-3,8.61-6.31,29.15-46.15,33.53-57.47,8.25-21.33,14.68-52.13,8.52-74.57-.74-2.71-4.6-10.97-7.23-11.77-10.65-3.25-21.98,6.94-25.35,16.28-3.08,8.55-4.77,20.47-5.47,29.53,5.08-5.28,21.51-35.93,27.14-36.92,4.43-.78,6.4,11.83,3.35,14.92l-3-5c-3.94,1.61-.63,5.06-.23,7.75,1.68,11.3,3.22,21.82,1.23,33.25l-3.04-15.45-5.96-13.55c-1.81-.36-2.48.89-3.42,2.06-3.06,3.77-5.51,10.29-8.59,14.42,14.66,9.26,10.95,36.99,2.02,49.02-5.09,6.86-13.49,10.44-17.72,14.78-.87.89-.17,3.47-2.27,3.72,2.45-19.38,32.32-38.32,7-55l-17.01,86.99ZM303.99,638l-9.49-38.98c-13.65,16.38-2.09,26.86,9.49,38.98ZM654,886v27l-7.51-16.99c-4.55-20.58-.94-41.78-3.55-62.54l2.56-68.47c-6.73,8.72-12.12,18.39-18.68,27.33-14.53,19.8-34.47,42.64-51.3,60.7-24.49,26.27-59.98,59.1-97.87,58.96l-.66,2.01-1.04-2.93c-3.93-.08-8.1.37-11.49-2.07l-.95,2c-2.04-3.42-6.06-3.56-8.72-5.1-10.24-5.9-33.7-33.02-45.11-43.85-.93-.89-.44-2.46-.88-2.84l-2.8-.22,1-2.99-2.99.99c1.75-3.81-.54-2.93-1.63-4.35-3.07-4.02-9.4-13.13-11.89-15.68-1.13-1.15-2.78-.67-3.37-1.09-.13-.09.71-1.7-.18-3.2-5.62-9.35-18.41-18.03-22.23-28.76l-11.69-16.91-.03,10.35,2.01.66-2.08,2.43c1.78,12.82,1.64,26.09,2.04,39.1.85,27.42,4.78,57.29-5.47,83.45-.34.86-2.81,7.67-4.49,6l1.5-39.99c-19.18,15.29-16.39,41.78-10.88,63.08,24.5,94.73,134.44,150.12,224.25,106.29,46.82-22.85,106.67-90.99,109.17-144.83.66-14.26-3.86-19.65-15.05-27.55ZM673.99,1020.01h-1.99v.98h1.99v-.98ZM671.01,1022.01l-.52,2.97,1.5-1.5v-1.48h-.98ZM332.5,1037v1c.65-.33.65-.67,0-1ZM333.5,1039v1c.65-.33.65-.67,0-1ZM921,1303l-1.01,1.99,1.5.02.5-2.01h2s-1-1.53-1-1.53c-.93-1-1.84.54-2,.53-1.06-.05-2.21-1.11-2.98-.51l2.98,1.51ZM914.85,1311.24c-4.23-1.3-6.38,1.98-4.84,5.76,4.17.86.08-3.5,1-5l2.51.02-.31,1.82,4.78.14v-2.98s-2.01,1.99-2.01,1.99l-1.14-1.76ZM908.99,1325.01v-3.01s-3.98,2.02-3.98,2.02l2.02,3.95,1.97.02-1.99-4,1.98,1.02ZM902,1334.99l-1.99-1.99v1.99s1.99,0,1.99,0Z"/>
  <path d="M922,1303c-.33-.08-.87.13-1,0s.08-.67,0-1l1,1Z"/>
  <path d="M249,1536c-5.45-27.71-19.56-52.65-21.01-81.43-.97-19.22,1.76-81.96,11.17-96.91,7.57-12.02,23.73-4.6,35.34-3.68,22.04,1.75,42.48.85,62.98-2.01,8.94-1.25,17.24-1.35,23.96-8.05l20.02-26.96c1.26-1,2.76-1.35,4.28-1.72,13.54-3.27,30.98,1.73,44.76,2.73,15.22,1.11,31.84.67,46.97,2.03,10.26.92,12.59,5.36,15.78,14.22,6.63,18.4,10.31,39.53,13.75,58.77,10.75-3.77,22.29-5.26,33.22-8.28,8.39-2.32,13.3-6.1,23.23-6.78,11.03-.75,16.3-.66,24.08,7.02,11.07,10.93,13.24,25.03,33.48,17.54l3.15-13.37c1.6-1.66,19.79-1.42,23.32-1.12,17.13,1.43,24.89,12.24,38.19,20.81,3.96,2.55,9.5,4.04,13.26,6.74,8.24,5.91,14.27,21.79,17.81,31.19,2.81,7.46,6.68,25.33,10.37,30.63,2.04,2.94,8.71,2.56,13.32,8.68,6.88,9.15,4.76,17.95,6.59,28.49l-1.02,21.44h-166c.07-1.09-.3-1.37-1-2-.11-.1.01-.87-.5-1-1.52-.38-1.31.83-1.5,1-.72.63-1.07.92-1,2h-67c-2.37-6.32-6.95-23.1-14.49-23.11-11.43-.02-31.07,16.8-40.51,23.11h-7v-1c.68-.44,0-.92,0-1,.09-.87.28-1.9.98-2.51-.6-1.02-1.42.55-1.98.51-.45-.03-2.86-1.65-1.99-3l5.97.51c-2.33-2.59-5.3.58-6.48-3.52-.99,1.64.35,4.45.5,6.01.01.15-.36.17,0,2,.06.32-.05.67,0,1-.33.33-.7.64-1,1h-112l.5-3.01-1.5,3.01h-81ZM380.98,1332.01l-1.98.49,5.99,4.49c.04-1.47-1.88-1.32-3.07-2.46-.76-.72-.77-2.36-.94-2.52ZM448.99,1347.01l-2,.48-.99,2.5,2.98-2.01v-.97ZM414.99,1358.99v-1.99h-.98v1.99h.98ZM495.99,1359.99v-1.99h-.98v1.99h.98ZM379,1369s-.91-.15-.99.51c-.22,1.71.83,1.33.99,1.49.05.05-.15.91.51.99,1.71.22,1.33-.83,1.49-.99.05-.05.91.15.99-.51.22-1.71-.83-1.33-.99-1.49-.05-.05.15-.91-.51-.99-1.71-.22-1.33.83-1.49.99ZM383.44,1412.66c-2-5.86-4.53-12.96-7.04-18.56-1.2-2.67-4.21-4.4-3.41-8.1-10.02,7.52-6.64,24.72-9,36l-2.98-1c-.79,3.04,3.28,1.26,1.98,4.49-.78,1.94-9.91,1.76-11.56.58-1.88-1.34-3.04-5.6-4.44-7.56-2.13-2.96-10.27-14-12.6-15.4-3.53-2.13-16.98-3.73-19.35-.5-1.16,1.58-1.44,13.86-3.26,17.66-1.34,2.8-8.34,9.26-10.54,11.9.53,13.28-5.79,34.1-1.29,46.37,1.9,5.17,20.29,34.76,24.06,36.83,1.75.96,3.26-.13,4.52-1.29,3.91-3.62,8.01-11.48,11.97-16.1,12.47-14.57,27.11-27.04,40.22-40.28.66-.66,6.55-8.23,6.78-8.73,1.03-2.25.85-18.12.44-21.4-.57-4.56-3.31-11.51-4.48-14.92ZM340.5,1393v1c.65-.33.65-.67,0-1ZM554,1396s-.91-.15-.99.51c-.22,1.71.83,1.33.99,1.49.05.05-.15.91.51.99,1.71.22,1.33-.83,1.49-.99.05-.05.91.15.99-.51.22-1.71-.83-1.33-.99-1.49-.05-.05.15-.91-.51-.99-1.71-.22-1.33.83-1.49.99ZM546.5,1398v1c.65-.33.65-.67,0-1ZM630.5,1404v1c.65-.33.65-.67,0-1ZM532.99,1407.01l-2.97-.52,1.5,1.5h1.48v-.98ZM595.99,1412.99v-1.99h-.98v1.99h.98ZM600,1415.99l-2.51-2.97-.47.47.99,2.51h1.99ZM600.5,1413v1c.65-.33.65-.67,0-1ZM620.99,1420.99v-1.48s-1.5-1.5-1.5-1.5l.52,2.97h.98ZM668.49,1422.02l-.47.47,3.49,3.49.47-.47-3.49-3.49ZM531.99,1423.01h-1.99v.98h1.99v-.98ZM533.5,1425v1c.65-.33.65-.67,0-1ZM668.5,1425v1c.65-.33.65-.67,0-1ZM673.5,1427v1c.65-.33.65-.67,0-1ZM246.99,1429.01l-2,.48-.99,2.5,2.98-2.01v-.97ZM676.99,1429.01h-1.99v.98h1.99v-.98ZM661.45,1431.55c-.41-.41-.59-.96-.46-1.54h-.97s1.51,2.98,1.51,2.98l1.47-.97c-.58.12-1.13-.05-1.54-.46ZM420,1436s-.91-.15-.99.51c-.22,1.71.83,1.33.99,1.49.05.05-.15.91.51.99,1.71.22,1.33-.83,1.49-.99.05-.05.91.15.99-.51.22-1.71-.83-1.33-.99-1.49-.05-.05.15-.91-.51-.99-1.71-.22-1.33.83-1.49.99ZM638,1436s-.91-.15-.99.51c-.22,1.71.83,1.33.99,1.49.05.05-.15.91.51.99,1.71.22,1.33-.83,1.49-.99.05-.05.91.15.99-.51.22-1.71-.83-1.33-.99-1.49-.05-.05.15-.91-.51-.99-1.71-.22-1.33.83-1.49.99ZM672.99,1436.01h-1.99v.98h1.99v-.98ZM531,1442s-.91-.15-.99.51c-.22,1.71.83,1.33.99,1.49.05.05-.15.91.51.99,1.71.22,1.33-.83,1.49-.99.05-.05.91.15.99-.51.22-1.71-.83-1.33-.99-1.49-.05-.05.15-.91-.51-.99-1.71-.22-1.33.83-1.49.99ZM552.99,1456.01h-1.99v.98h1.99v-.98ZM555.99,1459l-2.97-.51c3.54,3.99,6.12-2.45.99-2.48-.35,1.48,4.13.91,1.99,2.99ZM524.01,1460.01c2.04,6.75,4.34.88,3.98-3-3.3.83.69,5.74-2.48,5-1.18-.27.36-2.36-1.5-2ZM643.88,1522.87c5.86-18.73,7.25-39.82-1.38-57.87-4.22,5.07-9.59,9.08-14.02,13.98-4.76,5.28-11.1,12.9-15.47,18.53-1.69,2.18-9.79,13.27-9.76,14.83.02.96.55,2.18,1.48,2.66,2.35,1.22,14.4,4.13,17.83,4.92s19.65,4.39,21.31,2.94ZM475.99,1470.99v-1.99h-.98v1.99h.98ZM417,1479s-.91-.15-.99.51c-.22,1.71.83,1.33.99,1.49.05.05-.15.91.51.99,1.71.22,1.33-.83,1.49-.99.05-.05.91.15.99-.51.22-1.71-.83-1.33-.99-1.49-.05-.05.15-.91-.51-.99-1.71-.22-1.33.83-1.49.99ZM376.99,1480.99v-1.99h-.98v1.99h.98ZM496.99,1493.99l-3.98-1.48.98,1.48,1.5-2,1.5,2ZM496.5,1495v1c.65-.33.65-.67,0-1ZM463.01,1506.01v1.48s1.5,1.5,1.5,1.5l-.52-2.97h-.98ZM471.36,1512.63c.16.13,3.19,2.06,2.15.37l-5.5-3.99c.58.99,2.53,2.94,3.36,3.62ZM595.5,1510v1c.65-.33.65-.67,0-1ZM469.99,1512.01l-2.97-.52,1.5,1.5h1.48v-.98ZM597.99,1512.99v-1.99h-.98v1.99h.98ZM583,1514s-.91-.15-.99.51c-.22,1.71.83,1.33.99,1.49.05.05-.15.91.51.99,1.71.22,1.33-.83,1.49-.99.05-.05.91.15.99-.51.22-1.71-.83-1.33-.99-1.49-.05-.05.15-.91-.51-.99-1.71-.22-1.33.83-1.49.99ZM271.99,1518l-2.97-.51c3.54,3.99,6.12-2.45.99-2.48-.35,1.48,4.13.91,1.99,2.99ZM475.99,1515.01h-1.99v.98h1.99v-.98ZM513.49,1517.02c-.99.7.54,1.37,1.02,1.96.99-.66-.47-1.32-1.02-1.96ZM514,1520.99l-2.99-2.99c-.33,1.89,1.17,3.33,2.99,2.99ZM656.99,1522.01h-1.99v.98h1.99v-.98ZM593,1524s-.91-.15-.99.51c-.22,1.71.83,1.33.99,1.49.05.05-.15.91.51.99,1.71.22,1.33-.83,1.49-.99.05-.05.91.15.99-.51.22-1.71-.83-1.33-.99-1.49-.05-.05.15-.91-.51-.99-1.71-.22-1.33.83-1.49.99ZM268.99,1529.01l-2,.48-.99,2.5,2.98-2.01v-.97ZM449.5,1532v1c.65-.33.65-.67,0-1Z"/>
  <rect x="638" y="1436" width="2" height="2"/>
  <rect x="577" y="1534" width="2" height="2"/>
  <rect x="554" y="1396" width="2" height="2"/>
  <rect x="583" y="1514" width="2" height="2"/>
  <rect x="593" y="1524" width="2" height="2"/>
  <rect x="417" y="1479" width="2" height="2"/>
  <path d="M446,1532c.09.06.97,1.89,1,2,.07.27,0,.67,0,1,0,.11-.84.6-1,1h-2v-1c1.16-1.17,0-.43,0-1,0-.42-.09-1.93,0-2,.08-.06,1.87-.09,2,0Z"/>
  <rect x="379" y="1369" width="2" height="2"/>
  <rect x="531" y="1442" width="2" height="2"/>
  <rect x="420" y="1436" width="2" height="2"/>
  <path class="st0" d="M226,1536c-6.07-73.26-9.85-146.87-8.04-220.54.06-2.36,1-4.55,1.08-6.92.27-8.15-.71-16.47.47-24.56,33.67,6.31,67.71,12.66,102,15,53.21,3.63,112.04-1.54,163.86,5.14,19.69,2.54,19.76,13.46,34.63,19.37,17.88,7.11,40.34-16.26,58.61-18.39,25.98-3.03,59.78.72,86.93-.07,21.01-.61,42.93-2.04,63.95-4.05,19.53-1.87,39.11-5.15,58.5-7.99-.25,9.15.36,18.39.05,27.54-1.01,29.92-3.63,62-6.05,91.95-3.34,41.3-9.06,82.31-12.99,123.51h-23l1.02-21.44c-1.83-10.54.29-19.35-6.59-28.49-4.6-6.12-11.27-5.75-13.32-8.68-3.69-5.3-7.56-23.17-10.37-30.63-3.54-9.4-9.57-25.28-17.81-31.19-3.76-2.69-9.3-4.19-13.26-6.74-13.3-8.56-21.06-19.38-38.19-20.81-3.53-.29-21.73-.54-23.32,1.12l-3.15,13.37c-20.23,7.5-22.4-6.6-33.48-17.54-7.77-7.68-13.04-7.76-24.08-7.02-9.93.67-14.83,4.46-23.23,6.78-10.93,3.02-22.47,4.51-33.22,8.28-3.44-19.24-7.12-40.37-13.75-58.77-3.19-8.86-5.52-13.29-15.78-14.22-15.13-1.36-31.74-.93-46.97-2.03-13.78-1-31.23-6-44.76-2.73-1.52.37-3.02.72-4.28,1.72l-20.02,26.96c-6.73,6.7-15.02,6.8-23.96,8.05-20.5,2.86-40.94,3.75-62.98,2.01-11.61-.92-27.77-8.34-35.34,3.68-9.41,14.95-12.14,77.69-11.17,96.91,1.45,28.77,15.55,53.71,21.01,81.43h-23Z"/>
  <path class="st0" d="M134,1536H0v-122c34.22,20.5,77.1,29.1,116.51,33.99,4.26.53,9.15-1.01,13.03,1.97-.32,6.35,1.9,12.41,2.45,18.55.38,4.26-.33,8.7.03,12.97,1.52,18.1,4.56,36.33,1.99,54.51Z"/>
  <path class="st0" d="M1024,1433v103h-150l4-72c5.39-.33,11.21.46,16.54.04,36.01-2.78,68.31-6.27,102.73-18.27,8.84-3.08,19.53-7.09,26.74-12.76Z"/>
  <path class="st0" d="M509,1536h-55c9.44-6.31,29.07-23.12,40.51-23.11,7.54.01,12.12,16.79,14.49,23.11Z"/>
  <path class="st0" d="M580,1536h-1v-2c.7.63,1.07.91,1,2Z"/>
  <path class="st0" d="M577,1536h-1c-.07-1.08.28-1.37,1-2v2Z"/>
  <path class="st0" d="M579,1534h-2c.19-.16-.02-1.37,1.5-1,.52.13.39.9.5,1Z"/>
  <polygon class="st0" points="331 1536 330 1536 331.5 1532.99 331 1536"/>
  <path class="st0" d="M447,1536h-1c.16-.4,1-.89,1-1v1Z"/>
  <path class="st0" d="M444,1532c-.15-1.56-1.49-4.37-.5-6.01,1.18,4.1,4.15.93,6.48,3.52l-5.97-.51c-.87,1.35,1.54,2.96,1.99,3-.13-.09-1.92-.06-2,0Z"/>
  <path class="st0" d="M447,1534c-.03-.11-.91-1.94-1-2,.56.04,1.38-1.53,1.98-.51-.69.61-.89,1.64-.98,2.51Z"/>
  <path class="st0" d="M444,1534c-.36-1.83.01-1.85,0-2-.09.07,0,1.58,0,2Z"/>
  <path class="st0" d="M444,1536h-1c.3-.36.67-.67,1-1v1Z"/>
  <path class="st0" d="M447,1535c0-.33.07-.73,0-1,0,.08.68.56,0,1Z"/>
  <path class="st0" d="M444,1535c-.05-.33.06-.68,0-1,0,.57,1.16-.17,0,1Z"/>
  <path class="st0" d="M450,1536h-1,1Z"/>
  <path class="st0" d="M641,367c5.57,5.32,14.18,7.63,20,13.5l-2.99.98c11.58,12.61,15.54,29.55,23.98,44.03.16,3.04-1.08.7-1.82-.19-2.04-2.46-4.18-5.22-5.18-8.32-1.57-.27-1.08,1.42-1.03,2.52.37,7.75,6.38,18.61,8.03,26.47-3.01-2.74-4.66-6.96-7.48-10.02-1.14-1.24-1.97-1.57-1.5.49,1.26,5.43,5.74,12.68,7.97,18.04.19.46.26,1.64-.48,1.48-.69.48-4.34-7.53-4.49-3.52l4.97,13.52-2.49-1.99c-.4,4.36,3.4,9.41,5.49,13.51-.75,4.74-2.83-5.02-4-3.01,7.94,23.74,7.96,49.15,7.06,74.03-1.95,53.94-16.72,134.05-35.03,184.97-11,30.61-41.76,60.41-65.49,82.51-36.81,34.29-57.04,53.47-111.07,50.02-28.89-1.85-44.11-15.14-63.98-34.02-30.7-29.15-66.62-66.69-79.74-107.26-18.3-56.56-30.59-130.77-32.78-190.22-.86-23.45-1.15-47.47,7.03-69.55l-1.96,1-1.02-3.99,1.93.98,2.07-4.5-2.06-.98,2.06-4.99-6.51,5.49c-1.05-2.07,2.51-4.89,3.68-7.32.96-1.98,3.22-7.27,3.81-9.2,1.29-4.28-5.96,2.4-6.49,3.51-1.61-2.05,8.09-13.41,7.5-13.99l-9.5,6.98c-.85-2.15,2.9-5.1,4.33-7.67,1.21-2.19,4.37-7.92,5.17-9.84.19-.45.26-1.64-.48-1.48l-5.01,3.99c-2.44-2.46,9.33-12.26,8.5-12.99l-11.99,6.5c4.3-4.99,8.32-10.32,12.71-15.22.59-.66-.06-1.92,2.28-1.28.81,20.94,18.26,41.34,39.01,43.99-15.01-15.95-16.01-45.49-8.73-65.22,1.46-3.94,4.13-8.5,7.72-10.77-9.61,25.86-2.37,55.88,25.01,65.99-20.9-15.45-16.68-44.08-2-62.49,10.32-12.94,23.27-14.99,39-12.51l-6.99-4.98c12.66,2.4,24.94,6.28,36.49,12-.16-1.92-3.1-4.35-4.56-5.44-3.11-2.33-7.88-4.76-11.42-6.57l1.77-.79,49.43,18.6,2.29.19-1.5-5.99,14.5,8.99-1.94-4.56,1.43-1.42,8,6.79,19.02-16.79c1.54,2.77-6.73,11.64-5.5,12.99l8.99-4.99-2.99,5.5c-.22.7.78.63,1.5.5,3.32-.58,13.11-4.8,16.52-6.48,4.8-2.37,8.99-5.67,13.48-8.52,2.15,1.64-.11,1.66-.79,2.28-3,2.74-5.97,6.15-9.71,7.73-.25,1.32.37,1.07,1.48,1,4.32-.3,14.69-3.35,19.27-4.75,7.35-2.24,14.21-5.26,21.24-8.25-3.69,4.48-9.74,6.32-14.33,10.16-.89.74-3.24,1.97-.19,1.82,13.46-4.62,27.58-7.8,40.04-14.97l1.48.48c-3.49,3.47-7.95,6.19-12.99,6.52l8.48.98c4.1-1.34,8.41-.62,12.56-1.44,6.91-1.37,12.75-6.75,18.47-8.53.51-.16,1.63-.27,1.48.48l-16.99,11.49c9.37-1.46,17.5.76,26.52,1.99,2.55.35,9.27-1.56,8.48,2.02h-17ZM463,541.99c-3.18-12.04-7.73-22.64-20.01-27.48-17.08-6.73-71.99-20.36-89.53-20.55-8.74-.09-23.04,11.9-28.44,18.55-1.67,2.07-7.18,9.94-8.01,11.99-.53,1.31.12,1.73,1.42,1.43,4.59-1.05,9.53-5.02,14.56-6.45,20.27-5.73,63.87,11.19,85.82,16.19,9.45,2.15,23.44,5.41,32.81,6.19,3.78.31,7.59.06,11.37.12ZM671,529.99c-4.74-12.59-23.3-32.5-36.73-34.75-10.71-1.79-43.03,6.44-55.28,9.25-11.7,2.68-44.87,9.57-52.51,16.49s-6.51,12.89-10.47,21.02c4.31-1.2,7.84,1.23,12.21.8,8.79-.87,22.65-4.35,31.8-6.28,24.15-5.11,65.04-19.88,88.25-16.27,8.2,1.28,14.91,8.03,22.74,9.75ZM515.99,539c.87-8.84,5.96-15.96,9-24-3.7,2.56-7.15,8.51-8.76,12.73-1.07,2.8-3.94,9.75-.24,11.27ZM465.99,540c-2.29-8.28-5.45-18.24-11.98-24,3.78,7.99,6.33,17.06,11.98,24ZM445.99,559c-.83-6.26-14.99-17.17-20.27-19.22-16.57-6.43-54.11-4.83-70.7,1.74-6.07,2.4-7.69,5.48-12.02,9.98.72,1.44,2.46-.15,3.31-.69,21.24-13.27,64.36-17.33,85.6-3.23,2.15,1.43,7.64,4.94,9.08,6.06,1.76,1.37,2.42,4.61,4.99,5.35ZM640.99,554l-9.03-9.46c-22.94-10.85-69.17-14.52-87.95,4.96-2.02,2.1-4.42,6.53-5,9.49,4.24-2.73,7.1-7.43,10.98-10.51,15.27-12.11,48.8-10.38,67.04-6.02,9.15,2.19,16.01,6.88,23.96,11.53ZM466.99,650c5.59-22.87,9.1-49.85,7-73.49-.5-5.64-5.79-24.77-8.75-29.25-2.05-3.09-5.65-4.02-9.22-4.27,4.16,9.4,10.67,17.98,13.47,28.02,2.72,9.76-.74,19.48-1.47,29.48-1.14,15.6-2.18,31.42-3,47.01-.11,2.08-.58,2.87,1.99,2.49ZM416,557.01c10.31,1.21,14.37,11.95,24.47,13.99,3.19-.63-1.69-7.77-2.67-9.31-3.94-6.2-9.01-11.42-16.02-13.98-19.1-6.99-53.52-4.79-70.26,7.31-1.64,1.19-10.59,8.44-9.52,9.96,3.59,1.36,7.42,5.54,10,8.52,1.86,2.14,2.34,6.59,5.99,6.5.82-.9-3.61-11.25-3.78-13.76-.59-8.39,19.55-12.01,25.78-13.23-5.23,17.53,1.28,35.84,22.42,32.91,12.61-1.75,18.97-18.25,13.59-28.9ZM639.96,565.96c1.4-2-7.52-10.53-9.47-11.95-13.58-9.95-48.63-11.54-64.29-7.3-9.71,2.63-20.78,12.21-24.23,21.75-.03.7,2.02,1.12,2.56,1.09,6.23-.3,15.11-13.33,22.46-14.55-9.96,42.77,48.3,41.15,36.01-.99,2-1.41,22.99,6,24.56,9s-5.08,14.06-5.55,17.99c6.41-4.25,10.47-12.74,17.95-15.04ZM420.99,587c-15.82,3.08-30.28,6.37-46.23,1.73-.77-.22-11-5.83-10.75-2.23.04.62,7.95,5.07,9.41,5.57,11.27,3.82,32.79,1.73,44.11-2.06,1.71-.57,4.1-.47,3.45-3.01ZM617,586.01c-7.05-.26-12.29,4.38-19.46,5.03-13.15,1.2-24.77-2.18-37.54-3.55,6.59,4.34,17.67,6,25.51,6.49,10.33.65,24.08-.25,31.49-7.98ZM477.06,689.97l-15.05-20.96c-1.75,4.48.83,8.76,1.98,12.99-3.19-.15-8.74-.36-8.99,4,4.18-1.02,4.73,2.84,5.01,3,.64.36,1.49-1.59,2.46-1.66.41-.03,3.82,1.4,4.74,1.78,1.54.65,9.93,5.58,10.58,6.09s1.23,3.17,2.7,3.79c2-3.87-3.64-6.09-1.51-10l-1.93.98ZM514.34,686.82c-.27-.48.5-1.62-.26-2.3-3.49-3.1-8.51-1.78-12.35-.3-1.21.46-1.95,1.94-2.76,2.31-.69.31-6.57-1.25-3.95,1.46,2.05,2.11,16.84-1.79,20.99,0,.43-1.62-1.38-.69-1.66-1.17ZM553.99,755c.02-1.35.25-2.76-.48-4.01-1.92-3.29-35.58-8.8-40.97-9.02-7.73-.32-14.68,1.91-21.99,2.08-8.97.21-16.84-2.59-25.93-1.91-5.96.44-33.05,5.02-36.94,7.8-2.14,1.52-2.58,5.35,1.35,4.63,5.4-.99,11.32-3.88,16.95-5.08,17.21-3.66,40.36-2.31,58.47-2.53s32.89,2.09,49.54,8.04ZM520.5,773c-19.16.91-39.67,0-59,0-.72,0-2.85-1.76-4.5-.99.03,5.33,8.02,9.97,12.73,10.76,10.44,1.75,35.79,1.26,44.93-3.59,2.13-1.13,9.12-4.86,7.81-7.19-.88-.23-1.65,1.01-1.98,1.02Z"/>
  <path class="st0" d="M654,886c11.19,7.9,15.71,13.29,15.05,27.55-2.5,53.84-62.35,121.98-109.17,144.83-89.81,43.83-199.75-11.56-224.25-106.29-5.51-21.3-8.3-47.79,10.88-63.08l-1.5,39.99c1.68,1.67,4.15-5.14,4.49-6,10.25-26.16,6.32-56.03,5.47-83.45-.4-13.01-.26-26.28-2.04-39.1l2.08-2.43-2.01-.66.03-10.35,11.69,16.91c3.82,10.73,16.61,19.41,22.23,28.76.9,1.5.05,3.1.18,3.2.59.42,2.24-.06,3.37,1.09,2.49,2.55,8.83,11.66,11.89,15.68,1.09,1.42,3.38.53,1.63,4.35l2.99-.99-1,2.99,2.8.22c.44.38-.05,1.95.88,2.84,11.41,10.83,34.86,37.95,45.11,43.85,2.66,1.53,6.69,1.67,8.72,5.1l.95-2c3.39,2.44,7.56,1.99,11.49,2.07l1.04,2.93.66-2.01c37.89.13,73.38-32.69,97.87-58.96,16.83-18.05,36.77-40.9,51.3-60.7,6.56-8.94,11.95-18.61,18.68-27.33l-2.56,68.47c2.62,20.77-1,41.96,3.55,62.54l7.51,16.99v-27ZM477.99,970c-1.12-13.12-13.27-22.37-15.48-34.99-1.72,1.22-1.51,3.95-1.19,5.72.72,4.02,5.06,15.97,7.06,19.04,1.6,2.45,7.78,7.03,9.61,10.24Z"/>
  <path class="st0" d="M515.76,195.31c.34.18.38,1.6.74,1.71l2.5-.03-1.01-1.98c4.41-.85,11.15.82,10.01,5.98,2.28,1.36,6.09-5.26,8-3.5l-2.99,3.5c3.57-.78,3.65-3.78,8-1.98l-1,2.99,5.99-2.01.02,3.01,1.46-1.99c3.21,2.03,9.7,3.11,7.54,7.99l2.98-2-.99,2.99c3.64-1.82,10.04,1.65,8.01,6.01l3.93-1.94,14.89,13.15-.82,4.79,2.99-1.99-1,2.98,4-.98-2,2.98,4-.98-2,2.98,2.99-1c-.66,5.06,8.99,5.92,4.01,11l4.5-1,1.51,9,2.98-1,.02,3.99c2,.27-.19-2.54,2.48-2,1.06.21-.38,2.93,2.5,2l.03-2.5c-2.77-.62-2.16-2.46-2.02-4.99l-2,.51c.63-4.02,1.86-3.47-2.01-5.51l2-2.49h-3.01s1.07-3.46,1.07-3.46l-2.05-1.53,2.99-2-5,.98c1.19-5.57-4.4-10.51-7.87-14.49l1.87-2.49-3.91-.15c.52-4.2-6.02-4.37-6.08-8.86l5.58,4.03,2.41-1.02-.99,2.99c5.5-2.59,7.8,3.98,13.01,4.02l-1.01,2.99,2.42-.87c1.46,3.39,3.01,2.04,3.29,2.22,1.94,1.26,10.97,8.65,11.99,9.93,1.84,2.32.04,6.02,3.29,3.71,1.69,2.5-7.22,3.48-2.99,4.52,1.39.34,2.86-2.66,5.34-.58,1.37,1.14.42,4.91,4.67,4.08l-1.01,2.99,2.99-.99-2.99,6.99,3.99-.99v4s3-1.99,3-1.99l-1.98,5.99,2.99-.99-1.08,3.4c3.87,1.11-.32,3.68,3.09,6.58l-3.99-1.99.07,5.36,4.88,4.29.04,8.36-2,.48,2.01,1-2.99,1.52c-.55,2.57.63,1.51,1.99,2.48-4.36,2.55-.98,6.28-2,10.5l-2.99-.99.99,3.99-3.52-.97c-1.91-2.77.57-8.8.25-11.41-.14-1.19-2.53-3.86-1.73-4.61.21-.2,3.85.59,4-3l-3.99,1.99v-7c1.84,1.08,2.77-.05,3.97-1.5-3.9-1.25-3.11-2.52-4.34-4.08-1.87-2.38-2.69-3.56-4.63-5.88-3.28-3.92-6.34-9.73-12.01-7.53l6,8.51c-5.81,2.65.33,5.88.59,7.41.4,2.29-2.06,4.42,1.4,4.1l-2.02,3.49c1.45.98,2.55-.12,2.03,2.49l-2.99,2,2.97.48c-4.05,5.4-1.68,10.52-4.61,16.44-.92,1.87-3.2,3.43-3.32,3.82-.54,1.88.09,6.75-.31,7.64-.76,1.7-2.84,1.81-3.29,2.57-.2.34-.64,5.86-.46,6.45l-1.77.76c1.37,2.79-2.2,5.33-3.74,7.83l1.51-3.99-2.86-.17-.15-2.86-1.99,1.02v-3.01s2.99.5,2.99.5c-3.82-3.05-5.04-7.13,1-7.52l-1.99-4.98,2.99-.99-3.06-.53c-.98-4.94,2.73-4.25,2.07-6.93-.07-.28-3.35-2.2-3.01-4.53l2,2.99c1.52.13,2.36.41,2.02-1.52-.81-4.68-4.48-.91-4.03-4.47l4-2-3.99.99v-1.98s2.98-3.02,2.98-3.02l-2.98,2c.97-3.46-.48-8.12-2.04-11.49,3.98-1.24,2.46-3.55-.96-1.51.57-2.01.97-3.2-1.01-4.51l1.92-.54.06-1.93c-4.1.06-3.24-5.47-4.49-6.01-2.07-.9-1.15,1.71-1.79,2.66-.42.63-2.51-.21-1.68,2.33l2.99-.99c-1.61,2.87,1.15,6.43,1.07,8.44-.03.67-2.81.19-2.03,2.01l1.97,2.53c-10.02-1.57-3.82-18.12-14.99-19.99-.75,2.97,2.51,1.91,3.5,3.98,1.94,4.07-.11,13.16-3.49,10.01-.24-.22-1.2-4.54-2.85-5.65l1.84-3.33-2.52.86c-1.44-2.23-.38-3.06-3.48-4.38l5-6.48c-4.05-1.22-3.07,3.73-6.49,3.99-2.19-3.21-5.52-4.92-3.52-9l-3.8.84-2.97-3.04.79-1.79c-3.84,1.64-6.81-3.3-10.5-4.68-2.16,1.29-4.26,1.51-3.49,4.66,1.16-.2,1.88-3.74,3.98-1.99,2.25,1.86-2.58,1.71-1.99,2.98h4s-1,5.01-1,5.01l2.98-1.01,2,4.53-3.99.49,1.03,2.99,3.97-1-.95,2.87c1.77.63,3.4.96,2.94,3.12l-3.48-2.01-.5,1.99,4.98,1.02c-1.56,5.83,2.96,7.19,2.02,12.36-3.82,1.54-2.51,3.64.98,1.65l-1,23-2.86-1.1c2.01-3.46-4.56-9.67-.13-10.4-4.01-3.95-6.65-9.89-5.01-15.5l-2.98,1,1.99-2.49c-7.48-3.28-11.55-8.07-15.28-15.23l-7.71-5.27c-.55,5.41,5.9,5.24,1,10.99,4.04-1.69,3.37.45,4.99,3.56l-1.99.95c3.81,1.78,4.23,4.66,2.99,8.51l-1.97.47c.96,2.95,2.01,2.84,4.98,2.53-2.46,4.74,1,9.76,0,14.99-2.8.58-1.95-1.03-2-3l-3.99,1,2-3.98-3.06.57c-2.66-3.86-2.11-7.65.06-11.56-2.76-1.17-1.57,3.74-3.97,1.94-.31-.23.75-2.94-2.03-1.95,1.04,3.48-1.77,6.09,1,9.98l-3.48-1.01-.52,2.01c5.91-.12,3.55,3.35,4.07,5.37.22.83,1.81.14,1.97,2.1.15,1.79-.04,8.91-3.53,7.53-3.83-1.51.71-5.7.49-5.97-.6-.74-4.11.35-2.01-4.02-6.37,1.78-3.63-6.62-3.98-6.99-.18-.19-3.13-.36-4.98-1.55-.67-.43-11.25-10.11-11.74-10.74-1.13-1.45-.96-4.15-1.46-4.56-.72-.6-3.47.34-4.39-1.13-.59-.93-.94-4.38-2.47-6.02l-2.98,1.5.99-3.51-3.49,1.98-.5-2.98-2.99,1v-3.02s-3,1.01-3,1.01l1.98-5c-3.22,3.41-3.76-1.41-6.98,2l.98-4c-3.83,4.12-6.22-.55-9.25-2.6-.33-.22-1.26.31-1.74-.01-1.68-1.13.22-3.58-5-1.39l.99-3.99-2.49,2.99c-3.36-2.89-8.33-3.02-12.77-4.06-.66-.15-.79-1.66-.91-1.7-.6-.23-8.29.48-11.63-.91-2.56-1.07,1.02-3.56-5.18-.33-.17-2.73-1.1-3.91-3.52-4.99l2.51,4.98h-4c1.63-3.69-2.58-3.81-1,0-4.03-.8-8.31-1.15-11.99,1l.99-2.99-2.5-.03c.07,2.08-3.49,2.32-4.85,1.93-.77-.22-.49-1.54-1.32-1.81-.67-.22-6.86-1.36-7.37-1.66-1.01-.6-1.36-2.78-2.47-3.43-1.94,4.71-3.88,1.06-.5-1.99-2.76-.71-2.29,2.46-3.51,3-2.43,1.07-.03-3.24-2.48-3.01l-.51,3-8.5-6.5c2.63-.78,2.15-1.95,2-4.5,5.9.64,11.22.59,17.01-.99l.47,1.98c2.2-1.64-1.02-3.63,2.49-2.95l.03,1.96,3.93-3.57,3.55,1.58-.48-3.01,5.98,2.99.93-4.48,15.56-3.53,1.01,3.01,6.01-4.99-.51,2.98c2.64.98,1.63-1.85,2.66-2.03.62-.11,11.13,1.06,11.88,1.21.69.14.23,1.4.97,1.57,1.54.34,4.84.6,6.5.26-1.73,2.4.75,1.59,1.06,3.92l1.92.06c.09-3.98,4.36-1.91,7.02-1.97l-1,2.98,4-1.98-1,2.98,4.52-2c2.31,3.55,9.33,4.68,12.96,7s7.15,7.6,10.83,9.72c.65.37,2.11-.42,4.87,1.34,3.5,2.23,5.15,8.45,8.83,7.95l-.99,1.94,4.48,1.99-.5,4.05c2.89,2.01.26-4.66,2.98-1.99.52.51,2.03,9.35,4.01,6.99l-1.06-3.44c3.98-1.3,2.53-3.58-.93-1.55.15-3.83,2.3-5.85-2-7.5,4.01-1.45,2.57-2.88-1.02-2.01l1.03-2.47c-3,.13-5.89-2.11-4-5l-2.84-.17-.18-2.85-1.81.82c-1.2-4.84-4.91-5.12-8.4-7.8-1.19-.91-1.52-2.62-2.77-3.49-1.45-1.01-10.64-5.07-10.99-5.58l.98-1.93-4.01.98,1.01-1.98-3.48-1.87-2.53.85.99-2.99c-1.56,2.36-5.57,1.63-6.98-.02-2.3-2.7,4.63-.98,2.99-3.98-2.5-1.06-4.26,3.05-4.55,3.05-2.85,0-7.84-4.98-11.45-4.06l1.02-1.98-4.41,1.09-.62-2.08c-1.08,1.13-3.92,2.25-4.98.98-.7-.83,2.11-7.48,3.5-2l.5-2.99,2.5,5,.5-5c2.69-.38,2.52-.04,3.49,1.99l7.51-3-1,2.98,1.97-.02c-1.04-1.97,6.57-4.68,4.28-1.46l2.24.5,1-3,2.49,4.99,1.53-3.98h2.48s-2,2.47-2,2.47c3.12,2.2,2.86-1.43,4.99-2.48-.54,2.43,5,1.63,8.03,2.49,3.85,1.09,3.24,1.67,5.36,3.18.77.55,2.11.16,2.53.41.23.14-1.02,3.88,1.61,4.9l-.5-3.99c2.49.02,3.76,3.83,4.01,3.99.66.42,2.38-2.83,3.98-1.98l-.99,2.99,2.98-2-.99,2.99,3.99-.99-.99,2.98,2.49-2,10.51,6.02-1.53,1.99,1.03,2,1.96-1.97c3.78,4.58,10.92,6.76,15.05,9.96,2.12,1.65,1.73,4.41,4.48,4.02l.8-3.84c-5.05-4.08-11.14-10.66-11.8-17.18-2.96,1.99-4.24-.24-6.99-1l2.99-3.99c-4.53,2.93-6.65-1.83-11-2.02l1.02-1.97c-1.04-.68-4.92,1.55-4.02-2l3-.99c-5.31,1.34-5.56-1.67-9.47-3.08l-1.11,2.14-3.41-1.08,2-1.47-1.07-2.48c-2.38-.64-4.06,1.7-6.24,1.69-3.16-.01-7.01-3.38-10.71-2.74l1.01-1.98-8,.98,2.99-1-1.99-1.98,12.57.9.98-1.96c2.34,1.6,6.32.39,8.21,1.36Z"/>
  <path class="st0" d="M674,682.99l17.01-86.99c25.32,16.68-4.55,35.62-7,55,2.1-.25,1.4-2.83,2.27-3.72,4.23-4.34,12.62-7.92,17.72-14.78,8.93-12.03,12.64-39.76-2.02-49.02,3.07-4.12,5.52-10.65,8.59-14.42.95-1.17,1.61-2.42,3.42-2.06l5.96,13.55,3.04,15.45c1.98-11.43.45-21.95-1.23-33.25-.4-2.68-3.7-6.14.23-7.75l3,5c3.05-3.09,1.08-15.71-3.35-14.92-5.63,1-22.06,31.64-27.14,36.92.69-9.06,2.39-20.98,5.47-29.53,3.37-9.34,14.7-19.52,25.35-16.28,2.63.8,6.49,9.06,7.23,11.77,6.16,22.44-.26,53.24-8.52,74.57-4.38,11.32-24.92,51.16-33.53,57.47-5.5,4.03-9.99,3.04-16.49,3ZM690.01,653c7.73-4.53,15.75-9.68,17.98-19-5.26,5.04-11.3,9.91-15.99,15.5-.94,1.12-2.43,1.63-1.99,3.5Z"/>
  <path class="st0" d="M292.99,580l-24.97-33-4.03,12.49,3.01.52.5-3c4.89,4.68-.89,12.54-1.5,18.48-.49,4.74.53,12.94,1.09,17.93.11.97.44,3.76,1.9,3.58-.79-9.25,2.78-18.2,7.51-25.97l9.42,14.87c-3.87,1.23-5.71,4.09-6.67,7.86-4.61,17.99,2.51,46.53,24.62,47.38l8.13,39.86c-11.48,1.94-18.89-7.31-24.81-15.68-22.54-31.89-34.34-71.5-29.07-110.69.67-4.96,2.9-17.83,7.89-20.1,17.81-8.1,25.76,34.61,26.98,45.48ZM297,653.99c-4.71-5.58-9.09-11.56-14.99-15.99-.93,3.72,12.76,17.97,14.99,15.99Z"/>
  <path class="st0" d="M396.98,279.01c.33,1.88.94,3.41,3.02,2.98l-1.99-2.5,2.49-.5.57,2.89,4.4.18.55-3.08h4.99s0,3.01,0,3.01l.99-1.99c2.3.46,4.75.85,7.01,1.49,3.12.88,12.92,4.81,15.33,6.42,1.54,1.03,1.81,6.71,5.18,8.07l1.46-1.97c-1.04-.22-5.36-2.39-3.48-4.01,4.45,1.6,7,6.55,9.98,8.98,1.75,1.43,4.68,2.21,7,4.04,2.87,2.27,4.75,5.73,7.53,7.95l-2.99,3.02,3.99-1.53c2.46,1.57,1.15,3.13.99,5.54l-1-4-3.48,2.01c-.51-2.83-3.97-2.87-4.3-3.23-.54-.62-.02-2.06-.34-2.6-.13-.22-2.29,1.01-2.86-.72l.97-2.45h-7s1-4,1-4l-2.99,2.99-.6-4.1-9.42-.9,1.01-2.98-3.99,1.99-.51-2.99c-2.21,3.4-5.16-.3-8.51-.01l1-3.98c-3.18-.95-2.07,3.21-3.14,3.85-2.57,1.53-5.48-.3-6.36-2.85l-.99,2-4.49-4.99-2.6,5.07-5.85-2.07c-1.78,4.52-7.32,2.45-11.56,2l1.99,1.98c-3.93.09-7.68,2.95-11.48,1l-.52,3.01c-1.1-.19-2.05-3.82-3.99-1.99-1.58,1.49,4.38,4.97,3,7.01l2.41-1.04,1.06,2.04,3.03-3.02.5,3c2.59-2.41,3.81-1.56,7-.99l-1,2.99,3.45-1.06.99,1.98,2.55-.91-1.98,5c3.39-4.15,9.52.67,10,5l3.49-1.98c3.28,2.63-.78,2.32-2.18,3.31-1.63,1.15-.43,3.58-5.15,1.52l-.69-2.85-14.47,4.01c.94-3.57-3.65-5.5-5.01-2.02l2.99,1c-3.84,1.97-7.83-.09-9.01,5l-2.97-1.98-2.01,2.99-1-2.99-.51,2.99-3.49-2.99-.02,4-2.39-1c-2.03,2.76-7.6,5.8-11.12,4.1l.52,3.9c-3.84.9-2.15-3.27-5.41-.97l-1.07-2.03-3.04,2.02-.49-1.99c-1.68-1.47-3.51,5.63-4-.01h-.98c.07,4.01-2.89,2.27-2.02-1l-.99,2.99c-4.36-2.96-9.85,2.17-13.35.87-2.22-.83-.13-4-5.65-1.87,1.8-2.39-.86-1.59-1.03-3.95l-3.96,1.95.58-3.04-3.59-.96c-.77-3.26,3.19-1.48,4.99-2.99l1,4,1.51-3.98,5.5,3.97-.58-2.92,4.45,1.12.14,2.81,1.98-.02c-1.04-2.46,3.27-2.07,4.09-1.47.92.68-.3,4.21,2.92,3.48l-.99-3.99,2.99,2.99c-.27-2.96,1.24-3.71,3.52-4.99l1.48,2.99c-1.2-2.47,2.83-4.8,4.53-4.67.97.07,1.83,2.03,2.47,1.67.09-.05-.25-1.45.68-2.01,1.69-1.02,4.44-.86,5.84-2.97l.99,3.99c1.83-.97.37-2.86,1-3.96,1.47-2.59,8.55-3.03,11.51-4.03.07,2.66-4.82,2.8-1.5,4.97l4.49-7.97c-2.82,1.2-7.23-2.6-8.51-2.65-1.2-.04-2.4,1.91-4.72,1.46-.51-.1-4.99-2.31-6.05-2.84-.43-.22-4.69-3.6-5.02-3.73-1.48-.56-3.62,2.16-3.81-2.77-.13-3.3,3.06-4.52.6-6.48l-1.99,2.98-5.5-2.98,2.99,2.49c-1.82,2.17-4.76,2.06-4.01,5.5l-2.08-2.92-2.91.92,2-2.98-5.99.98c-.32-1.4,4.78-2.2,2.99-3.99-1.63-1.62-2.58,3.88-4.99,1.99-1.95-1.53,1.85-2.04,2.01-2.71.24-1.02-.1-2.22-.01-3.28,2.05-.87,6.29,1.18,7.45.89,1.32-.33,1.24-2.95,2.11-2.96,2.07,0,6.49,3.37,7.94,5.07v-3.01c3.81,1.26,7.57-1.46,9,3.02,1.25-3.66,3.24-2.18,6.44-2.99l1.56,3.96-.49-2.97,2.51-1.03.52,1.95,1.94.05c.23-4.26,3.85-2.02,5.56-2.16.63-.05.07-2.43,2.3-1.06l.17-1.75,2.98,1.98-1.01-2.98h3.02c-2.42-4.53,2.51-6.02,6.2-7.35,1.82-.65,4.09,1.71,3.82-1.62l1.98-.03-.5,2h1.47s1.53-3,1.53-3h1.49s.01,1.99.01,1.99l3.97-2.99Z"/>
  <path class="st0" d="M434.81,253.21c.54.32.86,2.67,1.68,2.77,1.51.19,2.97-4.4,5.51-2.97l-1.99,3.99,4.43-3.08,2.62.56-.07,2.51c2.13.3,2.19.09,2.01-1.99l1.1,1.9,3.89-.89c-.85,2.08-2.48,3.47-4.52,2.14l-.47,2.85,7.06-3.6c1.29.59,7.04,6.61,7.54,6.65,2.58.2,4.27-3.91,8.45,1.41,1.86,2.37-.05,2.41-1.06,4.53l7-.98c-1.79,2.83,1.18,6.1,4,3.98v3.02s2.99-1.02,2.99-1.02l3.51,7,2.49-1.98c-1.01,4.48,4.13,4.85,3.02,10l3.98-1c-.73,3.6,3.5,2.4,1,6,2.1-1.83,5.89,5.16,5.01,6h-3.99s0-5,0-5l-2.46.99c-1.25-.12-.36-6.69-3.03-.98-1.91-3.59-3.22-5.89-7.39-7.15l.87-5.85-2.98.99.99-3.99-2.49,2.99c-4.75-6.4-12.13-7.52-18.69-11.12-1.09-.6-.47-2.28-2.66-1.1l-.17-1.77-1.48,1.98-11.52-4,1.01-1.98c-5.01,2.8-6.16-.88-6.67-1-1.75-.39-3.91.36-5.79-.06-2.52-.56-5.79-3.79-7.05.09-3.09-2.87-4.5-.44-6.41-.5-2.26-.07-5.47-3.34-5.08,2.46l-2.01-.69-.97-2.3-.96,3.59c-5.61-.23-17.84.34-18.06,7.41h-1.98s-.99-1.99-.99-1.99l-3.53,4.98-1.98-1.99-.51,3.99-2.39-1.01c-1.26,3.49-5.2,1.97-7.55,3.57-1.13.77-1.27,2.89-2.73,3.35-2.69.85-6.4-1.9-8.92,4.12l-4.41-1.03,1.01-1.98c-1.78,1.6-11.36-1.69-11.84-2.24s.05-2.06-.28-2.61c-.15-.24-2.28,1.03-2.88-.67l1.99-1.48c-2.64-1.72-4.77-.17-6.55-.15-.46,0-.37-2.41-2.48-1.38,0-3.79-1.51-1.83-2.56-2.85-1.88-1.82-6.45-6.41-.39-5.64l-2.02-3.47,4.01-3.51-6.99,1.98,3.99-4.99-3.99.99,1.02-2.48-3.02-.52c-.85-3.48,3.05-1.43,4.63-.57,1.08.59.11,2.61,4.75.5.66,1.12,8.53,4.74,9.11,4.85,1.25.24,5.57-1.07,6.54-.37l2.96,4.58-.99-4.99,2.01,1.99,1.07-1.89,4.32.97,1.11-2.08,1.49.03.02,1.99,3.49-2.03.58,1.9,1.89.12c.59-4.69,7.14-4.22,9.99-2.01.17-3.17,6.73-3.5,9.52-4l-2.49,1.02,1.49,1.96c2.15-.65,2.44-2.88,4.45-3.49,3.29-1.01,9.21.81,10.46.45s1.15-2.71,2.3-2.97,8.48-.23,7.8,2.05c-.13-4.08,16.4-2.33,17.31-1.8Z"/>
  <path class="st0" d="M303.99,638c-11.58-12.12-23.14-22.6-9.49-38.98l9.49,38.98Z"/>
  <path class="st0" d="M696,337c-.13-.16-1.73.1-2.47-1.03-1.21-1.84.73-4.01-3.02-2.3l-1.06-.66.07-5.01h-3.52s-.02-3.99-.02-3.99c-.93.33-3.86,3.09-2.99,3.98,2.69.91,6-.08,4.99,4.01l-10.99-6.99c3.84-1.05,5.56-2.98,10.45-2.08l.56,3.06,2.44-2.04c2.86,2.23,7.39-.15,7.57,4.04l1-1.99,1.05,1.92,2.94-.92-1.98,5.97,2.98,2.02c-.11-2.24-.71-4.38,2-4.01l-1.99-2.97c2.72.58,7.32,2.67,5,5.98l3.42-1.02,3.59,3.55-2.01,3.47c2.19-.15,3.46-1.95,4.98.51-1.5.84-1.43,2.43-1.98,3.5.91-.36,2.34-2,2.5-1.99.38.02,5.11,4.87,2.48,5.98h3.02s-1.02,3-1.02,3h3.02s-1,4-1,4l1.98-1.99-1,3.99,2.93.08,2.07,7.93c-2.83-3.27-5.3-6.87-8.03-10.24-1.48-1.82-2.68.16-.97-4.76l-2.97,1.99-5.01-5.98c2.7.38,1.65-1.35,1.99-2.02-3.45,1.35-6.01.79-3.99-2.99l-6-2.02c-.57-1.33,4.15-1.01,1.99-2.99-.37-.34-3.43,1.02-4.49.6-2.95-1.16-4.61-5.36-8.5.39l5-.99-2,2.98c4.44-2.5,7.25,3.66,9.97,6.54,3.55,3.76,3.79-.58.02,5.46,3.55-.85,3.61,2.22,4,5.02l-1.98-1.02v1.99c4.4.88,5.1,6.94,1.99,10.01l2.99-.99c-1.65,3.71,1.69,5.5,2.01,8.99l-4.85.91c-1.38-5.27-9.01-8.7-7.14-13.9h-4c-.56-1.35,4.15-1.02,1.99-3-.33-.31-1.92.88-3.03.46-2.3-.87-9.56-10.43-12.94-11.96.67-.78,2.96-3.41,3.98-2.5,2.09,1.88-3.08,2.05-1.99,2.98.09.08,1.21.02,1.86.66,1.54,1.51.8,3.54,3.65,1.38l.49,2.98c4,.45-.16-4.33,5-2.99l-2.04,3.47c1.28,1.47,2.81,1.83,4.33,2.57,1.3.63-.7,1.6-.3,1.94,2.23,1.94,1.54-2.47,3-1.98l-.99,4.99,2,2c2.33.29,2.84-.98,2.11-2.91l2.89-.09-.49-1.97-3.51-.53,1.99-1.48c-5.51-.74.69-4.25-4.5-4.01l1.52-1.51-3.01-.51,1.99-1.98-2.92-.06-.08-7.94-3.98,1.98c-.48-1.18-2.34-4.18-3.02-4.98Z"/>
  <path class="st0" d="M345,340.01l-1.71,2.49,1.65,2.01c-.01,1.21-7.56,4.52-6.95,6.48-.92,1.09-1.15-4.13-2.98-1.99-2,2.33,3.68,4.39,2.99,4.99l-3.01-.47c2.03,2.91-3.12,4.99-4.99,6.99l4,1.49h-4.01s.79,3.57.79,3.57l-2.8,1.93c3.95,1.31,2.31,3.4-.98,1.5-1.14,3.38,1.87,2.85,1.96,3.04.14.3-3.14,3.49-.96,5.96h-3.01s1.01,6.5,1.01,6.5c-.21,1.57-4.91.13-4-2.49l2.98,1c.96-2.65-1.75-1.64-1.95-2.62-1.74-8.35,4.46-19.84,3.97-28.38l1,2.99h1.98c3.73-4.9.48-1.87-.01-3.6-1.47-5.18,10.93-9.82,15.03-11.38Z"/>
  <path class="st0" d="M294.01,319.01c-2.72,3.71,3.48,1.94,4.5,2.21.58.15.33,2.91,4.51,1.22l.84,3.43c-3.7,3.09-6.53-.07-10.85.12l2.02-1.48-.03-2.51-2.98,1,2-3.99Z"/>
  <path class="st0" d="M634,311.01c.26,5.34-3.75,3.76-3.94,4.04-.74,1.1-.16,7.86-4.05,8.95l4.1-12.88,3.88-.11Z"/>
  <path class="st0" d="M286,318.99h5.01s-1.49,4-1.49,4l-6.51-4,1.99-1.98-3.99-3c2.21.31,6.74,2.49,5,4.98Z"/>
  <path class="st0" d="M914.85,1311.24l1.14,1.76,2-1.99v2.98s-4.78-.14-4.78-.14l.31-1.82-2.51-.02c-.92,1.49,3.17,5.85-1,5-1.54-3.78.61-7.06,4.84-5.76Z"/>
  <path class="st0" d="M921,1302c.08.33-.13.87,0,1l-2.98-1.51c.77-.6,1.92.46,2.98.51Z"/>
  <path class="st0" d="M921,1302c.16,0,1.07-1.53,2-.53l1,1.52h-2s-1-.99-1-.99Z"/>
  <path class="st0" d="M922,1303l-.5,2.01-1.5-.02,1.01-1.99c.13.13.67-.08,1,0Z"/>
  <polygon class="st0" points="908.99 1325.01 907.01 1323.99 909 1327.99 907.03 1327.97 905.01 1324.02 908.99 1322 908.99 1325.01"/>
  <rect class="st0" x="320.01" y="289.01" width="1.99" height="1.99"/>
  <polygon class="st0" points="902 1334.99 900.01 1334.99 900.01 1333 902 1334.99"/>
  <rect class="st0" x="672.01" y="1020.01" width="1.99" height=".98"/>
  <polygon class="st0" points="671.01 1022.01 671.99 1022.01 671.99 1023.48 670.49 1024.98 671.01 1022.01"/>
  <path class="st0" d="M333.5,1039c.65.33.65.67,0,1v-1Z"/>
  <path class="st0" d="M332.5,1037c.65.33.65.67,0,1v-1Z"/>
  <path class="st0" d="M383.44,1412.66c1.16,3.41,3.9,10.36,4.48,14.92.41,3.28.6,19.15-.44,21.4-.23.5-6.12,8.07-6.78,8.73-13.11,13.24-27.75,25.71-40.22,40.28-3.96,4.62-8.06,12.49-11.97,16.1-1.25,1.16-2.77,2.25-4.52,1.29-3.76-2.06-22.16-31.65-24.06-36.83-4.5-12.27,1.83-33.1,1.29-46.37,2.2-2.64,9.2-9.1,10.54-11.9,1.82-3.8,2.1-16.08,3.26-17.66,2.37-3.23,15.82-1.63,19.35.5,2.33,1.4,10.47,12.44,12.6,15.4,1.41,1.95,2.57,6.22,4.44,7.56,1.65,1.18,10.78,1.36,11.56-.58,1.3-3.23-2.78-1.45-1.98-4.49l2.98,1c2.36-11.27-1.02-28.48,9-36-.8,3.7,2.22,5.42,3.41,8.1,2.51,5.61,5.04,12.7,7.04,18.56Z"/>
  <path class="st0" d="M643.88,1522.87c-1.66,1.45-18.03-2.2-21.31-2.94s-15.48-3.69-17.83-4.92c-.93-.48-1.47-1.7-1.48-2.66-.03-1.56,8.07-12.65,9.76-14.83,4.36-5.63,10.71-13.25,15.47-18.53,4.42-4.91,9.79-8.91,14.02-13.98,8.63,18.05,7.24,39.14,1.38,57.87Z"/>
  <path class="st0" d="M514,1520.99c-1.82.34-3.32-1.1-2.99-2.99l2.99,2.99Z"/>
  <path class="st0" d="M471.36,1512.63c-.83-.67-2.78-2.62-3.36-3.62l5.5,3.99c1.04,1.69-1.98-.24-2.15-.37Z"/>
  <path class="st0" d="M380.98,1332.01c.18.16.19,1.8.94,2.52,1.19,1.14,3.11.99,3.07,2.46l-5.99-4.49,1.98-.49Z"/>
  <polygon class="st0" points="600 1415.99 598.01 1416 597.02 1413.49 597.49 1413.02 600 1415.99"/>
  <polygon class="st0" points="448.99 1347.01 448.99 1347.98 446.01 1349.99 447 1347.49 448.99 1347.01"/>
  <rect class="st0" x="414.01" y="1357.01" width=".98" height="1.99"/>
  <rect class="st0" x="495.01" y="1358.01" width=".98" height="1.99"/>
  <path class="st0" d="M381,1369h-2c.16-.16-.22-1.21,1.49-.99.66.08.46.95.51.99Z"/>
  <path class="st0" d="M379,1371c-.16-.16-1.21.22-.99-1.49.08-.66.95-.46.99-.51v2Z"/>
  <path class="st0" d="M381,1371v-2c.16.16,1.21-.22.99,1.49-.08.66-.95.46-.99.51Z"/>
  <path class="st0" d="M381,1371c-.16.16.22,1.21-1.49.99-.66-.08-.46-.95-.51-.99h2Z"/>
  <path class="st0" d="M556,1396h-2c.16-.16-.22-1.21,1.49-.99.66.08.46.95.51.99Z"/>
  <path class="st0" d="M556,1398v-2c.16.16,1.21-.22.99,1.49-.08.66-.95.46-.99.51Z"/>
  <path class="st0" d="M556,1398c-.16.16.22,1.21-1.49.99-.66-.08-.46-.95-.51-.99h2Z"/>
  <path class="st0" d="M554,1398c-.16-.16-1.21.22-.99-1.49.08-.66.95-.46.99-.51v2Z"/>
  <polygon class="st0" points="532.99 1407.01 532.99 1407.99 531.52 1407.99 530.02 1406.49 532.99 1407.01"/>
  <rect class="st0" x="595.01" y="1411.01" width=".98" height="1.99"/>
  <polygon class="st0" points="620.99 1420.99 620.01 1420.99 619.49 1418.02 620.99 1419.52 620.99 1420.99"/>
  <rect class="st0" x="530.01" y="1423.01" width="1.99" height=".98"/>
  <polygon class="st0" points="246.99 1429.01 246.99 1429.98 244.01 1431.99 245 1429.49 246.99 1429.01"/>
  <rect class="st0" x="675.01" y="1429.01" width="1.99" height=".98"/>
  <path class="st0" d="M661.45,1431.55c.41.41.96.59,1.54.46l-1.47.97-1.51-2.99h.97c-.12.59.05,1.14.46,1.55Z"/>
  <path class="st0" d="M422,1436h-2c.16-.16-.22-1.21,1.49-.99.66.08.46.95.51.99Z"/>
  <path class="st0" d="M420,1438c-.16-.16-1.21.22-.99-1.49.08-.66.95-.46.99-.51v2Z"/>
  <path class="st0" d="M422,1438v-2c.16.16,1.21-.22.99,1.49-.08.66-.95.46-.99.51Z"/>
  <path class="st0" d="M422,1438c-.16.16.22,1.21-1.49.99-.66-.08-.46-.95-.51-.99h2Z"/>
  <path class="st0" d="M640,1436h-2c.16-.16-.22-1.21,1.49-.99.66.08.46.95.51.99Z"/>
  <path class="st0" d="M638,1438c-.16-.16-1.21.22-.99-1.49.08-.66.95-.46.99-.51v2Z"/>
  <path class="st0" d="M640,1438v-2c.16.16,1.21-.22.99,1.49-.08.66-.95.46-.99.51Z"/>
  <path class="st0" d="M640,1438c-.16.16.22,1.21-1.49.99-.66-.08-.46-.95-.51-.99h2Z"/>
  <rect class="st0" x="671.01" y="1436.01" width="1.99" height=".98"/>
  <path class="st0" d="M531,1444c-.16-.16-1.21.22-.99-1.49.08-.66.95-.46.99-.51v2Z"/>
  <path class="st0" d="M533,1444v-2c.16.16,1.21-.22.99,1.49-.08.66-.95.46-.99.51Z"/>
  <path class="st0" d="M533,1444c-.16.16.22,1.21-1.49.99-.66-.08-.46-.95-.51-.99h2Z"/>
  <path class="st0" d="M533,1442h-2c.16-.16-.22-1.21,1.49-.99.66.08.46.95.51.99Z"/>
  <rect class="st0" x="551.01" y="1456.01" width="1.99" height=".98"/>
  <path class="st0" d="M555.99,1459c2.14-2.07-2.34-1.51-1.99-2.99,5.14.03,2.56,6.48-.99,2.48l2.97.51Z"/>
  <path class="st0" d="M524.01,1460.01c1.86-.36.32,1.73,1.5,2,3.17.74-.82-4.17,2.48-5,.35,3.87-1.94,9.75-3.98,3Z"/>
  <rect class="st0" x="475.01" y="1469.01" width=".98" height="1.99"/>
  <path class="st0" d="M419,1481v-2c.16.16,1.21-.22.99,1.49-.08.66-.95.46-.99.51Z"/>
  <path class="st0" d="M417,1481c-.16-.16-1.21.22-.99-1.49.08-.66.95-.46.99-.51v2Z"/>
  <path class="st0" d="M419,1481c-.16.16.22,1.21-1.49.99-.66-.08-.46-.95-.51-.99h2Z"/>
  <path class="st0" d="M419,1479h-2c.16-.16-.22-1.21,1.49-.99.66.08.46.95.51.99Z"/>
  <rect class="st0" x="376.01" y="1479.01" width=".98" height="1.99"/>
  <polygon class="st0" points="496.99 1493.99 495.49 1491.99 493.99 1494 493.01 1492.52 496.99 1493.99"/>
  <polygon class="st0" points="463.01 1506.01 463.99 1506.01 464.51 1508.98 463.01 1507.48 463.01 1506.01"/>
  <rect class="st0" x="597.01" y="1511.01" width=".98" height="1.99"/>
  <polygon class="st0" points="469.99 1512.01 469.99 1512.99 468.52 1512.99 467.02 1511.49 469.99 1512.01"/>
  <path class="st0" d="M585,1516c-.16.16.22,1.21-1.49.99-.66-.08-.46-.95-.51-.99h2Z"/>
  <path class="st0" d="M585,1514h-2c.16-.16-.22-1.21,1.49-.99.66.08.46.95.51.99Z"/>
  <path class="st0" d="M583,1516c-.16-.16-1.21.22-.99-1.49.08-.66.95-.46.99-.51v2Z"/>
  <path class="st0" d="M585,1516v-2c.16.16,1.21-.22.99,1.49-.08.66-.95.46-.99.51Z"/>
  <path class="st0" d="M271.99,1518c2.14-2.07-2.34-1.51-1.99-2.99,5.14.03,2.56,6.48-.99,2.48l2.97.51Z"/>
  <rect class="st0" x="474.01" y="1515.01" width="1.99" height=".98"/>
  <rect class="st0" x="655.01" y="1522.01" width="1.99" height=".98"/>
  <path class="st0" d="M595,1526v-2c.16.16,1.21-.22.99,1.49-.08.66-.95.46-.99.51Z"/>
  <path class="st0" d="M595,1526c-.16.16.22,1.21-1.49.99-.66-.08-.46-.95-.51-.99h2Z"/>
  <path class="st0" d="M593,1526c-.16-.16-1.21.22-.99-1.49.08-.66.95-.46.99-.51v2Z"/>
  <path class="st0" d="M595,1524h-2c.16-.16-.22-1.21,1.49-.99.66.08.46.95.51.99Z"/>
  <polygon class="st0" points="268.99 1529.01 268.99 1529.98 266.01 1531.99 267 1529.49 268.99 1529.01"/>
  <path class="st0" d="M513.49,1517.02c.55.64,2.01,1.3,1.02,1.96-.48-.59-2.01-1.26-1.02-1.96Z"/>
  <rect class="st0" x="669.67" y="1421.53" width=".66" height="4.94" transform="translate(-810.68 890.84) rotate(-45)"/>
  <path class="st0" d="M673.5,1427c.65.33.65.67,0,1v-1Z"/>
  <path class="st0" d="M496.5,1495c.65.33.65.67,0,1v-1Z"/>
  <path class="st0" d="M595.5,1510c.65.33.65.67,0,1v-1Z"/>
  <path class="st0" d="M630.5,1404c.65.33.65.67,0,1v-1Z"/>
  <path class="st0" d="M600.5,1413c.65.33.65.67,0,1v-1Z"/>
  <path class="st0" d="M546.5,1398c.65.33.65.67,0,1v-1Z"/>
  <path class="st0" d="M449.5,1532c.65.33.65.67,0,1v-1Z"/>
  <path class="st0" d="M668.5,1425c.65.33.65.67,0,1v-1Z"/>
  <path class="st0" d="M533.5,1425c.65.33.65.67,0,1v-1Z"/>
  <path class="st0" d="M340.5,1393c.65.33.65.67,0,1v-1Z"/>
  <path d="M671,529.99c-7.83-1.72-14.54-8.47-22.74-9.75-23.21-3.61-64.1,11.16-88.25,16.27-9.14,1.94-23,5.42-31.8,6.28-4.37.43-7.9-2-12.21-.8,3.96-8.12,3.17-14.41,10.47-21.02s40.81-13.81,52.51-16.49c12.24-2.8,44.56-11.04,55.28-9.25,13.44,2.25,31.99,22.15,36.73,34.75Z"/>
  <path d="M463,541.99c-3.78-.06-7.58.19-11.37-.12-9.37-.77-23.36-4.03-32.81-6.19-21.95-5-65.54-21.92-85.82-16.19-5.04,1.42-9.98,5.39-14.56,6.45-1.31.3-1.96-.12-1.42-1.43.83-2.05,6.34-9.93,8.01-11.99,5.39-6.65,19.7-18.64,28.44-18.55,17.54.18,72.44,13.81,89.53,20.55,12.29,4.84,16.83,15.44,20.01,27.48Z"/>
  <path d="M416,557.01c5.38,10.65-.97,27.16-13.59,28.9-21.14,2.93-27.65-15.38-22.42-32.91-6.22,1.22-26.36,4.84-25.78,13.23.18,2.51,4.6,12.87,3.78,13.76-3.65.09-4.14-4.36-5.99-6.5-2.58-2.97-6.4-7.16-10-8.52-1.07-1.52,7.87-8.77,9.52-9.96,16.74-12.1,51.17-14.3,70.26-7.31,7.01,2.57,12.08,7.78,16.02,13.98.97,1.53,5.86,8.68,2.67,9.31-10.1-2.04-14.16-12.78-24.47-13.99ZM404.74,554.15c-10.19,1.99-1.16,15.33,6.13,6.14.01-3.56-2.26-6.9-6.13-6.14Z"/>
  <path d="M639.96,565.96c-7.48,2.3-11.55,10.79-17.95,15.04.47-3.93,7.19-14.84,5.55-17.99s-22.56-10.41-24.56-9c12.29,42.14-45.96,43.76-36.01.99-7.35,1.22-16.23,14.25-22.46,14.55-.54.03-2.6-.39-2.56-1.09,3.45-9.54,14.53-19.12,24.23-21.75,15.66-4.25,50.72-2.65,64.29,7.3,1.94,1.42,10.86,9.95,9.47,11.95ZM588.25,555.25c-6.5,6.5,9.57,13.1,7.75,2.3-.65-3.82-5.38-4.67-7.75-2.3Z"/>
  <path d="M553.99,755c-16.65-5.94-31.81-8.25-49.54-8.04s-41.26-1.13-58.47,2.53c-5.64,1.2-11.55,4.09-16.95,5.08-3.93.72-3.48-3.11-1.35-4.63,3.89-2.78,30.98-7.36,36.94-7.8,9.09-.68,16.96,2.12,25.93,1.91,7.31-.17,14.26-2.41,21.99-2.08,5.39.23,39.05,5.74,40.97,9.02.73,1.25.5,2.66.48,4.01Z"/>
  <path d="M520.5,773c.33-.02,1.1-1.25,1.98-1.02,1.31,2.34-5.68,6.06-7.81,7.19-9.14,4.86-34.49,5.34-44.93,3.59-4.71-.79-12.7-5.43-12.73-10.76,1.65-.77,3.77.99,4.5.99,19.33,0,39.84.91,59,0Z"/>
  <path d="M466.99,650c-2.57.39-2.1-.41-1.99-2.49.82-15.59,1.86-31.41,3-47.01.73-10,4.19-19.72,1.47-29.48-2.8-10.04-9.31-18.62-13.47-28.02,3.58.25,7.18,1.18,9.22,4.27,2.97,4.47,8.25,23.6,8.75,29.25,2.11,23.63-1.41,50.62-7,73.49Z"/>
  <path d="M445.99,559c-2.57-.74-3.23-3.98-4.99-5.35-1.44-1.12-6.93-4.64-9.08-6.06-21.24-14.09-64.36-10.04-85.6,3.23-.86.53-2.59,2.13-3.31.69,4.33-4.5,5.95-7.58,12.02-9.98,16.59-6.57,54.12-8.17,70.7-1.74,5.28,2.05,19.44,12.96,20.27,19.22Z"/>
  <path d="M640.99,554c-7.96-4.64-14.81-9.34-23.96-11.53-18.24-4.36-51.77-6.1-67.04,6.02-3.88,3.08-6.74,7.78-10.98,10.51.57-2.96,2.97-7.39,5-9.49,18.78-19.48,65.01-15.82,87.95-4.96l9.03,9.46Z"/>
  <path d="M477.06,689.97l1.93-.98c-2.12,3.91,3.52,6.13,1.51,10-1.47-.63-2.02-3.26-2.7-3.79s-9.05-5.44-10.58-6.09c-.92-.39-4.33-1.81-4.74-1.78-.97.07-1.82,2.02-2.46,1.66-.29-.16-.83-4.02-5.01-3,.26-4.36,5.8-4.15,8.99-4-1.15-4.23-3.73-8.51-1.98-12.99l15.05,20.96Z"/>
  <path d="M420.99,587c.65,2.54-1.74,2.43-3.45,3.01-11.32,3.78-32.84,5.87-44.11,2.06-1.46-.5-9.37-4.95-9.41-5.57-.25-3.6,9.98,2.01,10.75,2.23,15.94,4.64,30.4,1.35,46.23-1.73Z"/>
  <path d="M617,586.01c-7.41,7.73-21.15,8.63-31.49,7.98-7.83-.49-18.92-2.15-25.51-6.49,12.77,1.36,24.38,4.75,37.54,3.55,7.17-.66,12.4-5.29,19.46-5.03Z"/>
  <path d="M514.34,686.82c.27.48,2.09-.45,1.66,1.17-4.15-1.8-18.95,2.11-20.99,0-2.62-2.71,3.27-1.15,3.95-1.46.81-.36,1.55-1.84,2.76-2.31,3.85-1.48,8.87-2.79,12.35.3.77.68,0,1.82.26,2.3Z"/>
  <path d="M515.99,539c-3.71-1.52-.84-8.47.24-11.27,1.62-4.22,5.07-10.17,8.76-12.73-3.04,8.04-8.13,15.16-9,24Z"/>
  <path d="M465.99,540c-5.65-6.93-8.2-16.01-11.98-24,6.53,5.76,9.69,15.72,11.98,24Z"/>
  <path d="M477.99,970c-1.83-3.21-8.02-7.79-9.61-10.24-2-3.07-6.35-15.02-7.06-19.04-.32-1.76-.53-4.49,1.19-5.72,2.22,12.62,14.37,21.88,15.48,34.99Z"/>
  <path d="M690.01,653c-.44-1.88,1.04-2.38,1.99-3.5,4.69-5.59,10.73-10.46,15.99-15.5-2.23,9.32-10.25,14.47-17.98,19Z"/>
  <path d="M297,653.99c-2.23,1.98-15.91-12.27-14.99-15.99,5.9,4.43,10.28,10.41,14.99,15.99Z"/>
  <path class="st0" d="M404.74,554.15c3.87-.76,6.14,2.59,6.13,6.14-7.29,9.19-16.32-4.15-6.13-6.14Z"/>
  <path class="st0" d="M588.25,555.25c2.37-2.37,7.1-1.52,7.75,2.3,1.82,10.8-14.25,4.2-7.75-2.3Z"/>
</svg>