<?xml version="1.0" encoding="UTF-8"?>
<svg xmlns="http://www.w3.org/2000/svg" xmlns:xlink="http://www.w3.org/1999/xlink" viewBox="0 0 3710 3710">
  <defs>
    <style>
      .cls-1 {
        fill: url(#linear-gradient-10);
        opacity: .57;
      }

      .cls-2 {
        fill: url(#linear-gradient-13);
      }

      .cls-3 {
        fill: url(#linear-gradient-28);
      }

      .cls-4 {
        fill: url(#linear-gradient-42);
      }

      .cls-5 {
        fill: url(#linear-gradient-46);
      }

      .cls-6 {
        fill: url(#linear-gradient-2);
      }

      .cls-7 {
        fill: url(#linear-gradient-43);
      }

      .cls-8 {
        fill: url(#linear-gradient-25);
      }

      .cls-9 {
        fill: url(#linear-gradient-12);
      }

      .cls-10 {
        fill: url(#linear-gradient-40);
      }

      .cls-11 {
        fill: url(#linear-gradient-27);
      }

      .cls-12 {
        opacity: .92;
      }

      .cls-13, .cls-14, .cls-15, .cls-16, .cls-17, .cls-18, .cls-19 {
        fill: #fff;
      }

      .cls-13, .cls-20, .cls-21, .cls-22 {
        opacity: .43;
      }

      .cls-14 {
        opacity: .53;
      }

      .cls-23 {
        fill: url(#linear-gradient-37);
      }

      .cls-24 {
        fill: url(#linear-gradient-39);
      }

      .cls-16 {
        opacity: .5;
      }

      .cls-25 {
        fill: url(#linear-gradient-47);
      }

      .cls-26 {
        fill: url(#linear-gradient-26);
      }

      .cls-27 {
        fill: none;
      }

      .cls-28 {
        fill: url(#linear-gradient-4);
      }

      .cls-29 {
        fill: url(#linear-gradient-35);
      }

      .cls-30 {
        fill: url(#linear-gradient-30);
      }

      .cls-17 {
        opacity: .14;
      }

      .cls-20 {
        fill: url(#linear-gradient-15);
      }

      .cls-31 {
        fill: url(#linear-gradient-44);
      }

      .cls-32 {
        fill: url(#linear-gradient-49);
      }

      .cls-33 {
        fill: url(#linear-gradient-3);
      }

      .cls-34 {
        fill: url(#linear-gradient-34);
      }

      .cls-35 {
        fill: url(#linear-gradient-5);
      }

      .cls-36 {
        fill: url(#linear-gradient-38);
      }

      .cls-37 {
        fill: url(#linear-gradient-22);
      }

      .cls-38 {
        fill: url(#linear-gradient-24);
      }

      .cls-39 {
        fill: url(#linear-gradient-33);
      }

      .cls-40 {
        fill: url(#linear-gradient-8);
      }

      .cls-18 {
        opacity: .11;
      }

      .cls-21 {
        fill: url(#linear-gradient-17);
      }

      .cls-41 {
        fill: url(#linear-gradient-14);
      }

      .cls-42 {
        fill: url(#linear-gradient-29);
      }

      .cls-43 {
        fill: url(#linear-gradient-20);
      }

      .cls-44 {
        fill: url(#linear-gradient-50);
      }

      .cls-45 {
        fill: url(#linear-gradient-7);
      }

      .cls-46 {
        fill: url(#linear-gradient-9);
      }

      .cls-47 {
        fill: url(#linear-gradient-11);
      }

      .cls-48 {
        fill: url(#linear-gradient-19);
      }

      .cls-49 {
        fill: url(#linear-gradient-6);
      }

      .cls-19 {
        opacity: .06;
      }

      .cls-50 {
        fill: #7d97f4;
      }

      .cls-51 {
        fill: #91b3fa;
      }

      .cls-52 {
        fill: url(#linear-gradient-36);
      }

      .cls-53 {
        fill: url(#linear-gradient-21);
      }

      .cls-54 {
        fill: url(#linear-gradient-45);
      }

      .cls-55 {
        fill: url(#linear-gradient-16);
        opacity: .47;
      }

      .cls-56 {
        fill: url(#linear-gradient-48);
      }

      .cls-57 {
        fill: url(#linear-gradient-32);
      }

      .cls-58 {
        fill: url(#linear-gradient-41);
      }

      .cls-59 {
        fill: #bdd0fb;
      }

      .cls-60 {
        fill: url(#linear-gradient);
      }

      .cls-61 {
        fill: url(#linear-gradient-23);
      }

      .cls-62 {
        fill: url(#linear-gradient-31);
      }

      .cls-63 {
        clip-path: url(#clippath);
      }

      .cls-64 {
        fill: url(#linear-gradient-18);
      }
    </style>
    <linearGradient id="linear-gradient" x1="3597.05" y1="4024.71" x2="1141.17" y2="974.66" gradientUnits="userSpaceOnUse">
      <stop offset="0" stop-color="#dae3fe"/>
      <stop offset="1" stop-color="#e9effd"/>
    </linearGradient>
    <linearGradient id="linear-gradient-2" x1="500.62" y1="3700.13" x2="1587.04" y2="1466.26" gradientUnits="userSpaceOnUse">
      <stop offset="0" stop-color="#4f52ff"/>
      <stop offset="1" stop-color="#4042e2"/>
    </linearGradient>
    <linearGradient id="linear-gradient-3" x1="1142.52" y1="2003.42" x2="1138.04" y2="1385.1" xlink:href="#linear-gradient-2"/>
    <linearGradient id="linear-gradient-4" x1="1267.73" y1="2479.81" x2="1395.65" y2="1662.42" xlink:href="#linear-gradient-2"/>
    <linearGradient id="linear-gradient-5" x1="1351.37" y1="2493.79" x2="1479.29" y2="1676.39" xlink:href="#linear-gradient-2"/>
    <linearGradient id="linear-gradient-6" x1="1437.6" y1="2508.19" x2="1565.52" y2="1690.8" xlink:href="#linear-gradient-2"/>
    <linearGradient id="linear-gradient-7" x1="1521.25" y1="2522.16" x2="1649.17" y2="1704.77" xlink:href="#linear-gradient-2"/>
    <linearGradient id="linear-gradient-8" x1="1506" y1="2303.02" x2="932.43" y2="2632.44" gradientUnits="userSpaceOnUse">
      <stop offset="0" stop-color="#09005d"/>
      <stop offset="1" stop-color="#1a0f91"/>
    </linearGradient>
    <linearGradient id="linear-gradient-9" x1="1602.25" y1="1742.48" x2="1499.2" y2="1914.98" xlink:href="#linear-gradient-2"/>
    <linearGradient id="linear-gradient-10" x1="1519.36" y1="1882.01" x2="713.75" y2="3722.11" xlink:href="#linear-gradient-8"/>
    <linearGradient id="linear-gradient-11" x1="1221.99" y1="3026.67" x2="3247.1" y2="2072.53" xlink:href="#linear-gradient-8"/>
    <linearGradient id="linear-gradient-12" x1="1776.99" y1="2247.87" x2="1076.13" y2="3582.83" gradientUnits="userSpaceOnUse">
      <stop offset="0" stop-color="#ff928e"/>
      <stop offset="1" stop-color="#fe7062"/>
    </linearGradient>
    <linearGradient id="linear-gradient-13" x1="1548.71" y1="1984.55" x2="2289.13" y2="3380.5" xlink:href="#linear-gradient-8"/>
    <linearGradient id="linear-gradient-14" x1="1594.38" y1="2420.91" x2="1937.46" y2="3067.75" gradientUnits="userSpaceOnUse">
      <stop offset="0" stop-color="#e1473d"/>
      <stop offset="1" stop-color="#e9605a"/>
    </linearGradient>
    <linearGradient id="linear-gradient-15" x1="2191.5" y1="2820.85" x2="1488.83" y2="2061.37" xlink:href="#linear-gradient-2"/>
    <linearGradient id="linear-gradient-16" x1="2447.63" y1="3621.18" x2="1841.61" y2="2919.92" xlink:href="#linear-gradient-2"/>
    <linearGradient id="linear-gradient-17" x1="2338.01" y1="3493.09" x2="1855.46" y2="2934.71" xlink:href="#linear-gradient-2"/>
    <linearGradient id="linear-gradient-18" x1="1856.19" y1="2467.92" x2="2175.57" y2="3250.98" gradientTransform="translate(2525.79 -588.4) rotate(45)" xlink:href="#linear-gradient-2"/>
    <linearGradient id="linear-gradient-19" x1="1912.27" y1="2445.05" x2="2231.65" y2="3228.11" gradientTransform="translate(4251.21 137.77) rotate(76.72)" xlink:href="#linear-gradient-2"/>
    <linearGradient id="linear-gradient-20" x1="1830.77" y1="2478.29" x2="2150.15" y2="3261.35" gradientTransform="translate(2577.18 -567.11) rotate(45)" xlink:href="#linear-gradient-2"/>
    <linearGradient id="linear-gradient-21" x1="1886.85" y1="2455.42" x2="2206.23" y2="3238.47" gradientTransform="translate(4321.94 193.75) rotate(76.72)" xlink:href="#linear-gradient-2"/>
    <linearGradient id="linear-gradient-22" x1="1804.71" y1="2488.92" x2="2124.09" y2="3271.97" gradientTransform="translate(2632.29 -545.27) rotate(45)" xlink:href="#linear-gradient-2"/>
    <linearGradient id="linear-gradient-23" x1="1860.79" y1="2466.04" x2="2180.17" y2="3249.1" gradientTransform="translate(2651.45 -591.52) rotate(45)" xlink:href="#linear-gradient-2"/>
    <linearGradient id="linear-gradient-24" x1="1781.48" y1="2498.39" x2="2100.86" y2="3281.45" gradientTransform="translate(4423.61 370.3) rotate(76.72)" xlink:href="#linear-gradient-2"/>
    <linearGradient id="linear-gradient-25" x1="1837.56" y1="2475.52" x2="2156.94" y2="3258.58" gradientTransform="translate(4473.99 306.64) rotate(76.72)" xlink:href="#linear-gradient-2"/>
    <clipPath id="clippath">
      <rect class="cls-27" x="1038.94" y="2587.67" width="819.71" height="570.65"/>
    </clipPath>
    <linearGradient id="linear-gradient-26" x1="-3252.45" y1="1497.18" x2="-3326.97" y2="2226.9" gradientTransform="translate(-240.01) rotate(-180) scale(1 -1)" gradientUnits="userSpaceOnUse">
      <stop offset="0" stop-color="#febbba"/>
      <stop offset="1" stop-color="#ff928e"/>
    </linearGradient>
    <linearGradient id="linear-gradient-27" x1="-2680.81" y1="1785.53" x2="-2761.64" y2="2577.05" xlink:href="#linear-gradient-26"/>
    <linearGradient id="linear-gradient-28" x1="6535.77" y1="-12861.99" x2="6240.05" y2="-12404.97" gradientTransform="translate(-240.01) rotate(-180) scale(1 -1)" xlink:href="#linear-gradient-12"/>
    <linearGradient id="linear-gradient-29" x1="-3419.16" y1="1372.39" x2="-4049.16" y2="2178.41" gradientTransform="translate(-1343.81 -2.49) rotate(-178.92) scale(1 -1)" xlink:href="#linear-gradient-26"/>
    <linearGradient id="linear-gradient-30" x1="9507.56" y1="-13430.18" x2="9279.05" y2="-13134.47" gradientTransform="translate(-240.01) rotate(-180) scale(1 -1)" xlink:href="#linear-gradient-2"/>
    <linearGradient id="linear-gradient-31" x1="9089.52" y1="-13753.28" x2="8861.01" y2="-13457.56" gradientTransform="translate(-240.01) rotate(-180) scale(1 -1)" xlink:href="#linear-gradient-2"/>
    <linearGradient id="linear-gradient-32" x1="-2509.05" y1="1409.74" x2="-3940.04" y2="4831.19" gradientTransform="translate(-240.01) rotate(-180) scale(1 -1)" xlink:href="#linear-gradient-2"/>
    <linearGradient id="linear-gradient-33" x1="1886.04" y1="2268.26" x2="205.82" y2="2154.01" xlink:href="#linear-gradient-2"/>
    <linearGradient id="linear-gradient-34" x1="2488.39" y1="1619.11" x2="3325.1" y2="1155.39" gradientTransform="matrix(1,0,0,1,0,0)" xlink:href="#linear-gradient-26"/>
    <linearGradient id="linear-gradient-35" x1="-3509.73" y1="2907.32" x2="-3537.14" y2="3146.56" gradientTransform="translate(-576.18 12.01) rotate(-178.92) scale(1 -1)" xlink:href="#linear-gradient-26"/>
    <linearGradient id="linear-gradient-36" x1="-3286.43" y1="2932.91" x2="-3313.84" y2="3172.15" gradientTransform="translate(-576.18 12.01) rotate(-178.92) scale(1 -1)" xlink:href="#linear-gradient-26"/>
    <linearGradient id="linear-gradient-37" x1="-3061.16" y1="1365.84" x2="-3613.58" y2="3216.81" gradientTransform="translate(-576.18 12.01) rotate(-178.92) scale(1 -1)" xlink:href="#linear-gradient-8"/>
    <linearGradient id="linear-gradient-38" x1="-2896.45" y1="1656.06" x2="-2898.23" y2="1673.45" gradientTransform="translate(-240.01) rotate(-180) scale(1 -1)" xlink:href="#linear-gradient-12"/>
    <linearGradient id="linear-gradient-39" x1="6436.66" y1="-12926.08" x2="6140.94" y2="-12469.06" gradientTransform="translate(-240.01) rotate(-180) scale(1 -1)" xlink:href="#linear-gradient-12"/>
    <linearGradient id="linear-gradient-40" x1="-3449.13" y1="1377.91" x2="-3553.8" y2="1830.22" gradientTransform="translate(-576.18 12.01) rotate(-178.92) scale(1 -1)" xlink:href="#linear-gradient-26"/>
    <linearGradient id="linear-gradient-41" x1="-3131.18" y1="1507.71" x2="-3050.7" y2="1378.03" xlink:href="#linear-gradient-26"/>
    <linearGradient id="linear-gradient-42" x1="-3069.6" y1="998.64" x2="-3116.23" y2="1633.56" gradientTransform="translate(-240.01) rotate(-180) scale(1 -1)" xlink:href="#linear-gradient-2"/>
    <linearGradient id="linear-gradient-43" x1="-3553.21" y1="-3332.84" x2="-3404.26" y2="-3485.65" gradientTransform="translate(-1951.57 1305.18) rotate(-132.19) scale(1 -1)" xlink:href="#linear-gradient-26"/>
    <linearGradient id="linear-gradient-44" x1="3044.45" y1="1783.93" x2="3072.72" y2="1783.93" xlink:href="#linear-gradient-14"/>
    <linearGradient id="linear-gradient-45" x1="-2397.05" y1="1453.79" x2="-3057.09" y2="2293.19" gradientTransform="translate(-240.01) rotate(-180) scale(1 -1)" xlink:href="#linear-gradient-8"/>
    <linearGradient id="linear-gradient-46" x1="-2960.96" y1="1493.43" x2="-3513.38" y2="3344.39" gradientTransform="translate(-240.01) rotate(-180) scale(1 -1)" xlink:href="#linear-gradient-8"/>
    <linearGradient id="linear-gradient-47" x1="-3113.48" y1="1447.91" x2="-3665.9" y2="3298.88" gradientTransform="translate(-240.01) rotate(-180) scale(1 -1)" xlink:href="#linear-gradient-8"/>
    <linearGradient id="linear-gradient-48" x1="-2957.42" y1="1494.48" x2="-3509.84" y2="3345.44" gradientTransform="translate(-240.01) rotate(-180) scale(1 -1)" xlink:href="#linear-gradient-8"/>
    <linearGradient id="linear-gradient-49" x1="5253.01" y1="1250.25" x2="4683.84" y2="1879.98" gradientTransform="translate(-2237.67)" xlink:href="#linear-gradient-8"/>
    <linearGradient id="linear-gradient-50" x1="4291.6" y1="810.09" x2="4477.27" y2="810.09" gradientTransform="translate(-1361.03 -177.54) rotate(9.8)" xlink:href="#linear-gradient-8"/>
  </defs>
  <g id="Background">
    <rect class="cls-15" width="3710" height="3710"/>
  </g>
  <g id="Illustration">
    <g>
      <path class="cls-60" d="M2926.63,2818.17c-56.85,59.41-110.64,97.72-153.14,127.99-499.58,355.81-1090.72,252.09-1216.35,226.77-185.52-37.4-544.13-109.7-803.4-412.34-392.25-457.87-375.5-1211.14-26.91-1655.43,49.14-62.62,344.9-552.79,947.13-648.07,360.18-56.98,783.12,47.71,1088.37,301.56,640.74,532.86,595.13,1609.32,164.31,2059.53Z"/>
      <g class="cls-12">
        <path class="cls-50" d="M1176.33,450.63c4.95-13.82,25.18-11.8,27.25,2.73,20.01,140.49,84,507.22,229.63,716.66,237.11,341.02,356.18,859.45,144.43,1091.64,0,0-941.21-305.68-401.32-1811.04Z"/>
        <path class="cls-13" d="M1181.5,648.03c-.06,3.54.13,7.6.24,11.46l.53,11.72,1.31,23.45c.95,15.63,2.02,31.26,3.16,46.88,2.36,31.24,5.1,62.44,8.13,93.62,6,62.36,13.19,124.6,21.58,186.68,17.01,124.1,37.86,247.71,65.02,369.96,13.82,61.06,28.2,122,45,182.31,16.85,60.27,35,120.21,55.65,179.28,2.42,7.44,5.08,14.8,7.8,22.13l8.04,22.04,8.05,22.05c2.77,7.31,5.74,14.55,8.6,21.83,5.85,14.51,11.36,29.16,17.49,43.55l18.63,43.08c25.54,57.13,53.83,113.02,85.25,167.2v.02c.48.8.2,1.83-.6,2.3-.79.46-1.8.2-2.27-.57-32.92-53.47-62.06-109.2-88.71-166.07l-19.17-43.03c-6.31-14.38-12-29.02-18.03-43.51-2.95-7.28-6.01-14.51-8.87-21.82l-8.32-22.03-8.32-22.04c-2.8-7.33-5.56-14.69-8.07-22.13-41.83-118.46-75.17-239.78-102.06-362.41l-9.84-46.04-9.14-46.18c-3.16-15.37-5.77-30.85-8.66-46.27l-4.24-23.15-3.94-23.2c-10.61-61.86-19.95-123.93-27.65-186.21-7.77-62.27-14.55-124.65-19.73-187.18-2.55-31.27-4.81-62.56-6.69-93.87-.89-15.66-1.76-31.32-2.41-47l-.83-23.52-.28-11.77c-.01-3.97-.17-7.75.04-12.04.04-.92.83-1.63,1.75-1.58.9.04,1.6.79,1.59,1.69v.37Z"/>
      </g>
      <g>
        <path class="cls-51" d="M628.28,583.59c2.76-17,26.53-19,32.03-2.68,53.14,157.83,205.44,567.31,418.28,777.84,346.55,342.78,594.85,915.53,400.18,1228.75,0,0-1151.45-151.39-850.49-2003.91Z"/>
        <path class="cls-13" d="M676.17,810.28c.68,4.17,1.76,8.79,2.69,13.23l3.07,13.43,6.45,26.8c4.4,17.85,8.99,35.65,13.63,53.44,9.38,35.55,19.2,70.98,29.35,106.32,20.22,70.7,41.78,141,64.7,210.86,46.06,139.62,96.6,277.81,154.05,413.11,28.98,67.52,58.67,134.77,90.97,200.77,3.9,8.32,8,16.53,12.16,24.72l12.39,24.61,12.38,24.61c4.19,8.17,8.58,16.24,12.86,24.36,8.67,16.19,17.09,32.52,25.96,48.6l26.91,48.08c2.25,4,4.43,8.04,6.74,12.01l7.01,11.86,14.02,23.71,14.02,23.71c4.77,7.84,9.75,15.56,14.61,23.35l14.68,23.31c4.96,7.73,9.63,15.65,14.87,23.19l30.76,45.71c41.79,60.41,86.46,118.83,134.41,174.55h.01c.61.72.53,1.78-.18,2.38-.69.6-1.73.53-2.34-.15-49.3-54.74-94.78-112.85-137.61-172.81l-31.28-45.56c-5.33-7.52-10.08-15.41-15.13-23.12l-14.94-23.25c-4.95-7.77-10.02-15.46-14.88-23.29l-14.29-23.65-14.29-23.65-7.14-11.83c-2.35-3.96-4.58-7.99-6.88-11.98-73.54-127.74-137.89-260.59-195.16-396.3l-21.21-51.01-20.44-51.32c-6.93-17.06-13.26-34.35-19.9-51.52l-9.85-25.8-9.51-25.93c-25.48-69.09-49.55-138.7-71.82-208.89-22.33-70.16-43.55-140.68-62.95-211.7-9.65-35.52-18.97-71.13-27.85-106.86-4.39-17.88-8.73-35.76-12.87-53.69l-6.07-26.94-2.89-13.51c-.88-4.57-1.89-8.91-2.57-13.84-.13-.91.51-1.75,1.42-1.88.9-.12,1.73.49,1.87,1.38l.06.37Z"/>
      </g>
      <g>
        <rect class="cls-50" x="1685.72" y="440.59" width="1318.19" height="2661.46" rx="100.81" ry="100.81"/>
        <rect class="cls-51" x="1561.19" y="440.58" width="1318.19" height="2661.46" rx="100.81" ry="100.81"/>
        <rect class="cls-59" x="1609.79" y="466.94" width="1230.11" height="1502.01" rx="87.37" ry="87.37"/>
        <rect class="cls-59" x="1606.75" y="1985.42" width="1230.11" height="1090.28" rx="87.37" ry="87.37"/>
        <rect class="cls-50" x="1679.75" y="888.55" width="79.05" height="711.48" rx="39.53" ry="39.53"/>
        <rect class="cls-50" x="1673.19" y="2084.23" width="79.05" height="464.44" rx="39.53" ry="39.53"/>
      </g>
      <g>
        <path class="cls-6" d="M539.97,1840.6l86.59,1279.78c1.76,26.06,23.42,46.3,49.53,46.3h925.22c25.78,0,47.27-19.73,49.47-45.41l109.72-1280.73c2.38-27.75-18.53-52-46.33-53.79-343.8-22.14-723.67-18.89-1127.08.9-27.75,1.36-49.01,25.23-47.13,52.95Z"/>
        <path class="cls-33" d="M701.67,2048.66h883.5c46.01,0,82.23,39.27,78.51,85.13l-64.35,793.65c-3.31,40.77-37.26,72.22-78.16,72.4l-751.22,3.33c-41.04.18-75.35-31.18-78.83-72.08l-67.93-796.98c-3.92-45.97,32.34-85.46,78.48-85.46Z"/>
        <path class="cls-50" d="M1682.67,2007.28H594.03c-4.17,0-7.9-2.62-9.32-6.54h0c-2.33-6.46,2.45-13.27,9.32-13.27h1088.65c8,0,12.7,8.99,8.14,15.56h0c-1.85,2.67-4.89,4.26-8.14,4.26Z"/>
        <path class="cls-50" d="M603.1,1841.16l7.93,108.87c.38,5.28,4.78,9.36,10.07,9.36h234.12c5.45,0,9.92-4.33,10.09-9.78l3.59-114.54c.18-5.79-4.53-10.54-10.32-10.41l-245.64,5.67c-5.77.13-10.26,5.07-9.84,10.83Z"/>
        <path class="cls-50" d="M1333.35,1878.26l4.21,71.76c.38,5.28,4.78,9.36,10.07,9.36h299.26c5.45,0,9.92-4.33,10.09-9.78l7.31-77.43c.18-5.79-4.53-10.54-10.32-10.41l-310.78,5.67c-5.77.13-10.26,5.07-9.84,10.83Z"/>
        <circle class="cls-50" cx="1006.9" cy="1893.06" r="66.32" transform="translate(-1066.86 2438.08) rotate(-76.72)"/>
        <circle class="cls-59" cx="1013.75" cy="1886.21" r="47.11"/>
        <circle class="cls-50" cx="1196.53" cy="1893.06" r="66.32" transform="translate(-988.14 1400.54) rotate(-45)"/>
        <circle class="cls-59" cx="1203.38" cy="1886.21" r="47.11"/>
        <rect class="cls-28" x="1333.33" y="1819.37" width="70.82" height="29.99" rx="4.16" ry="4.16"/>
        <rect class="cls-35" x="1419.16" y="1819.37" width="70.82" height="29.99" rx="4.16" ry="4.16"/>
        <rect class="cls-49" x="1507.65" y="1819.37" width="70.82" height="29.99" rx="4.16" ry="4.16"/>
        <rect class="cls-45" x="1593.48" y="1819.37" width="70.82" height="29.99" rx="4.16" ry="4.16"/>
        <path class="cls-16" d="M1604.85,3042.01h-931.28c-3.4,0-6.15-2.75-6.15-6.15h0c0-3.4,2.75-6.15,15.67-6.15h931.28c-6.12,0-3.36,2.75-3.36,6.15h0c0,3.4-2.75,6.15-6.15,6.15Z"/>
        <g>
          <circle class="cls-50" cx="1139.17" cy="2515.23" r="359.65"/>
          <circle class="cls-40" cx="1142.75" cy="2511.65" r="292.37"/>
          <circle class="cls-46" cx="1142.75" cy="2511.65" r="275.51"/>
          <path class="cls-1" d="M1249.53,2282.32c-21.94-12.41-49.98-9.73-67.65,8.25-28.09,28.58-58.36,79.11-25.61,149.16,49.31,105.47,39.62,274.35-62.55,319.1,0,0,247.61,28.33,295.34-210.21,31.11-155.45-84.86-235.38-139.53-266.3Z"/>
        </g>
        <path class="cls-14" d="M1097.63,2302.34c-7.66.18-15.18,1.97-22.19,4.98-7.04,2.94-13.67,6.9-19.89,11.44-6.23,4.54-12.13,9.58-17.77,14.96-5.71,5.3-11.2,10.84-16.44,16.58-21.14,22.79-38.77,48.75-51.44,76.82-12.53,28.08-20.2,58.39-20.63,88.85-.46,30.44,5.48,61.1,18.28,88.61,12.66,27.51,32.15,51.85,57.31,68.56,24.97,16.96,54.72,26.8,84.91,29.04,15.12,1.07,30.33.14,45.25-2.6,14.9-2.9,29.53-7.42,43.4-13.72,27.75-12.53,52.85-31.31,72.49-54.59,19.59-23.2,33.93-51.33,38.07-81.11,2.17-14.84,1.44-29.96-1.95-44.45-1.91-7.2-4.13-14.37-7.38-21.14-1.41-3.47-3.36-6.7-5.07-10.04-1.98-3.19-3.81-6.48-6.03-9.52-17.02-24.85-43.06-43.44-72.3-50.88-29.31-7.32-61.2-4.51-89.2,7.47-6.99,3.01-13.81,6.46-20.2,10.59-6.49,3.97-12.54,8.65-18.2,13.71-11.31,10.13-20.74,22.37-26.94,36.06-6.34,13.65-8.73,28.86-6.71,43.74,1.94,14.81,8.48,29.13,19.15,39.42,10.7,10.23,25.68,15.6,40.71,15.61,15.02,0,30.22-4.97,41.87-14.59,5.79-4.79,10.68-10.71,13.49-17.53,2.88-6.73,3.26-14.49.99-21.44-2.21-6.94-7.52-12.86-14.63-14.52-6.92-1.84-15.17.03-19.47,5.82-.55.75-1.6.91-2.35.36-.74-.54-.9-1.59-.37-2.34,2.55-3.54,6.33-6.11,10.45-7.33,4.11-1.23,8.52-1.38,12.68-.39,4.18.9,8.17,3.09,11.25,6.11,3.06,3.03,5.36,6.77,6.78,10.78,2.86,7.99,2.63,17.01-.49,24.88-3.06,7.89-8.44,14.58-14.68,19.95-12.56,10.79-29.01,16.53-45.5,16.86-16.46.32-33.45-5.27-45.9-16.72-12.36-11.46-19.91-27.35-22.39-43.72-2.6-16.38-.2-33.63,6.49-48.76,6.59-15.22,16.76-28.6,28.8-39.66,6.03-5.53,12.48-10.62,19.39-14.98,6.82-4.52,14.09-8.31,21.55-11.63,29.89-13.2,64.1-16.73,96.21-9.13,32.15,7.76,61,27.83,79.98,54.86,2.47,3.31,4.55,6.9,6.76,10.4,1.94,3.65,4.11,7.2,5.74,11.02,3.66,7.45,6.26,15.39,8.47,23.4,4.04,16.18,4.98,33.15,2.61,49.56-2.11,16.48-7.36,32.32-14.28,47.19-7.16,14.77-16.04,28.66-26.6,41.15-21,25.06-47.63,45.15-77.35,58.73-14.85,6.8-30.57,11.75-46.64,14.94-16.1,3.02-32.65,4.11-49.03,3-32.73-2.3-65.01-12.8-92.41-31.24-27.61-18.22-49.3-44.9-62.9-74.73-13.6-29.9-20.02-62.82-18.95-95.47,1.07-32.74,9.7-64.82,23.88-93.88,14.08-29.15,33.56-55.36,56.4-77.83,5.73-5.6,11.69-10.96,17.84-16.07,6.08-5.18,12.5-10.07,19.29-14.45,6.78-4.38,14.02-8.22,21.74-10.88,7.72-2.65,15.96-3.95,24.1-3.52.93.05,1.64.84,1.59,1.77-.05.88-.76,1.57-1.63,1.59h-.03Z"/>
      </g>
      <g>
        <path class="cls-47" d="M1028.37,2502.08h1087.54c11.89,0,21.54,9.65,21.54,21.54v689.94H1005.58v-688.7c0-12.58,10.21-22.79,22.79-22.79Z"/>
        <rect class="cls-9" x="1038.94" y="2587.67" width="819.71" height="570.65" rx="8.67" ry="8.67"/>
        <path class="cls-2" d="M1896.78,2502.08h214.45c14.47,0,26.22,11.75,26.22,26.22v685.26h-240.67v-711.48h0Z"/>
        <rect class="cls-41" x="1822.91" y="2698.42" width="35.74" height="374.11" rx="5.32" ry="5.32"/>
        <rect class="cls-20" x="1913.46" y="2569.74" width="190.63" height="107.23" rx="9.15" ry="9.15"/>
        <circle class="cls-55" cx="2007.7" cy="3112.12" r="71.04"/>
        <circle class="cls-21" cx="2008.78" cy="3112.12" r="56.56"/>
        <g class="cls-22">
          <circle class="cls-64" cx="1973.16" cy="2754.7" r="21" transform="translate(-1369.95 2202.07) rotate(-45)"/>
          <circle class="cls-48" cx="2038.56" cy="2754.7" r="21" transform="translate(-1110.81 4105.83) rotate(-76.72)"/>
          <circle class="cls-43" cx="1973.16" cy="2827.38" r="21" transform="translate(-1421.34 2223.35) rotate(-45)"/>
          <circle class="cls-53" cx="2038.56" cy="2827.38" r="21" transform="translate(-1181.55 4161.81) rotate(-76.72)"/>
          <circle class="cls-37" cx="1974.35" cy="2904.82" r="21" transform="translate(-1475.75 2246.88) rotate(-45)"/>
          <circle class="cls-61" cx="2039.75" cy="2904.82" r="21" transform="translate(-1456.59 2293.13) rotate(-45)"/>
          <circle class="cls-38" cx="1977.86" cy="2979.89" r="21" transform="translate(-1376.73 4220.2) rotate(-76.72)"/>
          <circle class="cls-8" cx="2043.27" cy="2979.89" r="21" transform="translate(-1326.35 4283.86) rotate(-76.72)"/>
        </g>
        <g class="cls-63">
          <rect class="cls-19" x="1159.29" y="2217.69" width="37.53" height="1074.03" transform="translate(1535.18 -219.97) rotate(30)"/>
          <rect class="cls-18" x="1537.26" y="2348.46" width="37.53" height="1074.03" transform="translate(1651.2 -391.43) rotate(30)"/>
          <rect class="cls-17" x="1285.4" y="2319.7" width="102.46" height="1074.03" transform="translate(1607.43 -285.59) rotate(30)"/>
        </g>
      </g>
      <g>
        <path class="cls-26" d="M3058.69,2068.44c12.25-32.57,17.54-71.31,9.48-116.49,49.47-8.61,95.62-26.25,136.12-54.33,4.81,69.53-13.65,146.31-77.67,222.47h0c-31.08,36.97-72.89,73.79-128,109.57l-16.23,34.65-48.76-60.74s90.37-42.86,125.07-135.13Z"/>
        <g>
          <path class="cls-11" d="M2372.64,1765.87c49.99,8.75,93.75,2.22,132.42-12.13,1.02,8.59,2.47,17.22,4.47,25.91,8.45,38.02,20.08,74.84,36.4,108.78-74.91,11.07-142.56-10.66-192.99-36.59-.7-35.18,8.91-64.42,19.71-85.97Z"/>
          <path class="cls-3" d="M2505.06,1753.75c64.95-24.09,115.51-70.2,157.05-102.89,87.49-68.84,153.88-33.29,153.88-33.29l-95.32,180.26c-59.54,56.1-119.14,82.39-174.74,90.61-16.31-33.94-27.95-70.76-36.4-108.78-2-8.69-3.45-17.32-4.47-25.91Z"/>
          <path class="cls-42" d="M2185.37,1679.11l44.09,25.73c52.8,34.78,100.28,53.52,143.18,61.03-10.8,21.54-20.41,50.79-19.71,85.97-55.93-28.76-90.7-62.67-90.7-62.67-99.76-64.37-76.86-110.05-76.86-110.05Z"/>
        </g>
        <g>
          <path class="cls-30" d="M2685.07,2926.17l-359.77-1510.64-153.99,29.72,228.22,1536.03c.51,3.43,1.09,6.84,1.75,10.25l9.92,51.38c17.02,88.17,79.01,150.35,138.46,138.88l70.68-13.64c59.45-11.47,93.85-92.25,76.83-180.43l-9.92-51.38c-.66-3.4-1.39-6.79-2.19-10.16ZM2566.69,3080.09c-39.45,7.61-81.81-40.03-94.62-106.41-12.81-66.38,8.78-126.37,48.23-133.98,39.44-7.61,81.81,40.03,94.62,106.42,12.81,66.38-8.78,126.37-48.22,133.98Z"/>
          <path class="cls-62" d="M2302.47,879.96l57.54,298.15c4.1,21.23-1.89,43.16-16.21,59.36l-73.4,83.04c-20.95,23.7-55.24,30.32-83.5,16.12l-99.02-49.76c-19.32-9.71-33.04-27.83-37.13-49.06l-57.54-298.15c-8.68-44.97-66.66-59.47-94.63-23.2-66.93,86.75-97.65,202.78-74.76,321.41,41.38,214.41,237.03,329.64,443.27,289.84,206.24-39.8,344.96-219.57,303.58-433.98-22.9-118.63-94.59-214.89-188.99-270.51-39.46-23.25-87.88,11.78-79.2,56.75Z"/>
          <path class="cls-57" d="M2274.37,885.38l57.54,298.15c4.1,21.23-1.89,43.16-16.21,59.35l-73.4,83.04c-20.95,23.7-55.24,30.32-83.5,16.11l-99.03-49.76c-19.32-9.71-33.04-27.83-37.13-49.06l-57.54-298.15c-8.68-44.97-66.65-59.47-94.63-23.2-66.93,86.75-97.65,202.78-74.76,321.41,41.38,214.41,237.03,329.64,443.27,289.84,206.24-39.8,344.96-219.57,303.58-433.98-22.9-118.63-94.59-214.89-188.99-270.5-39.46-23.25-87.88,11.78-79.2,56.75Z"/>
          <path class="cls-39" d="M2662.66,2930.5l-359.77-1510.64-153.98,29.72,228.22,1536.03c.51,3.43,1.09,6.84,1.75,10.24l9.92,51.38c17.02,88.17,79.01,150.35,138.46,138.88l70.68-13.64c59.45-11.47,93.85-92.25,76.83-180.43l-9.92-51.38c-.66-3.4-1.39-6.79-2.19-10.16ZM2544.28,3084.41c-39.44,7.61-81.81-40.03-94.62-106.41-12.81-66.39,8.78-126.37,48.22-133.98,39.45-7.61,81.81,40.03,94.62,106.42,12.81,66.38-8.78,126.37-48.22,133.98Z"/>
        </g>
        <path class="cls-34" d="M2179.62,1745.61c-1.64-9.63,1.18-19.41,7.57-26.8,12.38-14.32,33.77-33.95,49.29-20.72,23.11,19.7-2.21,87.07-2.21,87.07l-25.62,39.13-.36,24.97c-13.86-16.23-22.15-56.16-28.66-103.65Z"/>
        <path class="cls-50" d="M2770.27,3197.56c0-1.07.09-2.15.39-3.24,17.37-63.76,98.33-102.15,98.33-102.15l31.74,3.09c17.21,56.81,14.21,91.4,10.98,106.77-.09.43-.23.84-.35,1.26-26.26,1.85-80.26,2.36-141.09-5.73Z"/>
        <path class="cls-51" d="M2911.35,3203.29c-1.51,5.12-5.39,9.06-10.28,10-37.44,7.14-96.6-.29-121.43-4.02-5.48-.82-9.4-5.98-9.38-11.71,60.83,8.09,114.82,7.58,141.09,5.73Z"/>
        <path class="cls-29" d="M2914.4,3048.16l-14.69,64.55c-1.08,4.73-4.79,8.22-9.22,8.55-5.42.41-13.13.56-20.85-.73-6.93-1.15-11.63-8.3-10.25-15.85l10.44-57.36,44.56.84Z"/>
        <path class="cls-51" d="M2632.57,3197.37c35.12-.32,53.35-4.11,62.81-7.77-.04,3.49-.13,7.04-.31,10.72-.19,3.93-3.17,7.01-6.75,6.92l-192.71-4.88c-6.15-.16-9.61-7.36-6.84-12.95,25.23,2.56,89.5,8.45,143.8,7.96Z"/>
        <path class="cls-50" d="M2488.78,3189.42c.24-.49.45-.98.79-1.44,17.47-23.46,61.72-70,147.77-88.92l41.12-.52s17.7,32.15,16.93,91.07c-9.46,3.66-27.69,7.45-62.81,7.77-54.29.49-118.57-5.39-143.8-7.96Z"/>
        <path class="cls-52" d="M2687.25,3036.39c-.51,3.06-7.03,49.51-9.55,67.52-.6,4.28-3.77,7.54-7.69,7.93-7.01.7-18.35,1.25-28.22-.97-5.32-1.2-9.1-6.4-8.98-12.37l1.38-73.08,53.07,10.97Z"/>
        <path class="cls-23" d="M2740,2161.6s-114.24,474.23-121.4,948.29c-.13,8.64,65.98,16.27,67.49,8.31,15.44-81.24,117.2-610.4,164.05-684.08,0,0-1.06,466.36-14.62,678.34-.34,5.27,59.62,22.54,72.14,9.09,0,0,84.49-516.14,87.96-840.04.18-16.68-29.93-119.91-29.93-119.91h-225.7Z"/>
        <path class="cls-36" d="M2655.49,1657.13c7.07-9.05-1.84,18.4,0,0h0Z"/>
        <path class="cls-24" d="M2655.49,1657.13c.17-1.71.43-3.81.81-6.38,124.97-86.64,309.78-38.1,381.42-27.7,23.49,3.41,44.81,15.43,59.99,33.68,36.5,43.89,99.16,133.79,106.57,240.9-40.5,28.08-86.65,45.72-136.12,54.33-4.12-23.12-11.73-47.91-23.71-74.44-1.37,6.13-3.05,12.2-5.05,18.16-53.83,159.95-81.91,251.29-82.38,282.16-.06,4.19-246.58-6.02-202.92-7.3,18.24-.53-84.99-364.7-138.93-429.33-3.2-3.84,47.39-93.12,40.32-84.07Z"/>
        <path class="cls-10" d="M2924.63,1491.54l10.4,131.87s-74.47,20.91-127.61-18.11l40.12-118.92,77.09,5.16Z"/>
        <g>
          <path class="cls-58" d="M2841.54,1339.89c-1.81,1.64-77.97,144.46-77.97,144.46l82.47,41.75,92.29-124.64s-66.43-89.1-96.79-61.57Z"/>
          <path class="cls-4" d="M2869.26,1370.46c18.5,2.71,28.29,23.14,32.18,33.8,1.41,3.87.97,8.15-1.22,11.64l-42.82,68.41c-.65,1.04-1.42,1.97-2.33,2.79-5.03,4.51-22.19,17.56-34.91-.9-10.85-15.73-21.03-30.04-32.12-36.08-6.48-3.52-14.58-.96-18.02,5.56-7.1,13.43-20.86,40.81-29.68,66.85-2.21,6.53,1.05,13.64,7.38,16.35,16.72,7.15,49.8,20.12,79.28,24.76,4.84.76,9.69-1.2,12.65-5.1,13.04-17.18,49.81-65.19,62.27-77.14,11.58-11.11,32.47-6.44,41.87-3.55,3.57,1.1,7.4.67,10.63-1.19,9.7-5.59,26.71-19.66,11.86-44.3-3.69-6.13-1.6-14.16,4.45-17.97,10.84-6.84,22.71-19.84,12.04-41.46-13.47-27.3-51.66-24.73-73.08-44.84-10.56-9.91-20.94-20.95-34.66-25.6-2.94-1-6.03-1.68-9.14-1.62-13.48.27-33.89,22.49-34.81,35.91-1.31,19.16,22.07,31.31,38.18,33.67Z"/>
          <path class="cls-7" d="M2885.85,1506.53s16.85-46.42,37.26-44.32c20.41,2.1,36.11,22.77,10.35,45.18-32.05,27.88-47.61-.86-47.61-.86Z"/>
        </g>
        <path class="cls-31" d="M3051.43,1865.6c28.33-73.23,20.24-162.45,20.16-163.34l-7.44.71c.08.88,8,88.39-19.69,159.93l6.97,2.7Z"/>
        <path class="cls-54" d="M2853.97,2424.59c1.66.03,3.2-1.05,3.67-2.73,8.82-31.55,71.03-65.22,71.65-65.56,1.82-.98,2.5-3.24,1.53-5.06-.98-1.82-3.23-2.51-5.06-1.53-2.67,1.43-65.65,35.53-75.32,70.14-.56,1.99.61,4.05,2.59,4.61.31.09.63.13.94.14Z"/>
        <path class="cls-5" d="M3031.36,1924.1l-91.98-138.57c-.66-.99-1.77-1.59-2.96-1.59h-168.4c-2.76,0-5.32,1.46-6.73,3.84l-80.04,135.44c-1.39,2.35-1.88,5.12-1.39,7.81,31.68,96.2,62.33,190.88,60.13,236.94,57.4,44.84,158.37,35.47,227.31,14.84,3.55-60.11,33.12-154.72,65.24-252.7.41-2.08-.02-4.25-1.19-6.02Z"/>
        <path class="cls-25" d="M3000.15,1618.16l-61.82,177.65h-37.2l54.97-184.99c.54-1.82,2.38-2.92,4.24-2.54l38.73,7.98c.86.18,1.37,1.07,1.08,1.9Z"/>
        <path class="cls-56" d="M2788.41,1605.66l15.18,185.23-34.33,4.21-29.22-184.67c-.21-1.34.75-2.57,2.1-2.7l43.97-4.02c1.18-.11,2.22.77,2.31,1.94Z"/>
        <g>
          <path class="cls-32" d="M2794.43,1349.04c73.4-138.65,263.65-12.69,175.11,104.11-65.83-43.77-140.22-108.84-175.11-104.11Z"/>
          <path class="cls-44" d="M2799.23,1334.09c-148.4-7.55-26.24,47.47,108.9,76.83-33.64-35.71-67.27-62.33-108.9-76.83Z"/>
        </g>
      </g>
    </g>
  </g>
</svg>