<?xml version="1.0" encoding="UTF-8"?>
<svg id="Layer_1" xmlns="http://www.w3.org/2000/svg" version="1.1" viewBox="0 0 950 450">
  <!-- Generator: Adobe Illustrator 29.7.1, SVG Export Plug-In . SVG Version: 2.1.1 Build 8)  -->
  <defs>
    <style>
      .st0 {
        fill: aqua;
      }
    </style>
  </defs>
  <polygon class="st0" points="319.16 271.22 318.9 272 288.22 349.93 287.26 350.44 287.64 349.37 318.35 271.36 319.16 271.22"/>
  <path class="st0" d="M350.13,116.65l.84.8.06.2,9.44,51.37c.86,4.67,1.91,9.47,3.02,14.56,4.58,20.94,9.77,44.66,1.69,64.25-1.36,3.29-2.87,6.12-4.52,8.57-2.69,4.13-6.03,7.59-10.01,10.3-7.97,5.44-17.1,5.46-25.93,5.47-2.03,0-4.14,0-6.16.08l-.02-.92h0c1.06-.04,2.11-.08,3.17-.11,14.52-.5,29.47-1.02,39.22-16.66,9.44-15.79,7.57-37.8,5.09-51.32l-15.91-86.58ZM367.18,205.92c-.59-3.89-1.32-7.76-2.1-11.58l1.59,8.68c.18.98.35,1.95.5,2.91Z"/>
  <polygon class="st0" points="418.65 26.05 418.93 26.96 418.78 27.24 350.74 118.36 350.18 117.83 350.44 117.4 418.65 26.05"/>
  <path class="st0" d="M417.98,26.21l.64.2,91.37,35.61-.13.91-.36-.09-2.12-.83c-29.65-11.55-59.29-23.1-88.94-34.66l-.16-.06-.32-1.08Z"/>
  <path class="st0" d="M509.56,60.28l.37,1.96,10.98,59.76c.24,1.3.47,2.63.7,3.98,2.51,13.66,5.04,27.42,7.56,41.05,3.11,16.78,9.74,29.7,18.68,36.39,5.65,4.22,12.07,5.87,18.9,4.9,5.17-.98,10.36-3.33,15.8-6.02l33.19-16.45c.68-.34,1.36-.68,2.04-1.01h0c.7-.35,1.41-.7,2.11-1.05l.23.87-4.15,2.06c-3.9,1.94-7.79,3.91-11.69,5.88-9.07,4.58-18.45,9.33-27.75,13.66-3.26,1.52-6.47,2.51-9.59,2.96-5.66,1.09-11.29.58-17.18-2.83-18.59-10.75-22.95-40.69-26.8-67.11-.66-4.56-1.3-8.93-1.99-13.08-1.73-9.41-3.44-18.77-5.13-28-2.18-11.9-4.36-23.8-6.55-35.69l-.02-.1.3-2.13ZM528.89,169.15c-.13-.63-.25-1.26-.37-1.89-1.27-6.84-2.54-13.72-3.8-20.6,1.14,7.56,2.43,15.22,4.17,22.48Z"/>
  <path class="st0" d="M620.04,183.72l.17.14,51.91,60.42h-1.03s-.14-.11-.14-.11l-1.65-1.92c-16.52-19.23-33.03-38.45-49.55-57.68l-.47-.55.77-.31Z"/>
  <polygon class="st0" points="670.89 243.37 671.57 243.37 671.54 243.91 659.6 335.34 658.96 335.02 658.96 334.62 670.89 243.37"/>
  <path class="st0" d="M659.29,334.21l.97.5-.81.45c-16.33,8.1-32.65,16.19-48.98,24.28l-14.29,7.08-.63-.67.54-.31,63.19-31.33Z"/>
  <path class="st0" d="M545.23,306.02c13.13,15.27,26.26,30.55,39.38,45.83l11.85,13.79s0,0,0,0l-.43.7c-10.84-12.59-21.66-25.2-32.49-37.81l-18.72-21.79s-.02-.02-.02-.03l.43-.7Z"/>
  <path class="st0" d="M514.61,231.3c.72,0,1.45.03,2.19.11,5.86.56,11.36,3.22,16.09,7.45,2.6,2.3,5,5.12,7.12,8.45,1.76,2.76,3.17,5.57,4.28,8.44,1.53,3.84,2.69,8.01,3.39,12.42,1.68,10.55.13,21.21-1.37,31.53-.33,2.27-.66,4.52-.95,6.77l-.1.74-.6-.62.02-.29.33-2.52c2.25-17.1,4.4-33.39-1.54-48.16-2.65-6.41-6.38-11.85-10.81-15.86-7-6.25-15.46-8.6-23.61-6.82-6.08,1.55-11.65,5.54-16.83,10.77-6.07,6.71-11.71,14.76-17.18,22.57-2.72,3.88-5.52,7.89-8.31,11.62l-1.4,1.87c-.04.06-.08.11-.12.17h0s0,.01,0,.01l-.47-.66h0s0,0,0-.01l.12-.17c2.62-3.53,5.26-7.41,8.05-11.52,5.84-8.58,12.05-17.72,18.95-24.68.58-.64,1.16-1.26,1.74-1.87,4.59-4.8,9.82-7.77,15.18-8.98,1.89-.49,3.82-.76,5.81-.76Z"/>
  <path class="st0" d="M443.8,274.01c6.98,0,14.19,2.39,21.26,5.14l.48.19-.45.78-.22-.08c-7.73-3.02-15.63-5.59-23.2-5.02-7.69.58-15.04,4.42-21.5,14.35-9.7,14.92-11.2,37.46-3.64,54.82l.3.68-.47.7-.25-.5c-7.9-18.05-6.55-40.56,3.35-56.02,6.77-10.57,14.49-14.51,22.56-14.99.59-.04,1.18-.05,1.77-.05Z"/>
  <path class="st0" d="M416.13,344.59l.59.44s0,0,0,0l-29.56,75.09c-.35.91-.72,1.83-1.08,2.73l-.59-.44c3.27-8.32,6.54-16.64,9.81-24.96,6.81-17.34,13.85-35.27,20.83-52.86h0Z"/>
  <path class="st0" d="M288.08,349.03l.2.3,6.43,14.42c9.06,20.33,18.11,40.65,27.17,60.98l.15.34-.56.63-34.02-76.34.63-.34Z"/>
  <polygon class="st0" points="386.5 422.11 385.98 423.05 385.79 423.1 320.58 425.51 321.43 424.56 321.58 424.51 386.5 422.11"/>
  <path class="st0" d="M418.44,26.34l.19.07,91.26,35.57.05.26c2.21,12.04,4.41,24.08,6.61,36.13,4.2,22.99,8.54,46.77,12.91,70.12,3.01,16.13,9.25,28.08,18.04,34.56,8.68,6.4,19.19,6.94,30.39,1.56,9.4-4.52,18.92-9.28,28.12-13.9,4.62-2.31,9.25-4.63,13.87-6.92l.18-.09.15.17,51.36,59.79-11.95,91.41-.18.09c-16.33,8.1-32.65,16.19-48.98,24.28l-14.29,7.09-.15-.17c-11.38-13.25-22.76-26.5-34.14-39.74l-17.22-20.04.32-2.47c2.7-20.56,5.26-39.97-5.88-56.83-12.03-18.2-32.49-19.89-46.58-3.83-6.52,7.44-12.67,16.07-18.61,24.42-2.85,4.01-5.79,8.15-8.73,12.08l-.14.18-.19-.07c-15.69-6.12-32.09-10.42-44.91,9.62-9.7,15.17-11.02,37.24-3.28,54.93l.1.22-30.8,78.27-64.62,2.39-.1-.23-33.71-75.65.09-.23,30.71-78.03,2.68-.09c17.15-.58,34.88-1.18,44.03-25.21,7.37-19.35,2.09-43.18-2.57-64.2-1.2-5.43-2.34-10.56-3.25-15.5l-8.95-48.74.14-.19,68-91.07ZM509.33,62.72l-90.71-35.36-67.59,90.51,8.86,48.23c.91,4.92,2.04,10.04,3.24,15.46,4.7,21.19,10.02,45.22,2.52,64.9-9.34,24.51-27.27,25.11-44.61,25.7l-2.29.08-30.44,77.33,33.41,74.97,63.85-2.36,30.44-77.34c-7.78-18-6.41-40.38,3.45-55.79,13.02-20.36,29.56-16.13,45.4-9.97,2.88-3.86,5.78-7.94,8.58-11.87,5.95-8.37,12.11-17.02,18.66-24.49,14.36-16.37,35.23-14.65,47.49,3.92,11.36,17.19,8.78,36.82,6.04,57.61l-.26,1.95,16.93,19.7c11.33,13.19,22.67,26.38,34,39.57l13.93-6.9c16.27-8.06,32.53-16.13,48.8-24.19l11.81-90.37-50.92-59.27c-4.57,2.27-9.13,4.55-13.69,6.84-9.21,4.61-18.73,9.38-28.13,13.9-11.39,5.47-22.08,4.91-30.93-1.62-8.96-6.61-15.31-18.76-18.37-35.14-4.36-23.35-8.7-47.13-12.91-70.12-2.19-11.96-4.37-23.92-6.57-35.87Z"/>
  <path class="st0" d="M418.45,26.39l.19.07,41.5,16.17c16.52,6.44,33.04,12.87,49.56,19.32l.19.07.05.26,10.98,59.75c.98,5.32,1.81,11.04,2.69,17.1,3.82,26.18,8.14,55.86,26.4,66.42,11.1,6.42,21.3,2.32,32.53-3.25l37.51-18.59.15.17,51.35,59.77-.03.26-11.91,91.13-63.44,31.45-.15-.17c-17.07-19.87-34.13-39.73-51.2-59.6l-.15-.17.03-.26c.29-2.25.62-4.51.95-6.77,1.49-10.23,3.03-20.8,1.38-31.16-3.15-19.81-15.6-34.62-30.27-36.03-17.75-1.7-31.35,18.27-43.33,35.89-2.84,4.18-5.53,8.13-8.2,11.72l-.14.18-.19-.07c-15.68-6.11-32.07-10.41-44.89,9.61-9.7,15.15-11.02,37.22-3.28,54.92l.1.22-.09.23c-6.73,17.25-13.64,34.74-20.31,51.66-3.44,8.7-6.87,17.41-10.3,26.12l-.09.23h-.19c-21.41.8-42.81,1.59-64.22,2.38h-.19s-.1-.22-.1-.22c-9.06-20.32-18.12-40.65-27.18-60.98l-6.53-14.65.09-.23,30.7-78.01h.19c2.03-.08,4.14-.09,6.18-.09,8.74-.02,17.79-.04,25.61-5.37,21.01-14.33,18.84-45.39,15.68-62.62l-15.73-85.63.14-.19c19.44-26.03,38.87-52.06,58.31-78.09l9.68-12.95ZM509.33,62.77c-16.46-6.42-32.91-12.83-49.37-19.24l-41.31-16.1-9.4,12.59c-19.39,25.97-38.78,51.93-58.17,77.9l15.64,85.12c5.55,30.22-.14,52.83-16.02,63.67-7.97,5.44-17.09,5.45-25.91,5.47-1.97,0-4.01,0-5.97.08l-30.43,77.31,6.33,14.2c9.02,20.25,18.05,40.5,27.07,60.75,21.28-.78,42.55-1.57,63.83-2.36,3.4-8.63,6.8-17.26,10.21-25.89,6.65-16.84,13.52-34.26,20.22-51.43-7.79-18-6.41-40.39,3.44-55.78,13.03-20.34,29.57-16.11,45.39-9.96,2.62-3.52,5.26-7.4,8.05-11.5,12.08-17.77,25.79-37.93,43.87-36.17,14.97,1.44,27.66,16.55,30.88,36.75,1.68,10.55.13,21.22-1.38,31.54-.32,2.17-.63,4.34-.92,6.49,16.97,19.75,33.94,39.5,50.91,59.26l62.72-31.09,11.81-90.35-50.91-59.26-37.14,18.41c-11.37,5.64-21.71,9.77-33.02,3.23-18.59-10.75-22.95-40.68-26.79-67.09-.88-6.05-1.71-11.76-2.69-17.06l-10.93-59.49Z"/>
  <path class="st0" d="M416.13,344.59l.59.42-.27.76c-.26.65-.53,1.3-.8,1.95l-.58-.45,1.06-2.68Z"/>
  <path class="st0" d="M440.75,103.51c8.18,0,16.48,3.95,23.77,11.8,12.21,13.14,21.01,37.76,13.16,63.14-5.97,19.29-22.14,35.03-39.34,38.29-17.12,3.23-29.15-8.88-33.84-34.14-4.14-22.24-2.38-52.07,14.96-69.11,6.4-6.66,13.79-9.98,21.28-9.98ZM433.1,216.33c1.66,0,3.38-.17,5.16-.5,16.97-3.21,32.93-18.73,38.81-37.73,7.71-24.93-.95-49.13-12.96-62.05-13.73-14.78-31.1-15.48-44.25-1.81h0c-17.07,16.77-18.79,46.19-14.71,68.14,4.12,22.12,13.95,33.96,27.95,33.96Z"/>
  <path class="st0" d="M440.58,84.27c9.6,0,19.39,3.82,28.39,11.55,17.6,15.1,32.01,46.79,24.52,83.54-5.6,27.48-29,47.56-48.38,54.6-11.36,4.13-23.18,7.42-32.64,3.56-12.09-4.93-15.65-23.68-18.52-38.75-5.72-30.12-9.38-68.25,13.23-96.67h0c9.58-11.81,21.34-17.82,33.39-17.82ZM421.97,238.3c7.25,0,15.21-2.43,22.97-5.24,19.2-6.97,42.38-26.82,47.91-53.96,7.39-36.29-6.84-67.58-24.23-82.5-20.05-17.19-43.98-14.78-60.98,6.18-22.34,28.09-18.71,65.89-13.04,95.68,2.84,14.92,6.35,33.39,18.07,38.17,2.9,1.18,6.03,1.68,9.3,1.68Z"/>
  <path class="st0" d="M365.17,318.14l.56.26.06.1c1.2,2.01,2.45,4,3.72,5.91l.08.12v.16c.1,2.43.22,4.96.37,7.51v.1s-.02.09-.02.09c-1.59,6.23-3.08,10.79-5.94,15.68l-.07.09c-1.83,1.72-3.79,3.29-5.85,4.66l-.07.05h-.08c-1.85-.04-3.72-.24-5.55-.61l-.12-.06-2.35-1.97c-1.26-2.02-2.32-4.24-3.16-6.58l-.04-.11v-.12c.1-2.75.25-5.54.45-8.28l.03-.16c1.46-4.14,3.76-8.29,6.48-11.7l.07-.06c1.22-.91,2.49-1.77,3.72-2.6.74-.5,1.47-.99,2.2-1.5l.11-.05c1.76-.26,3.55-.57,5.32-.92l.08-.02ZM365.33,319.19l-.23-.11c-1.74.34-3.49.64-5.2.9-.71.5-1.43.98-2.15,1.47-1.21.82-2.47,1.66-3.66,2.56-2.63,3.3-4.85,7.31-6.27,11.31-.19,2.66-.33,5.36-.43,8.04.8,2.21,1.81,4.31,2.99,6.23l2.17,1.79c1.75.35,3.54.54,5.31.58,1.98-1.33,3.88-2.84,5.65-4.5,2.77-4.74,4.22-9.2,5.78-15.26-.14-2.48-.26-4.92-.35-7.28-1.23-1.85-2.44-3.78-3.6-5.72Z"/>
  <path class="st0" d="M440.73,69.97c6.69,0,13.51,1.54,20.17,4.67,17.35,8.14,30.8,25.53,36.9,47.7,8.59,31.18,9.75,55.3,3.46,71.7-8.13,21.19-31.16,38.67-38.03,43.52-13.43,9.5-29.67,13.58-45.37,17.52-3.49.88-6.79,1.71-10.05,2.59h-.05s-.05,0-.05,0c-1.44-.16-2.89-.01-4.31.43l-.1.03-.09-.04c-1.46-.71-2.99-1.13-4.53-1.26h-.09s-1.62-1.52-1.62-1.52c-.87-1.81-1.87-3.52-2.97-5.07l-.06-.12c-3.13-8.85-4.41-19.44-5.65-29.68-.49-4.07-.96-7.92-1.54-11.65-.38-2.43-.76-4.86-1.14-7.29-2.05-13.05-4.18-26.54-5.12-40.02-2.17-30.98,7.85-57.22,30.62-80.2l.02-.02c8.85-7.49,19.07-11.31,29.59-11.31ZM407.73,256.76c3.25-.88,6.54-1.71,10.02-2.58,15.65-3.93,31.84-8,45.19-17.44,6.82-4.82,29.7-22.18,37.74-43.13,6.2-16.15,5.02-40.02-3.49-70.94-6.04-21.91-19.34-39.1-36.5-47.16-16.94-7.95-34.87-5.57-49.18,6.54-22.55,22.77-32.48,48.73-30.34,79.36.94,13.42,3.06,26.88,5.11,39.91.38,2.44.77,4.86,1.14,7.29.58,3.75,1.05,7.61,1.54,11.69,1.23,10.15,2.5,20.64,5.57,29.36,1.1,1.56,2.1,3.26,2.97,5.07l1.32,1.2c1.54.14,3.07.56,4.53,1.26,1.44-.45,2.91-.59,4.38-.43Z"/>
  <path class="st0" d="M605.4,233.63c7.58,0,15.07,3.1,21.14,9.21,9.17,9.23,13.13,23.79,10.85,39.94-2.44,17.34-11.29,29.37-23.66,32.17-13.74,3.1-27.57-5.93-34.42-22.51-4.34-10.5-5.63-22.93-3.45-33.23,1.79-8.46,5.78-15.15,11.53-19.32,5.57-4.19,11.82-6.26,18.01-6.26ZM608.34,314.64c1.75,0,3.52-.2,5.29-.59,12.08-2.74,20.72-14.49,23.11-31.44,2.22-15.79-1.64-30.01-10.59-39.03-10.81-10.88-26.25-12.04-38.43-2.88h0c-5.59,4.06-9.46,10.55-11.2,18.77-2.13,10.07-.87,22.23,3.39,32.52,5.83,14.11,16.83,22.65,28.44,22.65Z"/>
  <path class="st0" d="M436.19,59.62c10.53,0,21.17,4.03,30.94,8.63,19.81,9.32,31.2,26.06,38.09,55.95l.05.23c4.66,20.21,12.46,54.03,4.35,74.38-3.66,9.2-10.4,15.36-16.91,21.32-2.08,1.91-4.05,3.71-5.91,5.6-1.67,1.7-3.34,3.45-5.01,5.2-6.17,6.48-12.55,13.19-19.71,17.58-6.08,3.73-12.7,5.4-19.1,7.02-3.77.95-7.66,1.94-11.39,3.33-7.69,2.87-15.3,7.42-23.95,14.31l-2.11,2.65-.16.1c-.76.8-1.61,1.59-2.48,2.33l-1.18,2.09-.9.77c-.52,1.16-1.18,2.17-1.97,3.01l-.87,2.24-.85,1.07c-.37,1.31-.92,2.5-1.62,3.55-.6,2.93-1.44,5.77-2.48,8.46-1.18,6.02-2.1,12.77-3.07,19.92-3.89,28.51-8.31,60.82-33.04,64.98-12.84,2.17-23.2-5.16-28.43-20.08-6.11-17.43-3.19-39.37,7.11-53.36,6.26-8.51,14.54-14.77,22.54-20.83,4.72-3.57,9.59-7.26,13.88-11.3l2.03-3.67,2.17-2.81,1.22-3.65.13-.2c.46-1.08,1.03-2.23,1.62-3.28l.4-2.42.63-1.47c.19-1.4.4-2.81.63-4.21.28-1.37.59-2.72.93-4.05,1.98-19.35-.91-39.6-3.69-59.18-4.75-33.34-9.23-64.83,8.06-93.06,8.74-14.26,17.7-25.23,26.64-32.6h0c7.45-6.21,15.4-8.55,23.42-8.55ZM405.22,275.04l2.04-2.58c8.76-6.99,16.41-11.57,24.17-14.46,3.76-1.4,7.67-2.39,11.45-3.35,6.36-1.61,12.94-3.28,18.95-6.96,7.09-4.35,13.44-11.02,19.58-17.47,1.67-1.76,3.34-3.51,5.02-5.21,1.88-1.9,3.85-3.71,5.94-5.62,6.44-5.9,13.11-12.01,16.69-21,7.97-19.99.22-53.58-4.41-73.65l-.05-.23c-6.82-29.59-18.09-46.15-37.67-55.37-17.07-8.03-36.8-14.32-53.79-.16h0c-8.88,7.32-17.78,18.22-26.47,32.41-17.08,27.89-12.63,59.17-7.91,92.29,2.8,19.66,5.69,39.98,3.68,59.58-.35,1.39-.66,2.73-.93,4.05-.23,1.39-.44,2.82-.63,4.23l-.04.15-.63,1.48-.43,2.5c-.59,1.04-1.16,2.19-1.65,3.33l-.13.22-1.25,3.71-2.37,3.13-1.91,3.47c-4.33,4.09-9.24,7.8-13.98,11.39-7.96,6.02-16.2,12.26-22.39,20.67-10.1,13.72-12.97,35.23-6.97,52.3,5.1,14.54,15.22,21.67,27.75,19.56,24.25-4.08,28.61-36.04,32.46-64.24.98-7.16,1.9-13.93,3.11-20.09,1.06-2.76,1.89-5.58,2.48-8.48l.08-.19c.69-1,1.22-2.15,1.57-3.43l.09-.18.86-1.09.91-2.29c.77-.8,1.41-1.77,1.9-2.9l.11-.15.91-.79,1.19-2.09c.87-.73,1.73-1.53,2.55-2.38l.17-.11Z"/>
  <path class="st0" d="M609.25,217.84h.02c14.38.72,27.17,11.94,34.21,30,7.26,18.62,6.94,41.05-.83,58.52-6.71,15.09-17.55,23.82-30.52,24.59-15.14.95-30.78-9.45-39.84-26.37-8.02-14.98-12.37-43.39-6.05-61.81,1.09-1.95,2.2-3.81,3.36-5.61,10.72-11,25.15-18.02,39.63-19.32h.02ZM610.3,330.09c.6,0,1.2-.02,1.8-.05,12.74-.75,23.39-9.33,29.98-24.15,7.64-17.19,7.95-39.27.81-57.6-6.92-17.77-19.49-28.8-33.63-29.52-14.35,1.3-28.64,8.25-39.2,19.08-1.1,1.72-2.2,3.56-3.24,5.41-6.18,18.04-1.89,46.02,6.02,60.79,8.57,16.01,23.11,26.05,37.47,26.05Z"/>
  <path class="st0" d="M432.86,51.28c.67,0,1.35.02,2.04.07,12.85.93,26.01,6.52,37.18,11.88,13.21,6.33,23.28,13.67,29.5,28.91,6.04,14.82,9.05,32.12,11.96,48.86l.41,2.35c3.1,17.79,6.6,37.95,4.43,56.49l-.03.13c-.75,2.19-1.58,4.36-2.47,6.47-4.52,6.76-10.54,11.38-16.36,15.84-3.43,2.63-6.98,5.35-10.13,8.45-2.66,2.61-5.29,5.52-7.84,8.33-5.8,6.4-11.8,13.02-18.74,16.99-5.46,3.13-11.38,4.19-17.1,5.22-4.52.81-9.2,1.65-13.61,3.51-8.11,3.41-15.27,9.27-23.21,19-.51,1.19-1.12,2.28-1.81,3.26-.48,1.23-1.1,2.34-1.85,3.3-4.32,11.21-5.5,22.61-6.75,34.68-.81,7.89-1.66,16.04-3.46,24.1-2.25,10.04-11.31,43.26-33.59,49.15-17.56,4.64-33.01-4.53-41.35-24.54-8.88-21.31-6.58-48.64,5.72-68.01,5.53-8.71,13.34-13.58,20.89-18.29,8.5-5.3,17.28-10.77,22.65-21.74.57-1.14,1.25-2.26,1.98-3.25.41-1.25.86-2.51,1.34-3.74.5-1.24,1.04-2.44,1.59-3.58,5.98-21.58,1.92-45.29-2-68.22-4.59-26.79-9.33-54.49,2.58-78.13,6.36-12.63,14.73-23.31,22.82-33.64l1.87-2.38c10.81-12.14,20.22-21.49,33.34-21.49ZM517.73,199.63c2.14-18.34-1.35-38.38-4.43-56.07l-.41-2.36c-2.9-16.67-5.9-33.91-11.89-48.62-6.11-15-16.07-22.24-29.13-28.49-11.13-5.33-24.23-10.91-37-11.83-14-1-23.29,8.15-34.91,21.2l-1.84,2.35c-8.07,10.29-16.41,20.94-22.73,33.48-11.74,23.3-7.24,49.57-2.48,77.39,3.95,23.06,8.03,46.91,1.94,68.85-.58,1.21-1.1,2.39-1.59,3.6-.47,1.23-.92,2.5-1.34,3.75l-.07.14c-.71.97-1.38,2.07-1.94,3.18-5.48,11.18-14.35,16.71-22.93,22.06-7.49,4.67-15.23,9.49-20.66,18.05-12.11,19.08-14.38,45.99-5.64,66.95,8.19,19.65,23.37,28.65,40.64,24.09,21.91-5.79,30.86-38.6,33.08-48.51,1.79-7.99,2.63-16.11,3.44-23.96,1.2-11.64,2.44-23.68,6.85-35.05l.07-.12c.72-.92,1.32-1.99,1.78-3.17l.06-.11c.68-.95,1.28-2.02,1.77-3.18l.07-.11c8.03-9.85,15.28-15.79,23.5-19.25,4.46-1.88,9.17-2.72,13.72-3.54,5.68-1.02,11.55-2.07,16.93-5.15,6.84-3.92,12.81-10.5,18.57-16.86,2.56-2.82,5.2-5.74,7.87-8.36,3.17-3.12,6.74-5.86,10.19-8.5,5.78-4.43,11.75-9.01,16.15-15.58.83-1.98,1.64-4.12,2.38-6.26Z"/>
  <path class="st0" d="M609.83,209.06c9.43,0,18.45,4.3,28.07,15.36,15.77,18.13,20.48,37.12,16.27,65.55-3.69,24.9-13.53,39.17-32.91,47.7-17.49,7.69-30.93,3.1-46.39-15.87-13.65-16.74-15.45-34.94-17.54-56.01-.54-5.49-1.11-11.17-1.9-17.08v-.06s0-.06,0-.06c.15-2.91.22-5.87.22-8.79l.03-.2c.76-2.19,1.57-4.42,2.4-6.61l.04-.11.08-.07c1.46-1.26,2.86-2.69,4.14-4.27l.1-.08c1.54-.84,3.08-1.68,4.61-2.53,6.19-3.4,12.59-6.92,19.07-9.96,8.49-4.2,16.23-6.92,23.72-6.92ZM606.24,340.28c4.68,0,9.57-1.18,14.82-3.5,19.11-8.41,28.82-22.47,32.46-47,4.16-28.05-.49-46.78-16.04-64.66-17-19.55-32.17-17.66-51.14-8.28h0c-6.46,3.04-12.86,6.55-19.04,9.94-1.52.83-3.04,1.67-4.56,2.49-1.27,1.56-2.66,2.99-4.11,4.24-.8,2.12-1.58,4.26-2.32,6.37,0,2.89-.08,5.81-.22,8.69.8,5.91,1.36,11.58,1.9,17.07,2.07,20.89,3.86,38.93,17.33,55.45,10.61,13.01,20.25,19.18,30.93,19.18Z"/>
  <path class="st0" d="M430.23,44.7c.67,0,1.35.03,2.04.09,13.9,1.22,28.45,7.78,41.28,13.57,14.81,6.67,26.57,13.31,32.75,32.91,4.69,14.85,7.56,31.03,10.33,46.67l.72,4.05c3.1,17.41,5.79,36.16,8.47,59v.08s0,.08,0,.08c-.37,2.74-.83,5.48-1.38,8.16l-.03.13-.08.09c-1.28,1.5-2.48,3.16-3.56,4.93l-.06.1-.08.04c-1.57.77-3.05,1.83-4.4,3.15l-.1.06c-11.26,4.75-22,12.84-31.92,24.05-11.54,13.04-20.36,21.74-37.18,23.72-27.03,3.19-42.62,25.7-43.92,63.37-.65,18.88-5.22,37.94-12.54,52.29-8.48,16.62-19.95,26.03-33.17,27.21-12.82,1.15-27.41-.25-38.44-19.26-11.27-19.43-15.22-37.69-11.73-54.29,4.85-23.03,14.61-41.13,26.13-48.4,2.96-1.87,6.08-3.53,9.09-5.14,10.37-5.54,21.1-11.26,26.74-26.16,10.54-22.3,5.2-48.01.04-72.88-5.42-26.12-11.03-53.12,1.67-76.24,6.6-12.01,14.79-22.64,22.71-32.91l1.51-1.94c10.18-13.06,20.69-26.55,35.08-26.55ZM525.15,201.06c-2.67-22.78-5.36-41.48-8.45-58.85l-.72-4.05c-2.77-15.61-5.63-31.75-10.29-46.52-6.07-19.24-17.7-25.79-32.27-32.36-12.87-5.81-27.38-12.35-41.19-13.56-.67-.06-1.34-.09-1.99-.09-14.14,0-24.55,13.36-34.64,26.3l-1.51,1.93c-7.9,10.25-16.08,20.84-22.64,32.79-12.49,22.75-6.93,49.54-1.56,75.44,5.2,25.06,10.58,50.98-.1,73.59-5.74,15.16-16.59,20.95-27.08,26.55-3.01,1.61-6.12,3.27-9.05,5.12-11.35,7.16-20.98,25.04-25.77,47.82-3.43,16.29.48,34.28,11.61,53.46,10.84,18.68,25.23,20.05,37.87,18.92,27.91-2.49,43.81-41.44,45.09-78.63,1.32-38.19,17.13-61.01,44.53-64.25,16.62-1.96,25.37-10.59,36.81-23.52,9.97-11.27,20.77-19.41,32.09-24.2,1.37-1.33,2.86-2.39,4.43-3.18,1.07-1.74,2.24-3.37,3.5-4.86.52-2.58.97-5.23,1.33-7.86Z"/>
  <path class="st0" d="M612.83,199.98c.82,0,1.63.04,2.46.11,10.52.99,20.07,12.79,27.74,22.27.64.79,1.27,1.57,1.89,2.33,8.9,10.9,16.28,21.31,16.33,38.39.04,14.73-2.28,32.61-6.22,47.85-3.66,14.18-10.63,20.62-21.42,26.96l-1.14.67c-9.46,5.57-21.24,12.5-31.57,11.32-10.52-1.2-20.02-12.75-27.65-22.03-.67-.81-1.33-1.61-1.97-2.39-8.67-10.44-15.93-20.63-17.04-39.65-.97-16.57-2.27-32.65-7.51-47.24l-.03-.16c-.23-3.72-.76-7.45-1.27-11.05l-.05-.33,3.31-2.44,1.48-2,2.47-.04,3.73-1.72h.07s.01.47.01.47v-.46h.03c9.57,0,18.93-5.28,27.98-10.38,9.15-5.16,18.58-10.48,28.36-10.48ZM603.29,349.1c9.59,0,20.24-6.27,28.92-11.38l1.14-.67c10.62-6.24,17.47-12.56,21.05-26.42,3.91-15.14,6.22-32.91,6.18-47.54-.05-16.7-7.32-26.96-16.1-37.71-.62-.76-1.25-1.54-1.9-2.33-7.6-9.38-17.05-21.07-27.34-22.04-10.52-.98-20.68,4.75-30.52,10.3-9.11,5.14-18.54,10.45-28.24,10.45h-.03s-3.75,1.71-3.75,1.71l-2.26.04-1.4,1.86-2.92,2.15c.49,3.5,1,7.11,1.23,10.73,5.26,14.72,6.57,30.87,7.55,47.5,1,17.07,6.45,26.53,16.82,39.03.65.78,1.31,1.58,1.98,2.4,7.56,9.19,16.96,20.62,27.26,21.8.77.09,1.55.13,2.33.13Z"/>
  <path class="st0" d="M429.03,39.86c2.07,0,4.27.27,6.65.83,14.15,3.34,28.45,9.46,41.08,14.86,16.26,6.95,27.35,13.2,33.15,35.69,4.52,17.53,7.65,35.75,10.67,53.38.79,4.61,1.47,9.31,2.18,14.3,2.03,14.15,4.13,28.77,8.96,40.78l.04.13c.69,4.51,1.83,8.92,2.94,13.05l.06.21-.09.19c-.97,2.14-1.92,4.32-2.82,6.48l-.1.24-2.19-.05c-1.25.65-2.51,1.28-3.77,1.88l-.12.12-3.32.14-2.59,1.16-1.01-.04-.63.2c-8.31,2.68-16.16,5.21-23.5,11.68-4.64,4.09-8.79,9.27-12.8,14.28-2.92,3.64-5.93,7.4-9.12,10.73-7.6,7.94-16.49,8.9-25.1,9.83-8.64.93-17.58,1.9-25.4,9.84-6.83,6.93-11.49,15.86-13.85,26.55-1.65,7.47-1.47,15.1-1.29,22.48.13,5.5.27,11.19-.35,16.82-2.35,21.67-17.11,58.95-32.69,66.04-19.42,8.84-45.36,6.35-57.37-15.49-13.77-25.05-20.41-46.04-11.02-73.23l.67-1.94c3.78-11,8.5-24.69,15.2-32.91,4.84-5.93,11.17-8.09,17.28-10.17,3.45-1.18,7.03-2.4,10.26-4.28,16.45-9.6,25.42-32.19,22.86-57.54-1.28-12.68-3.65-25.34-5.94-37.59-2.27-12.13-4.62-24.68-5.92-37.29-2.73-26.42,10.91-43.93,24.1-60.87,1.63-2.09,3.25-4.18,4.83-6.26,1.47-1.95,2.97-3.86,4.46-5.77,1.91-2.44,3.88-4.96,5.76-7.51l.02-.03,1.6-1.82c9.45-10.83,16.68-19.11,28.22-19.11ZM531.11,200.09c-4.85-12.12-6.96-26.8-9-40.99-.72-4.98-1.39-9.68-2.18-14.27-3.02-17.6-6.15-35.79-10.65-53.28-5.69-22.09-16.65-28.24-32.72-35.12-12.6-5.39-26.89-11.5-40.99-14.83-15.37-3.64-23.33,5.47-34.33,18.08l-1.59,1.81c-1.89,2.56-3.86,5.08-5.77,7.51-1.49,1.91-2.98,3.82-4.45,5.76-1.58,2.09-3.2,4.17-4.84,6.27-13.06,16.78-26.57,34.12-23.89,60.07,1.3,12.56,3.64,25.08,5.91,37.19,2.3,12.27,4.67,24.96,5.96,37.69,2.6,25.77-6.53,48.74-23.27,58.51-3.28,1.91-6.88,3.14-10.36,4.33-6.04,2.06-12.28,4.19-17,9.97-6.61,8.09-11.29,21.69-15.04,32.61l-.67,1.94c-9.24,26.78-2.66,47.51,10.95,72.29,11.82,21.51,37.43,23.91,56.62,15.18,15.1-6.88,29.97-44.35,32.24-65.3.6-5.55.47-11.2.34-16.66-.18-7.46-.36-15.17,1.32-22.78,2.41-10.88,7.15-19.98,14.1-27.03,7.98-8.09,17.01-9.07,25.75-10.01,8.9-.96,17.31-1.87,24.75-9.65,3.16-3.3,6.17-7.06,9.07-10.68,4.04-5.04,8.21-10.25,12.89-14.38,7.44-6.56,15.34-9.11,23.71-11.8l.72-.23.98.05,2.62-1.16,3.22-.17c1.33-.65,2.61-1.29,3.87-1.94l.06-.03,1.92.05c.85-2.03,1.74-4.07,2.65-6.08-1.1-4.08-2.21-8.43-2.9-12.9Z"/>
  <path class="st0" d="M425.77,34.35c7.9,0,17.02,4.12,24.75,7.61,2.78,1.25,5.4,2.44,7.72,3.32,2.43.92,4.89,1.83,7.35,2.74,10.37,3.83,21.09,7.78,30.97,13.51,12.22,7.08,15.26,24.24,18.21,40.84.47,2.63.95,5.34,1.45,7.93,2.94,15.04,5.68,30.41,8.33,45.28l1.49,8.37c3.03,16.95,6.79,38.04,18.87,47.56,1.12.36,2.2.86,3.22,1.49l1.93.18,1.4.75c1.09.13,2.18.42,3.25.85l3.23-.34.33.09c10.77,1.88,22.14-4.35,33.15-10.36,7.94-4.34,16.16-8.83,23.98-10.12,1.68.17,3.31.43,4.93.79,7.94,4.54,14.69,12.54,21.22,20.27.84,1,1.68,1.99,2.52,2.97,1,1.17,2.03,2.35,3.08,3.55,6.08,6.96,12.98,14.86,16.75,24.54l.03.11c.39,2.19.76,4.43,1.11,6.67-.04,18.43-1.5,52.39-10.75,73.93-5.48,8.56-14.3,12.8-22.09,16.55-1.38.66-2.73,1.31-4.03,1.97l-1.58.8c-8.17,4.15-16.63,8.43-25.28,9.93-1.67-.16-3.32-.38-4.95-.66l-.08-.03c-15.09-8.28-35.15-31.33-43.78-50.35l-.04-.11c-.46-2.11-.91-4.22-1.36-6.33-.13-2.79-.2-5.66-.28-8.69-.56-21.91-1.26-49.17-17.04-58.45l-.74-.22-2.37-1.72c-1.07-.34-2.13-.79-3.16-1.35-1.17,0-2.32-.05-3.46-.17l-.36.09-2.93-.75c-1.17.19-2.36.36-3.53.52-14.45-1.28-23.46,10.62-33.03,23.19-5.21,6.84-10.59,13.91-16.87,18.54-5.32,3.93-11.66,3.4-17.78,2.9-5.01-.41-10.18-.84-14.88,1.1-9.51,3.94-17.25,12.75-21.78,24.83-3.96,10.53-3.42,20.03-2.84,30.08.27,4.82.56,9.81.36,15.1-.44,11.53-5.72,23.6-10.38,34.25-1.07,2.44-2.07,4.74-2.99,6.96-.53,1.3-1.06,2.61-1.6,3.93-4.91,12.17-9.98,24.74-20.31,28.16-9.63,3.18-20.8,2.9-30.66,2.65l-1.06-.03c-17.04-.43-23.62-8.28-31.92-25.71-.88-1.84-1.84-3.8-2.86-5.84-6.3-12.73-14.15-28.58-13.07-42.92,4.7-21.69,14.29-51.48,25.87-64.31,4.64-3.98,10.15-5.23,15.48-6.44,4.34-.98,8.83-2,12.82-4.46,7.67-4.73,13.84-12.8,17.37-22.72,6.95-19.55,2.14-42.81-2.11-63.33-1.11-5.37-2.16-10.45-3.02-15.43-.53-3.09-1.16-6.3-1.83-9.69-2.47-12.61-5.28-26.9-3.51-39.16,3.39-11.52,11.2-21.53,18.1-30.36,1.85-2.38,3.61-4.62,5.24-6.84,8.9-12.1,16.94-22.66,24.6-32.28h0c4.69-5.92,8.92-10.35,13.3-13.95,2.39-1.26,5.05-1.79,7.87-1.79ZM549.88,214.07l-1.95-.19c-1.01-.63-2.09-1.13-3.2-1.48l-.09-.05c-12.36-9.69-16.17-31.02-19.23-48.17l-1.49-8.37c-2.65-14.86-5.39-30.23-8.33-45.26-.51-2.6-.99-5.32-1.46-7.95-2.9-16.37-5.91-33.3-17.82-40.21-9.85-5.7-20.54-9.65-30.89-13.47-2.46-.91-4.92-1.82-7.35-2.74-2.33-.88-4.96-2.07-7.75-3.33-10.39-4.68-23.31-10.53-32.12-5.87-4.29,3.53-8.48,7.93-13.14,13.8h0c-7.65,9.61-15.69,20.16-24.58,32.25-1.64,2.23-3.4,4.48-5.25,6.86-6.84,8.77-14.59,18.7-17.91,29.95-1.72,11.97,1.06,26.15,3.51,38.66.67,3.4,1.3,6.61,1.83,9.72.85,4.96,1.9,10.03,3.01,15.39,4.28,20.68,9.13,44.12,2.06,63.99-3.59,10.11-9.88,18.33-17.69,23.15-4.07,2.51-8.6,3.54-12.98,4.53-5.27,1.19-10.71,2.43-15.21,6.28-11.43,12.66-20.94,42.26-25.6,63.74-1.04,13.92,6.73,29.61,12.97,42.22,1.02,2.05,1.99,4.01,2.86,5.86,8.32,17.49,14.52,24.87,31.37,25.29l1.06.03c9.82.25,20.94.53,30.49-2.62,10.05-3.32,15.05-15.72,19.89-27.72.53-1.32,1.07-2.64,1.6-3.94.92-2.23,1.93-4.54,3-6.98,4.62-10.56,9.85-22.53,10.28-33.83.2-5.23-.08-10.19-.36-14.99-.58-10.19-1.13-19.82,2.92-30.58,4.62-12.3,12.5-21.28,22.18-25.29,4.81-1.99,10.05-1.56,15.11-1.14,6.31.53,12.27,1.02,17.43-2.79,6.2-4.57,11.55-11.6,16.72-18.39,8.81-11.58,17.92-23.53,31.44-23.53.67,0,1.35.03,2.04.09,1.14-.15,2.33-.33,3.51-.52h.05s2.91.74,2.91.74l.32-.07c1.22.11,2.38.16,3.55.16l.12.03c1.03.57,2.09,1.02,3.17,1.36l.08.04,2.37,1.72.67.19c16.23,9.54,16.97,38.3,17.51,59.29.08,3.03.15,5.89.26,8.57.43,1.99.87,4.07,1.33,6.16,8.58,18.85,28.43,41.68,43.4,49.91,1.61.27,3.22.49,4.8.65,8.51-1.49,16.93-5.75,25.07-9.88l1.58-.8c1.3-.66,2.66-1.31,4.04-1.97,7.71-3.71,16.45-7.91,21.78-16.22,9.12-21.29,10.57-55.07,10.62-73.3-.34-2.11-.71-4.33-1.09-6.49-3.71-9.5-10.54-17.31-16.56-24.21-1.05-1.2-2.09-2.39-3.09-3.56-.83-.98-1.67-1.97-2.52-2.97-6.49-7.68-13.21-15.63-20.97-20.09-1.52-.32-3.14-.58-4.73-.75-7.67,1.27-15.84,5.74-23.75,10.06-11.08,6.06-22.54,12.32-33.5,10.42l-.27-.07-3.26.34-.06-.03c-1.06-.43-2.15-.72-3.23-.84l-.09-.03-1.4-.75Z"/>
  <path class="st0" d="M420.24,30.81h.09c11.43,1.16,23.02,6.09,34.22,10.86,3.35,1.42,6.81,2.89,10.14,4.21,3.28,1.29,6.7,2.53,10.01,3.72,10.83,3.91,22.03,7.95,31.81,15.07l.11.13c4.83,8.78,6.89,21.3,8.7,32.34.53,3.2,1.02,6.23,1.57,9.14,2.49,13.16,4.91,26.34,7.2,39.19.46,2.58.9,5.18,1.34,7.78,3.68,21.81,7.49,44.35,23.48,55.44,1.18.31,2.35.72,3.48,1.22l1.19.31c1.84.49,3.74.99,5.62,1.32,12.55-.45,25.07-6.8,37.19-12.95,6.27-3.18,12.76-6.47,19.1-8.85l.05-.02h.05c1.59.07,3.22.11,4.81.1l.16.05c15.57,11.35,34.66,33.6,46.43,54.1l.06.18c.37,2.18.71,4.36,1.05,6.55v.06s0,.07,0,.07c-1.31,21.85-3.29,54.86-10.84,78.74l-.07.14c-1.14,1.56-2.34,3.13-3.55,4.64l-.08.07c-15.36,10.53-33.52,19.53-52.5,26.04h-.08c-1.58,0-3.21,0-4.85.03h-.08s-.07-.05-.07-.05c-14.3-10.09-31.69-30.14-46.52-53.64l-.07-.18c-.42-2.11-.84-4.22-1.24-6.34v-.07s-.01-.07-.01-.07c.85-23.54,2.02-55.77-18.16-66.11-.96-.44-1.92-.92-2.89-1.4-1.2-.59-2.44-1.21-3.67-1.74l-2.98-.1c-1.33-.31-2.67-.58-4.02-.81-12.17,1.98-20.2,6.94-28.57,17.67-1.76,2.25-3.6,4.96-5.56,7.83-5.92,8.68-12.63,18.51-20.1,20.54h-.05s-.05,0-.05,0c-1.7-.21-3.37-.44-5.03-.67-14-1.94-26.09-3.62-37.2,12.47-9.41,13.64-12.03,34.89-6.66,54.14l.02.15c.27,10.52-5.01,22.36-9.67,32.81-1.3,2.91-2.53,5.66-3.54,8.19-1.01,2.53-2.04,5.39-3.12,8.42-3.59,10.06-7.66,21.47-13.66,26.91l-.09.06c-8.13,3.2-16.85,3.37-25.28,3.53-1.76.03-3.52.07-5.26.13-1.92.07-3.93.23-6.05.4-8.23.67-17.55,1.43-24.61-3.5l-.11-.12c-6.68-11.61-12.39-24.08-17.09-34.74-.99-2.24-2.09-4.57-3.26-7.02-4.02-8.47-8.58-18.06-9.66-27.43v-.08s0-.08,0-.08c2.49-18.29,11.32-42.03,26.24-70.55l.08-.11c1.36-1.3,2.71-2.61,4.05-3.94l.14-.08c1.93-.45,3.83-.86,5.71-1.27,17-3.67,31.68-6.84,39.54-32.04,3.96-16.47.71-32.95-2.44-48.89-.63-3.17-1.28-6.45-1.86-9.68-.74-4.12-1.51-8.25-2.28-12.38-2.94-15.77-5.97-32.09-7.54-48.4v-.09s0-.09,0-.09c.46-2.29.96-4.55,1.49-6.71l.07-.15c8.51-13.34,17.9-25.85,26.98-37.95,4.28-5.7,8.69-11.58,12.97-17.48h0c1.63-2.14,3.22-4.35,4.91-6.69,6.18-8.55,12.56-17.38,20.27-22.24l.08-.05ZM506.13,65.42c-9.69-7.03-20.83-11.05-31.6-14.94-3.31-1.2-6.74-2.43-10.02-3.73-3.34-1.31-6.81-2.79-10.16-4.21-11.14-4.74-22.67-9.64-33.99-10.8-7.56,4.8-13.88,13.55-20,22.01-1.69,2.34-3.29,4.54-4.92,6.69-4.28,5.9-8.7,11.79-12.97,17.49-9.06,12.07-18.42,24.54-26.9,37.82-.51,2.09-1,4.28-1.44,6.49,1.57,16.22,4.59,32.47,7.52,48.2.77,4.13,1.54,8.26,2.28,12.38.58,3.22,1.23,6.5,1.85,9.66,3.17,16.06,6.46,32.68,2.42,49.45-8.01,25.7-22.86,28.91-40.06,32.62-1.85.4-3.73.8-5.63,1.25-1.31,1.3-2.63,2.58-3.95,3.85-14.82,28.34-23.6,51.91-26.08,70.04,1.07,9.15,5.58,18.62,9.55,26.99,1.17,2.47,2.28,4.79,3.27,7.05,4.68,10.61,10.35,23.01,16.99,34.57,6.88,4.77,16.08,4.01,24.2,3.36,2.13-.17,4.14-.34,6.07-.41,1.74-.06,3.5-.1,5.26-.13,8.37-.16,17.02-.34,25.06-3.48,5.82-5.32,9.84-16.58,13.39-26.51,1.09-3.04,2.11-5.92,3.13-8.46,1.02-2.54,2.25-5.3,3.55-8.22,4.6-10.31,9.81-22,9.57-32.22-5.44-19.55-2.76-41.14,6.81-55.03,11.33-16.43,23.58-14.73,37.75-12.75,1.63.23,3.29.46,4.97.66,7.24-1.99,13.85-11.69,19.69-20.25,1.97-2.88,3.82-5.6,5.59-7.87,8.49-10.89,16.62-15.91,29.03-17.91,1.45.23,2.79.5,4.09.81l3.07.11c1.26.54,2.52,1.17,3.74,1.77.96.48,1.92.96,2.89,1.4,20.64,10.57,19.48,43.14,18.61,66.95.39,2.06.79,4.11,1.21,6.16,14.74,23.34,32,43.25,46.19,53.3,1.6-.04,3.19-.04,4.74-.02,18.9-6.49,36.98-15.45,52.28-25.93,1.18-1.48,2.34-2.99,3.45-4.51,7.47-23.71,9.45-56.54,10.76-78.3-.32-2.12-.66-4.25-1.02-6.36-11.7-20.37-30.63-42.43-46.09-53.73-1.56.03-3.14-.03-4.7-.09-6.3,2.36-12.75,5.63-19,8.8-12.16,6.17-24.74,12.56-37.45,13-1.95-.34-3.87-.85-5.72-1.34l-1.22-.32c-1.16-.51-2.32-.92-3.48-1.22l-.09-.04c-16.31-11.28-20.16-34.05-23.88-56.08-.44-2.6-.88-5.19-1.34-7.77-2.28-12.84-4.7-26.02-7.19-39.17-.55-2.92-1.05-5.96-1.58-9.17-1.88-11.45-3.82-23.29-8.54-31.9Z"/>
  <path class="st0" d="M419.37,28.02l.17.05c11.21,3.23,22.42,7.67,33.26,11.97,3.2,1.27,6.4,2.54,9.61,3.78,3.87,1.5,7.95,2.92,11.91,4.3,11.95,4.17,24.31,8.47,34.87,16.02l.13.1.04.2c3.22,17.4,6.64,35.08,9.95,52.17,2.93,15.14,5.96,30.79,8.84,46.2,2.84,15.17,5.51,29.5,15.55,39.04,8.88,8.43,19.45,10.02,31.41,4.69,6.24-2.78,12.49-5.99,18.53-9.1,7.52-3.87,15.3-7.87,23.13-11.07l.03-.03.11-.02c1.12-.11,2.24-.2,3.33-.26h.1s.08.06.08.06c17.87,14.64,34.75,37.74,49.64,58.11l.1.13v.19c.07,10.62-1.55,21.53-3.12,32.09-.53,3.59-1.08,7.29-1.55,10.87-.46,3.52-.89,7.07-1.32,10.62-1.33,11.02-2.72,22.42-4.95,33.24l-.06.16c-.71,1.2-1.48,2.37-2.29,3.46l-.1.09c-7.3,4.42-14.91,8.18-22.27,11.82-2.21,1.09-4.42,2.19-6.63,3.3-2.49,1.26-5.16,2.82-7.99,4.48-7.61,4.46-16.22,9.52-23.63,9.52h-.15s-.09,0-.09,0l-.08-.07c-19.01-15.92-37.51-40.41-49.68-58.15l-.09-.13v-.18c-.09-5.43.4-10.68.87-15.76.82-8.83,1.59-17.17-.45-26.22-3.03-13.43-9.34-20.44-17.27-28.18-15.02-5.95-26.01-4.08-35.62,6.07-5.41,5.71-10.33,12.59-15.09,19.24-4.09,5.72-8.32,11.62-12.85,16.79l-.13.15-.33-.13-2.62.5-.06-.02c-26.94-8.2-43.01,1.55-50.55,30.72-1.11,8.54-1.55,21.19,2.75,32.56l.04.18c.07,1.23.2,2.46.39,3.64l-.03,1.07c-7.9,27.66-20.91,55.95-30.01,74.83l-.07.14-.12.05c-7.46,2.77-16.06,2.63-24.39,2.48-3.06-.05-5.95-.1-8.74,0-2.49.08-5.09.27-7.61.44-7.25.51-14.74,1.04-21.74-.56l-.1-.03-.07-.1c-5.33-7.1-9.3-16.64-13.13-25.86-1.26-3.03-2.45-5.88-3.68-8.67-1.4-3.14-2.91-6.27-4.52-9.59-3.86-7.97-7.86-16.21-10.12-24.7-.61-1.05-1.13-2.21-1.54-3.43l-.04-.13.02-.14c.22-1.93.45-3.85.68-5.77l.03-.13c3.59-10.1,7.58-20.15,11.43-29.86,1.09-2.76,2.19-5.51,3.27-8.27,1.14-2.9,2.23-6.01,3.38-9.3,3.15-8.98,6.4-18.28,11.17-24.61l.07-.09.1-.03c3.91-1.12,7.95-1.35,11.86-1.56,5.7-.31,11.6-.64,17.03-3.8,7.9-4.59,14.01-13.06,18.67-25.89,3.69-17.06.6-32.72-2.68-49.3-.59-2.99-1.2-6.09-1.77-9.18-1.1-5.98-2.4-12.21-3.66-18.24-3.17-15.19-6.45-30.9-7.33-46.17v-.12s.03-.11.03-.11c2.92-8.51,9.44-16.34,15.19-23.25,2.18-2.62,4.24-5.1,6.03-7.5,8.94-12.02,16.43-22.03,23.57-31.52h0c1.24-1.67,2.48-3.35,3.72-5.03,5.27-7.14,10.72-14.52,16.4-21.27l.08-.07,2.43-1.55.32-.43ZM508.75,64.86c-10.47-7.44-22.73-11.71-34.6-15.85-3.96-1.38-8.05-2.81-11.92-4.31-3.2-1.24-6.41-2.51-9.61-3.78-10.77-4.27-21.91-8.69-33.04-11.91l-.2.23-2.44,1.56c-5.65,6.71-11.08,14.07-16.33,21.18-1.24,1.68-2.48,3.36-3.72,5.04h0c-7.14,9.48-14.63,19.5-23.57,31.52-1.8,2.42-3.87,4.9-6.06,7.53-5.68,6.82-12.11,14.54-14.99,22.84.89,15.14,4.15,30.76,7.3,45.87,1.26,6.03,2.56,12.27,3.66,18.27.57,3.09,1.18,6.18,1.77,9.16,3.3,16.71,6.42,32.5,2.65,49.88-4.75,13.11-10.97,21.72-19.03,26.4-5.55,3.22-11.5,3.55-17.27,3.87-3.85.21-7.84.43-11.66,1.52-4.65,6.22-7.86,15.39-10.96,24.25-1.16,3.3-2.25,6.43-3.4,9.34-1.09,2.76-2.18,5.52-3.27,8.27-3.84,9.68-7.82,19.69-11.4,29.76-.23,1.85-.45,3.7-.66,5.55.39,1.13.88,2.2,1.45,3.17l.05.13c2.24,8.42,6.22,16.63,10.07,24.58,1.61,3.32,3.13,6.46,4.54,9.62,1.24,2.8,2.43,5.66,3.69,8.69,3.8,9.12,7.72,18.56,12.94,25.56,6.9,1.56,14.31,1.03,21.49.53,2.52-.18,5.13-.36,7.63-.44,2.81-.09,5.7-.05,8.77,0,8.23.14,16.74.29,24.08-2.4,9.07-18.83,22-46.96,29.85-74.44v-.72c-.18-1.09-.31-2.33-.38-3.57-4.35-11.58-3.91-24.41-2.77-33.14,4.16-16.08,10.82-26.21,20.4-31.03,8.14-4.1,18.24-4.22,30.88-.38l2.64-.5.13.05c4.45-5.1,8.62-10.93,12.66-16.57,4.77-6.67,9.71-13.58,15.15-19.33,9.81-10.36,20.99-12.28,36.26-6.21l.1.07c8.06,7.86,14.47,14.97,17.57,28.7,2.08,9.24,1.3,17.68.47,26.61-.46,4.99-.94,10.15-.87,15.44,12.12,17.66,30.5,41.97,49.37,57.8h.06c7.27,0,15.82-5.02,23.37-9.45,2.84-1.67,5.51-3.24,8.02-4.5,2.21-1.11,4.42-2.21,6.64-3.3,7.33-3.62,14.92-7.37,22.18-11.76.76-1.03,1.48-2.12,2.15-3.25,2.22-10.74,3.59-22.08,4.92-33.04.43-3.56.86-7.11,1.32-10.63.47-3.59,1.02-7.3,1.55-10.9,1.55-10.44,3.16-21.24,3.11-31.71-14.82-20.28-31.6-43.22-49.33-57.78-1.03.05-2.09.14-3.15.24-7.83,3.19-15.62,7.2-23.14,11.07-6.05,3.11-12.31,6.33-18.56,9.12-12.17,5.42-22.94,3.8-32-4.81-10.25-9.74-12.95-24.23-15.82-39.57-2.88-15.41-5.91-31.06-8.83-46.19-3.3-17.04-6.7-34.65-9.91-51.98Z"/>
</svg>