<svg width="728" height="366" viewBox="0 0 728 366" fill="none" xmlns="http://www.w3.org/2000/svg">
<rect width="728" height="366" rx="24" fill="#F0F7FF"/>
<path d="M252.5 149.497L298.832 122.747L353.082 216.711C355.291 220.537 353.98 225.43 350.154 227.639L317.678 246.389C313.852 248.598 308.959 247.287 306.75 243.461L252.5 149.497Z" fill="#E0EDFE"/>
<path d="M275.5 135.999L298.883 122.499L353.133 216.463C355.342 220.289 354.031 225.182 350.204 227.391L333.75 236.891L275.5 135.999Z" fill="#3F96FC"/>
<path d="M258.254 101.247L297.004 122.747L252.758 148.747V104.497L255.758 101.247H258.254Z" fill="#FEDFC1"/>
<path d="M258.254 101.248L272.258 108.248L252.758 120.748V104.498L255.758 101.248H258.254Z" fill="#37383F"/>
<path fill-rule="evenodd" clip-rule="evenodd" d="M255.356 104.403C255.178 104.702 255.018 105.171 254.837 106.221C254.789 106.495 254.766 106.791 254.766 107.108C254.758 113.103 254.674 121.152 254.673 121.255L254.433 147.327C254.423 148.399 254.7 149.454 255.236 150.382L308.23 242.169C309.887 245.039 313.556 246.022 316.426 244.366L348.469 225.866C351.339 224.209 352.322 220.539 350.665 217.669L297.671 125.882C297.135 124.954 296.361 124.186 295.427 123.658L272.802 110.873C272.763 110.851 272.729 110.832 272.692 110.812C271.901 110.387 264.737 106.535 260.184 103.966C259.922 103.818 259.657 103.692 259.389 103.59C258.312 103.177 257.897 103.066 257.6 103.057C257.428 103.051 257.155 103.071 256.447 103.48C255.744 103.886 255.501 104.161 255.356 104.403ZM251.922 102.352C252.535 101.325 253.394 100.624 254.447 100.016C255.503 99.4061 256.53 99.0196 257.73 99.0587C258.807 99.0937 259.84 99.479 260.82 99.8545C261.285 100.033 261.729 100.245 262.15 100.482C266.66 103.027 273.787 106.86 274.585 107.288C274.649 107.323 274.708 107.355 274.77 107.391L297.395 120.176C298.951 121.055 300.242 122.335 301.136 123.882L354.129 215.669C356.89 220.452 355.252 226.568 350.469 229.33L318.426 247.83C313.643 250.591 307.527 248.952 304.766 244.169L251.772 152.382C250.879 150.835 250.416 149.076 250.433 147.29L250.673 121.219L250.674 121.213C250.675 121.109 250.758 113.077 250.766 107.103C250.766 106.6 250.803 106.073 250.895 105.538C251.09 104.411 251.343 103.321 251.922 102.352Z" fill="#05060F"/>
<path fill-rule="evenodd" clip-rule="evenodd" d="M297.801 125.23L254.5 150.23L252.5 146.766L295.801 121.766L297.801 125.23Z" fill="#05060F"/>
<path fill-rule="evenodd" clip-rule="evenodd" d="M330.764 235.127L274.023 136.85L277.488 134.85L334.228 233.127L330.764 235.127Z" fill="#05060F"/>
<path d="M329 78.5C329 74.0817 332.582 70.5 337 70.5H380.5C384.918 70.5 388.5 74.0817 388.5 78.5V216C388.5 220.418 384.918 224 380.5 224H337C332.582 224 329 220.418 329 216V78.5Z" fill="#F95959"/>
<path fill-rule="evenodd" clip-rule="evenodd" d="M327 78.5C327 72.9772 331.477 68.5 337 68.5H380.5C386.023 68.5 390.5 72.9772 390.5 78.5V216C390.5 221.523 386.023 226 380.5 226H337C331.477 226 327 221.523 327 216V78.5ZM337 72.5C333.686 72.5 331 75.1863 331 78.5V216C331 219.314 333.686 222 337 222H380.5C383.814 222 386.5 219.314 386.5 216V78.5C386.5 75.1863 383.814 72.5 380.5 72.5H337Z" fill="#05060F"/>
<path fill-rule="evenodd" clip-rule="evenodd" d="M360.5 88C360.5 89.1046 359.605 90 358.5 90H329C327.895 90 327 89.1046 327 88C327 86.8954 327.895 86 329 86H358.5C359.605 86 360.5 86.8954 360.5 88Z" fill="#05060F"/>
<path fill-rule="evenodd" clip-rule="evenodd" d="M360.5 127.5C360.5 128.605 359.605 129.5 358.5 129.5H329C327.895 129.5 327 128.605 327 127.5C327 126.395 327.895 125.5 329 125.5H358.5C359.605 125.5 360.5 126.395 360.5 127.5Z" fill="#05060F"/>
<path fill-rule="evenodd" clip-rule="evenodd" d="M360.5 167.5C360.5 168.605 359.605 169.5 358.5 169.5H329C327.895 169.5 327 168.605 327 167.5C327 166.395 327.895 165.5 329 165.5H358.5C359.605 165.5 360.5 166.395 360.5 167.5Z" fill="#05060F"/>
<path fill-rule="evenodd" clip-rule="evenodd" d="M360.5 207C360.5 208.105 359.605 209 358.5 209H329C327.895 209 327 208.105 327 207C327 205.895 327.895 205 329 205H358.5C359.605 205 360.5 205.895 360.5 207Z" fill="#05060F"/>
<path fill-rule="evenodd" clip-rule="evenodd" d="M345 108C345 109.105 344.105 110 343 110H329C327.895 110 327 109.105 327 108C327 106.895 327.895 106 329 106H343C344.105 106 345 106.895 345 108Z" fill="#05060F"/>
<path fill-rule="evenodd" clip-rule="evenodd" d="M345 147.5C345 148.605 344.105 149.5 343 149.5H329C327.895 149.5 327 148.605 327 147.5C327 146.395 327.895 145.5 329 145.5H343C344.105 145.5 345 146.395 345 147.5Z" fill="#05060F"/>
<path fill-rule="evenodd" clip-rule="evenodd" d="M345 187C345 188.105 344.105 189 343 189H329C327.895 189 327 188.105 327 187C327 185.895 327.895 185 329 185H343C344.105 185 345 185.895 345 187Z" fill="#05060F"/>
<path fill-rule="evenodd" clip-rule="evenodd" d="M429.194 119.01C412.075 114.423 390.96 123.362 385.566 143.494C382.262 155.825 387.578 166.776 392.071 173.342C394.84 177.389 396.37 182.655 395.579 185.607L394.625 189.203C394.306 190.406 395.018 191.639 396.216 191.96L421.656 198.777C422.854 199.098 424.087 198.386 424.412 197.185L425.385 193.593C426.176 190.641 430.389 186.906 434.821 184.746C441.935 181.28 451.813 174.444 455.112 162.129C460.774 141 446.125 123.547 429.194 119.01Z" fill="#F8DB46"/>
<path fill-rule="evenodd" clip-rule="evenodd" d="M391.713 184.581L391.716 184.571C391.837 184.118 391.862 182.891 391.316 180.989C390.803 179.203 389.91 177.266 388.77 175.601C384.038 168.684 377.946 156.478 381.702 142.458C387.758 119.858 411.327 110.081 430.229 115.146C448.794 120.12 465.335 139.433 458.976 163.164C455.233 177.135 444.095 184.677 436.574 188.342L434.822 184.746C441.936 181.28 451.813 174.444 455.113 162.129C460.774 141 446.125 123.546 429.194 119.01C412.075 114.422 390.961 123.361 385.566 143.494C382.262 155.825 387.579 166.776 392.071 173.342C394.84 177.388 396.37 182.654 395.579 185.606L394.625 189.203C394.306 190.406 395.018 191.639 396.216 191.96L421.656 198.777C422.854 199.098 424.087 198.386 424.412 197.185L425.385 193.593C426.176 190.641 430.389 186.905 434.822 184.746L436.574 188.342C434.695 189.257 432.859 190.513 431.449 191.813C429.927 193.216 429.349 194.254 429.249 194.628L429.246 194.638L428.273 198.23C427.375 201.548 423.961 203.535 420.621 202.64L395.181 195.824C391.841 194.929 389.878 191.5 390.759 188.178L391.713 184.581Z" fill="#05060F"/>
<path d="M392.535 203.912C391.811 203.718 391.069 204.139 390.877 204.852L390.302 206.979C389.013 211.752 391.895 216.682 396.739 217.98L409.172 221.311C414.016 222.609 418.977 219.781 420.246 215.002L420.812 212.873C421.002 212.159 420.57 211.424 419.846 211.23L392.535 203.912Z" fill="#3F96FC"/>
<path fill-rule="evenodd" clip-rule="evenodd" d="M387.015 203.809C387.796 200.914 390.768 199.297 393.57 200.048L420.882 207.366C423.685 208.117 425.449 211.003 424.678 213.901L424.113 216.029C424.112 216.029 424.112 216.029 424.112 216.03C422.262 222.995 415.068 227.032 408.137 225.174L395.704 221.843C388.773 219.986 384.561 212.894 386.441 205.936C386.441 205.936 386.441 205.936 386.441 205.936C386.441 205.936 386.441 205.935 386.441 205.935L387.015 203.809ZM390.303 206.979C389.013 211.751 391.895 216.681 396.739 217.979L409.172 221.311C414.016 222.609 418.978 219.78 420.246 215.002L420.813 212.873C421.003 212.159 420.57 211.424 419.846 211.23L392.535 203.912C391.811 203.718 391.069 204.138 390.877 204.852L390.303 206.979Z" fill="#05060F"/>
<path fill-rule="evenodd" clip-rule="evenodd" d="M419.69 168.744L412.446 166.803L405.069 194.332L412.314 196.273L419.69 168.744ZM409.617 161.904L400.17 197.161L415.142 201.172L424.589 165.916L409.617 161.904Z" fill="#05060F"/>
<path fill-rule="evenodd" clip-rule="evenodd" d="M423.848 166.753L427.47 167.723C429.471 168.259 431.527 167.072 432.063 165.072C432.599 163.071 431.412 161.015 429.412 160.479C427.411 159.943 425.355 161.13 424.819 163.131L423.848 166.753ZM430.447 156.615C426.313 155.507 422.063 157.961 420.955 162.095L418.949 169.581L426.435 171.587C430.57 172.695 434.819 170.241 435.927 166.107C437.035 161.973 434.581 157.723 430.447 156.615Z" fill="#05060F"/>
<path fill-rule="evenodd" clip-rule="evenodd" d="M409.84 162.999L406.217 162.028C404.217 161.492 403.03 159.436 403.566 157.435C404.102 155.435 406.158 154.248 408.158 154.784C410.159 155.32 411.346 157.376 410.81 159.376L409.84 162.999ZM409.194 150.92C413.328 152.028 415.782 156.277 414.674 160.412L412.668 167.898L405.182 165.892C401.048 164.784 398.594 160.534 399.702 156.4C400.81 152.266 405.059 149.812 409.194 150.92Z" fill="#05060F"/>
<path fill-rule="evenodd" clip-rule="evenodd" d="M447.739 88.5529C448.728 89.0451 449.13 90.2454 448.637 91.2341L443.438 101.667C442.946 102.656 441.744 103.058 440.756 102.566C439.767 102.074 439.364 100.874 439.857 99.885L445.056 89.4519C445.549 88.4633 446.75 88.0608 447.739 88.5529ZM479.395 115.199C479.758 116.242 479.205 117.381 478.162 117.744L465.64 122.092C464.596 122.454 463.457 121.902 463.094 120.859C462.732 119.816 463.285 118.677 464.328 118.314L476.85 113.966C477.893 113.604 479.033 114.156 479.395 115.199ZM407.541 83.842C408.592 83.5023 409.719 84.0788 410.059 85.1296L413.662 96.2809C414.001 97.3317 413.424 98.4589 412.373 98.7986C411.321 99.1383 410.194 98.5618 409.854 97.511L406.252 86.3597C405.912 85.3089 406.489 84.1817 407.541 83.842Z" fill="#05060F"/>
<path d="M252.5 295C246.977 295 242.5 290.523 242.5 285L242.5 265C242.5 259.477 246.977 255 252.5 255L462.5 255C468.023 255 472.5 259.477 472.5 265L472.5 285C472.5 290.523 468.023 295 462.5 295L252.5 295Z" fill="#F8DB46"/>
<path fill-rule="evenodd" clip-rule="evenodd" d="M246.5 265L246.5 285C246.5 288.314 249.186 291 252.5 291L462.5 291C465.814 291 468.5 288.314 468.5 285L468.5 265C468.5 261.686 465.814 259 462.5 259L252.5 259C249.186 259 246.5 261.686 246.5 265ZM242.5 285C242.5 290.523 246.977 295 252.5 295L462.5 295C468.023 295 472.5 290.523 472.5 285L472.5 265C472.5 259.477 468.023 255 462.5 255L252.5 255C246.977 255 242.5 259.477 242.5 265L242.5 285Z" fill="#05060F"/>
<path d="M252.5 259.5C246.977 259.5 242.5 255.023 242.5 249.5L242.5 230C242.5 224.477 246.977 220 252.5 220L462.5 220C468.023 220 472.5 224.477 472.5 230L472.5 249.5C472.5 255.023 468.023 259.5 462.5 259.5L252.5 259.5Z" fill="#F5C418"/>
<path fill-rule="evenodd" clip-rule="evenodd" d="M246.5 230L246.5 249.5C246.5 252.814 249.186 255.5 252.5 255.5L462.5 255.5C465.814 255.5 468.5 252.814 468.5 249.5L468.5 230C468.5 226.686 465.814 224 462.5 224L252.5 224C249.186 224 246.5 226.686 246.5 230ZM242.5 249.5C242.5 255.023 246.977 259.5 252.5 259.5L462.5 259.5C468.023 259.5 472.5 255.023 472.5 249.5L472.5 230C472.5 224.477 468.023 220 462.5 220L252.5 220C246.977 220 242.5 224.477 242.5 230L242.5 249.5Z" fill="#05060F"/>
<path d="M252.5 224.5C246.977 224.5 242.5 220.023 242.5 214.5L242.5 195C242.5 189.477 246.977 185 252.5 185L462.5 185C468.023 185 472.5 189.477 472.5 195L472.5 214.5C472.5 220.023 468.023 224.5 462.5 224.5L252.5 224.5Z" fill="#F8DB46"/>
<path fill-rule="evenodd" clip-rule="evenodd" d="M246.5 195L246.5 214.5C246.5 217.814 249.186 220.5 252.5 220.5L462.5 220.5C465.814 220.5 468.5 217.814 468.5 214.5L468.5 195C468.5 191.686 465.814 189 462.5 189L252.5 189C249.186 189 246.5 191.686 246.5 195ZM242.5 214.5C242.5 220.023 246.977 224.5 252.5 224.5L462.5 224.5C468.023 224.5 472.5 220.023 472.5 214.5L472.5 195C472.5 189.477 468.023 185 462.5 185L252.5 185C246.977 185 242.5 189.477 242.5 195L242.5 214.5Z" fill="#05060F"/>
<path d="M409.5 261.5C409.5 267.023 405.023 271.5 399.5 271.5L315.5 271.5C309.977 271.5 305.5 267.023 305.5 261.5L305.5 215C305.5 209.477 309.977 205 315.5 205L399.5 205C405.023 205 409.5 209.477 409.5 215L409.5 261.5Z" fill="white"/>
<path fill-rule="evenodd" clip-rule="evenodd" d="M315.5 267.5L399.5 267.5C402.814 267.5 405.5 264.814 405.5 261.5L405.5 215C405.5 211.686 402.814 209 399.5 209L315.5 209C312.186 209 309.5 211.686 309.5 215L309.5 261.5C309.5 264.814 312.186 267.5 315.5 267.5ZM399.5 271.5C405.023 271.5 409.5 267.023 409.5 261.5L409.5 215C409.5 209.477 405.023 205 399.5 205L315.5 205C309.977 205 305.5 209.477 305.5 215L305.5 261.5C305.5 267.023 309.977 271.5 315.5 271.5L399.5 271.5Z" fill="#05060F"/>
<path d="M350.043 227.182H355.306V241.255C355.306 242.881 354.919 244.298 354.145 245.506C353.371 246.706 352.291 247.636 350.906 248.297C349.521 248.95 347.913 249.277 346.08 249.277C344.227 249.277 342.607 248.95 341.222 248.297C339.837 247.636 338.761 246.706 337.994 245.506C337.227 244.298 336.844 242.881 336.844 241.255V227.182H342.117V240.797C342.117 241.55 342.281 242.221 342.607 242.81C342.941 243.4 343.406 243.861 344.003 244.195C344.599 244.529 345.292 244.696 346.08 244.696C346.869 244.696 347.558 244.529 348.147 244.195C348.744 243.861 349.209 243.4 349.543 242.81C349.876 242.221 350.043 241.55 350.043 240.797V227.182Z" fill="black"/>
<path d="M365.149 227.182L369.133 234.074H369.304L373.331 227.182H379.232L372.649 238.091L379.446 249H373.394L369.304 242.032H369.133L365.042 249H359.034L365.799 238.091L359.204 227.182H365.149Z" fill="black"/>
<path fill-rule="evenodd" clip-rule="evenodd" d="M272.01 204.511C272.01 205.615 271.115 206.511 270.01 206.511L257.99 206.511C256.885 206.511 255.99 205.615 255.99 204.511C255.99 203.406 256.885 202.511 257.99 202.511L270.01 202.511C271.115 202.511 272.01 203.406 272.01 204.511Z" fill="#05060F"/>
<path fill-rule="evenodd" clip-rule="evenodd" d="M459.01 204.511C459.01 205.615 458.115 206.511 457.01 206.511L444.99 206.511C443.885 206.511 442.99 205.615 442.99 204.511C442.99 203.406 443.885 202.511 444.99 202.511L457.01 202.511C458.115 202.511 459.01 203.406 459.01 204.511Z" fill="#05060F"/>
<path fill-rule="evenodd" clip-rule="evenodd" d="M272.01 239.511C272.01 240.615 271.115 241.511 270.01 241.511L257.99 241.511C256.885 241.511 255.99 240.615 255.99 239.511C255.99 238.406 256.885 237.511 257.99 237.511L270.01 237.511C271.115 237.511 272.01 238.406 272.01 239.511Z" fill="#05060F"/>
<path fill-rule="evenodd" clip-rule="evenodd" d="M459.01 239.511C459.01 240.615 458.115 241.511 457.01 241.511L444.99 241.511C443.885 241.511 442.99 240.615 442.99 239.511C442.99 238.406 443.885 237.511 444.99 237.511L457.01 237.511C458.115 237.511 459.01 238.406 459.01 239.511Z" fill="#05060F"/>
<path fill-rule="evenodd" clip-rule="evenodd" d="M272.01 275.011C272.01 276.115 271.115 277.011 270.01 277.011L257.99 277.011C256.885 277.011 255.99 276.115 255.99 275.011C255.99 273.906 256.885 273.011 257.99 273.011L270.01 273.011C271.115 273.011 272.01 273.906 272.01 275.011Z" fill="#05060F"/>
<path fill-rule="evenodd" clip-rule="evenodd" d="M459.01 275.011C459.01 276.115 458.115 277.011 457.01 277.011L444.99 277.011C443.885 277.011 442.99 276.115 442.99 275.011C442.99 273.906 443.885 273.011 444.99 273.011L457.01 273.011C458.115 273.011 459.01 273.906 459.01 275.011Z" fill="#05060F"/>
</svg>
